<?xml version="1.0" encoding="UTF-8" standalone="no"?>
<!DOCTYPE svg PUBLIC "-//W3C//DTD SVG 1.1//EN"
 "http://www.w3.org/Graphics/SVG/1.1/DTD/svg11.dtd">
<!-- Generated by graphviz version 2.36.0 (20140111.2315)
 -->
<!-- Title: otus::ModelInterface Pages: 1 -->
<svg width="118pt" height="476pt"
 viewBox="0.00 0.00 118.00 476.00" xmlns="http://www.w3.org/2000/svg" xmlns:xlink="http://www.w3.org/1999/xlink">
<g id="graph0" class="graph" transform="scale(1 1) rotate(0) translate(4 472)">
<title>otus::ModelInterface</title>
<!-- Node1 -->
<g id="node1" class="node"><title>Node1</title>
<polygon fill="#bfbfbf" stroke="black" points="-0.5,-195 -0.5,-351 110.5,-351 110.5,-195 -0.5,-195"/>
<text text-anchor="middle" x="55" y="-339" font-family="Helvetica,sans-Serif" font-size="10.00">otus::ModelInterface</text>
<polyline fill="none" stroke="black" points="-0.5,-332 110.5,-332 "/>
<text text-anchor="middle" x="55" y="-320" font-family="Helvetica,sans-Serif" font-size="10.00"> </text>
<polyline fill="none" stroke="black" points="-0.5,-313 110.5,-313 "/>
<text text-anchor="start" x="7.5" y="-301" font-family="Helvetica,sans-Serif" font-size="10.00">+ get_current_color()</text>
<text text-anchor="start" x="7.5" y="-290" font-family="Helvetica,sans-Serif" font-size="10.00">+ choose_color()</text>
<text text-anchor="start" x="7.5" y="-279" font-family="Helvetica,sans-Serif" font-size="10.00">+ get_current_tool()</text>
<text text-anchor="start" x="7.5" y="-268" font-family="Helvetica,sans-Serif" font-size="10.00">+ choose_tool()</text>
<text text-anchor="start" x="7.5" y="-257" font-family="Helvetica,sans-Serif" font-size="10.00">+ add_element()</text>
<text text-anchor="start" x="7.5" y="-246" font-family="Helvetica,sans-Serif" font-size="10.00">+ delete_element_at()</text>
<text text-anchor="start" x="7.5" y="-235" font-family="Helvetica,sans-Serif" font-size="10.00">+ open()</text>
<text text-anchor="start" x="7.5" y="-224" font-family="Helvetica,sans-Serif" font-size="10.00">+ clear()</text>
<text text-anchor="start" x="7.5" y="-213" font-family="Helvetica,sans-Serif" font-size="10.00">+ save()</text>
<text text-anchor="start" x="7.5" y="-202" font-family="Helvetica,sans-Serif" font-size="10.00">+ get_elements()</text>
</g>
<!-- Node3 -->
<g id="node3" class="node"><title>Node3</title>
<g id="a_node3"><a xlink:href="classotus_1_1StandardModel.html" target="_top" xlink:title="{otus::StandardModel\n||+ choose_tool()\l+ choose_color()\l+ add_element()\l+ delete_element_at()\l+ open()\l+ clear()\l+ save()\l+ get_elements()\l+ get_current_tool()\l+ get_current_color()\l}">
<polygon fill="none" stroke="black" points="-0.5,-1 -0.5,-157 110.5,-157 110.5,-1 -0.5,-1"/>
<text text-anchor="middle" x="55" y="-145" font-family="Helvetica,sans-Serif" font-size="10.00">otus::StandardModel</text>
<polyline fill="none" stroke="black" points="-0.5,-138 110.5,-138 "/>
<text text-anchor="middle" x="55" y="-126" font-family="Helvetica,sans-Serif" font-size="10.00"> </text>
<polyline fill="none" stroke="black" points="-0.5,-119 110.5,-119 "/>
<text text-anchor="start" x="7.5" y="-107" font-family="Helvetica,sans-Serif" font-size="10.00">+ choose_tool()</text>
<text text-anchor="start" x="7.5" y="-96" font-family="Helvetica,sans-Serif" font-size="10.00">+ choose_color()</text>
<text text-anchor="start" x="7.5" y="-85" font-family="Helvetica,sans-Serif" font-size="10.00">+ add_element()</text>
<text text-anchor="start" x="7.5" y="-74" font-family="Helvetica,sans-Serif" font-size="10.00">+ delete_element_at()</text>
<text text-anchor="start" x="7.5" y="-63" font-family="Helvetica,sans-Serif" font-size="10.00">+ open()</text>
<text text-anchor="start" x="7.5" y="-52" font-family="Helvetica,sans-Serif" font-size="10.00">+ clear()</text>
<text text-anchor="start" x="7.5" y="-41" font-family="Helvetica,sans-Serif" font-size="10.00">+ save()</text>
<text text-anchor="start" x="7.5" y="-30" font-family="Helvetica,sans-Serif" font-size="10.00">+ get_elements()</text>
<text text-anchor="start" x="7.5" y="-19" font-family="Helvetica,sans-Serif" font-size="10.00">+ get_current_tool()</text>
<text text-anchor="start" x="7.5" y="-8" font-family="Helvetica,sans-Serif" font-size="10.00">+ get_current_color()</text>
</a>
</g>
</g>
<!-- Node1&#45;&gt;Node3 -->
<g id="edge2" class="edge"><title>Node1&#45;&gt;Node3</title>
<path fill="none" stroke="midnightblue" d="M55,-184.485C55,-175.35 55,-166.112 55,-157.106"/>
<polygon fill="none" stroke="midnightblue" points="51.5001,-184.736 55,-194.736 58.5001,-184.736 51.5001,-184.736"/>
</g>
<!-- Node2 -->
<g id="node2" class="node"><title>Node2</title>
<g id="a_node2"><a xlink:href="classotus_1_1BaseListenable.html" target="_top" xlink:title="{Listenable\n||+ add_listener()\l+ notify_update()\l+ ~BaseListenable()\l}">
<polygon fill="none" stroke="black" points="3,-388.5 3,-467.5 107,-467.5 107,-388.5 3,-388.5"/>
<text text-anchor="middle" x="55" y="-455.5" font-family="Helvetica,sans-Serif" font-size="10.00">Listenable</text>
<polyline fill="none" stroke="black" points="3,-448.5 107,-448.5 "/>
<text text-anchor="middle" x="55" y="-436.5" font-family="Helvetica,sans-Serif" font-size="10.00"> </text>
<polyline fill="none" stroke="black" points="3,-429.5 107,-429.5 "/>
<text text-anchor="start" x="11" y="-417.5" font-family="Helvetica,sans-Serif" font-size="10.00">+ add_listener()</text>
<text text-anchor="start" x="11" y="-406.5" font-family="Helvetica,sans-Serif" font-size="10.00">+ notify_update()</text>
<text text-anchor="start" x="11" y="-395.5" font-family="Helvetica,sans-Serif" font-size="10.00">+ ~BaseListenable()</text>
</a>
</g>
</g>
<!-- Node2&#45;&gt;Node1 -->
<g id="edge1" class="edge"><title>Node2&#45;&gt;Node1</title>
<path fill="none" stroke="midnightblue" d="M55,-378.147C55,-369.497 55,-360.302 55,-351.095"/>
<polygon fill="none" stroke="midnightblue" points="51.5001,-378.392 55,-388.392 58.5001,-378.392 51.5001,-378.392"/>
</g>
</g>
</svg>
