<?xml version="1.0" encoding="UTF-8" standalone="no"?>
<!DOCTYPE svg PUBLIC "-//W3C//DTD SVG 1.1//EN"
 "http://www.w3.org/Graphics/SVG/1.1/DTD/svg11.dtd">
<!-- Generated by graphviz version 2.36.0 (20140111.2315)
 -->
<!-- Title: otus::OnClickListener Pages: 1 -->
<svg width="130pt" height="400pt"
 viewBox="0.00 0.00 130.00 400.00" xmlns="http://www.w3.org/2000/svg" xmlns:xlink="http://www.w3.org/1999/xlink">
<g id="graph0" class="graph" transform="scale(1 1) rotate(0) translate(4 396)">
<title>otus::OnClickListener</title>
<!-- Node1 -->
<g id="node1" class="node"><title>Node1</title>
<polygon fill="#bfbfbf" stroke="black" points="5.5,-323 5.5,-391 116.5,-391 116.5,-323 5.5,-323"/>
<text text-anchor="middle" x="61" y="-379" font-family="Helvetica,sans-Serif" font-size="10.00">otus::OnClickListener</text>
<polyline fill="none" stroke="black" points="5.5,-372 116.5,-372 "/>
<text text-anchor="middle" x="61" y="-360" font-family="Helvetica,sans-Serif" font-size="10.00"> </text>
<polyline fill="none" stroke="black" points="5.5,-353 116.5,-353 "/>
<text text-anchor="start" x="13.5" y="-341" font-family="Helvetica,sans-Serif" font-size="10.00">+ on_click()</text>
<text text-anchor="start" x="13.5" y="-330" font-family="Helvetica,sans-Serif" font-size="10.00">+ ~OnClickListener()</text>
</g>
<!-- Node2 -->
<g id="node2" class="node"><title>Node2</title>
<g id="a_node2"><a xlink:href="classotus_1_1ControllerInterface.html" target="_top" xlink:title="{otus::ControllerInterface\n||+ open_file()\l+ save_file()\l+ clear()\l+ choose_tool()\l+ choose_color()\l+ ~ControllerInterface()\l}">
<polygon fill="none" stroke="black" points="0,-173 0,-285 122,-285 122,-173 0,-173"/>
<text text-anchor="middle" x="61" y="-273" font-family="Helvetica,sans-Serif" font-size="10.00">otus::ControllerInterface</text>
<polyline fill="none" stroke="black" points="0,-266 122,-266 "/>
<text text-anchor="middle" x="61" y="-254" font-family="Helvetica,sans-Serif" font-size="10.00"> </text>
<polyline fill="none" stroke="black" points="0,-247 122,-247 "/>
<text text-anchor="start" x="8" y="-235" font-family="Helvetica,sans-Serif" font-size="10.00">+ open_file()</text>
<text text-anchor="start" x="8" y="-224" font-family="Helvetica,sans-Serif" font-size="10.00">+ save_file()</text>
<text text-anchor="start" x="8" y="-213" font-family="Helvetica,sans-Serif" font-size="10.00">+ clear()</text>
<text text-anchor="start" x="8" y="-202" font-family="Helvetica,sans-Serif" font-size="10.00">+ choose_tool()</text>
<text text-anchor="start" x="8" y="-191" font-family="Helvetica,sans-Serif" font-size="10.00">+ choose_color()</text>
<text text-anchor="start" x="8" y="-180" font-family="Helvetica,sans-Serif" font-size="10.00">+ ~ControllerInterface()</text>
</a>
</g>
</g>
<!-- Node1&#45;&gt;Node2 -->
<g id="edge1" class="edge"><title>Node1&#45;&gt;Node2</title>
<path fill="none" stroke="midnightblue" d="M61,-312.811C61,-303.952 61,-294.511 61,-285.294"/>
<polygon fill="none" stroke="midnightblue" points="57.5001,-312.895 61,-322.895 64.5001,-312.895 57.5001,-312.895"/>
</g>
<!-- Node3 -->
<g id="node3" class="node"><title>Node3</title>
<g id="a_node3"><a xlink:href="classotus_1_1StandardController.html" target="_top" xlink:title="{otus::StandardController\n||+ StandardController()\l+ open_file()\l+ save_file()\l+ clear()\l+ choose_tool()\l+ choose_color()\l+ on_click()\l+ on_click()\l}">
<polygon fill="none" stroke="black" points="0,-1 0,-135 122,-135 122,-1 0,-1"/>
<text text-anchor="middle" x="61" y="-123" font-family="Helvetica,sans-Serif" font-size="10.00">otus::StandardController</text>
<polyline fill="none" stroke="black" points="0,-116 122,-116 "/>
<text text-anchor="middle" x="61" y="-104" font-family="Helvetica,sans-Serif" font-size="10.00"> </text>
<polyline fill="none" stroke="black" points="0,-97 122,-97 "/>
<text text-anchor="start" x="8" y="-85" font-family="Helvetica,sans-Serif" font-size="10.00">+ StandardController()</text>
<text text-anchor="start" x="8" y="-74" font-family="Helvetica,sans-Serif" font-size="10.00">+ open_file()</text>
<text text-anchor="start" x="8" y="-63" font-family="Helvetica,sans-Serif" font-size="10.00">+ save_file()</text>
<text text-anchor="start" x="8" y="-52" font-family="Helvetica,sans-Serif" font-size="10.00">+ clear()</text>
<text text-anchor="start" x="8" y="-41" font-family="Helvetica,sans-Serif" font-size="10.00">+ choose_tool()</text>
<text text-anchor="start" x="8" y="-30" font-family="Helvetica,sans-Serif" font-size="10.00">+ choose_color()</text>
<text text-anchor="start" x="8" y="-19" font-family="Helvetica,sans-Serif" font-size="10.00">+ on_click()</text>
<text text-anchor="start" x="8" y="-8" font-family="Helvetica,sans-Serif" font-size="10.00">+ on_click()</text>
</a>
</g>
</g>
<!-- Node2&#45;&gt;Node3 -->
<g id="edge2" class="edge"><title>Node2&#45;&gt;Node3</title>
<path fill="none" stroke="midnightblue" d="M61,-162.666C61,-153.539 61,-144.153 61,-135.013"/>
<polygon fill="none" stroke="midnightblue" points="57.5001,-162.836 61,-172.836 64.5001,-162.836 57.5001,-162.836"/>
</g>
</g>
</svg>
