<?xml version="1.0" encoding="UTF-8" standalone="no"?>
<!DOCTYPE svg PUBLIC "-//W3C//DTD SVG 1.1//EN"
 "http://www.w3.org/Graphics/SVG/1.1/DTD/svg11.dtd">
<!-- Generated by graphviz version 2.38.0 (20140413.2041)
 -->
<!-- Title: otus::StandardView Pages: 1 -->
<svg width="118pt" height="182pt"
 viewBox="0.00 0.00 118.00 182.00" xmlns="http://www.w3.org/2000/svg" xmlns:xlink="http://www.w3.org/1999/xlink">
<g id="graph0" class="graph" transform="scale(1 1) rotate(0) translate(4 178)">
<title>otus::StandardView</title>
<!-- Node1 -->
<g id="node1" class="node"><title>Node1</title>
<polygon fill="#bfbfbf" stroke="black" points="0,-0.5 0,-68.5 110,-68.5 110,-0.5 0,-0.5"/>
<text text-anchor="middle" x="55" y="-56.5" font-family="Helvetica,sans-Serif" font-size="10.00">otus::StandardView</text>
<polyline fill="none" stroke="black" points="0,-49.5 110,-49.5 "/>
<text text-anchor="middle" x="55" y="-37.5" font-family="Helvetica,sans-Serif" font-size="10.00"> </text>
<polyline fill="none" stroke="black" points="0,-30.5 110,-30.5 "/>
<text text-anchor="start" x="8" y="-18.5" font-family="Helvetica,sans-Serif" font-size="10.00">+ StandardView()</text>
<text text-anchor="start" x="8" y="-7.5" font-family="Helvetica,sans-Serif" font-size="10.00">+ redraw()</text>
</g>
<!-- Node2 -->
<g id="node2" class="node"><title>Node2</title>
<g id="a_node2"><a xlink:href="classotus_1_1ViewInterface.html" target="_top" xlink:title="{otus::ViewInterface\n||+ redraw()\l+ ~ViewInterface()\l}">
<polygon fill="none" stroke="black" points="1.5,-105.5 1.5,-173.5 108.5,-173.5 108.5,-105.5 1.5,-105.5"/>
<text text-anchor="middle" x="55" y="-161.5" font-family="Helvetica,sans-Serif" font-size="10.00">otus::ViewInterface</text>
<polyline fill="none" stroke="black" points="1.5,-154.5 108.5,-154.5 "/>
<text text-anchor="middle" x="55" y="-142.5" font-family="Helvetica,sans-Serif" font-size="10.00"> </text>
<polyline fill="none" stroke="black" points="1.5,-135.5 108.5,-135.5 "/>
<text text-anchor="start" x="9.5" y="-123.5" font-family="Helvetica,sans-Serif" font-size="10.00">+ redraw()</text>
<text text-anchor="start" x="9.5" y="-112.5" font-family="Helvetica,sans-Serif" font-size="10.00">+ ~ViewInterface()</text>
</a>
</g>
</g>
<!-- Node2&#45;&gt;Node1 -->
<g id="edge1" class="edge"><title>Node2&#45;&gt;Node1</title>
<path fill="none" stroke="midnightblue" d="M55,-95.1362C55,-86.256 55,-77.0447 55,-68.5947"/>
<polygon fill="none" stroke="midnightblue" points="51.5001,-95.3432 55,-105.343 58.5001,-95.3432 51.5001,-95.3432"/>
</g>
</g>
</svg>
