<?xml version="1.0" encoding="UTF-8" standalone="no"?>
<!DOCTYPE svg PUBLIC "-//W3C//DTD SVG 1.1//EN"
 "http://www.w3.org/Graphics/SVG/1.1/DTD/svg11.dtd">
<!-- Generated by graphviz version 2.36.0 (20140111.2315)
 -->
<!-- Title: otus::ViewInterface Pages: 1 -->
<svg width="108pt" height="184pt"
 viewBox="0.00 0.00 108.00 184.00" xmlns="http://www.w3.org/2000/svg" xmlns:xlink="http://www.w3.org/1999/xlink">
<g id="graph0" class="graph" transform="scale(1 1) rotate(0) translate(4 180)">
<title>otus::ViewInterface</title>
<!-- Node1 -->
<g id="node1" class="node"><title>Node1</title>
<polygon fill="#bfbfbf" stroke="black" points="-0.5,-1 -0.5,-69 100.5,-69 100.5,-1 -0.5,-1"/>
<text text-anchor="middle" x="50" y="-57" font-family="Helvetica,sans-Serif" font-size="10.00">otus::ViewInterface</text>
<polyline fill="none" stroke="black" points="-0.5,-50 100.5,-50 "/>
<text text-anchor="middle" x="50" y="-38" font-family="Helvetica,sans-Serif" font-size="10.00"> </text>
<polyline fill="none" stroke="black" points="-0.5,-31 100.5,-31 "/>
<text text-anchor="start" x="7.5" y="-19" font-family="Helvetica,sans-Serif" font-size="10.00">+ redraw()</text>
<text text-anchor="start" x="7.5" y="-8" font-family="Helvetica,sans-Serif" font-size="10.00">+ response()</text>
</g>
<!-- Node2 -->
<g id="node2" class="node"><title>Node2</title>
<g id="a_node2"><a xlink:href="classotus_1_1Observer.html" target="_top" xlink:title="{otus::Observer\n||+ response()\l+ ~Observer()\l}">
<polygon fill="none" stroke="black" points="9.5,-107 9.5,-175 90.5,-175 90.5,-107 9.5,-107"/>
<text text-anchor="middle" x="50" y="-163" font-family="Helvetica,sans-Serif" font-size="10.00">otus::Observer</text>
<polyline fill="none" stroke="black" points="9.5,-156 90.5,-156 "/>
<text text-anchor="middle" x="50" y="-144" font-family="Helvetica,sans-Serif" font-size="10.00"> </text>
<polyline fill="none" stroke="black" points="9.5,-137 90.5,-137 "/>
<text text-anchor="start" x="17.5" y="-125" font-family="Helvetica,sans-Serif" font-size="10.00">+ response()</text>
<text text-anchor="start" x="17.5" y="-114" font-family="Helvetica,sans-Serif" font-size="10.00">+ ~Observer()</text>
</a>
</g>
</g>
<!-- Node2&#45;&gt;Node1 -->
<g id="edge1" class="edge"><title>Node2&#45;&gt;Node1</title>
<path fill="none" stroke="midnightblue" d="M50,-96.6737C50,-87.5025 50,-77.9608 50,-69.2336"/>
<polygon fill="none" stroke="midnightblue" points="46.5001,-96.8078 50,-106.808 53.5001,-96.8078 46.5001,-96.8078"/>
</g>
</g>
</svg>
