<?xml version="1.0" encoding="UTF-8" standalone="no"?>
<!DOCTYPE svg PUBLIC "-//W3C//DTD SVG 1.1//EN"
 "http://www.w3.org/Graphics/SVG/1.1/DTD/svg11.dtd">
<!-- Generated by graphviz version 2.36.0 (20140111.2315)
 -->
<!-- Title: otus::ControllerInterface Pages: 1 -->
<svg width="294pt" height="228pt"
 viewBox="0.00 0.00 294.00 228.00" xmlns="http://www.w3.org/2000/svg" xmlns:xlink="http://www.w3.org/1999/xlink">
<g id="graph0" class="graph" transform="scale(1 1) rotate(0) translate(4 224)">
<title>otus::ControllerInterface</title>
<!-- Node1 -->
<g id="node1" class="node"><title>Node1</title>
<polygon fill="#bfbfbf" stroke="black" points="70,-1 70,-113 192,-113 192,-1 70,-1"/>
<text text-anchor="middle" x="131" y="-101" font-family="Helvetica,sans-Serif" font-size="10.00">otus::ControllerInterface</text>
<polyline fill="none" stroke="black" points="70,-94 192,-94 "/>
<text text-anchor="middle" x="131" y="-82" font-family="Helvetica,sans-Serif" font-size="10.00"> </text>
<polyline fill="none" stroke="black" points="70,-75 192,-75 "/>
<text text-anchor="start" x="78" y="-63" font-family="Helvetica,sans-Serif" font-size="10.00">+ open_file()</text>
<text text-anchor="start" x="78" y="-52" font-family="Helvetica,sans-Serif" font-size="10.00">+ save_file()</text>
<text text-anchor="start" x="78" y="-41" font-family="Helvetica,sans-Serif" font-size="10.00">+ clear()</text>
<text text-anchor="start" x="78" y="-30" font-family="Helvetica,sans-Serif" font-size="10.00">+ choose_tool()</text>
<text text-anchor="start" x="78" y="-19" font-family="Helvetica,sans-Serif" font-size="10.00">+ choose_color()</text>
<text text-anchor="start" x="78" y="-8" font-family="Helvetica,sans-Serif" font-size="10.00">+ ~ControllerInterface()</text>
</g>
<!-- Node2 -->
<g id="node2" class="node"><title>Node2</title>
<g id="a_node2"><a xlink:href="classotus_1_1OnClickListener.html" target="_top" xlink:title="{otus::OnClickListener\n||+ on_click()\l+ ~OnClickListener()\l}">
<polygon fill="none" stroke="black" points="-0.5,-151 -0.5,-219 110.5,-219 110.5,-151 -0.5,-151"/>
<text text-anchor="middle" x="55" y="-207" font-family="Helvetica,sans-Serif" font-size="10.00">otus::OnClickListener</text>
<polyline fill="none" stroke="black" points="-0.5,-200 110.5,-200 "/>
<text text-anchor="middle" x="55" y="-188" font-family="Helvetica,sans-Serif" font-size="10.00"> </text>
<polyline fill="none" stroke="black" points="-0.5,-181 110.5,-181 "/>
<text text-anchor="start" x="7.5" y="-169" font-family="Helvetica,sans-Serif" font-size="10.00">+ on_click()</text>
<text text-anchor="start" x="7.5" y="-158" font-family="Helvetica,sans-Serif" font-size="10.00">+ ~OnClickListener()</text>
</a>
</g>
</g>
<!-- Node2&#45;&gt;Node1 -->
<g id="edge1" class="edge"><title>Node2&#45;&gt;Node1</title>
<path fill="none" stroke="midnightblue" d="M80.1825,-142.25C85.7746,-132.979 91.7862,-123.012 97.648,-113.294"/>
<polygon fill="none" stroke="midnightblue" points="77.1361,-140.524 74.9681,-150.895 83.1301,-144.14 77.1361,-140.524"/>
</g>
<!-- Node3 -->
<g id="node3" class="node"><title>Node3</title>
<g id="a_node3"><a xlink:href="classotus_1_1OnCoordinateClickListener.html" target="_top" xlink:title="{otus::OnCoordinateClickListener\n||+ on_click()\l+ ~OnCoordinateClickListener()\l}">
<polygon fill="none" stroke="black" points="128,-151 128,-219 286,-219 286,-151 128,-151"/>
<text text-anchor="middle" x="207" y="-207" font-family="Helvetica,sans-Serif" font-size="10.00">otus::OnCoordinateClickListener</text>
<polyline fill="none" stroke="black" points="128,-200 286,-200 "/>
<text text-anchor="middle" x="207" y="-188" font-family="Helvetica,sans-Serif" font-size="10.00"> </text>
<polyline fill="none" stroke="black" points="128,-181 286,-181 "/>
<text text-anchor="start" x="136" y="-169" font-family="Helvetica,sans-Serif" font-size="10.00">+ on_click()</text>
<text text-anchor="start" x="136" y="-158" font-family="Helvetica,sans-Serif" font-size="10.00">+ ~OnCoordinateClickListener()</text>
</a>
</g>
</g>
<!-- Node3&#45;&gt;Node1 -->
<g id="edge2" class="edge"><title>Node3&#45;&gt;Node1</title>
<path fill="none" stroke="midnightblue" d="M181.817,-142.25C176.225,-132.979 170.214,-123.012 164.352,-113.294"/>
<polygon fill="none" stroke="midnightblue" points="178.87,-144.14 187.032,-150.895 184.864,-140.524 178.87,-144.14"/>
</g>
</g>
</svg>
