<?xml version="1.0" encoding="UTF-8" standalone="no"?>
<!DOCTYPE svg PUBLIC "-//W3C//DTD SVG 1.1//EN"
 "http://www.w3.org/Graphics/SVG/1.1/DTD/svg11.dtd">
<!-- Generated by graphviz version 2.36.0 (20140111.2315)
 -->
<!-- Title: otus::Canvas Pages: 1 -->
<svg width="150pt" height="182pt"
 viewBox="0.00 0.00 150.00 182.00" xmlns="http://www.w3.org/2000/svg" xmlns:xlink="http://www.w3.org/1999/xlink">
<g id="graph0" class="graph" transform="scale(1 1) rotate(0) translate(4 178)">
<title>otus::Canvas</title>
<!-- Node1 -->
<g id="node1" class="node"><title>Node1</title>
<polygon fill="#bfbfbf" stroke="black" points="33.5,-0.5 33.5,-57.5 108.5,-57.5 108.5,-0.5 33.5,-0.5"/>
<text text-anchor="middle" x="71" y="-45.5" font-family="Helvetica,sans-Serif" font-size="10.00">otus::Canvas</text>
<polyline fill="none" stroke="black" points="33.5,-38.5 108.5,-38.5 "/>
<text text-anchor="middle" x="71" y="-26.5" font-family="Helvetica,sans-Serif" font-size="10.00"> </text>
<polyline fill="none" stroke="black" points="33.5,-19.5 108.5,-19.5 "/>
<text text-anchor="middle" x="71" y="-7.5" font-family="Helvetica,sans-Serif" font-size="10.00"> </text>
</g>
<!-- Node2 -->
<g id="node2" class="node"><title>Node2</title>
<g id="a_node2"><a xlink:href="classotus_1_1OnCoordinateClickable.html" target="_top" xlink:title="{otus::OnCoordinateClickable\n||+ add_onclick_listener()\l+ click()\l+ ~OnCoordinateClickable()\l}">
<polygon fill="none" stroke="black" points="0,-94.5 0,-173.5 142,-173.5 142,-94.5 0,-94.5"/>
<text text-anchor="middle" x="71" y="-161.5" font-family="Helvetica,sans-Serif" font-size="10.00">otus::OnCoordinateClickable</text>
<polyline fill="none" stroke="black" points="0,-154.5 142,-154.5 "/>
<text text-anchor="middle" x="71" y="-142.5" font-family="Helvetica,sans-Serif" font-size="10.00"> </text>
<polyline fill="none" stroke="black" points="0,-135.5 142,-135.5 "/>
<text text-anchor="start" x="8" y="-123.5" font-family="Helvetica,sans-Serif" font-size="10.00">+ add_onclick_listener()</text>
<text text-anchor="start" x="8" y="-112.5" font-family="Helvetica,sans-Serif" font-size="10.00">+ click()</text>
<text text-anchor="start" x="8" y="-101.5" font-family="Helvetica,sans-Serif" font-size="10.00">+ ~OnCoordinateClickable()</text>
</a>
</g>
</g>
<!-- Node2&#45;&gt;Node1 -->
<g id="edge1" class="edge"><title>Node2&#45;&gt;Node1</title>
<path fill="none" stroke="midnightblue" d="M71,-84.1628C71,-75.0404 71,-65.8063 71,-57.6095"/>
<polygon fill="none" stroke="midnightblue" points="67.5001,-84.3535 71,-94.3536 74.5001,-84.3536 67.5001,-84.3535"/>
</g>
</g>
</svg>
