<?xml version="1.0" encoding="UTF-8" standalone="no"?>
<!DOCTYPE svg PUBLIC "-//W3C//DTD SVG 1.1//EN"
 "http://www.w3.org/Graphics/SVG/1.1/DTD/svg11.dtd">
<!-- Generated by graphviz version 2.36.0 (20140111.2315)
 -->
<!-- Title: otus::BaseOnClickable&lt; Args &gt; Pages: 1 -->
<!--zoomable 240 -->
<svg id="main" version="1.1" xmlns="http://www.w3.org/2000/svg" xmlns:xlink="http://www.w3.org/1999/xlink" xml:space="preserve" onload="init(evt)">
<style type="text/css"><![CDATA[
.edge:hover path { stroke: red; }
.edge:hover polygon { stroke: red; fill: red; }
]]></style>
<script type="text/javascript"><![CDATA[
var edges = document.getElementsByTagName('g');
if (edges && edges.length) {
  for (var i=0;i<edges.length;i++) {
    if (edges[i].id.substr(0,4)=='edge') {
      edges[i].setAttribute('class','edge');
    }
  }
}
]]></script>
        <defs>
                <circle id="rim" cx="0" cy="0" r="7"/>
                <circle id="rim2" cx="0" cy="0" r="3.5"/>
                <g id="zoomPlus">
                        <use xlink:href="#rim" fill="#404040">
                                <set attributeName="fill" to="#808080" begin="zoomplus.mouseover" end="zoomplus.mouseout"/>
                        </use>
                        <path d="M-4,0h8M0,-4v8" fill="none" stroke="white" stroke-width="1.5" pointer-events="none"/>
                </g>
                <g id="zoomMin">
                        <use xlink:href="#rim" fill="#404040">
                                <set attributeName="fill" to="#808080" begin="zoomminus.mouseover" end="zoomminus.mouseout"/>
                        </use>
                        <path d="M-4,0h8" fill="none" stroke="white" stroke-width="1.5" pointer-events="none"/>
                </g>
                <g id="dirArrow">
                        <path fill="none" stroke="white" stroke-width="1.5" d="M0,-3.0v7 M-2.5,-0.5L0,-3.0L2.5,-0.5"/>
                </g>
               <g id="resetDef">
                       <use xlink:href="#rim2" fill="#404040">
                               <set attributeName="fill" to="#808080" begin="reset.mouseover" end="reset.mouseout"/>
                       </use>
               </g>
        </defs>

<script type="text/javascript">
var viewWidth = 855;
var viewHeight = 240;
var sectionId = 'dynsection-0';
</script>
<script xlink:href="svgpan.js"/>
<svg id="graph" class="graph">
<g id="viewport">
<title>otus::BaseOnClickable&lt; Args &gt;</title>
<!-- Node1 -->
<g id="node1" class="node"><title>Node1</title>
<polygon fill="#bfbfbf" stroke="black" points="355,-141 355,-231 475,-231 475,-141 355,-141"/>
<text text-anchor="start" x="363" y="-219" font-family="Helvetica,sans-Serif" font-size="10.00">otus::BaseOnClickable</text>
<text text-anchor="middle" x="415" y="-208" font-family="Helvetica,sans-Serif" font-size="10.00">&lt; Args &gt;</text>
<polyline fill="none" stroke="black" points="355,-201 475,-201 "/>
<text text-anchor="middle" x="415" y="-189" font-family="Helvetica,sans-Serif" font-size="10.00"> </text>
<polyline fill="none" stroke="black" points="355,-182 475,-182 "/>
<text text-anchor="start" x="363" y="-170" font-family="Helvetica,sans-Serif" font-size="10.00">+ add_onclick_listener()</text>
<text text-anchor="start" x="363" y="-159" font-family="Helvetica,sans-Serif" font-size="10.00">+ click()</text>
<text text-anchor="start" x="363" y="-148" font-family="Helvetica,sans-Serif" font-size="10.00">+ ~BaseOnClickable()</text>
</g>
<!-- Node2 -->
<g id="node2" class="node"><title>Node2</title>
<g id="a_node2"><a xlink:href="classotus_1_1Canvas.html" target="_top" xlink:title="{otus::Canvas\&lt; int,\l int \&gt;\n||}">
<polygon fill="none" stroke="black" points="0,-12 0,-80 98,-80 98,-12 0,-12"/>
<text text-anchor="start" x="8" y="-68" font-family="Helvetica,sans-Serif" font-size="10.00">otus::Canvas&lt; int,</text>
<text text-anchor="middle" x="49" y="-57" font-family="Helvetica,sans-Serif" font-size="10.00"> int &gt;</text>
<polyline fill="none" stroke="black" points="0,-50 98,-50 "/>
<text text-anchor="middle" x="49" y="-38" font-family="Helvetica,sans-Serif" font-size="10.00"> </text>
<polyline fill="none" stroke="black" points="0,-31 98,-31 "/>
<text text-anchor="middle" x="49" y="-19" font-family="Helvetica,sans-Serif" font-size="10.00"> </text>
</a>
</g>
</g>
<!-- Node1&#45;&gt;Node2 -->
<g id="edge1" class="edge"><title>Node1&#45;&gt;Node2</title>
<path fill="none" stroke="midnightblue" d="M344.878,-171.529C280.564,-157.417 183.912,-131.704 107,-92 100.432,-88.6092 93.8624,-84.445 87.6298,-80.0319"/>
<polygon fill="none" stroke="midnightblue" points="344.401,-175.007 354.915,-173.695 345.878,-168.164 344.401,-175.007"/>
</g>
<!-- Node3 -->
<g id="node3" class="node"><title>Node3</title>
<g id="a_node3"><a xlink:href="classotus_1_1ClearButton.html" target="_top" xlink:title="{otus::ClearButton\&lt;\&gt;\n||}">
<polygon fill="none" stroke="black" points="116.5,-17.5 116.5,-74.5 221.5,-74.5 221.5,-17.5 116.5,-17.5"/>
<text text-anchor="middle" x="169" y="-62.5" font-family="Helvetica,sans-Serif" font-size="10.00">otus::ClearButton&lt;&gt;</text>
<polyline fill="none" stroke="black" points="116.5,-55.5 221.5,-55.5 "/>
<text text-anchor="middle" x="169" y="-43.5" font-family="Helvetica,sans-Serif" font-size="10.00"> </text>
<polyline fill="none" stroke="black" points="116.5,-36.5 221.5,-36.5 "/>
<text text-anchor="middle" x="169" y="-24.5" font-family="Helvetica,sans-Serif" font-size="10.00"> </text>
</a>
</g>
</g>
<!-- Node1&#45;&gt;Node3 -->
<g id="edge2" class="edge"><title>Node1&#45;&gt;Node3</title>
<path fill="none" stroke="midnightblue" d="M345.591,-153.558C310.218,-136.678 266.979,-114.707 230,-92 221.477,-86.7663 212.638,-80.674 204.422,-74.6943"/>
<polygon fill="none" stroke="midnightblue" points="344.34,-156.838 354.876,-157.958 347.338,-150.513 344.34,-156.838"/>
</g>
<!-- Node4 -->
<g id="node4" class="node"><title>Node4</title>
<g id="a_node4"><a xlink:href="classotus_1_1ColorButton.html" target="_top" xlink:title="{otus::ColorButton\&lt;\&gt;\n||+ ColorButton()\l+ get_tag()\l}">
<polygon fill="none" stroke="black" points="239.5,-12 239.5,-80 344.5,-80 344.5,-12 239.5,-12"/>
<text text-anchor="middle" x="292" y="-68" font-family="Helvetica,sans-Serif" font-size="10.00">otus::ColorButton&lt;&gt;</text>
<polyline fill="none" stroke="black" points="239.5,-61 344.5,-61 "/>
<text text-anchor="middle" x="292" y="-49" font-family="Helvetica,sans-Serif" font-size="10.00"> </text>
<polyline fill="none" stroke="black" points="239.5,-42 344.5,-42 "/>
<text text-anchor="start" x="247.5" y="-30" font-family="Helvetica,sans-Serif" font-size="10.00">+ ColorButton()</text>
<text text-anchor="start" x="247.5" y="-19" font-family="Helvetica,sans-Serif" font-size="10.00">+ get_tag()</text>
</a>
</g>
</g>
<!-- Node1&#45;&gt;Node4 -->
<g id="edge3" class="edge"><title>Node1&#45;&gt;Node4</title>
<path fill="none" stroke="midnightblue" d="M369.035,-133.429C353.137,-115.593 335.758,-96.0939 321.536,-80.1381"/>
<polygon fill="none" stroke="midnightblue" points="366.477,-135.82 375.744,-140.957 371.703,-131.163 366.477,-135.82"/>
</g>
<!-- Node5 -->
<g id="node5" class="node"><title>Node5</title>
<g id="a_node5"><a xlink:href="classotus_1_1OpenButton.html" target="_top" xlink:title="{otus::OpenButton\&lt;\&gt;\n||+ OpenButton()\l+ get_path()\l+ set_path()\l}">
<polygon fill="none" stroke="black" points="362.5,-6.5 362.5,-85.5 467.5,-85.5 467.5,-6.5 362.5,-6.5"/>
<text text-anchor="middle" x="415" y="-73.5" font-family="Helvetica,sans-Serif" font-size="10.00">otus::OpenButton&lt;&gt;</text>
<polyline fill="none" stroke="black" points="362.5,-66.5 467.5,-66.5 "/>
<text text-anchor="middle" x="415" y="-54.5" font-family="Helvetica,sans-Serif" font-size="10.00"> </text>
<polyline fill="none" stroke="black" points="362.5,-47.5 467.5,-47.5 "/>
<text text-anchor="start" x="370.5" y="-35.5" font-family="Helvetica,sans-Serif" font-size="10.00">+ OpenButton()</text>
<text text-anchor="start" x="370.5" y="-24.5" font-family="Helvetica,sans-Serif" font-size="10.00">+ get_path()</text>
<text text-anchor="start" x="370.5" y="-13.5" font-family="Helvetica,sans-Serif" font-size="10.00">+ set_path()</text>
</a>
</g>
</g>
<!-- Node1&#45;&gt;Node5 -->
<g id="edge4" class="edge"><title>Node1&#45;&gt;Node5</title>
<path fill="none" stroke="midnightblue" d="M415,-130.696C415,-115.593 415,-99.5047 415,-85.5109"/>
<polygon fill="none" stroke="midnightblue" points="411.5,-130.956 415,-140.957 418.5,-130.957 411.5,-130.956"/>
</g>
<!-- Node6 -->
<g id="node6" class="node"><title>Node6</title>
<g id="a_node6"><a xlink:href="classotus_1_1SaveButton.html" target="_top" xlink:title="{otus::SaveButton\&lt;\&gt;\n||}">
<polygon fill="none" stroke="black" points="486,-17.5 486,-74.5 590,-74.5 590,-17.5 486,-17.5"/>
<text text-anchor="middle" x="538" y="-62.5" font-family="Helvetica,sans-Serif" font-size="10.00">otus::SaveButton&lt;&gt;</text>
<polyline fill="none" stroke="black" points="486,-55.5 590,-55.5 "/>
<text text-anchor="middle" x="538" y="-43.5" font-family="Helvetica,sans-Serif" font-size="10.00"> </text>
<polyline fill="none" stroke="black" points="486,-36.5 590,-36.5 "/>
<text text-anchor="middle" x="538" y="-24.5" font-family="Helvetica,sans-Serif" font-size="10.00"> </text>
</a>
</g>
</g>
<!-- Node1&#45;&gt;Node6 -->
<g id="edge5" class="edge"><title>Node1&#45;&gt;Node6</title>
<path fill="none" stroke="midnightblue" d="M460.969,-133.426C478.755,-113.47 498.396,-91.4341 513.393,-74.6076"/>
<polygon fill="none" stroke="midnightblue" points="458.297,-131.163 454.256,-140.957 463.523,-135.82 458.297,-131.163"/>
</g>
<!-- Node7 -->
<g id="node7" class="node"><title>Node7</title>
<g id="a_node7"><a xlink:href="classotus_1_1ToolButton.html" target="_top" xlink:title="{otus::ToolButton\&lt;\&gt;\n||+ ToolButton()\l+ get_tag()\l+ ~ToolButton()\l}">
<polygon fill="none" stroke="black" points="608.5,-6.5 608.5,-85.5 709.5,-85.5 709.5,-6.5 608.5,-6.5"/>
<text text-anchor="middle" x="659" y="-73.5" font-family="Helvetica,sans-Serif" font-size="10.00">otus::ToolButton&lt;&gt;</text>
<polyline fill="none" stroke="black" points="608.5,-66.5 709.5,-66.5 "/>
<text text-anchor="middle" x="659" y="-54.5" font-family="Helvetica,sans-Serif" font-size="10.00"> </text>
<polyline fill="none" stroke="black" points="608.5,-47.5 709.5,-47.5 "/>
<text text-anchor="start" x="616.5" y="-35.5" font-family="Helvetica,sans-Serif" font-size="10.00">+ ToolButton()</text>
<text text-anchor="start" x="616.5" y="-24.5" font-family="Helvetica,sans-Serif" font-size="10.00">+ get_tag()</text>
<text text-anchor="start" x="616.5" y="-13.5" font-family="Helvetica,sans-Serif" font-size="10.00">+ ~ToolButton()</text>
</a>
</g>
</g>
<!-- Node1&#45;&gt;Node7 -->
<g id="edge6" class="edge"><title>Node1&#45;&gt;Node7</title>
<path fill="none" stroke="midnightblue" d="M484.498,-153.439C519.621,-136.603 562.435,-114.708 599,-92 602.208,-90.0079 605.459,-87.8896 608.702,-85.6993"/>
<polygon fill="none" stroke="midnightblue" points="482.801,-150.37 475.276,-157.828 485.809,-156.691 482.801,-150.37"/>
</g>
<!-- Node8 -->
<g id="node8" class="node"><title>Node8</title>
<g id="a_node8"><a xlink:href="classotus_1_1BaseOnClickable.html" target="_top" xlink:title="{otus::BaseOnClickable\l\&lt; Args...\&gt;\n||+ add_onclick_listener()\l+ click()\l+ ~BaseOnClickable()\l}">
<polygon fill="none" stroke="black" points="728,-1 728,-91 848,-91 848,-1 728,-1"/>
<text text-anchor="start" x="736" y="-79" font-family="Helvetica,sans-Serif" font-size="10.00">otus::BaseOnClickable</text>
<text text-anchor="middle" x="788" y="-68" font-family="Helvetica,sans-Serif" font-size="10.00">&lt; Args...&gt;</text>
<polyline fill="none" stroke="black" points="728,-61 848,-61 "/>
<text text-anchor="middle" x="788" y="-49" font-family="Helvetica,sans-Serif" font-size="10.00"> </text>
<polyline fill="none" stroke="black" points="728,-42 848,-42 "/>
<text text-anchor="start" x="736" y="-30" font-family="Helvetica,sans-Serif" font-size="10.00">+ add_onclick_listener()</text>
<text text-anchor="start" x="736" y="-19" font-family="Helvetica,sans-Serif" font-size="10.00">+ click()</text>
<text text-anchor="start" x="736" y="-8" font-family="Helvetica,sans-Serif" font-size="10.00">+ ~BaseOnClickable()</text>
</a>
</g>
</g>
<!-- Node1&#45;&gt;Node8 -->
<g id="edge7" class="edge"><title>Node1&#45;&gt;Node8</title>
<path fill="none" stroke="orange" d="M484.935,-169.325C547.667,-153.926 641.368,-127.57 718,-92 721.276,-90.4793 724.58,-88.8265 727.875,-87.0819"/>
<polygon fill="orange" stroke="orange" points="484.033,-165.943 475.141,-171.703 485.684,-172.745 484.033,-165.943"/>
<text text-anchor="middle" x="695" y="-113.5" font-family="Helvetica,sans-Serif" font-size="10.00"> &lt; Args...&gt;</text>
</g>
</g>
</svg>
        <g id="navigator" transform="translate(0 0)" fill="#404254">
                <rect fill="#f2f5e9" fill-opacity="0.5" stroke="#606060" stroke-width=".5" x="0" y="0" width="60" height="60"/>
                <use id="zoomplus" xlink:href="#zoomPlus" x="17" y="9" onmousedown="handleZoom(evt,'in')"/>
                <use id="zoomminus" xlink:href="#zoomMin" x="42" y="9" onmousedown="handleZoom(evt,'out')"/>
                <use id="reset" xlink:href="#resetDef" x="30" y="36" onmousedown="handleReset()"/>
                <g id="arrowUp" xlink:href="#dirArrow" transform="translate(30 24)" onmousedown="handlePan(0,-1)">
                  <use xlink:href="#rim" fill="#404040">
                        <set attributeName="fill" to="#808080" begin="arrowUp.mouseover" end="arrowUp.mouseout"/>
                  </use>
                  <path fill="none" stroke="white" stroke-width="1.5" d="M0,-3.0v7 M-2.5,-0.5L0,-3.0L2.5,-0.5"/>
                </g>
                <g id="arrowRight" xlink:href="#dirArrow" transform="rotate(90) translate(36 -43)" onmousedown="handlePan(1,0)">
                  <use xlink:href="#rim" fill="#404040">
                        <set attributeName="fill" to="#808080" begin="arrowRight.mouseover" end="arrowRight.mouseout"/>
                  </use>
                  <path fill="none" stroke="white" stroke-width="1.5" d="M0,-3.0v7 M-2.5,-0.5L0,-3.0L2.5,-0.5"/>
                </g>
                <g id="arrowDown" xlink:href="#dirArrow" transform="rotate(180) translate(-30 -48)" onmousedown="handlePan(0,1)">
                  <use xlink:href="#rim" fill="#404040">
                        <set attributeName="fill" to="#808080" begin="arrowDown.mouseover" end="arrowDown.mouseout"/>
                  </use>
                  <path fill="none" stroke="white" stroke-width="1.5" d="M0,-3.0v7 M-2.5,-0.5L0,-3.0L2.5,-0.5"/>
                </g>
                <g id="arrowLeft" xlink:href="#dirArrow" transform="rotate(270) translate(-36 17)" onmousedown="handlePan(-1,0)">
                  <use xlink:href="#rim" fill="#404040">
                        <set attributeName="fill" to="#808080" begin="arrowLeft.mouseover" end="arrowLeft.mouseout"/>
                  </use>
                  <path fill="none" stroke="white" stroke-width="1.5" d="M0,-3.0v7 M-2.5,-0.5L0,-3.0L2.5,-0.5"/>
                </g>
        </g>
        <svg viewBox="0 0 15 15" width="100%" height="30px" preserveAspectRatio="xMaxYMin meet">
         <g id="arrow_out" transform="scale(0.3 0.3)">
          <a xlink:href="classotus_1_1BaseOnClickable__inherit__graph_org.svg" target="_base">
           <rect id="button" ry="5" rx="5" y="6" x="6" height="38" width="38"
                fill="#f2f5e9" fill-opacity="0.5" stroke="#606060" stroke-width="1.0"/>
           <path id="arrow"
             d="M 11.500037,31.436501 C 11.940474,20.09759 22.043105,11.32322 32.158766,21.979434 L 37.068811,17.246167 C 37.068811,17.246167 37.088388,32 37.088388,32 L 22.160133,31.978069 C 22.160133,31.978069 26.997745,27.140456 26.997745,27.140456 C 18.528582,18.264221 13.291696,25.230495 11.500037,31.436501 z"
             style="fill:#404040;"/>
          </a>
         </g>
        </svg>
</svg>
