<?xml version="1.0" encoding="UTF-8" standalone="no"?>
<!DOCTYPE svg PUBLIC "-//W3C//DTD SVG 1.1//EN"
 "http://www.w3.org/Graphics/SVG/1.1/DTD/svg11.dtd">
<!-- Generated by graphviz version 2.36.0 (20140111.2315)
 -->
<!-- Title: otus::GeometryElement Pages: 1 -->
<svg width="246pt" height="238pt"
 viewBox="0.00 0.00 246.00 238.00" xmlns="http://www.w3.org/2000/svg" xmlns:xlink="http://www.w3.org/1999/xlink">
<g id="graph0" class="graph" transform="scale(1 1) rotate(0) translate(4 234)">
<title>otus::GeometryElement</title>
<!-- Node1 -->
<g id="node1" class="node"><title>Node1</title>
<polygon fill="#bfbfbf" stroke="black" points="44,-128.5 44,-229.5 164,-229.5 164,-128.5 44,-128.5"/>
<text text-anchor="middle" x="104" y="-217.5" font-family="Helvetica,sans-Serif" font-size="10.00">otus::GeometryElement</text>
<polyline fill="none" stroke="black" points="44,-210.5 164,-210.5 "/>
<text text-anchor="middle" x="104" y="-198.5" font-family="Helvetica,sans-Serif" font-size="10.00"> </text>
<polyline fill="none" stroke="black" points="44,-191.5 164,-191.5 "/>
<text text-anchor="start" x="52" y="-179.5" font-family="Helvetica,sans-Serif" font-size="10.00">+ GeometryElement()</text>
<text text-anchor="start" x="52" y="-168.5" font-family="Helvetica,sans-Serif" font-size="10.00">+ draw()</text>
<text text-anchor="start" x="52" y="-157.5" font-family="Helvetica,sans-Serif" font-size="10.00">+ getX()</text>
<text text-anchor="start" x="52" y="-146.5" font-family="Helvetica,sans-Serif" font-size="10.00">+ getY()</text>
<text text-anchor="start" x="52" y="-135.5" font-family="Helvetica,sans-Serif" font-size="10.00">+ ~GeometryElement()</text>
</g>
<!-- Node2 -->
<g id="node2" class="node"><title>Node2</title>
<g id="a_node2"><a xlink:href="classotus_1_1Dot.html" target="_top" xlink:title="{otus::Dot\n||+ Dot()\l+ draw()\l+ getX()\l+ getY()\l}">
<polygon fill="none" stroke="black" points="-0.5,-1 -0.5,-91 56.5,-91 56.5,-1 -0.5,-1"/>
<text text-anchor="middle" x="28" y="-79" font-family="Helvetica,sans-Serif" font-size="10.00">otus::Dot</text>
<polyline fill="none" stroke="black" points="-0.5,-72 56.5,-72 "/>
<text text-anchor="middle" x="28" y="-60" font-family="Helvetica,sans-Serif" font-size="10.00"> </text>
<polyline fill="none" stroke="black" points="-0.5,-53 56.5,-53 "/>
<text text-anchor="start" x="7.5" y="-41" font-family="Helvetica,sans-Serif" font-size="10.00">+ Dot()</text>
<text text-anchor="start" x="7.5" y="-30" font-family="Helvetica,sans-Serif" font-size="10.00">+ draw()</text>
<text text-anchor="start" x="7.5" y="-19" font-family="Helvetica,sans-Serif" font-size="10.00">+ getX()</text>
<text text-anchor="start" x="7.5" y="-8" font-family="Helvetica,sans-Serif" font-size="10.00">+ getY()</text>
</a>
</g>
</g>
<!-- Node1&#45;&gt;Node2 -->
<g id="edge1" class="edge"><title>Node1&#45;&gt;Node2</title>
<path fill="none" stroke="midnightblue" d="M70.1806,-119.706C64.5885,-110.067 58.8741,-100.217 53.5299,-91.0055"/>
<polygon fill="none" stroke="midnightblue" points="67.222,-121.581 75.2677,-128.475 73.2769,-118.068 67.222,-121.581"/>
</g>
<!-- Node3 -->
<g id="node3" class="node"><title>Node3</title>
<g id="a_node3"><a xlink:href="classotus_1_1Line.html" target="_top" xlink:title="{otus::Line\n||+ Line()\l+ draw()\l+ getX()\l+ getY()\l}">
<polygon fill="none" stroke="black" points="74.5,-1 74.5,-91 133.5,-91 133.5,-1 74.5,-1"/>
<text text-anchor="middle" x="104" y="-79" font-family="Helvetica,sans-Serif" font-size="10.00">otus::Line</text>
<polyline fill="none" stroke="black" points="74.5,-72 133.5,-72 "/>
<text text-anchor="middle" x="104" y="-60" font-family="Helvetica,sans-Serif" font-size="10.00"> </text>
<polyline fill="none" stroke="black" points="74.5,-53 133.5,-53 "/>
<text text-anchor="start" x="82.5" y="-41" font-family="Helvetica,sans-Serif" font-size="10.00">+ Line()</text>
<text text-anchor="start" x="82.5" y="-30" font-family="Helvetica,sans-Serif" font-size="10.00">+ draw()</text>
<text text-anchor="start" x="82.5" y="-19" font-family="Helvetica,sans-Serif" font-size="10.00">+ getX()</text>
<text text-anchor="start" x="82.5" y="-8" font-family="Helvetica,sans-Serif" font-size="10.00">+ getY()</text>
</a>
</g>
</g>
<!-- Node1&#45;&gt;Node3 -->
<g id="edge2" class="edge"><title>Node1&#45;&gt;Node3</title>
<path fill="none" stroke="midnightblue" d="M104,-118.229C104,-109.064 104,-99.7473 104,-91.0055"/>
<polygon fill="none" stroke="midnightblue" points="100.5,-118.474 104,-128.475 107.5,-118.475 100.5,-118.474"/>
</g>
<!-- Node4 -->
<g id="node4" class="node"><title>Node4</title>
<g id="a_node4"><a xlink:href="classotus_1_1Rectangle.html" target="_top" xlink:title="{otus::Rectangle\n||+ Rectangle()\l+ draw()\l+ getX()\l+ getY()\l}">
<polygon fill="none" stroke="black" points="152,-1 152,-91 238,-91 238,-1 152,-1"/>
<text text-anchor="middle" x="195" y="-79" font-family="Helvetica,sans-Serif" font-size="10.00">otus::Rectangle</text>
<polyline fill="none" stroke="black" points="152,-72 238,-72 "/>
<text text-anchor="middle" x="195" y="-60" font-family="Helvetica,sans-Serif" font-size="10.00"> </text>
<polyline fill="none" stroke="black" points="152,-53 238,-53 "/>
<text text-anchor="start" x="160" y="-41" font-family="Helvetica,sans-Serif" font-size="10.00">+ Rectangle()</text>
<text text-anchor="start" x="160" y="-30" font-family="Helvetica,sans-Serif" font-size="10.00">+ draw()</text>
<text text-anchor="start" x="160" y="-19" font-family="Helvetica,sans-Serif" font-size="10.00">+ getX()</text>
<text text-anchor="start" x="160" y="-8" font-family="Helvetica,sans-Serif" font-size="10.00">+ getY()</text>
</a>
</g>
</g>
<!-- Node1&#45;&gt;Node4 -->
<g id="edge3" class="edge"><title>Node1&#45;&gt;Node4</title>
<path fill="none" stroke="midnightblue" d="M144.289,-120.001C151.05,-110.268 157.967,-100.311 164.431,-91.0055"/>
<polygon fill="none" stroke="midnightblue" points="141.234,-118.265 138.403,-128.475 146.983,-122.258 141.234,-118.265"/>
</g>
</g>
</svg>
