<?xml version="1.0" encoding="UTF-8" standalone="no"?>
<!DOCTYPE svg PUBLIC "-//W3C//DTD SVG 1.1//EN"
 "http://www.w3.org/Graphics/SVG/1.1/DTD/svg11.dtd">
<!-- Generated by graphviz version 2.38.0 (20140413.2041)
 -->
<!-- Title: otus::Line Pages: 1 -->
<svg width="139pt" height="237pt"
 viewBox="0.00 0.00 139.00 237.00" xmlns="http://www.w3.org/2000/svg" xmlns:xlink="http://www.w3.org/1999/xlink">
<g id="graph0" class="graph" transform="scale(1 1) rotate(0) translate(4 233)">
<title>otus::Line</title>
<!-- Node1 -->
<g id="node1" class="node"><title>Node1</title>
<polygon fill="#bfbfbf" stroke="black" points="34,-0.5 34,-90.5 97,-90.5 97,-0.5 34,-0.5"/>
<text text-anchor="middle" x="65.5" y="-78.5" font-family="Helvetica,sans-Serif" font-size="10.00">otus::Line</text>
<polyline fill="none" stroke="black" points="34,-71.5 97,-71.5 "/>
<text text-anchor="middle" x="65.5" y="-59.5" font-family="Helvetica,sans-Serif" font-size="10.00"> </text>
<polyline fill="none" stroke="black" points="34,-52.5 97,-52.5 "/>
<text text-anchor="start" x="42" y="-40.5" font-family="Helvetica,sans-Serif" font-size="10.00">+ Line()</text>
<text text-anchor="start" x="42" y="-29.5" font-family="Helvetica,sans-Serif" font-size="10.00">+ draw()</text>
<text text-anchor="start" x="42" y="-18.5" font-family="Helvetica,sans-Serif" font-size="10.00">+ getX()</text>
<text text-anchor="start" x="42" y="-7.5" font-family="Helvetica,sans-Serif" font-size="10.00">+ getY()</text>
</g>
<!-- Node2 -->
<g id="node2" class="node"><title>Node2</title>
<g id="a_node2"><a xlink:href="classotus_1_1GeometryElement.html" target="_top" xlink:title="{otus::GeometryElement\n||+ GeometryElement()\l+ draw()\l+ getX()\l+ getY()\l+ ~GeometryElement()\l}">
<polygon fill="none" stroke="black" points="0,-127.5 0,-228.5 131,-228.5 131,-127.5 0,-127.5"/>
<text text-anchor="middle" x="65.5" y="-216.5" font-family="Helvetica,sans-Serif" font-size="10.00">otus::GeometryElement</text>
<polyline fill="none" stroke="black" points="0,-209.5 131,-209.5 "/>
<text text-anchor="middle" x="65.5" y="-197.5" font-family="Helvetica,sans-Serif" font-size="10.00"> </text>
<polyline fill="none" stroke="black" points="0,-190.5 131,-190.5 "/>
<text text-anchor="start" x="8" y="-178.5" font-family="Helvetica,sans-Serif" font-size="10.00">+ GeometryElement()</text>
<text text-anchor="start" x="8" y="-167.5" font-family="Helvetica,sans-Serif" font-size="10.00">+ draw()</text>
<text text-anchor="start" x="8" y="-156.5" font-family="Helvetica,sans-Serif" font-size="10.00">+ getX()</text>
<text text-anchor="start" x="8" y="-145.5" font-family="Helvetica,sans-Serif" font-size="10.00">+ getY()</text>
<text text-anchor="start" x="8" y="-134.5" font-family="Helvetica,sans-Serif" font-size="10.00">+ ~GeometryElement()</text>
</a>
</g>
</g>
<!-- Node2&#45;&gt;Node1 -->
<g id="edge1" class="edge"><title>Node2&#45;&gt;Node1</title>
<path fill="none" stroke="midnightblue" d="M65.5,-117.232C65.5,-108.236 65.5,-99.1012 65.5,-90.5165"/>
<polygon fill="none" stroke="midnightblue" points="62.0001,-117.291 65.5,-127.291 69.0001,-117.291 62.0001,-117.291"/>
</g>
</g>
</svg>
