<?xml version="1.0" encoding="UTF-8" standalone="no"?>
<!DOCTYPE svg PUBLIC "-//W3C//DTD SVG 1.1//EN"
 "http://www.w3.org/Graphics/SVG/1.1/DTD/svg11.dtd">
<!-- Generated by graphviz version 2.36.0 (20140111.2315)
 -->
<!-- Title: otus::ToolButton Pages: 1 -->
<svg width="126pt" height="194pt"
 viewBox="0.00 0.00 126.00 194.00" xmlns="http://www.w3.org/2000/svg" xmlns:xlink="http://www.w3.org/1999/xlink">
<g id="graph0" class="graph" transform="scale(1 1) rotate(0) translate(4 190)">
<title>otus::ToolButton</title>
<!-- Node1 -->
<g id="node1" class="node"><title>Node1</title>
<polygon fill="#bfbfbf" stroke="black" points="14.5,-1 14.5,-69 103.5,-69 103.5,-1 14.5,-1"/>
<text text-anchor="middle" x="59" y="-57" font-family="Helvetica,sans-Serif" font-size="10.00">otus::ToolButton</text>
<polyline fill="none" stroke="black" points="14.5,-50 103.5,-50 "/>
<text text-anchor="middle" x="59" y="-38" font-family="Helvetica,sans-Serif" font-size="10.00"> </text>
<polyline fill="none" stroke="black" points="14.5,-31 103.5,-31 "/>
<text text-anchor="start" x="22.5" y="-19" font-family="Helvetica,sans-Serif" font-size="10.00">+ ToolButton()</text>
<text text-anchor="start" x="22.5" y="-8" font-family="Helvetica,sans-Serif" font-size="10.00">+ get_tag()</text>
</g>
<!-- Node2 -->
<g id="node2" class="node"><title>Node2</title>
<g id="a_node2"><a xlink:href="classotus_1_1BaseOnClickable.html" target="_top" xlink:title="{OnClickable\n||+ add_onclick_listener()\l+ click()\l+ ~BaseOnClickable()\l}">
<polygon fill="none" stroke="black" points="-1,-106.5 -1,-185.5 119,-185.5 119,-106.5 -1,-106.5"/>
<text text-anchor="middle" x="59" y="-173.5" font-family="Helvetica,sans-Serif" font-size="10.00">OnClickable</text>
<polyline fill="none" stroke="black" points="-1,-166.5 119,-166.5 "/>
<text text-anchor="middle" x="59" y="-154.5" font-family="Helvetica,sans-Serif" font-size="10.00"> </text>
<polyline fill="none" stroke="black" points="-1,-147.5 119,-147.5 "/>
<text text-anchor="start" x="7" y="-135.5" font-family="Helvetica,sans-Serif" font-size="10.00">+ add_onclick_listener()</text>
<text text-anchor="start" x="7" y="-124.5" font-family="Helvetica,sans-Serif" font-size="10.00">+ click()</text>
<text text-anchor="start" x="7" y="-113.5" font-family="Helvetica,sans-Serif" font-size="10.00">+ ~BaseOnClickable()</text>
</a>
</g>
</g>
<!-- Node2&#45;&gt;Node1 -->
<g id="edge1" class="edge"><title>Node2&#45;&gt;Node1</title>
<path fill="none" stroke="midnightblue" d="M59,-96.125C59,-87.0164 59,-77.6961 59,-69.1962"/>
<polygon fill="none" stroke="midnightblue" points="55.5001,-96.2637 59,-106.264 62.5001,-96.2638 55.5001,-96.2637"/>
</g>
</g>
</svg>
