<?xml version="1.0" encoding="UTF-8" standalone="no"?>
<!DOCTYPE svg PUBLIC "-//W3C//DTD SVG 1.1//EN"
 "http://www.w3.org/Graphics/SVG/1.1/DTD/svg11.dtd">
<!-- Generated by graphviz version 2.38.0 (20140413.2041)
 -->
<!-- Title: otus::BaseOnClickable&lt; Args &gt; Pages: 1 -->
<svg width="931pt" height="237pt"
 viewBox="0.00 0.00 931.00 237.00" xmlns="http://www.w3.org/2000/svg" xmlns:xlink="http://www.w3.org/1999/xlink">
<g id="graph0" class="graph" transform="scale(1 1) rotate(0) translate(4 233)">
<title>otus::BaseOnClickable&lt; Args &gt;</title>
<!-- Node1 -->
<g id="node1" class="node"><title>Node1</title>
<polygon fill="#bfbfbf" stroke="black" points="387,-138.5 387,-228.5 518,-228.5 518,-138.5 387,-138.5"/>
<text text-anchor="start" x="395" y="-216.5" font-family="Helvetica,sans-Serif" font-size="10.00">otus::BaseOnClickable</text>
<text text-anchor="middle" x="452.5" y="-205.5" font-family="Helvetica,sans-Serif" font-size="10.00">&lt; Args &gt;</text>
<polyline fill="none" stroke="black" points="387,-198.5 518,-198.5 "/>
<text text-anchor="middle" x="452.5" y="-186.5" font-family="Helvetica,sans-Serif" font-size="10.00"> </text>
<polyline fill="none" stroke="black" points="387,-179.5 518,-179.5 "/>
<text text-anchor="start" x="395" y="-167.5" font-family="Helvetica,sans-Serif" font-size="10.00">+ add_onclick_listener()</text>
<text text-anchor="start" x="395" y="-156.5" font-family="Helvetica,sans-Serif" font-size="10.00">+ click()</text>
<text text-anchor="start" x="395" y="-145.5" font-family="Helvetica,sans-Serif" font-size="10.00">+ ~BaseOnClickable()</text>
</g>
<!-- Node2 -->
<g id="node2" class="node"><title>Node2</title>
<g id="a_node2"><a xlink:href="classotus_1_1Canvas.html" target="_top" xlink:title="{otus::Canvas\&lt; int,\l int \&gt;\n||}">
<polygon fill="none" stroke="black" points="0,-11.5 0,-79.5 105,-79.5 105,-11.5 0,-11.5"/>
<text text-anchor="start" x="8" y="-67.5" font-family="Helvetica,sans-Serif" font-size="10.00">otus::Canvas&lt; int,</text>
<text text-anchor="middle" x="52.5" y="-56.5" font-family="Helvetica,sans-Serif" font-size="10.00"> int &gt;</text>
<polyline fill="none" stroke="black" points="0,-49.5 105,-49.5 "/>
<text text-anchor="middle" x="52.5" y="-37.5" font-family="Helvetica,sans-Serif" font-size="10.00"> </text>
<polyline fill="none" stroke="black" points="0,-30.5 105,-30.5 "/>
<text text-anchor="middle" x="52.5" y="-18.5" font-family="Helvetica,sans-Serif" font-size="10.00"> </text>
</a>
</g>
</g>
<!-- Node1&#45;&gt;Node2 -->
<g id="edge1" class="edge"><title>Node1&#45;&gt;Node2</title>
<path fill="none" stroke="midnightblue" d="M376.764,-170.296C306.156,-157.036 199.167,-132.059 113.5,-91 106.762,-87.7705 100,-83.773 93.5596,-79.5097"/>
<polygon fill="none" stroke="midnightblue" points="376.441,-173.795 386.91,-172.167 377.711,-166.911 376.441,-173.795"/>
</g>
<!-- Node3 -->
<g id="node3" class="node"><title>Node3</title>
<g id="a_node3"><a xlink:href="classotus_1_1ClearButton.html" target="_top" xlink:title="{otus::ClearButton\&lt;\&gt;\n||}">
<polygon fill="none" stroke="black" points="123,-17 123,-74 240,-74 240,-17 123,-17"/>
<text text-anchor="middle" x="181.5" y="-62" font-family="Helvetica,sans-Serif" font-size="10.00">otus::ClearButton&lt;&gt;</text>
<polyline fill="none" stroke="black" points="123,-55 240,-55 "/>
<text text-anchor="middle" x="181.5" y="-43" font-family="Helvetica,sans-Serif" font-size="10.00"> </text>
<polyline fill="none" stroke="black" points="123,-36 240,-36 "/>
<text text-anchor="middle" x="181.5" y="-24" font-family="Helvetica,sans-Serif" font-size="10.00"> </text>
</a>
</g>
</g>
<!-- Node1&#45;&gt;Node3 -->
<g id="edge2" class="edge"><title>Node1&#45;&gt;Node3</title>
<path fill="none" stroke="midnightblue" d="M377.614,-152.415C338.404,-135.793 290.037,-113.906 248.5,-91 239.329,-85.9427 229.781,-80.0292 220.864,-74.1953"/>
<polygon fill="none" stroke="midnightblue" points="376.285,-155.653 386.86,-156.309 379.002,-149.202 376.285,-155.653"/>
</g>
<!-- Node4 -->
<g id="node4" class="node"><title>Node4</title>
<g id="a_node4"><a xlink:href="classotus_1_1ColorButton.html" target="_top" xlink:title="{otus::ColorButton\&lt;\&gt;\n||+ ColorButton()\l+ get_tag()\l}">
<polygon fill="none" stroke="black" points="258,-11.5 258,-79.5 375,-79.5 375,-11.5 258,-11.5"/>
<text text-anchor="middle" x="316.5" y="-67.5" font-family="Helvetica,sans-Serif" font-size="10.00">otus::ColorButton&lt;&gt;</text>
<polyline fill="none" stroke="black" points="258,-60.5 375,-60.5 "/>
<text text-anchor="middle" x="316.5" y="-48.5" font-family="Helvetica,sans-Serif" font-size="10.00"> </text>
<polyline fill="none" stroke="black" points="258,-41.5 375,-41.5 "/>
<text text-anchor="start" x="266" y="-29.5" font-family="Helvetica,sans-Serif" font-size="10.00">+ ColorButton()</text>
<text text-anchor="start" x="266" y="-18.5" font-family="Helvetica,sans-Serif" font-size="10.00">+ get_tag()</text>
</a>
</g>
</g>
<!-- Node1&#45;&gt;Node4 -->
<g id="edge3" class="edge"><title>Node1&#45;&gt;Node4</title>
<path fill="none" stroke="midnightblue" d="M401.069,-131.069C383.845,-113.845 365.11,-95.1102 349.662,-79.662"/>
<polygon fill="none" stroke="midnightblue" points="398.799,-133.748 408.345,-138.345 403.748,-128.799 398.799,-133.748"/>
</g>
<!-- Node5 -->
<g id="node5" class="node"><title>Node5</title>
<g id="a_node5"><a xlink:href="classotus_1_1OpenButton.html" target="_top" xlink:title="{otus::OpenButton\&lt;\&gt;\n||+ OpenButton()\l+ get_path()\l+ set_path()\l}">
<polygon fill="none" stroke="black" points="393.5,-6 393.5,-85 511.5,-85 511.5,-6 393.5,-6"/>
<text text-anchor="middle" x="452.5" y="-73" font-family="Helvetica,sans-Serif" font-size="10.00">otus::OpenButton&lt;&gt;</text>
<polyline fill="none" stroke="black" points="393.5,-66 511.5,-66 "/>
<text text-anchor="middle" x="452.5" y="-54" font-family="Helvetica,sans-Serif" font-size="10.00"> </text>
<polyline fill="none" stroke="black" points="393.5,-47 511.5,-47 "/>
<text text-anchor="start" x="401.5" y="-35" font-family="Helvetica,sans-Serif" font-size="10.00">+ OpenButton()</text>
<text text-anchor="start" x="401.5" y="-24" font-family="Helvetica,sans-Serif" font-size="10.00">+ get_path()</text>
<text text-anchor="start" x="401.5" y="-13" font-family="Helvetica,sans-Serif" font-size="10.00">+ set_path()</text>
</a>
</g>
</g>
<!-- Node1&#45;&gt;Node5 -->
<g id="edge4" class="edge"><title>Node1&#45;&gt;Node5</title>
<path fill="none" stroke="midnightblue" d="M452.5,-128.122C452.5,-113.828 452.5,-98.696 452.5,-85.3953"/>
<polygon fill="none" stroke="midnightblue" points="449,-128.345 452.5,-138.345 456,-128.345 449,-128.345"/>
</g>
<!-- Node6 -->
<g id="node6" class="node"><title>Node6</title>
<g id="a_node6"><a xlink:href="classotus_1_1SaveButton.html" target="_top" xlink:title="{otus::SaveButton\&lt;\&gt;\n||}">
<polygon fill="none" stroke="black" points="529.5,-17 529.5,-74 645.5,-74 645.5,-17 529.5,-17"/>
<text text-anchor="middle" x="587.5" y="-62" font-family="Helvetica,sans-Serif" font-size="10.00">otus::SaveButton&lt;&gt;</text>
<polyline fill="none" stroke="black" points="529.5,-55 645.5,-55 "/>
<text text-anchor="middle" x="587.5" y="-43" font-family="Helvetica,sans-Serif" font-size="10.00"> </text>
<polyline fill="none" stroke="black" points="529.5,-36 645.5,-36 "/>
<text text-anchor="middle" x="587.5" y="-24" font-family="Helvetica,sans-Serif" font-size="10.00"> </text>
</a>
</g>
</g>
<!-- Node1&#45;&gt;Node6 -->
<g id="edge5" class="edge"><title>Node1&#45;&gt;Node6</title>
<path fill="none" stroke="midnightblue" d="M503.567,-131.054C522.726,-111.753 543.766,-90.558 559.987,-74.2163"/>
<polygon fill="none" stroke="midnightblue" points="500.892,-128.782 496.331,-138.345 505.86,-133.713 500.892,-128.782"/>
</g>
<!-- Node7 -->
<g id="node7" class="node"><title>Node7</title>
<g id="a_node7"><a xlink:href="classotus_1_1ToolButton.html" target="_top" xlink:title="{otus::ToolButton\&lt;\&gt;\n||+ ToolButton()\l+ get_tag()\l}">
<polygon fill="none" stroke="black" points="663.5,-11.5 663.5,-79.5 773.5,-79.5 773.5,-11.5 663.5,-11.5"/>
<text text-anchor="middle" x="718.5" y="-67.5" font-family="Helvetica,sans-Serif" font-size="10.00">otus::ToolButton&lt;&gt;</text>
<polyline fill="none" stroke="black" points="663.5,-60.5 773.5,-60.5 "/>
<text text-anchor="middle" x="718.5" y="-48.5" font-family="Helvetica,sans-Serif" font-size="10.00"> </text>
<polyline fill="none" stroke="black" points="663.5,-41.5 773.5,-41.5 "/>
<text text-anchor="start" x="671.5" y="-29.5" font-family="Helvetica,sans-Serif" font-size="10.00">+ ToolButton()</text>
<text text-anchor="start" x="671.5" y="-18.5" font-family="Helvetica,sans-Serif" font-size="10.00">+ get_tag()</text>
</a>
</g>
</g>
<!-- Node1&#45;&gt;Node7 -->
<g id="edge6" class="edge"><title>Node1&#45;&gt;Node7</title>
<path fill="none" stroke="midnightblue" d="M527.764,-152.284C566.471,-135.784 613.915,-114.046 654.5,-91 660.619,-87.5251 666.893,-83.6258 673.007,-79.6179"/>
<polygon fill="none" stroke="midnightblue" points="525.967,-149.244 518.121,-156.364 528.695,-155.691 525.967,-149.244"/>
</g>
<!-- Node8 -->
<g id="node8" class="node"><title>Node8</title>
<g id="a_node8"><a xlink:href="classotus_1_1BaseOnClickable.html" target="_top" xlink:title="{otus::BaseOnClickable\l\&lt; Args... \&gt;\n||+ add_onclick_listener()\l+ click()\l+ ~BaseOnClickable()\l}">
<polygon fill="none" stroke="black" points="792,-0.5 792,-90.5 923,-90.5 923,-0.5 792,-0.5"/>
<text text-anchor="start" x="800" y="-78.5" font-family="Helvetica,sans-Serif" font-size="10.00">otus::BaseOnClickable</text>
<text text-anchor="middle" x="857.5" y="-67.5" font-family="Helvetica,sans-Serif" font-size="10.00">&lt; Args... &gt;</text>
<polyline fill="none" stroke="black" points="792,-60.5 923,-60.5 "/>
<text text-anchor="middle" x="857.5" y="-48.5" font-family="Helvetica,sans-Serif" font-size="10.00"> </text>
<polyline fill="none" stroke="black" points="792,-41.5 923,-41.5 "/>
<text text-anchor="start" x="800" y="-29.5" font-family="Helvetica,sans-Serif" font-size="10.00">+ add_onclick_listener()</text>
<text text-anchor="start" x="800" y="-18.5" font-family="Helvetica,sans-Serif" font-size="10.00">+ click()</text>
<text text-anchor="start" x="800" y="-7.5" font-family="Helvetica,sans-Serif" font-size="10.00">+ ~BaseOnClickable()</text>
</a>
</g>
</g>
<!-- Node1&#45;&gt;Node8 -->
<g id="edge7" class="edge"><title>Node1&#45;&gt;Node8</title>
<path fill="none" stroke="orange" d="M527.899,-167.578C596.058,-152.701 698.315,-126.89 782.5,-91 785.564,-89.6937 788.655,-88.2833 791.747,-86.7964"/>
<polygon fill="orange" stroke="orange" points="527.133,-164.163 518.097,-169.694 528.61,-171.005 527.133,-164.163"/>
<text text-anchor="middle" x="759" y="-112" font-family="Helvetica,sans-Serif" font-size="10.00"> &lt; Args... &gt;</text>
</g>
</g>
</svg>
