<?xml version="1.0" encoding="UTF-8" standalone="no"?>
<!DOCTYPE svg PUBLIC "-//W3C//DTD SVG 1.1//EN"
 "http://www.w3.org/Graphics/SVG/1.1/DTD/svg11.dtd">
<!-- Generated by graphviz version 2.36.0 (20140111.2315)
 -->
<!-- Title: otus::StandardController Pages: 1 -->
<svg width="294pt" height="400pt"
 viewBox="0.00 0.00 294.00 400.00" xmlns="http://www.w3.org/2000/svg" xmlns:xlink="http://www.w3.org/1999/xlink">
<g id="graph0" class="graph" transform="scale(1 1) rotate(0) translate(4 396)">
<title>otus::StandardController</title>
<!-- Node1 -->
<g id="node1" class="node"><title>Node1</title>
<polygon fill="#bfbfbf" stroke="black" points="70,-1 70,-135 192,-135 192,-1 70,-1"/>
<text text-anchor="middle" x="131" y="-123" font-family="Helvetica,sans-Serif" font-size="10.00">otus::StandardController</text>
<polyline fill="none" stroke="black" points="70,-116 192,-116 "/>
<text text-anchor="middle" x="131" y="-104" font-family="Helvetica,sans-Serif" font-size="10.00"> </text>
<polyline fill="none" stroke="black" points="70,-97 192,-97 "/>
<text text-anchor="start" x="78" y="-85" font-family="Helvetica,sans-Serif" font-size="10.00">+ StandardController()</text>
<text text-anchor="start" x="78" y="-74" font-family="Helvetica,sans-Serif" font-size="10.00">+ open_file()</text>
<text text-anchor="start" x="78" y="-63" font-family="Helvetica,sans-Serif" font-size="10.00">+ save_file()</text>
<text text-anchor="start" x="78" y="-52" font-family="Helvetica,sans-Serif" font-size="10.00">+ clear()</text>
<text text-anchor="start" x="78" y="-41" font-family="Helvetica,sans-Serif" font-size="10.00">+ choose_tool()</text>
<text text-anchor="start" x="78" y="-30" font-family="Helvetica,sans-Serif" font-size="10.00">+ choose_color()</text>
<text text-anchor="start" x="78" y="-19" font-family="Helvetica,sans-Serif" font-size="10.00">+ on_click()</text>
<text text-anchor="start" x="78" y="-8" font-family="Helvetica,sans-Serif" font-size="10.00">+ on_click()</text>
</g>
<!-- Node2 -->
<g id="node2" class="node"><title>Node2</title>
<g id="a_node2"><a xlink:href="classotus_1_1ControllerInterface.html" target="_top" xlink:title="{otus::ControllerInterface\n||+ open_file()\l+ save_file()\l+ clear()\l+ choose_tool()\l+ choose_color()\l+ ~ControllerInterface()\l}">
<polygon fill="none" stroke="black" points="70,-173 70,-285 192,-285 192,-173 70,-173"/>
<text text-anchor="middle" x="131" y="-273" font-family="Helvetica,sans-Serif" font-size="10.00">otus::ControllerInterface</text>
<polyline fill="none" stroke="black" points="70,-266 192,-266 "/>
<text text-anchor="middle" x="131" y="-254" font-family="Helvetica,sans-Serif" font-size="10.00"> </text>
<polyline fill="none" stroke="black" points="70,-247 192,-247 "/>
<text text-anchor="start" x="78" y="-235" font-family="Helvetica,sans-Serif" font-size="10.00">+ open_file()</text>
<text text-anchor="start" x="78" y="-224" font-family="Helvetica,sans-Serif" font-size="10.00">+ save_file()</text>
<text text-anchor="start" x="78" y="-213" font-family="Helvetica,sans-Serif" font-size="10.00">+ clear()</text>
<text text-anchor="start" x="78" y="-202" font-family="Helvetica,sans-Serif" font-size="10.00">+ choose_tool()</text>
<text text-anchor="start" x="78" y="-191" font-family="Helvetica,sans-Serif" font-size="10.00">+ choose_color()</text>
<text text-anchor="start" x="78" y="-180" font-family="Helvetica,sans-Serif" font-size="10.00">+ ~ControllerInterface()</text>
</a>
</g>
</g>
<!-- Node2&#45;&gt;Node1 -->
<g id="edge1" class="edge"><title>Node2&#45;&gt;Node1</title>
<path fill="none" stroke="midnightblue" d="M131,-162.666C131,-153.539 131,-144.153 131,-135.013"/>
<polygon fill="none" stroke="midnightblue" points="127.5,-162.836 131,-172.836 134.5,-162.836 127.5,-162.836"/>
</g>
<!-- Node3 -->
<g id="node3" class="node"><title>Node3</title>
<g id="a_node3"><a xlink:href="classotus_1_1OnClickListener.html" target="_top" xlink:title="{otus::OnClickListener\n||+ on_click()\l+ ~OnClickListener()\l}">
<polygon fill="none" stroke="black" points="-0.5,-323 -0.5,-391 110.5,-391 110.5,-323 -0.5,-323"/>
<text text-anchor="middle" x="55" y="-379" font-family="Helvetica,sans-Serif" font-size="10.00">otus::OnClickListener</text>
<polyline fill="none" stroke="black" points="-0.5,-372 110.5,-372 "/>
<text text-anchor="middle" x="55" y="-360" font-family="Helvetica,sans-Serif" font-size="10.00"> </text>
<polyline fill="none" stroke="black" points="-0.5,-353 110.5,-353 "/>
<text text-anchor="start" x="7.5" y="-341" font-family="Helvetica,sans-Serif" font-size="10.00">+ on_click()</text>
<text text-anchor="start" x="7.5" y="-330" font-family="Helvetica,sans-Serif" font-size="10.00">+ ~OnClickListener()</text>
</a>
</g>
</g>
<!-- Node3&#45;&gt;Node2 -->
<g id="edge2" class="edge"><title>Node3&#45;&gt;Node2</title>
<path fill="none" stroke="midnightblue" d="M80.1825,-314.25C85.7746,-304.979 91.7862,-295.012 97.648,-285.294"/>
<polygon fill="none" stroke="midnightblue" points="77.1361,-312.524 74.9681,-322.895 83.1301,-316.14 77.1361,-312.524"/>
</g>
<!-- Node4 -->
<g id="node4" class="node"><title>Node4</title>
<g id="a_node4"><a xlink:href="classotus_1_1OnCoordinateClickListener.html" target="_top" xlink:title="{otus::OnCoordinateClickListener\n||+ on_click()\l+ ~OnCoordinateClickListener()\l}">
<polygon fill="none" stroke="black" points="128,-323 128,-391 286,-391 286,-323 128,-323"/>
<text text-anchor="middle" x="207" y="-379" font-family="Helvetica,sans-Serif" font-size="10.00">otus::OnCoordinateClickListener</text>
<polyline fill="none" stroke="black" points="128,-372 286,-372 "/>
<text text-anchor="middle" x="207" y="-360" font-family="Helvetica,sans-Serif" font-size="10.00"> </text>
<polyline fill="none" stroke="black" points="128,-353 286,-353 "/>
<text text-anchor="start" x="136" y="-341" font-family="Helvetica,sans-Serif" font-size="10.00">+ on_click()</text>
<text text-anchor="start" x="136" y="-330" font-family="Helvetica,sans-Serif" font-size="10.00">+ ~OnCoordinateClickListener()</text>
</a>
</g>
</g>
<!-- Node4&#45;&gt;Node2 -->
<g id="edge3" class="edge"><title>Node4&#45;&gt;Node2</title>
<path fill="none" stroke="midnightblue" d="M181.817,-314.25C176.225,-304.979 170.214,-295.012 164.352,-285.294"/>
<polygon fill="none" stroke="midnightblue" points="178.87,-316.14 187.032,-322.895 184.864,-312.524 178.87,-316.14"/>
</g>
</g>
</svg>
