<?xml version="1.0" encoding="UTF-8" standalone="no"?>
<!DOCTYPE svg PUBLIC "-//W3C//DTD SVG 1.1//EN"
 "http://www.w3.org/Graphics/SVG/1.1/DTD/svg11.dtd">
<!-- Generated by graphviz version 2.36.0 (20140111.2315)
 -->
<!-- Title: otus::StandardModel Pages: 1 -->
<svg width="118pt" height="476pt"
 viewBox="0.00 0.00 118.00 476.00" xmlns="http://www.w3.org/2000/svg" xmlns:xlink="http://www.w3.org/1999/xlink">
<g id="graph0" class="graph" transform="scale(1 1) rotate(0) translate(4 472)">
<title>otus::StandardModel</title>
<!-- Node1 -->
<g id="node1" class="node"><title>Node1</title>
<polygon fill="#bfbfbf" stroke="black" points="-0.5,-1 -0.5,-157 110.5,-157 110.5,-1 -0.5,-1"/>
<text text-anchor="middle" x="55" y="-145" font-family="Helvetica,sans-Serif" font-size="10.00">otus::StandardModel</text>
<polyline fill="none" stroke="black" points="-0.5,-138 110.5,-138 "/>
<text text-anchor="middle" x="55" y="-126" font-family="Helvetica,sans-Serif" font-size="10.00"> </text>
<polyline fill="none" stroke="black" points="-0.5,-119 110.5,-119 "/>
<text text-anchor="start" x="7.5" y="-107" font-family="Helvetica,sans-Serif" font-size="10.00">+ choose_tool()</text>
<text text-anchor="start" x="7.5" y="-96" font-family="Helvetica,sans-Serif" font-size="10.00">+ choose_color()</text>
<text text-anchor="start" x="7.5" y="-85" font-family="Helvetica,sans-Serif" font-size="10.00">+ add_element()</text>
<text text-anchor="start" x="7.5" y="-74" font-family="Helvetica,sans-Serif" font-size="10.00">+ delete_element_at()</text>
<text text-anchor="start" x="7.5" y="-63" font-family="Helvetica,sans-Serif" font-size="10.00">+ open()</text>
<text text-anchor="start" x="7.5" y="-52" font-family="Helvetica,sans-Serif" font-size="10.00">+ clear()</text>
<text text-anchor="start" x="7.5" y="-41" font-family="Helvetica,sans-Serif" font-size="10.00">+ save()</text>
<text text-anchor="start" x="7.5" y="-30" font-family="Helvetica,sans-Serif" font-size="10.00">+ get_elements()</text>
<text text-anchor="start" x="7.5" y="-19" font-family="Helvetica,sans-Serif" font-size="10.00">+ get_current_tool()</text>
<text text-anchor="start" x="7.5" y="-8" font-family="Helvetica,sans-Serif" font-size="10.00">+ get_current_color()</text>
</g>
<!-- Node2 -->
<g id="node2" class="node"><title>Node2</title>
<g id="a_node2"><a xlink:href="classotus_1_1ModelInterface.html" target="_top" xlink:title="{otus::ModelInterface\n||+ get_current_color()\l+ choose_color()\l+ get_current_tool()\l+ choose_tool()\l+ add_element()\l+ delete_element_at()\l+ open()\l+ clear()\l+ save()\l+ get_elements()\l+ ~ModelInterface()\l}">
<polygon fill="none" stroke="black" points="-0.5,-194.5 -0.5,-361.5 110.5,-361.5 110.5,-194.5 -0.5,-194.5"/>
<text text-anchor="middle" x="55" y="-349.5" font-family="Helvetica,sans-Serif" font-size="10.00">otus::ModelInterface</text>
<polyline fill="none" stroke="black" points="-0.5,-342.5 110.5,-342.5 "/>
<text text-anchor="middle" x="55" y="-330.5" font-family="Helvetica,sans-Serif" font-size="10.00"> </text>
<polyline fill="none" stroke="black" points="-0.5,-323.5 110.5,-323.5 "/>
<text text-anchor="start" x="7.5" y="-311.5" font-family="Helvetica,sans-Serif" font-size="10.00">+ get_current_color()</text>
<text text-anchor="start" x="7.5" y="-300.5" font-family="Helvetica,sans-Serif" font-size="10.00">+ choose_color()</text>
<text text-anchor="start" x="7.5" y="-289.5" font-family="Helvetica,sans-Serif" font-size="10.00">+ get_current_tool()</text>
<text text-anchor="start" x="7.5" y="-278.5" font-family="Helvetica,sans-Serif" font-size="10.00">+ choose_tool()</text>
<text text-anchor="start" x="7.5" y="-267.5" font-family="Helvetica,sans-Serif" font-size="10.00">+ add_element()</text>
<text text-anchor="start" x="7.5" y="-256.5" font-family="Helvetica,sans-Serif" font-size="10.00">+ delete_element_at()</text>
<text text-anchor="start" x="7.5" y="-245.5" font-family="Helvetica,sans-Serif" font-size="10.00">+ open()</text>
<text text-anchor="start" x="7.5" y="-234.5" font-family="Helvetica,sans-Serif" font-size="10.00">+ clear()</text>
<text text-anchor="start" x="7.5" y="-223.5" font-family="Helvetica,sans-Serif" font-size="10.00">+ save()</text>
<text text-anchor="start" x="7.5" y="-212.5" font-family="Helvetica,sans-Serif" font-size="10.00">+ get_elements()</text>
<text text-anchor="start" x="7.5" y="-201.5" font-family="Helvetica,sans-Serif" font-size="10.00">+ ~ModelInterface()</text>
</a>
</g>
</g>
<!-- Node2&#45;&gt;Node1 -->
<g id="edge1" class="edge"><title>Node2&#45;&gt;Node1</title>
<path fill="none" stroke="midnightblue" d="M55,-184.145C55,-175.103 55,-165.997 55,-157.134"/>
<polygon fill="none" stroke="midnightblue" points="51.5001,-184.31 55,-194.311 58.5001,-184.311 51.5001,-184.31"/>
</g>
<!-- Node3 -->
<g id="node3" class="node"><title>Node3</title>
<g id="a_node3"><a xlink:href="classotus_1_1Observable.html" target="_top" xlink:title="{otus::Observable\n||+ add_observer()\l+ notify_update()\l}">
<polygon fill="none" stroke="black" points="9.5,-399 9.5,-467 100.5,-467 100.5,-399 9.5,-399"/>
<text text-anchor="middle" x="55" y="-455" font-family="Helvetica,sans-Serif" font-size="10.00">otus::Observable</text>
<polyline fill="none" stroke="black" points="9.5,-448 100.5,-448 "/>
<text text-anchor="middle" x="55" y="-436" font-family="Helvetica,sans-Serif" font-size="10.00"> </text>
<polyline fill="none" stroke="black" points="9.5,-429 100.5,-429 "/>
<text text-anchor="start" x="17.5" y="-417" font-family="Helvetica,sans-Serif" font-size="10.00">+ add_observer()</text>
<text text-anchor="start" x="17.5" y="-406" font-family="Helvetica,sans-Serif" font-size="10.00">+ notify_update()</text>
</a>
</g>
</g>
<!-- Node3&#45;&gt;Node2 -->
<g id="edge2" class="edge"><title>Node3&#45;&gt;Node2</title>
<path fill="none" stroke="midnightblue" d="M55,-388.783C55,-380.261 55,-371.055 55,-361.724"/>
<polygon fill="none" stroke="midnightblue" points="51.5001,-388.801 55,-398.801 58.5001,-388.801 51.5001,-388.801"/>
</g>
</g>
</svg>
