<?xml version="1.0" encoding="UTF-8" standalone="no"?>
<!DOCTYPE svg PUBLIC "-//W3C//DTD SVG 1.1//EN"
 "http://www.w3.org/Graphics/SVG/1.1/DTD/svg11.dtd">
<!-- Generated by graphviz version 2.36.0 (20140111.2315)
 -->
<!-- Title: otus::AbstractGeometryFactory Pages: 1 -->
<svg width="164pt" height="194pt"
 viewBox="0.00 0.00 164.00 194.00" xmlns="http://www.w3.org/2000/svg" xmlns:xlink="http://www.w3.org/1999/xlink">
<g id="graph0" class="graph" transform="scale(1 1) rotate(0) translate(4 190)">
<title>otus::AbstractGeometryFactory</title>
<!-- Node1 -->
<g id="node1" class="node"><title>Node1</title>
<polygon fill="#bfbfbf" stroke="black" points="1,-95 1,-185 155,-185 155,-95 1,-95"/>
<text text-anchor="middle" x="78" y="-173" font-family="Helvetica,sans-Serif" font-size="10.00">otus::AbstractGeometryFactory</text>
<polyline fill="none" stroke="black" points="1,-166 155,-166 "/>
<text text-anchor="middle" x="78" y="-154" font-family="Helvetica,sans-Serif" font-size="10.00"> </text>
<polyline fill="none" stroke="black" points="1,-147 155,-147 "/>
<text text-anchor="start" x="9" y="-135" font-family="Helvetica,sans-Serif" font-size="10.00">+ createLine()</text>
<text text-anchor="start" x="9" y="-124" font-family="Helvetica,sans-Serif" font-size="10.00">+ createRectangle()</text>
<text text-anchor="start" x="9" y="-113" font-family="Helvetica,sans-Serif" font-size="10.00">+ createDot()</text>
<text text-anchor="start" x="9" y="-102" font-family="Helvetica,sans-Serif" font-size="10.00">+ ~AbstractGeometryFactory()</text>
</g>
<!-- Node2 -->
<g id="node2" class="node"><title>Node2</title>
<g id="a_node2"><a xlink:href="classotus_1_1StandardGeometryFactory.html" target="_top" xlink:title="{otus::StandardGeometryFactory\n||}">
<polygon fill="none" stroke="black" points="0,-0.5 0,-57.5 156,-57.5 156,-0.5 0,-0.5"/>
<text text-anchor="middle" x="78" y="-45.5" font-family="Helvetica,sans-Serif" font-size="10.00">otus::StandardGeometryFactory</text>
<polyline fill="none" stroke="black" points="0,-38.5 156,-38.5 "/>
<text text-anchor="middle" x="78" y="-26.5" font-family="Helvetica,sans-Serif" font-size="10.00"> </text>
<polyline fill="none" stroke="black" points="0,-19.5 156,-19.5 "/>
<text text-anchor="middle" x="78" y="-7.5" font-family="Helvetica,sans-Serif" font-size="10.00"> </text>
</a>
</g>
</g>
<!-- Node1&#45;&gt;Node2 -->
<g id="edge1" class="edge"><title>Node1&#45;&gt;Node2</title>
<path fill="none" stroke="midnightblue" d="M78,-84.792C78,-75.3496 78,-65.8956 78,-57.5636"/>
<polygon fill="none" stroke="midnightblue" points="74.5001,-84.9797 78,-94.9797 81.5001,-84.9798 74.5001,-84.9797"/>
</g>
</g>
</svg>
