<?xml version="1.0" encoding="UTF-8" standalone="no"?>
<!DOCTYPE svg PUBLIC "-//W3C//DTD SVG 1.1//EN"
 "http://www.w3.org/Graphics/SVG/1.1/DTD/svg11.dtd">
<!-- Generated by graphviz version 2.36.0 (20140111.2315)
 -->
<!-- Title: otus::Dot Pages: 1 -->
<svg width="126pt" height="238pt"
 viewBox="0.00 0.00 126.00 238.00" xmlns="http://www.w3.org/2000/svg" xmlns:xlink="http://www.w3.org/1999/xlink">
<g id="graph0" class="graph" transform="scale(1 1) rotate(0) translate(4 234)">
<title>otus::Dot</title>
<!-- Node1 -->
<g id="node1" class="node"><title>Node1</title>
<polygon fill="#bfbfbf" stroke="black" points="30.5,-1 30.5,-91 87.5,-91 87.5,-1 30.5,-1"/>
<text text-anchor="middle" x="59" y="-79" font-family="Helvetica,sans-Serif" font-size="10.00">otus::Dot</text>
<polyline fill="none" stroke="black" points="30.5,-72 87.5,-72 "/>
<text text-anchor="middle" x="59" y="-60" font-family="Helvetica,sans-Serif" font-size="10.00"> </text>
<polyline fill="none" stroke="black" points="30.5,-53 87.5,-53 "/>
<text text-anchor="start" x="38.5" y="-41" font-family="Helvetica,sans-Serif" font-size="10.00">+ Dot()</text>
<text text-anchor="start" x="38.5" y="-30" font-family="Helvetica,sans-Serif" font-size="10.00">+ draw()</text>
<text text-anchor="start" x="38.5" y="-19" font-family="Helvetica,sans-Serif" font-size="10.00">+ getX()</text>
<text text-anchor="start" x="38.5" y="-8" font-family="Helvetica,sans-Serif" font-size="10.00">+ getY()</text>
</g>
<!-- Node2 -->
<g id="node2" class="node"><title>Node2</title>
<g id="a_node2"><a xlink:href="classotus_1_1GeometryElement.html" target="_top" xlink:title="{otus::GeometryElement\n||+ GeometryElement()\l+ draw()\l+ getX()\l+ getY()\l+ ~GeometryElement()\l}">
<polygon fill="none" stroke="black" points="-1,-128.5 -1,-229.5 119,-229.5 119,-128.5 -1,-128.5"/>
<text text-anchor="middle" x="59" y="-217.5" font-family="Helvetica,sans-Serif" font-size="10.00">otus::GeometryElement</text>
<polyline fill="none" stroke="black" points="-1,-210.5 119,-210.5 "/>
<text text-anchor="middle" x="59" y="-198.5" font-family="Helvetica,sans-Serif" font-size="10.00"> </text>
<polyline fill="none" stroke="black" points="-1,-191.5 119,-191.5 "/>
<text text-anchor="start" x="7" y="-179.5" font-family="Helvetica,sans-Serif" font-size="10.00">+ GeometryElement()</text>
<text text-anchor="start" x="7" y="-168.5" font-family="Helvetica,sans-Serif" font-size="10.00">+ draw()</text>
<text text-anchor="start" x="7" y="-157.5" font-family="Helvetica,sans-Serif" font-size="10.00">+ getX()</text>
<text text-anchor="start" x="7" y="-146.5" font-family="Helvetica,sans-Serif" font-size="10.00">+ getY()</text>
<text text-anchor="start" x="7" y="-135.5" font-family="Helvetica,sans-Serif" font-size="10.00">+ ~GeometryElement()</text>
</a>
</g>
</g>
<!-- Node2&#45;&gt;Node1 -->
<g id="edge1" class="edge"><title>Node2&#45;&gt;Node1</title>
<path fill="none" stroke="midnightblue" d="M59,-118.229C59,-109.064 59,-99.7473 59,-91.0055"/>
<polygon fill="none" stroke="midnightblue" points="55.5001,-118.474 59,-128.475 62.5001,-118.475 55.5001,-118.474"/>
</g>
</g>
</svg>
