<?xml version="1.0" encoding="UTF-8" standalone="no"?>
<!DOCTYPE svg PUBLIC "-//W3C//DTD SVG 1.1//EN"
 "http://www.w3.org/Graphics/SVG/1.1/DTD/svg11.dtd">
<!-- Generated by graphviz version 2.36.0 (20140111.2315)
 -->
<!-- Title: otus::ModelInterface Pages: 1 -->
<svg width="118pt" height="282pt"
 viewBox="0.00 0.00 118.00 282.00" xmlns="http://www.w3.org/2000/svg" xmlns:xlink="http://www.w3.org/1999/xlink">
<g id="graph0" class="graph" transform="scale(1 1) rotate(0) translate(4 278)">
<title>otus::ModelInterface</title>
<!-- Node1 -->
<g id="node1" class="node"><title>Node1</title>
<polygon fill="#bfbfbf" stroke="black" points="-0.5,-1 -0.5,-157 110.5,-157 110.5,-1 -0.5,-1"/>
<text text-anchor="middle" x="55" y="-145" font-family="Helvetica,sans-Serif" font-size="10.00">otus::ModelInterface</text>
<polyline fill="none" stroke="black" points="-0.5,-138 110.5,-138 "/>
<text text-anchor="middle" x="55" y="-126" font-family="Helvetica,sans-Serif" font-size="10.00"> </text>
<polyline fill="none" stroke="black" points="-0.5,-119 110.5,-119 "/>
<text text-anchor="start" x="7.5" y="-107" font-family="Helvetica,sans-Serif" font-size="10.00">+ get_current_color()</text>
<text text-anchor="start" x="7.5" y="-96" font-family="Helvetica,sans-Serif" font-size="10.00">+ choose_color()</text>
<text text-anchor="start" x="7.5" y="-85" font-family="Helvetica,sans-Serif" font-size="10.00">+ get_current_tool()</text>
<text text-anchor="start" x="7.5" y="-74" font-family="Helvetica,sans-Serif" font-size="10.00">+ choose_tool()</text>
<text text-anchor="start" x="7.5" y="-63" font-family="Helvetica,sans-Serif" font-size="10.00">+ add_element()</text>
<text text-anchor="start" x="7.5" y="-52" font-family="Helvetica,sans-Serif" font-size="10.00">+ delete_element_at()</text>
<text text-anchor="start" x="7.5" y="-41" font-family="Helvetica,sans-Serif" font-size="10.00">+ open()</text>
<text text-anchor="start" x="7.5" y="-30" font-family="Helvetica,sans-Serif" font-size="10.00">+ clear()</text>
<text text-anchor="start" x="7.5" y="-19" font-family="Helvetica,sans-Serif" font-size="10.00">+ save()</text>
<text text-anchor="start" x="7.5" y="-8" font-family="Helvetica,sans-Serif" font-size="10.00">+ get_elements()</text>
</g>
<!-- Node2 -->
<g id="node2" class="node"><title>Node2</title>
<g id="a_node2"><a xlink:href="classotus_1_1BaseListenable.html" target="_top" xlink:title="{Listenable\n||+ add_listener()\l+ notify_update()\l+ ~BaseListenable()\l}">
<polygon fill="none" stroke="black" points="3,-194.5 3,-273.5 107,-273.5 107,-194.5 3,-194.5"/>
<text text-anchor="middle" x="55" y="-261.5" font-family="Helvetica,sans-Serif" font-size="10.00">Listenable</text>
<polyline fill="none" stroke="black" points="3,-254.5 107,-254.5 "/>
<text text-anchor="middle" x="55" y="-242.5" font-family="Helvetica,sans-Serif" font-size="10.00"> </text>
<polyline fill="none" stroke="black" points="3,-235.5 107,-235.5 "/>
<text text-anchor="start" x="11" y="-223.5" font-family="Helvetica,sans-Serif" font-size="10.00">+ add_listener()</text>
<text text-anchor="start" x="11" y="-212.5" font-family="Helvetica,sans-Serif" font-size="10.00">+ notify_update()</text>
<text text-anchor="start" x="11" y="-201.5" font-family="Helvetica,sans-Serif" font-size="10.00">+ ~BaseListenable()</text>
</a>
</g>
</g>
<!-- Node2&#45;&gt;Node1 -->
<g id="edge1" class="edge"><title>Node2&#45;&gt;Node1</title>
<path fill="none" stroke="midnightblue" d="M55,-184.147C55,-175.497 55,-166.302 55,-157.095"/>
<polygon fill="none" stroke="midnightblue" points="51.5001,-184.392 55,-194.392 58.5001,-184.392 51.5001,-184.392"/>
</g>
</g>
</svg>
