<?xml version="1.0" encoding="UTF-8" standalone="no"?>
<!DOCTYPE svg PUBLIC "-//W3C//DTD SVG 1.1//EN"
 "http://www.w3.org/Graphics/SVG/1.1/DTD/svg11.dtd">
<!-- Generated by graphviz version 2.36.0 (20140111.2315)
 -->
<!-- Title: otus::ViewInterface Pages: 1 -->
<svg width="108pt" height="172pt"
 viewBox="0.00 0.00 108.00 172.00" xmlns="http://www.w3.org/2000/svg" xmlns:xlink="http://www.w3.org/1999/xlink">
<g id="graph0" class="graph" transform="scale(1 1) rotate(0) translate(4 168)">
<title>otus::ViewInterface</title>
<!-- Node1 -->
<g id="node1" class="node"><title>Node1</title>
<polygon fill="#bfbfbf" stroke="black" points="-0.5,-106.5 -0.5,-163.5 100.5,-163.5 100.5,-106.5 -0.5,-106.5"/>
<text text-anchor="middle" x="50" y="-151.5" font-family="Helvetica,sans-Serif" font-size="10.00">otus::ViewInterface</text>
<polyline fill="none" stroke="black" points="-0.5,-144.5 100.5,-144.5 "/>
<text text-anchor="middle" x="50" y="-132.5" font-family="Helvetica,sans-Serif" font-size="10.00"> </text>
<polyline fill="none" stroke="black" points="-0.5,-125.5 100.5,-125.5 "/>
<text text-anchor="start" x="7.5" y="-113.5" font-family="Helvetica,sans-Serif" font-size="10.00">+ redraw()</text>
</g>
<!-- Node2 -->
<g id="node2" class="node"><title>Node2</title>
<g id="a_node2"><a xlink:href="classotus_1_1StandardView.html" target="_top" xlink:title="{otus::StandardView\n||+ StandardView()\l+ redraw()\l}">
<polygon fill="none" stroke="black" points="-1,-1 -1,-69 101,-69 101,-1 -1,-1"/>
<text text-anchor="middle" x="50" y="-57" font-family="Helvetica,sans-Serif" font-size="10.00">otus::StandardView</text>
<polyline fill="none" stroke="black" points="-1,-50 101,-50 "/>
<text text-anchor="middle" x="50" y="-38" font-family="Helvetica,sans-Serif" font-size="10.00"> </text>
<polyline fill="none" stroke="black" points="-1,-31 101,-31 "/>
<text text-anchor="start" x="7" y="-19" font-family="Helvetica,sans-Serif" font-size="10.00">+ StandardView()</text>
<text text-anchor="start" x="7" y="-8" font-family="Helvetica,sans-Serif" font-size="10.00">+ redraw()</text>
</a>
</g>
</g>
<!-- Node1&#45;&gt;Node2 -->
<g id="edge1" class="edge"><title>Node1&#45;&gt;Node2</title>
<path fill="none" stroke="midnightblue" d="M50,-96.3023C50,-87.3951 50,-77.9608 50,-69.2659"/>
<polygon fill="none" stroke="midnightblue" points="46.5001,-96.4407 50,-106.441 53.5001,-96.4408 46.5001,-96.4407"/>
</g>
</g>
</svg>
