<?xml version="1.0" encoding="UTF-8" standalone="no"?>
<!DOCTYPE svg PUBLIC "-//W3C//DTD SVG 1.1//EN"
 "http://www.w3.org/Graphics/SVG/1.1/DTD/svg11.dtd">
<!-- Generated by graphviz version 2.36.0 (20140111.2315)
 -->
<!-- Title: otus::OpenButton Pages: 1 -->
<svg width="126pt" height="204pt"
 viewBox="0.00 0.00 126.00 204.00" xmlns="http://www.w3.org/2000/svg" xmlns:xlink="http://www.w3.org/1999/xlink">
<g id="graph0" class="graph" transform="scale(1 1) rotate(0) translate(4 200)">
<title>otus::OpenButton</title>
<!-- Node1 -->
<g id="node1" class="node"><title>Node1</title>
<polygon fill="#bfbfbf" stroke="black" points="12.5,-0.5 12.5,-79.5 105.5,-79.5 105.5,-0.5 12.5,-0.5"/>
<text text-anchor="middle" x="59" y="-67.5" font-family="Helvetica,sans-Serif" font-size="10.00">otus::OpenButton</text>
<polyline fill="none" stroke="black" points="12.5,-60.5 105.5,-60.5 "/>
<text text-anchor="middle" x="59" y="-48.5" font-family="Helvetica,sans-Serif" font-size="10.00"> </text>
<polyline fill="none" stroke="black" points="12.5,-41.5 105.5,-41.5 "/>
<text text-anchor="start" x="20.5" y="-29.5" font-family="Helvetica,sans-Serif" font-size="10.00">+ OpenButton()</text>
<text text-anchor="start" x="20.5" y="-18.5" font-family="Helvetica,sans-Serif" font-size="10.00">+ get_path()</text>
<text text-anchor="start" x="20.5" y="-7.5" font-family="Helvetica,sans-Serif" font-size="10.00">+ set_path()</text>
</g>
<!-- Node2 -->
<g id="node2" class="node"><title>Node2</title>
<g id="a_node2"><a xlink:href="classotus_1_1OnClickable.html" target="_top" xlink:title="{otus::OnClickable\n||+ add_onclick_listener()\l+ click()\l+ ~OnClickable()\l}">
<polygon fill="none" stroke="black" points="-1,-116.5 -1,-195.5 119,-195.5 119,-116.5 -1,-116.5"/>
<text text-anchor="middle" x="59" y="-183.5" font-family="Helvetica,sans-Serif" font-size="10.00">otus::OnClickable</text>
<polyline fill="none" stroke="black" points="-1,-176.5 119,-176.5 "/>
<text text-anchor="middle" x="59" y="-164.5" font-family="Helvetica,sans-Serif" font-size="10.00"> </text>
<polyline fill="none" stroke="black" points="-1,-157.5 119,-157.5 "/>
<text text-anchor="start" x="7" y="-145.5" font-family="Helvetica,sans-Serif" font-size="10.00">+ add_onclick_listener()</text>
<text text-anchor="start" x="7" y="-134.5" font-family="Helvetica,sans-Serif" font-size="10.00">+ click()</text>
<text text-anchor="start" x="7" y="-123.5" font-family="Helvetica,sans-Serif" font-size="10.00">+ ~OnClickable()</text>
</a>
</g>
</g>
<!-- Node2&#45;&gt;Node1 -->
<g id="edge1" class="edge"><title>Node2&#45;&gt;Node1</title>
<path fill="none" stroke="midnightblue" d="M59,-106.146C59,-97.256 59,-88.0961 59,-79.5555"/>
<polygon fill="none" stroke="midnightblue" points="55.5001,-106.405 59,-116.405 62.5001,-106.405 55.5001,-106.405"/>
</g>
</g>
</svg>
