<?xml version="1.0" encoding="UTF-8" standalone="no"?>
<!DOCTYPE svg PUBLIC "-//W3C//DTD SVG 1.1//EN"
 "http://www.w3.org/Graphics/SVG/1.1/DTD/svg11.dtd">
<!-- Generated by graphviz version 2.38.0 (20140413.2041)
 -->
<!-- Title: otus::GeometryElement Pages: 1 -->
<svg width="259pt" height="237pt"
 viewBox="0.00 0.00 258.50 237.00" xmlns="http://www.w3.org/2000/svg" xmlns:xlink="http://www.w3.org/1999/xlink">
<g id="graph0" class="graph" transform="scale(1 1) rotate(0) translate(4 233)">
<title>otus::GeometryElement</title>
<!-- Node1 -->
<g id="node1" class="node"><title>Node1</title>
<polygon fill="#bfbfbf" stroke="black" points="45,-127.5 45,-228.5 176,-228.5 176,-127.5 45,-127.5"/>
<text text-anchor="middle" x="110.5" y="-216.5" font-family="Helvetica,sans-Serif" font-size="10.00">otus::GeometryElement</text>
<polyline fill="none" stroke="black" points="45,-209.5 176,-209.5 "/>
<text text-anchor="middle" x="110.5" y="-197.5" font-family="Helvetica,sans-Serif" font-size="10.00"> </text>
<polyline fill="none" stroke="black" points="45,-190.5 176,-190.5 "/>
<text text-anchor="start" x="53" y="-178.5" font-family="Helvetica,sans-Serif" font-size="10.00">+ GeometryElement()</text>
<text text-anchor="start" x="53" y="-167.5" font-family="Helvetica,sans-Serif" font-size="10.00">+ draw()</text>
<text text-anchor="start" x="53" y="-156.5" font-family="Helvetica,sans-Serif" font-size="10.00">+ getX()</text>
<text text-anchor="start" x="53" y="-145.5" font-family="Helvetica,sans-Serif" font-size="10.00">+ getY()</text>
<text text-anchor="start" x="53" y="-134.5" font-family="Helvetica,sans-Serif" font-size="10.00">+ ~GeometryElement()</text>
</g>
<!-- Node2 -->
<g id="node2" class="node"><title>Node2</title>
<g id="a_node2"><a xlink:href="classotus_1_1Dot.html" target="_top" xlink:title="{otus::Dot\n||+ Dot()\l+ draw()\l+ getX()\l+ getY()\l}">
<polygon fill="none" stroke="black" points="0,-0.5 0,-90.5 61,-90.5 61,-0.5 0,-0.5"/>
<text text-anchor="middle" x="30.5" y="-78.5" font-family="Helvetica,sans-Serif" font-size="10.00">otus::Dot</text>
<polyline fill="none" stroke="black" points="0,-71.5 61,-71.5 "/>
<text text-anchor="middle" x="30.5" y="-59.5" font-family="Helvetica,sans-Serif" font-size="10.00"> </text>
<polyline fill="none" stroke="black" points="0,-52.5 61,-52.5 "/>
<text text-anchor="start" x="8" y="-40.5" font-family="Helvetica,sans-Serif" font-size="10.00">+ Dot()</text>
<text text-anchor="start" x="8" y="-29.5" font-family="Helvetica,sans-Serif" font-size="10.00">+ draw()</text>
<text text-anchor="start" x="8" y="-18.5" font-family="Helvetica,sans-Serif" font-size="10.00">+ getX()</text>
<text text-anchor="start" x="8" y="-7.5" font-family="Helvetica,sans-Serif" font-size="10.00">+ getY()</text>
</a>
</g>
</g>
<!-- Node1&#45;&gt;Node2 -->
<g id="edge1" class="edge"><title>Node1&#45;&gt;Node2</title>
<path fill="none" stroke="midnightblue" d="M74.749,-118.681C68.9492,-109.22 63.0289,-99.5628 57.4833,-90.5165"/>
<polygon fill="none" stroke="midnightblue" points="71.8168,-120.595 80.0272,-127.291 77.7847,-116.936 71.8168,-120.595"/>
</g>
<!-- Node3 -->
<g id="node3" class="node"><title>Node3</title>
<g id="a_node3"><a xlink:href="classotus_1_1Line.html" target="_top" xlink:title="{otus::Line\n||+ Line()\l+ draw()\l+ getX()\l+ getY()\l}">
<polygon fill="none" stroke="black" points="79,-0.5 79,-90.5 142,-90.5 142,-0.5 79,-0.5"/>
<text text-anchor="middle" x="110.5" y="-78.5" font-family="Helvetica,sans-Serif" font-size="10.00">otus::Line</text>
<polyline fill="none" stroke="black" points="79,-71.5 142,-71.5 "/>
<text text-anchor="middle" x="110.5" y="-59.5" font-family="Helvetica,sans-Serif" font-size="10.00"> </text>
<polyline fill="none" stroke="black" points="79,-52.5 142,-52.5 "/>
<text text-anchor="start" x="87" y="-40.5" font-family="Helvetica,sans-Serif" font-size="10.00">+ Line()</text>
<text text-anchor="start" x="87" y="-29.5" font-family="Helvetica,sans-Serif" font-size="10.00">+ draw()</text>
<text text-anchor="start" x="87" y="-18.5" font-family="Helvetica,sans-Serif" font-size="10.00">+ getX()</text>
<text text-anchor="start" x="87" y="-7.5" font-family="Helvetica,sans-Serif" font-size="10.00">+ getY()</text>
</a>
</g>
</g>
<!-- Node1&#45;&gt;Node3 -->
<g id="edge2" class="edge"><title>Node1&#45;&gt;Node3</title>
<path fill="none" stroke="midnightblue" d="M110.5,-117.232C110.5,-108.236 110.5,-99.1012 110.5,-90.5165"/>
<polygon fill="none" stroke="midnightblue" points="107,-117.291 110.5,-127.291 114,-117.291 107,-117.291"/>
</g>
<!-- Node4 -->
<g id="node4" class="node"><title>Node4</title>
<g id="a_node4"><a xlink:href="classotus_1_1Rectangle.html" target="_top" xlink:title="{otus::Rectangle\n||+ Rectangle()\l+ draw()\l+ getX()\l+ getY()\l}">
<polygon fill="none" stroke="black" points="160.5,-0.5 160.5,-90.5 250.5,-90.5 250.5,-0.5 160.5,-0.5"/>
<text text-anchor="middle" x="205.5" y="-78.5" font-family="Helvetica,sans-Serif" font-size="10.00">otus::Rectangle</text>
<polyline fill="none" stroke="black" points="160.5,-71.5 250.5,-71.5 "/>
<text text-anchor="middle" x="205.5" y="-59.5" font-family="Helvetica,sans-Serif" font-size="10.00"> </text>
<polyline fill="none" stroke="black" points="160.5,-52.5 250.5,-52.5 "/>
<text text-anchor="start" x="168.5" y="-40.5" font-family="Helvetica,sans-Serif" font-size="10.00">+ Rectangle()</text>
<text text-anchor="start" x="168.5" y="-29.5" font-family="Helvetica,sans-Serif" font-size="10.00">+ draw()</text>
<text text-anchor="start" x="168.5" y="-18.5" font-family="Helvetica,sans-Serif" font-size="10.00">+ getX()</text>
<text text-anchor="start" x="168.5" y="-7.5" font-family="Helvetica,sans-Serif" font-size="10.00">+ getY()</text>
</a>
</g>
</g>
<!-- Node1&#45;&gt;Node4 -->
<g id="edge3" class="edge"><title>Node1&#45;&gt;Node4</title>
<path fill="none" stroke="midnightblue" d="M152.744,-118.971C159.698,-109.417 166.805,-99.6551 173.457,-90.5165"/>
<polygon fill="none" stroke="midnightblue" points="149.742,-117.147 146.686,-127.291 155.402,-121.266 149.742,-117.147"/>
</g>
</g>
</svg>
