<?xml version="1.0" encoding="UTF-8" standalone="no"?>
<!DOCTYPE svg PUBLIC "-//W3C//DTD SVG 1.1//EN"
 "http://www.w3.org/Graphics/SVG/1.1/DTD/svg11.dtd">
<!-- Generated by graphviz version 2.36.0 (20140111.2315)
 -->
<!-- Title: otus::OnCoordinateClickListener Pages: 1 -->
<svg width="164pt" height="400pt"
 viewBox="0.00 0.00 164.00 400.00" xmlns="http://www.w3.org/2000/svg" xmlns:xlink="http://www.w3.org/1999/xlink">
<g id="graph0" class="graph" transform="scale(1 1) rotate(0) translate(4 396)">
<title>otus::OnCoordinateClickListener</title>
<!-- Node1 -->
<g id="node1" class="node"><title>Node1</title>
<polygon fill="#bfbfbf" stroke="black" points="-1,-323 -1,-391 157,-391 157,-323 -1,-323"/>
<text text-anchor="middle" x="78" y="-379" font-family="Helvetica,sans-Serif" font-size="10.00">otus::OnCoordinateClickListener</text>
<polyline fill="none" stroke="black" points="-1,-372 157,-372 "/>
<text text-anchor="middle" x="78" y="-360" font-family="Helvetica,sans-Serif" font-size="10.00"> </text>
<polyline fill="none" stroke="black" points="-1,-353 157,-353 "/>
<text text-anchor="start" x="7" y="-341" font-family="Helvetica,sans-Serif" font-size="10.00">+ on_click()</text>
<text text-anchor="start" x="7" y="-330" font-family="Helvetica,sans-Serif" font-size="10.00">+ ~OnCoordinateClickListener()</text>
</g>
<!-- Node2 -->
<g id="node2" class="node"><title>Node2</title>
<g id="a_node2"><a xlink:href="classotus_1_1ControllerInterface.html" target="_top" xlink:title="{otus::ControllerInterface\n||+ open_file()\l+ save_file()\l+ clear()\l+ choose_tool()\l+ choose_color()\l+ ~ControllerInterface()\l}">
<polygon fill="none" stroke="black" points="17,-173 17,-285 139,-285 139,-173 17,-173"/>
<text text-anchor="middle" x="78" y="-273" font-family="Helvetica,sans-Serif" font-size="10.00">otus::ControllerInterface</text>
<polyline fill="none" stroke="black" points="17,-266 139,-266 "/>
<text text-anchor="middle" x="78" y="-254" font-family="Helvetica,sans-Serif" font-size="10.00"> </text>
<polyline fill="none" stroke="black" points="17,-247 139,-247 "/>
<text text-anchor="start" x="25" y="-235" font-family="Helvetica,sans-Serif" font-size="10.00">+ open_file()</text>
<text text-anchor="start" x="25" y="-224" font-family="Helvetica,sans-Serif" font-size="10.00">+ save_file()</text>
<text text-anchor="start" x="25" y="-213" font-family="Helvetica,sans-Serif" font-size="10.00">+ clear()</text>
<text text-anchor="start" x="25" y="-202" font-family="Helvetica,sans-Serif" font-size="10.00">+ choose_tool()</text>
<text text-anchor="start" x="25" y="-191" font-family="Helvetica,sans-Serif" font-size="10.00">+ choose_color()</text>
<text text-anchor="start" x="25" y="-180" font-family="Helvetica,sans-Serif" font-size="10.00">+ ~ControllerInterface()</text>
</a>
</g>
</g>
<!-- Node1&#45;&gt;Node2 -->
<g id="edge1" class="edge"><title>Node1&#45;&gt;Node2</title>
<path fill="none" stroke="midnightblue" d="M78,-312.811C78,-303.952 78,-294.511 78,-285.294"/>
<polygon fill="none" stroke="midnightblue" points="74.5001,-312.895 78,-322.895 81.5001,-312.895 74.5001,-312.895"/>
</g>
<!-- Node3 -->
<g id="node3" class="node"><title>Node3</title>
<g id="a_node3"><a xlink:href="classotus_1_1StandardController.html" target="_top" xlink:title="{otus::StandardController\n||+ StandardController()\l+ open_file()\l+ save_file()\l+ clear()\l+ choose_tool()\l+ choose_color()\l+ on_click()\l+ on_click()\l}">
<polygon fill="none" stroke="black" points="17,-1 17,-135 139,-135 139,-1 17,-1"/>
<text text-anchor="middle" x="78" y="-123" font-family="Helvetica,sans-Serif" font-size="10.00">otus::StandardController</text>
<polyline fill="none" stroke="black" points="17,-116 139,-116 "/>
<text text-anchor="middle" x="78" y="-104" font-family="Helvetica,sans-Serif" font-size="10.00"> </text>
<polyline fill="none" stroke="black" points="17,-97 139,-97 "/>
<text text-anchor="start" x="25" y="-85" font-family="Helvetica,sans-Serif" font-size="10.00">+ StandardController()</text>
<text text-anchor="start" x="25" y="-74" font-family="Helvetica,sans-Serif" font-size="10.00">+ open_file()</text>
<text text-anchor="start" x="25" y="-63" font-family="Helvetica,sans-Serif" font-size="10.00">+ save_file()</text>
<text text-anchor="start" x="25" y="-52" font-family="Helvetica,sans-Serif" font-size="10.00">+ clear()</text>
<text text-anchor="start" x="25" y="-41" font-family="Helvetica,sans-Serif" font-size="10.00">+ choose_tool()</text>
<text text-anchor="start" x="25" y="-30" font-family="Helvetica,sans-Serif" font-size="10.00">+ choose_color()</text>
<text text-anchor="start" x="25" y="-19" font-family="Helvetica,sans-Serif" font-size="10.00">+ on_click()</text>
<text text-anchor="start" x="25" y="-8" font-family="Helvetica,sans-Serif" font-size="10.00">+ on_click()</text>
</a>
</g>
</g>
<!-- Node2&#45;&gt;Node3 -->
<g id="edge2" class="edge"><title>Node2&#45;&gt;Node3</title>
<path fill="none" stroke="midnightblue" d="M78,-162.666C78,-153.539 78,-144.153 78,-135.013"/>
<polygon fill="none" stroke="midnightblue" points="74.5001,-162.836 78,-172.836 81.5001,-162.836 74.5001,-162.836"/>
</g>
</g>
</svg>
