<?xml version="1.0" encoding="UTF-8" standalone="no"?>
<!DOCTYPE svg PUBLIC "-//W3C//DTD SVG 1.1//EN"
 "http://www.w3.org/Graphics/SVG/1.1/DTD/svg11.dtd">
<!-- Generated by graphviz version 2.36.0 (20140111.2315)
 -->
<!-- Title: otus::OnClickable Pages: 1 -->
<svg width="540pt" height="204pt"
 viewBox="0.00 0.00 540.00 204.00" xmlns="http://www.w3.org/2000/svg" xmlns:xlink="http://www.w3.org/1999/xlink">
<g id="graph0" class="graph" transform="scale(1 1) rotate(0) translate(4 200)">
<title>otus::OnClickable</title>
<!-- Node1 -->
<g id="node1" class="node"><title>Node1</title>
<polygon fill="#bfbfbf" stroke="black" points="208,-116.5 208,-195.5 328,-195.5 328,-116.5 208,-116.5"/>
<text text-anchor="middle" x="268" y="-183.5" font-family="Helvetica,sans-Serif" font-size="10.00">otus::OnClickable</text>
<polyline fill="none" stroke="black" points="208,-176.5 328,-176.5 "/>
<text text-anchor="middle" x="268" y="-164.5" font-family="Helvetica,sans-Serif" font-size="10.00"> </text>
<polyline fill="none" stroke="black" points="208,-157.5 328,-157.5 "/>
<text text-anchor="start" x="216" y="-145.5" font-family="Helvetica,sans-Serif" font-size="10.00">+ add_onclick_listener()</text>
<text text-anchor="start" x="216" y="-134.5" font-family="Helvetica,sans-Serif" font-size="10.00">+ click()</text>
<text text-anchor="start" x="216" y="-123.5" font-family="Helvetica,sans-Serif" font-size="10.00">+ ~OnClickable()</text>
</g>
<!-- Node2 -->
<g id="node2" class="node"><title>Node2</title>
<g id="a_node2"><a xlink:href="classotus_1_1ClearButton.html" target="_top" xlink:title="{otus::ClearButton\n||}">
<polygon fill="none" stroke="black" points="-0.5,-11.5 -0.5,-68.5 92.5,-68.5 92.5,-11.5 -0.5,-11.5"/>
<text text-anchor="middle" x="46" y="-56.5" font-family="Helvetica,sans-Serif" font-size="10.00">otus::ClearButton</text>
<polyline fill="none" stroke="black" points="-0.5,-49.5 92.5,-49.5 "/>
<text text-anchor="middle" x="46" y="-37.5" font-family="Helvetica,sans-Serif" font-size="10.00"> </text>
<polyline fill="none" stroke="black" points="-0.5,-30.5 92.5,-30.5 "/>
<text text-anchor="middle" x="46" y="-18.5" font-family="Helvetica,sans-Serif" font-size="10.00"> </text>
</a>
</g>
</g>
<!-- Node1&#45;&gt;Node2 -->
<g id="edge1" class="edge"><title>Node1&#45;&gt;Node2</title>
<path fill="none" stroke="midnightblue" d="M198.564,-127.409C167.969,-114.346 132.005,-97.7295 101,-80 95.0047,-76.5717 88.8515,-72.6521 82.9316,-68.6498"/>
<polygon fill="none" stroke="midnightblue" points="197.301,-130.676 207.875,-131.347 200.028,-124.228 197.301,-130.676"/>
</g>
<!-- Node3 -->
<g id="node3" class="node"><title>Node3</title>
<g id="a_node3"><a xlink:href="classotus_1_1ColorButton.html" target="_top" xlink:title="{otus::ColorButton\n||+ ColorButton()\l+ get_tag()\l}">
<polygon fill="none" stroke="black" points="110.5,-6 110.5,-74 203.5,-74 203.5,-6 110.5,-6"/>
<text text-anchor="middle" x="157" y="-62" font-family="Helvetica,sans-Serif" font-size="10.00">otus::ColorButton</text>
<polyline fill="none" stroke="black" points="110.5,-55 203.5,-55 "/>
<text text-anchor="middle" x="157" y="-43" font-family="Helvetica,sans-Serif" font-size="10.00"> </text>
<polyline fill="none" stroke="black" points="110.5,-36 203.5,-36 "/>
<text text-anchor="start" x="118.5" y="-24" font-family="Helvetica,sans-Serif" font-size="10.00">+ ColorButton()</text>
<text text-anchor="start" x="118.5" y="-13" font-family="Helvetica,sans-Serif" font-size="10.00">+ get_tag()</text>
</a>
</g>
</g>
<!-- Node1&#45;&gt;Node3 -->
<g id="edge2" class="edge"><title>Node1&#45;&gt;Node3</title>
<path fill="none" stroke="midnightblue" d="M223.426,-109.222C212.032,-97.519 199.997,-85.1593 189.348,-74.2225"/>
<polygon fill="none" stroke="midnightblue" points="220.937,-111.682 230.42,-116.405 225.952,-106.798 220.937,-111.682"/>
</g>
<!-- Node4 -->
<g id="node4" class="node"><title>Node4</title>
<g id="a_node4"><a xlink:href="classotus_1_1OpenButton.html" target="_top" xlink:title="{otus::OpenButton\n||+ OpenButton()\l+ get_path()\l+ set_path()\l}">
<polygon fill="none" stroke="black" points="221.5,-0.5 221.5,-79.5 314.5,-79.5 314.5,-0.5 221.5,-0.5"/>
<text text-anchor="middle" x="268" y="-67.5" font-family="Helvetica,sans-Serif" font-size="10.00">otus::OpenButton</text>
<polyline fill="none" stroke="black" points="221.5,-60.5 314.5,-60.5 "/>
<text text-anchor="middle" x="268" y="-48.5" font-family="Helvetica,sans-Serif" font-size="10.00"> </text>
<polyline fill="none" stroke="black" points="221.5,-41.5 314.5,-41.5 "/>
<text text-anchor="start" x="229.5" y="-29.5" font-family="Helvetica,sans-Serif" font-size="10.00">+ OpenButton()</text>
<text text-anchor="start" x="229.5" y="-18.5" font-family="Helvetica,sans-Serif" font-size="10.00">+ get_path()</text>
<text text-anchor="start" x="229.5" y="-7.5" font-family="Helvetica,sans-Serif" font-size="10.00">+ set_path()</text>
</a>
</g>
</g>
<!-- Node1&#45;&gt;Node4 -->
<g id="edge3" class="edge"><title>Node1&#45;&gt;Node4</title>
<path fill="none" stroke="midnightblue" d="M268,-106.146C268,-97.256 268,-88.0961 268,-79.5555"/>
<polygon fill="none" stroke="midnightblue" points="264.5,-106.405 268,-116.405 271.5,-106.405 264.5,-106.405"/>
</g>
<!-- Node5 -->
<g id="node5" class="node"><title>Node5</title>
<g id="a_node5"><a xlink:href="classotus_1_1SaveButton.html" target="_top" xlink:title="{otus::SaveButton\n||}">
<polygon fill="none" stroke="black" points="333,-11.5 333,-68.5 425,-68.5 425,-11.5 333,-11.5"/>
<text text-anchor="middle" x="379" y="-56.5" font-family="Helvetica,sans-Serif" font-size="10.00">otus::SaveButton</text>
<polyline fill="none" stroke="black" points="333,-49.5 425,-49.5 "/>
<text text-anchor="middle" x="379" y="-37.5" font-family="Helvetica,sans-Serif" font-size="10.00"> </text>
<polyline fill="none" stroke="black" points="333,-30.5 425,-30.5 "/>
<text text-anchor="middle" x="379" y="-18.5" font-family="Helvetica,sans-Serif" font-size="10.00"> </text>
</a>
</g>
</g>
<!-- Node1&#45;&gt;Node5 -->
<g id="edge4" class="edge"><title>Node1&#45;&gt;Node5</title>
<path fill="none" stroke="midnightblue" d="M312.841,-108.947C326.106,-95.324 340.214,-80.8346 351.979,-68.7509"/>
<polygon fill="none" stroke="midnightblue" points="310.048,-106.798 305.58,-116.405 315.063,-111.682 310.048,-106.798"/>
</g>
<!-- Node6 -->
<g id="node6" class="node"><title>Node6</title>
<g id="a_node6"><a xlink:href="classotus_1_1ToolButton.html" target="_top" xlink:title="{otus::ToolButton\n||+ ToolButton()\l+ get_tag()\l}">
<polygon fill="none" stroke="black" points="443.5,-6 443.5,-74 532.5,-74 532.5,-6 443.5,-6"/>
<text text-anchor="middle" x="488" y="-62" font-family="Helvetica,sans-Serif" font-size="10.00">otus::ToolButton</text>
<polyline fill="none" stroke="black" points="443.5,-55 532.5,-55 "/>
<text text-anchor="middle" x="488" y="-43" font-family="Helvetica,sans-Serif" font-size="10.00"> </text>
<polyline fill="none" stroke="black" points="443.5,-36 532.5,-36 "/>
<text text-anchor="start" x="451.5" y="-24" font-family="Helvetica,sans-Serif" font-size="10.00">+ ToolButton()</text>
<text text-anchor="start" x="451.5" y="-13" font-family="Helvetica,sans-Serif" font-size="10.00">+ get_tag()</text>
</a>
</g>
</g>
<!-- Node1&#45;&gt;Node6 -->
<g id="edge5" class="edge"><title>Node1&#45;&gt;Node6</title>
<path fill="none" stroke="midnightblue" d="M337.451,-127.327C367.794,-114.301 403.371,-97.7378 434,-80 437.202,-78.1455 440.448,-76.1452 443.676,-74.0646"/>
<polygon fill="none" stroke="midnightblue" points="336.047,-124.12 328.213,-131.253 338.786,-130.563 336.047,-124.12"/>
</g>
</g>
</svg>
