<?xml version="1.0" encoding="UTF-8" standalone="no"?>
<!DOCTYPE svg PUBLIC "-//W3C//DTD SVG 1.1//EN"
 "http://www.w3.org/Graphics/SVG/1.1/DTD/svg11.dtd">
<!-- Generated by graphviz version 2.36.0 (20140111.2315)
 -->
<!-- Title: otus::ModelInterface Pages: 1 -->
<svg width="118pt" height="282pt"
 viewBox="0.00 0.00 118.00 282.00" xmlns="http://www.w3.org/2000/svg" xmlns:xlink="http://www.w3.org/1999/xlink">
<g id="graph0" class="graph" transform="scale(1 1) rotate(0) translate(4 278)">
<title>otus::ModelInterface</title>
<!-- Node1 -->
<g id="node1" class="node"><title>Node1</title>
<polygon fill="#bfbfbf" stroke="black" points="-0.5,-0.5 -0.5,-167.5 110.5,-167.5 110.5,-0.5 -0.5,-0.5"/>
<text text-anchor="middle" x="55" y="-155.5" font-family="Helvetica,sans-Serif" font-size="10.00">otus::ModelInterface</text>
<polyline fill="none" stroke="black" points="-0.5,-148.5 110.5,-148.5 "/>
<text text-anchor="middle" x="55" y="-136.5" font-family="Helvetica,sans-Serif" font-size="10.00"> </text>
<polyline fill="none" stroke="black" points="-0.5,-129.5 110.5,-129.5 "/>
<text text-anchor="start" x="7.5" y="-117.5" font-family="Helvetica,sans-Serif" font-size="10.00">+ get_current_color()</text>
<text text-anchor="start" x="7.5" y="-106.5" font-family="Helvetica,sans-Serif" font-size="10.00">+ choose_color()</text>
<text text-anchor="start" x="7.5" y="-95.5" font-family="Helvetica,sans-Serif" font-size="10.00">+ get_current_tool()</text>
<text text-anchor="start" x="7.5" y="-84.5" font-family="Helvetica,sans-Serif" font-size="10.00">+ choose_tool()</text>
<text text-anchor="start" x="7.5" y="-73.5" font-family="Helvetica,sans-Serif" font-size="10.00">+ add_element()</text>
<text text-anchor="start" x="7.5" y="-62.5" font-family="Helvetica,sans-Serif" font-size="10.00">+ delete_element_at()</text>
<text text-anchor="start" x="7.5" y="-51.5" font-family="Helvetica,sans-Serif" font-size="10.00">+ open()</text>
<text text-anchor="start" x="7.5" y="-40.5" font-family="Helvetica,sans-Serif" font-size="10.00">+ clear()</text>
<text text-anchor="start" x="7.5" y="-29.5" font-family="Helvetica,sans-Serif" font-size="10.00">+ save()</text>
<text text-anchor="start" x="7.5" y="-18.5" font-family="Helvetica,sans-Serif" font-size="10.00">+ get_elements()</text>
<text text-anchor="start" x="7.5" y="-7.5" font-family="Helvetica,sans-Serif" font-size="10.00">+ ~ModelInterface()</text>
</g>
<!-- Node2 -->
<g id="node2" class="node"><title>Node2</title>
<g id="a_node2"><a xlink:href="classotus_1_1Observable.html" target="_top" xlink:title="{otus::Observable\n||+ add_observer()\l+ notify_update()\l}">
<polygon fill="none" stroke="black" points="9.5,-205 9.5,-273 100.5,-273 100.5,-205 9.5,-205"/>
<text text-anchor="middle" x="55" y="-261" font-family="Helvetica,sans-Serif" font-size="10.00">otus::Observable</text>
<polyline fill="none" stroke="black" points="9.5,-254 100.5,-254 "/>
<text text-anchor="middle" x="55" y="-242" font-family="Helvetica,sans-Serif" font-size="10.00"> </text>
<polyline fill="none" stroke="black" points="9.5,-235 100.5,-235 "/>
<text text-anchor="start" x="17.5" y="-223" font-family="Helvetica,sans-Serif" font-size="10.00">+ add_observer()</text>
<text text-anchor="start" x="17.5" y="-212" font-family="Helvetica,sans-Serif" font-size="10.00">+ notify_update()</text>
</a>
</g>
</g>
<!-- Node2&#45;&gt;Node1 -->
<g id="edge1" class="edge"><title>Node2&#45;&gt;Node1</title>
<path fill="none" stroke="midnightblue" d="M55,-194.783C55,-186.261 55,-177.055 55,-167.724"/>
<polygon fill="none" stroke="midnightblue" points="51.5001,-194.801 55,-204.801 58.5001,-194.801 51.5001,-194.801"/>
</g>
</g>
</svg>
