<?xml version="1.0" encoding="UTF-8" standalone="no"?>
<!DOCTYPE svg PUBLIC "-//W3C//DTD SVG 1.1//EN"
 "http://www.w3.org/Graphics/SVG/1.1/DTD/svg11.dtd">
<!-- Generated by graphviz version 2.36.0 (20140111.2315)
 -->
<!-- Title: src/controller/controller.h Pages: 1 -->
<svg width="507pt" height="308pt"
 viewBox="0.00 0.00 507.00 308.00" xmlns="http://www.w3.org/2000/svg" xmlns:xlink="http://www.w3.org/1999/xlink">
<g id="graph0" class="graph" transform="scale(1 1) rotate(0) translate(4 304)">
<title>src/controller/controller.h</title>
<!-- Node1 -->
<g id="node1" class="node"><title>Node1</title>
<polygon fill="#bfbfbf" stroke="black" points="216,-280.5 216,-299.5 340,-299.5 340,-280.5 216,-280.5"/>
<text text-anchor="middle" x="278" y="-287.5" font-family="Helvetica,sans-Serif" font-size="10.00">src/controller/controller.h</text>
</g>
<!-- Node2 -->
<g id="node2" class="node"><title>Node2</title>
<g id="a_node2"><a xlink:href="icontroller_8h.html" target="_top" xlink:title="File with interface of abstract controller (from MVC). ">
<polygon fill="none" stroke="black" points="-0.5,-168.5 -0.5,-187.5 66.5,-187.5 66.5,-168.5 -0.5,-168.5"/>
<text text-anchor="middle" x="33" y="-175.5" font-family="Helvetica,sans-Serif" font-size="10.00">icontroller.h</text>
</a>
</g>
</g>
<!-- Node1&#45;&gt;Node2 -->
<g id="edge1" class="edge"><title>Node1&#45;&gt;Node2</title>
<path fill="none" stroke="midnightblue" d="M258.775,-280.368C215.839,-261.091 111.965,-214.454 61.4855,-191.789"/>
<polygon fill="midnightblue" stroke="midnightblue" points="62.6917,-188.494 52.1354,-187.591 59.8246,-194.88 62.6917,-188.494"/>
</g>
<!-- Node10 -->
<g id="node10" class="node"><title>Node10</title>
<g id="a_node10"><a xlink:href="model_8h.html" target="_top" xlink:title="File with declaration of model (from MVC). ">
<polygon fill="none" stroke="black" points="306.5,-224.5 306.5,-243.5 395.5,-243.5 395.5,-224.5 306.5,-224.5"/>
<text text-anchor="middle" x="351" y="-231.5" font-family="Helvetica,sans-Serif" font-size="10.00">../model/model.h</text>
</a>
</g>
</g>
<!-- Node1&#45;&gt;Node10 -->
<g id="edge10" class="edge"><title>Node1&#45;&gt;Node10</title>
<path fill="none" stroke="midnightblue" d="M289.729,-280.324C300.837,-272.107 317.742,-259.602 330.983,-249.807"/>
<polygon fill="midnightblue" stroke="midnightblue" points="333.1,-252.595 339.058,-243.834 328.937,-246.967 333.1,-252.595"/>
</g>
<!-- Node14 -->
<g id="node14" class="node"><title>Node14</title>
<g id="a_node14"><a xlink:href="view__elements_8h.html" target="_top" xlink:title="File with declaration of button and canvas classes. ">
<polygon fill="none" stroke="black" points="85,-168.5 85,-187.5 207,-187.5 207,-168.5 85,-168.5"/>
<text text-anchor="middle" x="146" y="-175.5" font-family="Helvetica,sans-Serif" font-size="10.00">../view/view_elements.h</text>
</a>
</g>
</g>
<!-- Node1&#45;&gt;Node14 -->
<g id="edge18" class="edge"><title>Node1&#45;&gt;Node14</title>
<path fill="none" stroke="midnightblue" d="M267.642,-280.368C245.28,-261.733 192.239,-217.532 164.161,-194.134"/>
<polygon fill="midnightblue" stroke="midnightblue" points="166.233,-191.305 156.31,-187.591 161.751,-196.682 166.233,-191.305"/>
</g>
<!-- Node15 -->
<g id="node15" class="node"><title>Node15</title>
<g id="a_node15"><a xlink:href="iview_8h.html" target="_top" xlink:title="File with interface of abstract view (V from MVC). ">
<polygon fill="none" stroke="black" points="414,-224.5 414,-243.5 494,-243.5 494,-224.5 414,-224.5"/>
<text text-anchor="middle" x="454" y="-231.5" font-family="Helvetica,sans-Serif" font-size="10.00">../view/iview.h</text>
</a>
</g>
</g>
<!-- Node1&#45;&gt;Node15 -->
<g id="edge22" class="edge"><title>Node1&#45;&gt;Node15</title>
<path fill="none" stroke="midnightblue" d="M305.888,-280.444C335.754,-271.28 383.315,-256.688 416.456,-246.519"/>
<polygon fill="midnightblue" stroke="midnightblue" points="417.709,-249.796 426.243,-243.516 415.656,-243.104 417.709,-249.796"/>
</g>
<!-- Node16 -->
<g id="node16" class="node"><title>Node16</title>
<g id="a_node16"><a xlink:href="geomfactory_8h.html" target="_top" xlink:title="File with interface of abstract geometry factory and declaration of standard geometry factory...">
<polygon fill="none" stroke="black" points="225.5,-168.5 225.5,-187.5 334.5,-187.5 334.5,-168.5 225.5,-168.5"/>
<text text-anchor="middle" x="280" y="-175.5" font-family="Helvetica,sans-Serif" font-size="10.00">../utils/geomfactory.h</text>
</a>
</g>
</g>
<!-- Node1&#45;&gt;Node16 -->
<g id="edge24" class="edge"><title>Node1&#45;&gt;Node16</title>
<path fill="none" stroke="midnightblue" d="M278.157,-280.368C278.48,-262.617 279.224,-221.666 279.662,-197.597"/>
<polygon fill="midnightblue" stroke="midnightblue" points="283.161,-197.653 279.844,-187.591 276.162,-197.526 283.161,-197.653"/>
</g>
<!-- Node3 -->
<g id="node3" class="node"><title>Node3</title>
<g id="a_node3"><a xlink:href="geometry__elements_8h.html" target="_top" xlink:title="File with declaration of geometry element classes. ">
<polygon fill="none" stroke="black" points="139.5,-112.5 139.5,-131.5 282.5,-131.5 282.5,-112.5 139.5,-112.5"/>
<text text-anchor="middle" x="211" y="-119.5" font-family="Helvetica,sans-Serif" font-size="10.00">../view/geometry_elements.h</text>
</a>
</g>
</g>
<!-- Node2&#45;&gt;Node3 -->
<g id="edge2" class="edge"><title>Node2&#45;&gt;Node3</title>
<path fill="none" stroke="midnightblue" d="M61.2046,-168.444C91.41,-159.28 139.511,-144.688 173.029,-134.519"/>
<polygon fill="midnightblue" stroke="midnightblue" points="174.374,-137.769 182.927,-131.516 172.342,-131.07 174.374,-137.769"/>
</g>
<!-- Node5 -->
<g id="node5" class="node"><title>Node5</title>
<polygon fill="none" stroke="#bfbfbf" points="51.5,-0.5 51.5,-19.5 92.5,-19.5 92.5,-0.5 51.5,-0.5"/>
<text text-anchor="middle" x="72" y="-7.5" font-family="Helvetica,sans-Serif" font-size="10.00">string</text>
</g>
<!-- Node2&#45;&gt;Node5 -->
<g id="edge9" class="edge"><title>Node2&#45;&gt;Node5</title>
<path fill="none" stroke="midnightblue" d="M34.4734,-168.425C37.9566,-148.531 47.221,-97.7467 58,-56 60.304,-47.0766 63.2909,-37.2937 65.9137,-29.1353"/>
<polygon fill="midnightblue" stroke="midnightblue" points="69.265,-30.1479 69.0638,-19.555 62.6153,-27.9614 69.265,-30.1479"/>
</g>
<!-- Node7 -->
<g id="node7" class="node"><title>Node7</title>
<g id="a_node7"><a xlink:href="onclick_8h.html" target="_top" xlink:title="File with declaration of observer pattern classes. Two pairs of publishers and subscribers: OnClickLi...">
<polygon fill="none" stroke="black" points="100,-56.5 100,-75.5 186,-75.5 186,-56.5 100,-56.5"/>
<text text-anchor="middle" x="143" y="-63.5" font-family="Helvetica,sans-Serif" font-size="10.00">../utils/onclick.h</text>
</a>
</g>
</g>
<!-- Node2&#45;&gt;Node7 -->
<g id="edge6" class="edge"><title>Node2&#45;&gt;Node7</title>
<path fill="none" stroke="midnightblue" d="M41.6315,-168.368C60.1059,-149.894 103.707,-106.293 127.256,-82.7436"/>
<polygon fill="midnightblue" stroke="midnightblue" points="129.812,-85.1374 134.409,-75.5914 124.863,-80.1876 129.812,-85.1374"/>
</g>
<!-- Node4 -->
<g id="node4" class="node"><title>Node4</title>
<g id="a_node4"><a xlink:href="logger_8h.html" target="_top" xlink:title="File with simple logger class declaration. ">
<polygon fill="none" stroke="black" points="296.5,-56.5 296.5,-75.5 377.5,-75.5 377.5,-56.5 296.5,-56.5"/>
<text text-anchor="middle" x="337" y="-63.5" font-family="Helvetica,sans-Serif" font-size="10.00">../utils/logger.h</text>
</a>
</g>
</g>
<!-- Node3&#45;&gt;Node4 -->
<g id="edge3" class="edge"><title>Node3&#45;&gt;Node4</title>
<path fill="none" stroke="midnightblue" d="M230.965,-112.444C251.609,-103.596 284.063,-89.6875 307.632,-79.5865"/>
<polygon fill="midnightblue" stroke="midnightblue" points="309.316,-82.6727 317.128,-75.5164 306.558,-76.2387 309.316,-82.6727"/>
</g>
<!-- Node6 -->
<g id="node6" class="node"><title>Node6</title>
<g id="a_node6"><a xlink:href="tags_8h.html" target="_top" xlink:title="File with declaration of some tool and color tags. Used as color and tool mode flag in model (M from ...">
<polygon fill="none" stroke="black" points="204,-56.5 204,-75.5 278,-75.5 278,-56.5 204,-56.5"/>
<text text-anchor="middle" x="241" y="-63.5" font-family="Helvetica,sans-Serif" font-size="10.00">../utils/tags.h</text>
</a>
</g>
</g>
<!-- Node3&#45;&gt;Node6 -->
<g id="edge5" class="edge"><title>Node3&#45;&gt;Node6</title>
<path fill="none" stroke="midnightblue" d="M215.954,-112.083C220.104,-104.613 226.153,-93.7244 231.267,-84.5199"/>
<polygon fill="midnightblue" stroke="midnightblue" points="234.341,-86.1924 236.138,-75.7511 228.222,-82.7929 234.341,-86.1924"/>
</g>
<!-- Node4&#45;&gt;Node5 -->
<g id="edge4" class="edge"><title>Node4&#45;&gt;Node5</title>
<path fill="none" stroke="midnightblue" d="M296.464,-56.7398C243.085,-45.8626 150.414,-26.9787 102.556,-17.2266"/>
<polygon fill="midnightblue" stroke="midnightblue" points="103.001,-13.7453 92.5032,-15.178 101.603,-20.6043 103.001,-13.7453"/>
</g>
<!-- Node8 -->
<g id="node8" class="node"><title>Node8</title>
<polygon fill="none" stroke="#bfbfbf" points="189.5,-0.5 189.5,-19.5 218.5,-19.5 218.5,-0.5 189.5,-0.5"/>
<text text-anchor="middle" x="204" y="-7.5" font-family="Helvetica,sans-Serif" font-size="10.00">list</text>
</g>
<!-- Node7&#45;&gt;Node8 -->
<g id="edge7" class="edge"><title>Node7&#45;&gt;Node8</title>
<path fill="none" stroke="midnightblue" d="M152.801,-56.324C161.818,-48.3414 175.406,-36.3128 186.318,-26.6529"/>
<polygon fill="midnightblue" stroke="midnightblue" points="188.853,-29.083 194.021,-19.8339 184.213,-23.8416 188.853,-29.083"/>
</g>
<!-- Node9 -->
<g id="node9" class="node"><title>Node9</title>
<polygon fill="none" stroke="#bfbfbf" points="359.5,-0.5 359.5,-19.5 418.5,-19.5 418.5,-0.5 359.5,-0.5"/>
<text text-anchor="middle" x="389" y="-7.5" font-family="Helvetica,sans-Serif" font-size="10.00">functional</text>
</g>
<!-- Node7&#45;&gt;Node9 -->
<g id="edge8" class="edge"><title>Node7&#45;&gt;Node9</title>
<path fill="none" stroke="midnightblue" d="M181.979,-56.4435C227.826,-46.3796 303.506,-29.7669 349.554,-19.6588"/>
<polygon fill="midnightblue" stroke="midnightblue" points="350.451,-23.0454 359.468,-17.4826 348.95,-16.2082 350.451,-23.0454"/>
</g>
<!-- Node11 -->
<g id="node11" class="node"><title>Node11</title>
<g id="a_node11"><a xlink:href="imodel_8h.html" target="_top" xlink:title="File with interface of abstract model (from MVC). ">
<polygon fill="none" stroke="black" points="352.5,-168.5 352.5,-187.5 405.5,-187.5 405.5,-168.5 352.5,-168.5"/>
<text text-anchor="middle" x="379" y="-175.5" font-family="Helvetica,sans-Serif" font-size="10.00">imodel.h</text>
</a>
</g>
</g>
<!-- Node10&#45;&gt;Node11 -->
<g id="edge11" class="edge"><title>Node10&#45;&gt;Node11</title>
<path fill="none" stroke="midnightblue" d="M355.624,-224.083C359.456,-216.691 365.024,-205.953 369.765,-196.811"/>
<polygon fill="midnightblue" stroke="midnightblue" points="372.966,-198.24 374.462,-187.751 366.752,-195.018 372.966,-198.24"/>
</g>
<!-- Node11&#45;&gt;Node3 -->
<g id="edge12" class="edge"><title>Node11&#45;&gt;Node3</title>
<path fill="none" stroke="midnightblue" d="M352.38,-168.444C323.994,-159.32 278.863,-144.813 247.247,-134.651"/>
<polygon fill="midnightblue" stroke="midnightblue" points="248.087,-131.244 237.496,-131.516 245.945,-137.909 248.087,-131.244"/>
</g>
<!-- Node12 -->
<g id="node12" class="node"><title>Node12</title>
<g id="a_node12"><a xlink:href="observe_8h.html" target="_top" xlink:title="File with declaration of observer pattern &#45; Observer and Observable. ">
<polygon fill="none" stroke="black" points="409.5,-112.5 409.5,-131.5 498.5,-131.5 498.5,-112.5 409.5,-112.5"/>
<text text-anchor="middle" x="454" y="-119.5" font-family="Helvetica,sans-Serif" font-size="10.00">../utils/observe.h</text>
</a>
</g>
</g>
<!-- Node11&#45;&gt;Node12 -->
<g id="edge13" class="edge"><title>Node11&#45;&gt;Node12</title>
<path fill="none" stroke="midnightblue" d="M391.05,-168.324C402.463,-160.107 419.831,-147.602 433.435,-137.807"/>
<polygon fill="midnightblue" stroke="midnightblue" points="435.66,-140.517 441.731,-131.834 431.57,-134.837 435.66,-140.517"/>
</g>
<!-- Node13 -->
<g id="node13" class="node"><title>Node13</title>
<polygon fill="none" stroke="#bfbfbf" points="339,-112.5 339,-131.5 391,-131.5 391,-112.5 339,-112.5"/>
<text text-anchor="middle" x="365" y="-119.5" font-family="Helvetica,sans-Serif" font-size="10.00">memory</text>
</g>
<!-- Node11&#45;&gt;Node13 -->
<g id="edge17" class="edge"><title>Node11&#45;&gt;Node13</title>
<path fill="none" stroke="midnightblue" d="M376.688,-168.083C374.833,-160.927 372.165,-150.635 369.846,-141.691"/>
<polygon fill="midnightblue" stroke="midnightblue" points="373.166,-140.553 367.269,-131.751 366.391,-142.309 373.166,-140.553"/>
</g>
<!-- Node12&#45;&gt;Node7 -->
<g id="edge16" class="edge"><title>Node12&#45;&gt;Node7</title>
<path fill="none" stroke="midnightblue" d="M409.441,-113.263C353.236,-103.504 256.682,-86.7389 196.532,-76.295"/>
<polygon fill="midnightblue" stroke="midnightblue" points="196.925,-72.8108 186.473,-74.5484 195.727,-79.7077 196.925,-72.8108"/>
</g>
<!-- Node12&#45;&gt;Node8 -->
<g id="edge14" class="edge"><title>Node12&#45;&gt;Node8</title>
<path fill="none" stroke="midnightblue" d="M447.499,-112.36C436.454,-98.3155 412.62,-70.633 386,-56 334.56,-27.7231 265.274,-16.9542 228.814,-13.0587"/>
<polygon fill="midnightblue" stroke="midnightblue" points="228.902,-9.55071 218.608,-12.0587 228.219,-16.5173 228.902,-9.55071"/>
</g>
<!-- Node12&#45;&gt;Node9 -->
<g id="edge15" class="edge"><title>Node12&#45;&gt;Node9</title>
<path fill="none" stroke="midnightblue" d="M450.91,-112.237C446.208,-99.4131 436.573,-74.9948 425,-56 418.896,-45.9808 410.83,-35.6983 403.881,-27.4961"/>
<polygon fill="midnightblue" stroke="midnightblue" points="406.381,-25.0381 397.172,-19.7998 401.104,-29.6377 406.381,-25.0381"/>
</g>
<!-- Node14&#45;&gt;Node3 -->
<g id="edge20" class="edge"><title>Node14&#45;&gt;Node3</title>
<path fill="none" stroke="midnightblue" d="M156.443,-168.324C166.146,-160.263 180.815,-148.077 192.5,-138.369"/>
<polygon fill="midnightblue" stroke="midnightblue" points="194.911,-140.916 200.367,-131.834 190.438,-135.532 194.911,-140.916"/>
</g>
<!-- Node14&#45;&gt;Node5 -->
<g id="edge21" class="edge"><title>Node14&#45;&gt;Node5</title>
<path fill="none" stroke="midnightblue" d="M140.485,-168.397C129.745,-151.344 105.781,-111.803 91,-76 84.691,-60.7179 79.5801,-42.6115 76.2547,-29.3951"/>
<polygon fill="midnightblue" stroke="midnightblue" points="79.6423,-28.5128 73.8942,-19.6128 72.8376,-30.1548 79.6423,-28.5128"/>
</g>
<!-- Node14&#45;&gt;Node7 -->
<g id="edge19" class="edge"><title>Node14&#45;&gt;Node7</title>
<path fill="none" stroke="midnightblue" d="M141.889,-168.277C137.941,-159.383 132.255,-145.074 130,-132 127.28,-116.229 131.351,-98.4121 135.638,-85.4253"/>
<polygon fill="midnightblue" stroke="midnightblue" points="139.009,-86.3976 139.145,-75.8036 132.432,-84.0001 139.009,-86.3976"/>
</g>
<!-- Node15&#45;&gt;Node12 -->
<g id="edge23" class="edge"><title>Node15&#45;&gt;Node12</title>
<path fill="none" stroke="midnightblue" d="M454,-224.368C454,-206.617 454,-165.666 454,-141.597"/>
<polygon fill="midnightblue" stroke="midnightblue" points="457.5,-141.591 454,-131.591 450.5,-141.591 457.5,-141.591"/>
</g>
<!-- Node16&#45;&gt;Node3 -->
<g id="edge25" class="edge"><title>Node16&#45;&gt;Node3</title>
<path fill="none" stroke="midnightblue" d="M268.914,-168.324C258.514,-160.185 242.739,-147.839 230.278,-138.087"/>
<polygon fill="midnightblue" stroke="midnightblue" points="232.32,-135.241 222.288,-131.834 228.006,-140.753 232.32,-135.241"/>
</g>
<!-- Node16&#45;&gt;Node4 -->
<g id="edge26" class="edge"><title>Node16&#45;&gt;Node4</title>
<path fill="none" stroke="midnightblue" d="M284.473,-168.368C293.796,-150.376 315.469,-108.55 327.866,-84.6267"/>
<polygon fill="midnightblue" stroke="midnightblue" points="331.055,-86.0805 332.548,-75.5914 324.84,-82.8599 331.055,-86.0805"/>
</g>
<!-- Node16&#45;&gt;Node13 -->
<g id="edge27" class="edge"><title>Node16&#45;&gt;Node13</title>
<path fill="none" stroke="midnightblue" d="M293.657,-168.324C306.916,-159.9 327.268,-146.971 342.846,-137.074"/>
<polygon fill="midnightblue" stroke="midnightblue" points="344.813,-139.971 351.377,-131.655 341.06,-134.063 344.813,-139.971"/>
</g>
</g>
</svg>
