<?xml version="1.0" encoding="UTF-8" standalone="no"?>
<!DOCTYPE svg PUBLIC "-//W3C//DTD SVG 1.1//EN"
 "http://www.w3.org/Graphics/SVG/1.1/DTD/svg11.dtd">
<!-- Generated by graphviz version 2.38.0 (20140413.2041)
 -->
<!-- Title: src/controller/controller.h Pages: 1 -->
<!--zoomable 308 -->
<svg id="main" version="1.1" xmlns="http://www.w3.org/2000/svg" xmlns:xlink="http://www.w3.org/1999/xlink" xml:space="preserve" onload="init(evt)">
<style type="text/css"><![CDATA[
.edge:hover path { stroke: red; }
.edge:hover polygon { stroke: red; fill: red; }
]]></style>
<script type="text/javascript"><![CDATA[
var edges = document.getElementsByTagName('g');
if (edges && edges.length) {
  for (var i=0;i<edges.length;i++) {
    if (edges[i].id.substr(0,4)=='edge') {
      edges[i].setAttribute('class','edge');
    }
  }
}
]]></script>
        <defs>
                <circle id="rim" cx="0" cy="0" r="7"/>
                <circle id="rim2" cx="0" cy="0" r="3.5"/>
                <g id="zoomPlus">
                        <use xlink:href="#rim" fill="#404040">
                                <set attributeName="fill" to="#808080" begin="zoomplus.mouseover" end="zoomplus.mouseout"/>
                        </use>
                        <path d="M-4,0h8M0,-4v8" fill="none" stroke="white" stroke-width="1.5" pointer-events="none"/>
                </g>
                <g id="zoomMin">
                        <use xlink:href="#rim" fill="#404040">
                                <set attributeName="fill" to="#808080" begin="zoomminus.mouseover" end="zoomminus.mouseout"/>
                        </use>
                        <path d="M-4,0h8" fill="none" stroke="white" stroke-width="1.5" pointer-events="none"/>
                </g>
                <g id="dirArrow">
                        <path fill="none" stroke="white" stroke-width="1.5" d="M0,-3.0v7 M-2.5,-0.5L0,-3.0L2.5,-0.5"/>
                </g>
               <g id="resetDef">
                       <use xlink:href="#rim2" fill="#404040">
                               <set attributeName="fill" to="#808080" begin="reset.mouseover" end="reset.mouseout"/>
                       </use>
               </g>
        </defs>

<script type="text/javascript">
var viewWidth = 533;
var viewHeight = 308;
var sectionId = 'dynsection-0';
</script>
<script xlink:href="svgpan.js"/>
<svg id="graph" class="graph">
<g id="viewport">
<title>src/controller/controller.h</title>
<!-- Node1 -->
<g id="node1" class="node"><title>Node1</title>
<polygon fill="#bfbfbf" stroke="black" points="225.5,-280.5 225.5,-299.5 360.5,-299.5 360.5,-280.5 225.5,-280.5"/>
<text text-anchor="middle" x="293" y="-287.5" font-family="Helvetica,sans-Serif" font-size="10.00">src/controller/controller.h</text>
</g>
<!-- Node2 -->
<g id="node2" class="node"><title>Node2</title>
<g id="a_node2"><a xlink:href="icontroller_8h.html" target="_top" xlink:title="File with interface of abstract controller (from MVC). ">
<polygon fill="none" stroke="black" points="0,-168.5 0,-187.5 72,-187.5 72,-168.5 0,-168.5"/>
<text text-anchor="middle" x="36" y="-175.5" font-family="Helvetica,sans-Serif" font-size="10.00">icontroller.h</text>
</a>
</g>
</g>
<!-- Node1&#45;&gt;Node2 -->
<g id="edge1" class="edge"><title>Node1&#45;&gt;Node2</title>
<path fill="none" stroke="midnightblue" d="M272.834,-280.368C227.7,-261.051 118.378,-214.259 65.5505,-191.648"/>
<polygon fill="midnightblue" stroke="midnightblue" points="66.6432,-188.309 56.0727,-187.591 63.8888,-194.744 66.6432,-188.309"/>
</g>
<!-- Node10 -->
<g id="node10" class="node"><title>Node10</title>
<g id="a_node10"><a xlink:href="model_8h.html" target="_top" xlink:title="File with declaration of model (from MVC). ">
<polygon fill="none" stroke="black" points="321,-224.5 321,-243.5 419,-243.5 419,-224.5 321,-224.5"/>
<text text-anchor="middle" x="370" y="-231.5" font-family="Helvetica,sans-Serif" font-size="10.00">../model/model.h</text>
</a>
</g>
</g>
<!-- Node1&#45;&gt;Node10 -->
<g id="edge10" class="edge"><title>Node1&#45;&gt;Node10</title>
<path fill="none" stroke="midnightblue" d="M305.371,-280.324C317.158,-272.058 335.132,-259.453 349.136,-249.632"/>
<polygon fill="midnightblue" stroke="midnightblue" points="351.482,-252.262 357.659,-243.655 347.462,-246.531 351.482,-252.262"/>
</g>
<!-- Node14 -->
<g id="node14" class="node"><title>Node14</title>
<g id="a_node14"><a xlink:href="view__elements_8h.html" target="_top" xlink:title="File with declaration of button and canvas classes. ">
<polygon fill="none" stroke="black" points="90,-168.5 90,-187.5 218,-187.5 218,-168.5 90,-168.5"/>
<text text-anchor="middle" x="154" y="-175.5" font-family="Helvetica,sans-Serif" font-size="10.00">../view/view_elements.h</text>
</a>
</g>
</g>
<!-- Node1&#45;&gt;Node14 -->
<g id="edge18" class="edge"><title>Node1&#45;&gt;Node14</title>
<path fill="none" stroke="midnightblue" d="M282.093,-280.368C258.443,-261.653 202.209,-217.151 172.743,-193.832"/>
<polygon fill="midnightblue" stroke="midnightblue" points="174.87,-191.052 164.856,-187.591 170.526,-196.542 174.87,-191.052"/>
</g>
<!-- Node15 -->
<g id="node15" class="node"><title>Node15</title>
<g id="a_node15"><a xlink:href="iview_8h.html" target="_top" xlink:title="File with interface of abstract view (V from MVC). ">
<polygon fill="none" stroke="black" points="437,-224.5 437,-243.5 517,-243.5 517,-224.5 437,-224.5"/>
<text text-anchor="middle" x="477" y="-231.5" font-family="Helvetica,sans-Serif" font-size="10.00">../view/iview.h</text>
</a>
</g>
</g>
<!-- Node1&#45;&gt;Node15 -->
<g id="edge22" class="edge"><title>Node1&#45;&gt;Node15</title>
<path fill="none" stroke="midnightblue" d="M322.155,-280.444C353.513,-271.241 403.531,-256.562 438.197,-246.388"/>
<polygon fill="midnightblue" stroke="midnightblue" points="439.371,-249.691 447.981,-243.516 437.4,-242.974 439.371,-249.691"/>
</g>
<!-- Node16 -->
<g id="node16" class="node"><title>Node16</title>
<g id="a_node16"><a xlink:href="geomfactory_8h.html" target="_top" xlink:title="File with interface of abstract geometry factory and declaration of standard geometry factory...">
<polygon fill="none" stroke="black" points="236,-168.5 236,-187.5 352,-187.5 352,-168.5 236,-168.5"/>
<text text-anchor="middle" x="294" y="-175.5" font-family="Helvetica,sans-Serif" font-size="10.00">../utils/geomfactory.h</text>
</a>
</g>
</g>
<!-- Node1&#45;&gt;Node16 -->
<g id="edge24" class="edge"><title>Node1&#45;&gt;Node16</title>
<path fill="none" stroke="midnightblue" d="M293.078,-280.368C293.24,-262.617 293.612,-221.666 293.831,-197.597"/>
<polygon fill="midnightblue" stroke="midnightblue" points="297.331,-197.623 293.922,-187.591 290.331,-197.559 297.331,-197.623"/>
</g>
<!-- Node3 -->
<g id="node3" class="node"><title>Node3</title>
<g id="a_node3"><a xlink:href="geometry__elements_8h.html" target="_top" xlink:title="File with declaration of geometry element classes. ">
<polygon fill="none" stroke="black" points="142.5,-112.5 142.5,-131.5 297.5,-131.5 297.5,-112.5 142.5,-112.5"/>
<text text-anchor="middle" x="220" y="-119.5" font-family="Helvetica,sans-Serif" font-size="10.00">../view/geometry_elements.h</text>
</a>
</g>
</g>
<!-- Node2&#45;&gt;Node3 -->
<g id="edge2" class="edge"><title>Node2&#45;&gt;Node3</title>
<path fill="none" stroke="midnightblue" d="M65.1553,-168.444C96.5135,-159.241 146.531,-144.562 181.197,-134.388"/>
<polygon fill="midnightblue" stroke="midnightblue" points="182.371,-137.691 190.981,-131.516 180.4,-130.974 182.371,-137.691"/>
</g>
<!-- Node5 -->
<g id="node5" class="node"><title>Node5</title>
<polygon fill="none" stroke="#bfbfbf" points="53,-0.5 53,-19.5 97,-19.5 97,-0.5 53,-0.5"/>
<text text-anchor="middle" x="75" y="-7.5" font-family="Helvetica,sans-Serif" font-size="10.00">string</text>
</g>
<!-- Node2&#45;&gt;Node5 -->
<g id="edge9" class="edge"><title>Node2&#45;&gt;Node5</title>
<path fill="none" stroke="midnightblue" d="M37.4734,-168.425C40.9566,-148.531 50.221,-97.7467 61,-56 63.304,-47.0766 66.2909,-37.2937 68.9137,-29.1353"/>
<polygon fill="midnightblue" stroke="midnightblue" points="72.265,-30.1479 72.0638,-19.555 65.6153,-27.9614 72.265,-30.1479"/>
</g>
<!-- Node7 -->
<g id="node7" class="node"><title>Node7</title>
<g id="a_node7"><a xlink:href="onclick_8h.html" target="_top" xlink:title="File with declaration of observer pattern classes. Two pairs of publishers and subscribers: OnClickLi...">
<polygon fill="none" stroke="black" points="103.5,-56.5 103.5,-75.5 192.5,-75.5 192.5,-56.5 103.5,-56.5"/>
<text text-anchor="middle" x="148" y="-63.5" font-family="Helvetica,sans-Serif" font-size="10.00">../utils/onclick.h</text>
</a>
</g>
</g>
<!-- Node2&#45;&gt;Node7 -->
<g id="edge6" class="edge"><title>Node2&#45;&gt;Node7</title>
<path fill="none" stroke="midnightblue" d="M44.7885,-168.368C63.5988,-149.894 107.993,-106.293 131.97,-82.7436"/>
<polygon fill="midnightblue" stroke="midnightblue" points="134.57,-85.0956 139.252,-75.5914 129.665,-80.1015 134.57,-85.0956"/>
</g>
<!-- Node4 -->
<g id="node4" class="node"><title>Node4</title>
<g id="a_node4"><a xlink:href="logger_8h.html" target="_top" xlink:title="File with simple logger class declaration. ">
<polygon fill="none" stroke="black" points="307,-56.5 307,-75.5 393,-75.5 393,-56.5 307,-56.5"/>
<text text-anchor="middle" x="350" y="-63.5" font-family="Helvetica,sans-Serif" font-size="10.00">../utils/logger.h</text>
</a>
</g>
</g>
<!-- Node3&#45;&gt;Node4 -->
<g id="edge3" class="edge"><title>Node3&#45;&gt;Node4</title>
<path fill="none" stroke="midnightblue" d="M240.599,-112.444C261.993,-103.557 295.681,-89.5632 320.024,-79.4514"/>
<polygon fill="midnightblue" stroke="midnightblue" points="321.605,-82.5848 329.497,-75.5164 318.92,-76.1203 321.605,-82.5848"/>
</g>
<!-- Node6 -->
<g id="node6" class="node"><title>Node6</title>
<g id="a_node6"><a xlink:href="tags_8h.html" target="_top" xlink:title="File with declaration of some tool and color tags. Used as color and tool mode flag in model (M from ...">
<polygon fill="none" stroke="black" points="211,-56.5 211,-75.5 289,-75.5 289,-56.5 211,-56.5"/>
<text text-anchor="middle" x="250" y="-63.5" font-family="Helvetica,sans-Serif" font-size="10.00">../utils/tags.h</text>
</a>
</g>
</g>
<!-- Node3&#45;&gt;Node6 -->
<g id="edge5" class="edge"><title>Node3&#45;&gt;Node6</title>
<path fill="none" stroke="midnightblue" d="M224.954,-112.083C229.104,-104.613 235.153,-93.7244 240.267,-84.5199"/>
<polygon fill="midnightblue" stroke="midnightblue" points="243.341,-86.1924 245.138,-75.7511 237.222,-82.7929 243.341,-86.1924"/>
</g>
<!-- Node4&#45;&gt;Node5 -->
<g id="edge4" class="edge"><title>Node4&#45;&gt;Node5</title>
<path fill="none" stroke="midnightblue" d="M306.729,-56.5031C251.348,-45.6284 156.673,-27.0375 107.223,-17.3274"/>
<polygon fill="midnightblue" stroke="midnightblue" points="107.589,-13.8324 97.1015,-15.3399 106.24,-20.7013 107.589,-13.8324"/>
</g>
<!-- Node8 -->
<g id="node8" class="node"><title>Node8</title>
<polygon fill="none" stroke="#bfbfbf" points="198,-0.5 198,-19.5 228,-19.5 228,-0.5 198,-0.5"/>
<text text-anchor="middle" x="213" y="-7.5" font-family="Helvetica,sans-Serif" font-size="10.00">list</text>
</g>
<!-- Node7&#45;&gt;Node8 -->
<g id="edge7" class="edge"><title>Node7&#45;&gt;Node8</title>
<path fill="none" stroke="midnightblue" d="M158.443,-56.324C168.146,-48.2631 182.815,-36.0765 194.5,-26.3695"/>
<polygon fill="midnightblue" stroke="midnightblue" points="196.911,-28.9163 202.367,-19.8339 192.438,-23.532 196.911,-28.9163"/>
</g>
<!-- Node9 -->
<g id="node9" class="node"><title>Node9</title>
<polygon fill="none" stroke="#bfbfbf" points="375.5,-0.5 375.5,-19.5 438.5,-19.5 438.5,-0.5 375.5,-0.5"/>
<text text-anchor="middle" x="407" y="-7.5" font-family="Helvetica,sans-Serif" font-size="10.00">functional</text>
</g>
<!-- Node7&#45;&gt;Node9 -->
<g id="edge8" class="edge"><title>Node7&#45;&gt;Node9</title>
<path fill="none" stroke="midnightblue" d="M189.039,-56.4435C237.246,-46.3928 316.779,-29.8106 365.278,-19.6987"/>
<polygon fill="midnightblue" stroke="midnightblue" points="366.059,-23.1113 375.134,-17.6439 364.63,-16.2587 366.059,-23.1113"/>
</g>
<!-- Node11 -->
<g id="node11" class="node"><title>Node11</title>
<g id="a_node11"><a xlink:href="imodel_8h.html" target="_top" xlink:title="File with interface of abstract model (from MVC). ">
<polygon fill="none" stroke="black" points="370,-168.5 370,-187.5 428,-187.5 428,-168.5 370,-168.5"/>
<text text-anchor="middle" x="399" y="-175.5" font-family="Helvetica,sans-Serif" font-size="10.00">imodel.h</text>
</a>
</g>
</g>
<!-- Node10&#45;&gt;Node11 -->
<g id="edge11" class="edge"><title>Node10&#45;&gt;Node11</title>
<path fill="none" stroke="midnightblue" d="M374.789,-224.083C378.758,-216.691 384.525,-205.953 389.435,-196.811"/>
<polygon fill="midnightblue" stroke="midnightblue" points="392.653,-198.217 394.3,-187.751 386.486,-194.905 392.653,-198.217"/>
</g>
<!-- Node11&#45;&gt;Node3 -->
<g id="edge12" class="edge"><title>Node11&#45;&gt;Node3</title>
<path fill="none" stroke="midnightblue" d="M370.637,-168.444C340.262,-159.28 291.89,-144.688 258.184,-134.519"/>
<polygon fill="midnightblue" stroke="midnightblue" points="258.815,-131.054 248.23,-131.516 256.793,-137.756 258.815,-131.054"/>
</g>
<!-- Node12 -->
<g id="node12" class="node"><title>Node12</title>
<g id="a_node12"><a xlink:href="observe_8h.html" target="_top" xlink:title="File with declaration of observer pattern &#45; Observer and Observable. ">
<polygon fill="none" stroke="black" points="429.5,-112.5 429.5,-131.5 524.5,-131.5 524.5,-112.5 429.5,-112.5"/>
<text text-anchor="middle" x="477" y="-119.5" font-family="Helvetica,sans-Serif" font-size="10.00">../utils/observe.h</text>
</a>
</g>
</g>
<!-- Node11&#45;&gt;Node12 -->
<g id="edge13" class="edge"><title>Node11&#45;&gt;Node12</title>
<path fill="none" stroke="midnightblue" d="M411.532,-168.324C423.586,-159.979 442.027,-147.212 456.269,-137.352"/>
<polygon fill="midnightblue" stroke="midnightblue" points="458.269,-140.224 464.499,-131.655 454.285,-134.469 458.269,-140.224"/>
</g>
<!-- Node13 -->
<g id="node13" class="node"><title>Node13</title>
<polygon fill="none" stroke="#bfbfbf" points="354.5,-112.5 354.5,-131.5 411.5,-131.5 411.5,-112.5 354.5,-112.5"/>
<text text-anchor="middle" x="383" y="-119.5" font-family="Helvetica,sans-Serif" font-size="10.00">memory</text>
</g>
<!-- Node11&#45;&gt;Node13 -->
<g id="edge17" class="edge"><title>Node11&#45;&gt;Node13</title>
<path fill="none" stroke="midnightblue" d="M396.358,-168.083C394.214,-160.849 391.121,-150.409 388.451,-141.397"/>
<polygon fill="midnightblue" stroke="midnightblue" points="391.79,-140.345 385.593,-131.751 385.078,-142.333 391.79,-140.345"/>
</g>
<!-- Node12&#45;&gt;Node7 -->
<g id="edge16" class="edge"><title>Node12&#45;&gt;Node7</title>
<path fill="none" stroke="midnightblue" d="M429.3,-113.238C376.487,-104.635 288.542,-90.2795 202.701,-76.1119"/>
<polygon fill="midnightblue" stroke="midnightblue" points="203.224,-72.651 192.787,-74.475 202.084,-79.5574 203.224,-72.651"/>
</g>
<!-- Node12&#45;&gt;Node8 -->
<g id="edge14" class="edge"><title>Node12&#45;&gt;Node8</title>
<path fill="none" stroke="midnightblue" d="M469.64,-112.359C457.187,-98.3117 430.516,-70.6262 402,-56 347.641,-28.1193 275.594,-17.1647 238.098,-13.1417"/>
<polygon fill="midnightblue" stroke="midnightblue" points="238.352,-9.64971 228.054,-12.1433 237.659,-16.6154 238.352,-9.64971"/>
</g>
<!-- Node12&#45;&gt;Node9 -->
<g id="edge15" class="edge"><title>Node12&#45;&gt;Node9</title>
<path fill="none" stroke="midnightblue" d="M473.297,-112.257C467.715,-99.4565 456.464,-75.0679 444,-56 437.359,-45.8409 428.814,-35.3182 421.609,-27.0051"/>
<polygon fill="midnightblue" stroke="midnightblue" points="424.226,-24.6811 414.972,-19.5238 418.99,-29.3269 424.226,-24.6811"/>
</g>
<!-- Node14&#45;&gt;Node3 -->
<g id="edge20" class="edge"><title>Node14&#45;&gt;Node3</title>
<path fill="none" stroke="midnightblue" d="M164.604,-168.324C174.456,-160.263 189.351,-148.077 201.215,-138.369"/>
<polygon fill="midnightblue" stroke="midnightblue" points="203.68,-140.875 209.203,-131.834 199.247,-135.457 203.68,-140.875"/>
</g>
<!-- Node14&#45;&gt;Node5 -->
<g id="edge21" class="edge"><title>Node14&#45;&gt;Node5</title>
<path fill="none" stroke="midnightblue" d="M147.923,-168.482C136.1,-151.578 109.78,-112.284 94,-76 87.4065,-60.8385 82.3236,-42.7202 79.0813,-29.4686"/>
<polygon fill="midnightblue" stroke="midnightblue" points="82.4729,-28.6004 76.7979,-19.6536 75.6549,-30.1866 82.4729,-28.6004"/>
</g>
<!-- Node14&#45;&gt;Node7 -->
<g id="edge19" class="edge"><title>Node14&#45;&gt;Node7</title>
<path fill="none" stroke="midnightblue" d="M148.616,-168.443C143.444,-159.678 135.988,-145.467 133,-132 129.477,-116.12 134.335,-98.099 139.438,-85.0667"/>
<polygon fill="midnightblue" stroke="midnightblue" points="142.679,-86.389 143.428,-75.8206 136.252,-83.6156 142.679,-86.389"/>
</g>
<!-- Node15&#45;&gt;Node12 -->
<g id="edge23" class="edge"><title>Node15&#45;&gt;Node12</title>
<path fill="none" stroke="midnightblue" d="M477,-224.368C477,-206.617 477,-165.666 477,-141.597"/>
<polygon fill="midnightblue" stroke="midnightblue" points="480.5,-141.591 477,-131.591 473.5,-141.591 480.5,-141.591"/>
</g>
<!-- Node16&#45;&gt;Node3 -->
<g id="edge25" class="edge"><title>Node16&#45;&gt;Node3</title>
<path fill="none" stroke="midnightblue" d="M282.111,-168.324C270.85,-160.107 253.713,-147.602 240.291,-137.807"/>
<polygon fill="midnightblue" stroke="midnightblue" points="242.247,-134.901 232.106,-131.834 238.12,-140.556 242.247,-134.901"/>
</g>
<!-- Node16&#45;&gt;Node4 -->
<g id="edge26" class="edge"><title>Node16&#45;&gt;Node4</title>
<path fill="none" stroke="midnightblue" d="M298.394,-168.368C307.554,-150.376 328.847,-108.55 341.026,-84.6267"/>
<polygon fill="midnightblue" stroke="midnightblue" points="344.208,-86.091 345.626,-75.5914 337.97,-82.9152 344.208,-86.091"/>
</g>
<!-- Node16&#45;&gt;Node13 -->
<g id="edge27" class="edge"><title>Node16&#45;&gt;Node13</title>
<path fill="none" stroke="midnightblue" d="M308.299,-168.324C322.183,-159.9 343.492,-146.971 359.804,-137.074"/>
<polygon fill="midnightblue" stroke="midnightblue" points="362.002,-139.834 368.736,-131.655 358.371,-133.85 362.002,-139.834"/>
</g>
</g>
</svg>
        <g id="navigator" transform="translate(0 0)" fill="#404254">
                <rect fill="#f2f5e9" fill-opacity="0.5" stroke="#606060" stroke-width=".5" x="0" y="0" width="60" height="60"/>
                <use id="zoomplus" xlink:href="#zoomPlus" x="17" y="9" onmousedown="handleZoom(evt,'in')"/>
                <use id="zoomminus" xlink:href="#zoomMin" x="42" y="9" onmousedown="handleZoom(evt,'out')"/>
                <use id="reset" xlink:href="#resetDef" x="30" y="36" onmousedown="handleReset()"/>
                <g id="arrowUp" xlink:href="#dirArrow" transform="translate(30 24)" onmousedown="handlePan(0,-1)">
                  <use xlink:href="#rim" fill="#404040">
                        <set attributeName="fill" to="#808080" begin="arrowUp.mouseover" end="arrowUp.mouseout"/>
                  </use>
                  <path fill="none" stroke="white" stroke-width="1.5" d="M0,-3.0v7 M-2.5,-0.5L0,-3.0L2.5,-0.5"/>
                </g>
                <g id="arrowRight" xlink:href="#dirArrow" transform="rotate(90) translate(36 -43)" onmousedown="handlePan(1,0)">
                  <use xlink:href="#rim" fill="#404040">
                        <set attributeName="fill" to="#808080" begin="arrowRight.mouseover" end="arrowRight.mouseout"/>
                  </use>
                  <path fill="none" stroke="white" stroke-width="1.5" d="M0,-3.0v7 M-2.5,-0.5L0,-3.0L2.5,-0.5"/>
                </g>
                <g id="arrowDown" xlink:href="#dirArrow" transform="rotate(180) translate(-30 -48)" onmousedown="handlePan(0,1)">
                  <use xlink:href="#rim" fill="#404040">
                        <set attributeName="fill" to="#808080" begin="arrowDown.mouseover" end="arrowDown.mouseout"/>
                  </use>
                  <path fill="none" stroke="white" stroke-width="1.5" d="M0,-3.0v7 M-2.5,-0.5L0,-3.0L2.5,-0.5"/>
                </g>
                <g id="arrowLeft" xlink:href="#dirArrow" transform="rotate(270) translate(-36 17)" onmousedown="handlePan(-1,0)">
                  <use xlink:href="#rim" fill="#404040">
                        <set attributeName="fill" to="#808080" begin="arrowLeft.mouseover" end="arrowLeft.mouseout"/>
                  </use>
                  <path fill="none" stroke="white" stroke-width="1.5" d="M0,-3.0v7 M-2.5,-0.5L0,-3.0L2.5,-0.5"/>
                </g>
        </g>
        <svg viewBox="0 0 15 15" width="100%" height="30px" preserveAspectRatio="xMaxYMin meet">
         <g id="arrow_out" transform="scale(0.3 0.3)">
          <a xlink:href="controller_8h__incl_org.svg" target="_base">
           <rect id="button" ry="5" rx="5" y="6" x="6" height="38" width="38"
                fill="#f2f5e9" fill-opacity="0.5" stroke="#606060" stroke-width="1.0"/>
           <path id="arrow"
             d="M 11.500037,31.436501 C 11.940474,20.09759 22.043105,11.32322 32.158766,21.979434 L 37.068811,17.246167 C 37.068811,17.246167 37.088388,32 37.088388,32 L 22.160133,31.978069 C 22.160133,31.978069 26.997745,27.140456 26.997745,27.140456 C 18.528582,18.264221 13.291696,25.230495 11.500037,31.436501 z"
             style="fill:#404040;"/>
          </a>
         </g>
        </svg>
</svg>
