<?xml version="1.0" encoding="UTF-8" standalone="no"?>
<!DOCTYPE svg PUBLIC "-//W3C//DTD SVG 1.1//EN"
 "http://www.w3.org/Graphics/SVG/1.1/DTD/svg11.dtd">
<!-- Generated by graphviz version 2.38.0 (20140413.2041)
 -->
<!-- Title: src/controller/controller.cpp Pages: 1 -->
<svg width="541pt" height="364pt"
 viewBox="0.00 0.00 540.50 364.00" xmlns="http://www.w3.org/2000/svg" xmlns:xlink="http://www.w3.org/1999/xlink">
<g id="graph0" class="graph" transform="scale(1 1) rotate(0) translate(4 360)">
<title>src/controller/controller.cpp</title>
<!-- Node1 -->
<g id="node1" class="node"><title>Node1</title>
<polygon fill="#bfbfbf" stroke="black" points="296,-336.5 296,-355.5 442,-355.5 442,-336.5 296,-336.5"/>
<text text-anchor="middle" x="369" y="-343.5" font-family="Helvetica,sans-Serif" font-size="10.00">src/controller/controller.cpp</text>
</g>
<!-- Node2 -->
<g id="node2" class="node"><title>Node2</title>
<g id="a_node2"><a xlink:href="controller_8h.html" target="_top" xlink:title="File with controller (from MVC) declaration. ">
<polygon fill="none" stroke="black" points="211,-280.5 211,-299.5 281,-299.5 281,-280.5 211,-280.5"/>
<text text-anchor="middle" x="246" y="-287.5" font-family="Helvetica,sans-Serif" font-size="10.00">controller.h</text>
</a>
</g>
</g>
<!-- Node1&#45;&gt;Node2 -->
<g id="edge1" class="edge"><title>Node1&#45;&gt;Node2</title>
<path fill="none" stroke="midnightblue" d="M349.51,-336.444C329.358,-327.596 297.677,-313.687 274.669,-303.586"/>
<polygon fill="midnightblue" stroke="midnightblue" points="275.962,-300.332 265.399,-299.516 273.148,-306.741 275.962,-300.332"/>
</g>
<!-- Node18 -->
<g id="node18" class="node"><title>Node18</title>
<g id="a_node18"><a xlink:href="view_8h.html" target="_top" xlink:title="File with declaration of view (V from MVC). ">
<polygon fill="none" stroke="black" points="360.5,-224.5 360.5,-243.5 437.5,-243.5 437.5,-224.5 360.5,-224.5"/>
<text text-anchor="middle" x="399" y="-231.5" font-family="Helvetica,sans-Serif" font-size="10.00">../view/view.h</text>
</a>
</g>
</g>
<!-- Node1&#45;&gt;Node18 -->
<g id="edge29" class="edge"><title>Node1&#45;&gt;Node18</title>
<path fill="none" stroke="midnightblue" d="M371.354,-336.368C376.217,-318.537 387.465,-277.295 394.017,-253.272"/>
<polygon fill="midnightblue" stroke="midnightblue" points="397.402,-254.16 396.657,-243.591 390.649,-252.318 397.402,-254.16"/>
</g>
<!-- Node19 -->
<g id="node19" class="node"><title>Node19</title>
<polygon fill="none" stroke="#bfbfbf" points="397,-280.5 397,-299.5 449,-299.5 449,-280.5 397,-280.5"/>
<text text-anchor="middle" x="423" y="-287.5" font-family="Helvetica,sans-Serif" font-size="10.00">cassert</text>
</g>
<!-- Node1&#45;&gt;Node19 -->
<g id="edge34" class="edge"><title>Node1&#45;&gt;Node19</title>
<path fill="none" stroke="midnightblue" d="M377.917,-336.083C385.78,-328.22 397.431,-316.569 406.919,-307.081"/>
<polygon fill="midnightblue" stroke="midnightblue" points="409.653,-309.297 414.249,-299.751 404.703,-304.347 409.653,-309.297"/>
</g>
<!-- Node3 -->
<g id="node3" class="node"><title>Node3</title>
<g id="a_node3"><a xlink:href="icontroller_8h.html" target="_top" xlink:title="File with interface of abstract controller (from MVC). ">
<polygon fill="none" stroke="black" points="0,-168.5 0,-187.5 72,-187.5 72,-168.5 0,-168.5"/>
<text text-anchor="middle" x="36" y="-175.5" font-family="Helvetica,sans-Serif" font-size="10.00">icontroller.h</text>
</a>
</g>
</g>
<!-- Node2&#45;&gt;Node3 -->
<g id="edge2" class="edge"><title>Node2&#45;&gt;Node3</title>
<path fill="none" stroke="midnightblue" d="M229.522,-280.368C193.026,-261.251 105.164,-215.229 61.5073,-192.361"/>
<polygon fill="midnightblue" stroke="midnightblue" points="62.8842,-189.131 52.4018,-187.591 59.6361,-195.332 62.8842,-189.131"/>
</g>
<!-- Node11 -->
<g id="node11" class="node"><title>Node11</title>
<g id="a_node11"><a xlink:href="model_8h.html" target="_top" xlink:title="File with declaration of model (from MVC). ">
<polygon fill="none" stroke="black" points="244,-224.5 244,-243.5 342,-243.5 342,-224.5 244,-224.5"/>
<text text-anchor="middle" x="293" y="-231.5" font-family="Helvetica,sans-Serif" font-size="10.00">../model/model.h</text>
</a>
</g>
</g>
<!-- Node2&#45;&gt;Node11 -->
<g id="edge11" class="edge"><title>Node2&#45;&gt;Node11</title>
<path fill="none" stroke="midnightblue" d="M253.761,-280.083C260.537,-272.298 270.543,-260.801 278.755,-251.367"/>
<polygon fill="midnightblue" stroke="midnightblue" points="281.458,-253.592 285.383,-243.751 276.178,-248.996 281.458,-253.592"/>
</g>
<!-- Node15 -->
<g id="node15" class="node"><title>Node15</title>
<g id="a_node15"><a xlink:href="view__elements_8h.html" target="_top" xlink:title="File with declaration of button and canvas classes. ">
<polygon fill="none" stroke="black" points="224,-168.5 224,-187.5 352,-187.5 352,-168.5 224,-168.5"/>
<text text-anchor="middle" x="288" y="-175.5" font-family="Helvetica,sans-Serif" font-size="10.00">../view/view_elements.h</text>
</a>
</g>
</g>
<!-- Node2&#45;&gt;Node15 -->
<g id="edge19" class="edge"><title>Node2&#45;&gt;Node15</title>
<path fill="none" stroke="midnightblue" d="M241.38,-280.159C235.301,-267.236 226.348,-242.696 235,-224 240.92,-211.207 252.468,-200.722 263.278,-193.1"/>
<polygon fill="midnightblue" stroke="midnightblue" points="265.214,-196.016 271.666,-187.613 261.382,-190.158 265.214,-196.016"/>
</g>
<!-- Node16 -->
<g id="node16" class="node"><title>Node16</title>
<g id="a_node16"><a xlink:href="iview_8h.html" target="_top" xlink:title="File with interface of abstract view (V from MVC). ">
<polygon fill="none" stroke="black" points="446,-168.5 446,-187.5 526,-187.5 526,-168.5 446,-168.5"/>
<text text-anchor="middle" x="486" y="-175.5" font-family="Helvetica,sans-Serif" font-size="10.00">../view/iview.h</text>
</a>
</g>
</g>
<!-- Node2&#45;&gt;Node16 -->
<g id="edge23" class="edge"><title>Node2&#45;&gt;Node16</title>
<path fill="none" stroke="midnightblue" d="M281.126,-289.11C323.876,-287.568 396.476,-279.373 446,-244 462.138,-232.473 473.079,-212.206 479.383,-197.359"/>
<polygon fill="midnightblue" stroke="midnightblue" points="482.775,-198.297 483.162,-187.709 476.256,-195.744 482.775,-198.297"/>
</g>
<!-- Node17 -->
<g id="node17" class="node"><title>Node17</title>
<g id="a_node17"><a xlink:href="geomfactory_8h.html" target="_top" xlink:title="File with interface of abstract geometry factory and declaration of standard geometry factory...">
<polygon fill="none" stroke="black" points="90,-168.5 90,-187.5 206,-187.5 206,-168.5 90,-168.5"/>
<text text-anchor="middle" x="148" y="-175.5" font-family="Helvetica,sans-Serif" font-size="10.00">../utils/geomfactory.h</text>
</a>
</g>
</g>
<!-- Node2&#45;&gt;Node17 -->
<g id="edge25" class="edge"><title>Node2&#45;&gt;Node17</title>
<path fill="none" stroke="midnightblue" d="M238.31,-280.368C221.994,-262.055 183.68,-219.049 162.577,-195.362"/>
<polygon fill="midnightblue" stroke="midnightblue" points="164.92,-192.73 155.654,-187.591 159.693,-197.386 164.92,-192.73"/>
</g>
<!-- Node4 -->
<g id="node4" class="node"><title>Node4</title>
<g id="a_node4"><a xlink:href="geometry__elements_8h.html" target="_top" xlink:title="File with declaration of geometry element classes. ">
<polygon fill="none" stroke="black" points="104.5,-112.5 104.5,-131.5 259.5,-131.5 259.5,-112.5 104.5,-112.5"/>
<text text-anchor="middle" x="182" y="-119.5" font-family="Helvetica,sans-Serif" font-size="10.00">../view/geometry_elements.h</text>
</a>
</g>
</g>
<!-- Node3&#45;&gt;Node4 -->
<g id="edge3" class="edge"><title>Node3&#45;&gt;Node4</title>
<path fill="none" stroke="midnightblue" d="M59.1341,-168.444C83.4822,-159.438 122.007,-145.189 149.423,-135.049"/>
<polygon fill="midnightblue" stroke="midnightblue" points="150.809,-138.268 158.974,-131.516 148.381,-131.703 150.809,-138.268"/>
</g>
<!-- Node6 -->
<g id="node6" class="node"><title>Node6</title>
<polygon fill="none" stroke="#bfbfbf" points="57,-0.5 57,-19.5 101,-19.5 101,-0.5 57,-0.5"/>
<text text-anchor="middle" x="79" y="-7.5" font-family="Helvetica,sans-Serif" font-size="10.00">string</text>
</g>
<!-- Node3&#45;&gt;Node6 -->
<g id="edge10" class="edge"><title>Node3&#45;&gt;Node6</title>
<path fill="none" stroke="midnightblue" d="M32.6064,-168.286C25.1411,-147.664 9.31118,-94.7003 27,-56 32.7773,-43.3602 44.0523,-32.911 54.6306,-25.2737"/>
<polygon fill="midnightblue" stroke="midnightblue" points="56.8488,-28.0009 63.2167,-19.5333 52.9582,-22.1817 56.8488,-28.0009"/>
</g>
<!-- Node8 -->
<g id="node8" class="node"><title>Node8</title>
<g id="a_node8"><a xlink:href="onclick_8h.html" target="_top" xlink:title="File with declaration of observer pattern classes. Two pairs of publishers and subscribers: OnClickLi...">
<polygon fill="none" stroke="black" points="357.5,-56.5 357.5,-75.5 446.5,-75.5 446.5,-56.5 357.5,-56.5"/>
<text text-anchor="middle" x="402" y="-63.5" font-family="Helvetica,sans-Serif" font-size="10.00">../utils/onclick.h</text>
</a>
</g>
</g>
<!-- Node3&#45;&gt;Node8 -->
<g id="edge7" class="edge"><title>Node3&#45;&gt;Node8</title>
<path fill="none" stroke="midnightblue" d="M41.2103,-168.068C50.1736,-153.604 69.9839,-125.332 95,-112 137.565,-89.3155 270.804,-76.3478 347.032,-70.6028"/>
<polygon fill="midnightblue" stroke="midnightblue" points="347.678,-74.0648 357.394,-69.8398 347.164,-67.0837 347.678,-74.0648"/>
</g>
<!-- Node5 -->
<g id="node5" class="node"><title>Node5</title>
<g id="a_node5"><a xlink:href="logger_8h.html" target="_top" xlink:title="File with simple logger class declaration. ">
<polygon fill="none" stroke="black" points="36,-56.5 36,-75.5 122,-75.5 122,-56.5 36,-56.5"/>
<text text-anchor="middle" x="79" y="-63.5" font-family="Helvetica,sans-Serif" font-size="10.00">../utils/logger.h</text>
</a>
</g>
</g>
<!-- Node4&#45;&gt;Node5 -->
<g id="edge4" class="edge"><title>Node4&#45;&gt;Node5</title>
<path fill="none" stroke="midnightblue" d="M165.451,-112.324C149.008,-103.703 123.565,-90.3643 104.532,-80.3855"/>
<polygon fill="midnightblue" stroke="midnightblue" points="105.989,-77.198 95.5077,-75.6545 102.739,-83.3977 105.989,-77.198"/>
</g>
<!-- Node7 -->
<g id="node7" class="node"><title>Node7</title>
<g id="a_node7"><a xlink:href="tags_8h.html" target="_top" xlink:title="File with declaration of some tool and color tags. Used as color and tool mode flag in model (M from ...">
<polygon fill="none" stroke="black" points="143,-56.5 143,-75.5 221,-75.5 221,-56.5 143,-56.5"/>
<text text-anchor="middle" x="182" y="-63.5" font-family="Helvetica,sans-Serif" font-size="10.00">../utils/tags.h</text>
</a>
</g>
</g>
<!-- Node4&#45;&gt;Node7 -->
<g id="edge6" class="edge"><title>Node4&#45;&gt;Node7</title>
<path fill="none" stroke="midnightblue" d="M182,-112.083C182,-105.006 182,-94.8611 182,-85.9865"/>
<polygon fill="midnightblue" stroke="midnightblue" points="185.5,-85.751 182,-75.7511 178.5,-85.7511 185.5,-85.751"/>
</g>
<!-- Node5&#45;&gt;Node6 -->
<g id="edge5" class="edge"><title>Node5&#45;&gt;Node6</title>
<path fill="none" stroke="midnightblue" d="M79,-56.083C79,-49.0059 79,-38.8611 79,-29.9865"/>
<polygon fill="midnightblue" stroke="midnightblue" points="82.5001,-29.751 79,-19.7511 75.5001,-29.7511 82.5001,-29.751"/>
</g>
<!-- Node9 -->
<g id="node9" class="node"><title>Node9</title>
<polygon fill="none" stroke="#bfbfbf" points="398,-0.5 398,-19.5 428,-19.5 428,-0.5 398,-0.5"/>
<text text-anchor="middle" x="413" y="-7.5" font-family="Helvetica,sans-Serif" font-size="10.00">list</text>
</g>
<!-- Node8&#45;&gt;Node9 -->
<g id="edge8" class="edge"><title>Node8&#45;&gt;Node9</title>
<path fill="none" stroke="midnightblue" d="M403.816,-56.083C405.274,-48.9272 407.371,-38.6353 409.193,-29.6911"/>
<polygon fill="midnightblue" stroke="midnightblue" points="412.651,-30.2485 411.217,-19.7511 405.792,-28.8512 412.651,-30.2485"/>
</g>
<!-- Node10 -->
<g id="node10" class="node"><title>Node10</title>
<polygon fill="none" stroke="#bfbfbf" points="469.5,-0.5 469.5,-19.5 532.5,-19.5 532.5,-0.5 469.5,-0.5"/>
<text text-anchor="middle" x="501" y="-7.5" font-family="Helvetica,sans-Serif" font-size="10.00">functional</text>
</g>
<!-- Node8&#45;&gt;Node10 -->
<g id="edge9" class="edge"><title>Node8&#45;&gt;Node10</title>
<path fill="none" stroke="midnightblue" d="M417.906,-56.324C433.638,-47.7428 457.942,-34.486 476.209,-24.5224"/>
<polygon fill="midnightblue" stroke="midnightblue" points="478.03,-27.5157 485.133,-19.6545 474.678,-21.3704 478.03,-27.5157"/>
</g>
<!-- Node12 -->
<g id="node12" class="node"><title>Node12</title>
<g id="a_node12"><a xlink:href="imodel_8h.html" target="_top" xlink:title="File with interface of abstract model (from MVC). ">
<polygon fill="none" stroke="black" points="370,-168.5 370,-187.5 428,-187.5 428,-168.5 370,-168.5"/>
<text text-anchor="middle" x="399" y="-175.5" font-family="Helvetica,sans-Serif" font-size="10.00">imodel.h</text>
</a>
</g>
</g>
<!-- Node11&#45;&gt;Node12 -->
<g id="edge12" class="edge"><title>Node11&#45;&gt;Node12</title>
<path fill="none" stroke="midnightblue" d="M310.031,-224.324C327.03,-215.664 353.376,-202.242 372.993,-192.249"/>
<polygon fill="midnightblue" stroke="midnightblue" points="374.69,-195.312 382.012,-187.655 371.512,-189.075 374.69,-195.312"/>
</g>
<!-- Node12&#45;&gt;Node4 -->
<g id="edge13" class="edge"><title>Node12&#45;&gt;Node4</title>
<path fill="none" stroke="midnightblue" d="M369.734,-169.717C332.892,-160.549 269.248,-144.712 226.399,-134.049"/>
<polygon fill="midnightblue" stroke="midnightblue" points="227.068,-130.609 216.519,-131.59 225.378,-137.401 227.068,-130.609"/>
</g>
<!-- Node13 -->
<g id="node13" class="node"><title>Node13</title>
<g id="a_node13"><a xlink:href="observe_8h.html" target="_top" xlink:title="File with declaration of observer pattern &#45; Observer and Observable. ">
<polygon fill="none" stroke="black" points="430.5,-112.5 430.5,-131.5 525.5,-131.5 525.5,-112.5 430.5,-112.5"/>
<text text-anchor="middle" x="478" y="-119.5" font-family="Helvetica,sans-Serif" font-size="10.00">../utils/observe.h</text>
</a>
</g>
</g>
<!-- Node12&#45;&gt;Node13 -->
<g id="edge14" class="edge"><title>Node12&#45;&gt;Node13</title>
<path fill="none" stroke="midnightblue" d="M411.693,-168.324C423.901,-159.979 442.578,-147.212 457.003,-137.352"/>
<polygon fill="midnightblue" stroke="midnightblue" points="459.058,-140.187 465.339,-131.655 455.108,-134.408 459.058,-140.187"/>
</g>
<!-- Node14 -->
<g id="node14" class="node"><title>Node14</title>
<polygon fill="none" stroke="#bfbfbf" points="316.5,-112.5 316.5,-131.5 373.5,-131.5 373.5,-112.5 316.5,-112.5"/>
<text text-anchor="middle" x="345" y="-119.5" font-family="Helvetica,sans-Serif" font-size="10.00">memory</text>
</g>
<!-- Node12&#45;&gt;Node14 -->
<g id="edge18" class="edge"><title>Node12&#45;&gt;Node14</title>
<path fill="none" stroke="midnightblue" d="M390.083,-168.083C382.22,-160.22 370.569,-148.569 361.081,-139.081"/>
<polygon fill="midnightblue" stroke="midnightblue" points="363.297,-136.347 353.751,-131.751 358.347,-141.297 363.297,-136.347"/>
</g>
<!-- Node13&#45;&gt;Node8 -->
<g id="edge17" class="edge"><title>Node13&#45;&gt;Node8</title>
<path fill="none" stroke="midnightblue" d="M465.789,-112.324C454.224,-104.107 436.625,-91.6017 422.839,-81.8069"/>
<polygon fill="midnightblue" stroke="midnightblue" points="424.612,-78.7729 414.433,-75.8339 420.557,-84.4791 424.612,-78.7729"/>
</g>
<!-- Node13&#45;&gt;Node9 -->
<g id="edge15" class="edge"><title>Node13&#45;&gt;Node9</title>
<path fill="none" stroke="midnightblue" d="M476.078,-112.085C473.009,-99.0715 466.18,-74.4194 455,-56 448.445,-45.2 438.987,-34.7784 430.706,-26.6888"/>
<polygon fill="midnightblue" stroke="midnightblue" points="432.95,-23.9949 423.26,-19.7111 428.163,-29.1028 432.95,-23.9949"/>
</g>
<!-- Node13&#45;&gt;Node10 -->
<g id="edge16" class="edge"><title>Node13&#45;&gt;Node10</title>
<path fill="none" stroke="midnightblue" d="M480.256,-112.407C482.59,-103.376 486.269,-88.7395 489,-76 492.311,-60.5525 495.531,-42.9212 497.801,-29.9224"/>
<polygon fill="midnightblue" stroke="midnightblue" points="501.285,-30.3114 499.529,-19.8632 494.386,-29.1262 501.285,-30.3114"/>
</g>
<!-- Node15&#45;&gt;Node4 -->
<g id="edge21" class="edge"><title>Node15&#45;&gt;Node4</title>
<path fill="none" stroke="midnightblue" d="M270.969,-168.324C253.97,-159.664 227.624,-146.242 208.007,-136.249"/>
<polygon fill="midnightblue" stroke="midnightblue" points="209.488,-133.075 198.988,-131.655 206.31,-139.312 209.488,-133.075"/>
</g>
<!-- Node15&#45;&gt;Node6 -->
<g id="edge22" class="edge"><title>Node15&#45;&gt;Node6</title>
<path fill="none" stroke="midnightblue" d="M286.657,-168.201C282.68,-145.426 268.717,-84.3544 230,-56 194.508,-30.0073 144.018,-18.9132 111.38,-14.2568"/>
<polygon fill="midnightblue" stroke="midnightblue" points="111.411,-10.7315 101.043,-12.9122 110.508,-17.673 111.411,-10.7315"/>
</g>
<!-- Node15&#45;&gt;Node8 -->
<g id="edge20" class="edge"><title>Node15&#45;&gt;Node8</title>
<path fill="none" stroke="midnightblue" d="M321.367,-168.441C341.531,-161.661 366.289,-150.227 382,-132 393.192,-119.016 398.122,-99.8523 400.293,-85.6948"/>
<polygon fill="midnightblue" stroke="midnightblue" points="403.785,-85.9755 401.51,-75.6278 396.835,-85.1356 403.785,-85.9755"/>
</g>
<!-- Node16&#45;&gt;Node13 -->
<g id="edge24" class="edge"><title>Node16&#45;&gt;Node13</title>
<path fill="none" stroke="midnightblue" d="M484.679,-168.083C483.619,-160.927 482.094,-150.635 480.769,-141.691"/>
<polygon fill="midnightblue" stroke="midnightblue" points="484.224,-141.13 479.296,-131.751 477.3,-142.156 484.224,-141.13"/>
</g>
<!-- Node17&#45;&gt;Node4 -->
<g id="edge26" class="edge"><title>Node17&#45;&gt;Node4</title>
<path fill="none" stroke="midnightblue" d="M153.614,-168.083C158.367,-160.534 165.318,-149.495 171.152,-140.23"/>
<polygon fill="midnightblue" stroke="midnightblue" points="174.124,-142.078 176.49,-131.751 168.2,-138.349 174.124,-142.078"/>
</g>
<!-- Node17&#45;&gt;Node5 -->
<g id="edge27" class="edge"><title>Node17&#45;&gt;Node5</title>
<path fill="none" stroke="midnightblue" d="M133.646,-168.479C121.528,-160.541 104.654,-147.602 95,-132 86.3052,-117.948 82.333,-99.4537 80.5197,-85.7865"/>
<polygon fill="midnightblue" stroke="midnightblue" points="83.9796,-85.2218 79.448,-75.645 77.0184,-85.9575 83.9796,-85.2218"/>
</g>
<!-- Node17&#45;&gt;Node14 -->
<g id="edge28" class="edge"><title>Node17&#45;&gt;Node14</title>
<path fill="none" stroke="midnightblue" d="M179.215,-168.444C213.726,-158.984 269.346,-143.738 306.525,-133.546"/>
<polygon fill="midnightblue" stroke="midnightblue" points="307.77,-136.834 316.489,-130.815 305.92,-130.083 307.77,-136.834"/>
</g>
<!-- Node18&#45;&gt;Node3 -->
<g id="edge33" class="edge"><title>Node18&#45;&gt;Node3</title>
<path fill="none" stroke="midnightblue" d="M360.258,-225.554C357.129,-225.008 354.014,-224.483 351,-224 234.616,-205.343 202.117,-207.736 82.2465,-188.116"/>
<polygon fill="midnightblue" stroke="midnightblue" points="82.7493,-184.652 72.3122,-186.473 81.6069,-191.558 82.7493,-184.652"/>
</g>
<!-- Node18&#45;&gt;Node12 -->
<g id="edge32" class="edge"><title>Node18&#45;&gt;Node12</title>
<path fill="none" stroke="midnightblue" d="M399,-224.083C399,-217.006 399,-206.861 399,-197.986"/>
<polygon fill="midnightblue" stroke="midnightblue" points="402.5,-197.751 399,-187.751 395.5,-197.751 402.5,-197.751"/>
</g>
<!-- Node18&#45;&gt;Node15 -->
<g id="edge31" class="edge"><title>Node18&#45;&gt;Node15</title>
<path fill="none" stroke="midnightblue" d="M381.166,-224.324C363.284,-215.625 335.525,-202.12 314.954,-192.113"/>
<polygon fill="midnightblue" stroke="midnightblue" points="316.313,-188.882 305.79,-187.655 313.251,-195.177 316.313,-188.882"/>
</g>
<!-- Node18&#45;&gt;Node16 -->
<g id="edge30" class="edge"><title>Node18&#45;&gt;Node16</title>
<path fill="none" stroke="midnightblue" d="M412.978,-224.324C426.55,-215.9 447.38,-202.971 463.325,-193.074"/>
<polygon fill="midnightblue" stroke="midnightblue" points="465.406,-195.902 472.057,-187.655 461.714,-189.954 465.406,-195.902"/>
</g>
</g>
</svg>
