<?xml version="1.0" encoding="UTF-8" standalone="no"?>
<!DOCTYPE svg PUBLIC "-//W3C//DTD SVG 1.1//EN"
 "http://www.w3.org/Graphics/SVG/1.1/DTD/svg11.dtd">
<!-- Generated by graphviz version 2.36.0 (20140111.2315)
 -->
<!-- Title: src/controller/controller.h Pages: 1 -->
<svg width="523pt" height="252pt"
 viewBox="0.00 0.00 523.00 252.00" xmlns="http://www.w3.org/2000/svg" xmlns:xlink="http://www.w3.org/1999/xlink">
<g id="graph0" class="graph" transform="scale(1 1) rotate(0) translate(4 248)">
<title>src/controller/controller.h</title>
<!-- Node1 -->
<g id="node1" class="node"><title>Node1</title>
<polygon fill="#bfbfbf" stroke="black" points="214,-224.5 214,-243.5 338,-243.5 338,-224.5 214,-224.5"/>
<text text-anchor="middle" x="276" y="-231.5" font-family="Helvetica,sans-Serif" font-size="10.00">src/controller/controller.h</text>
</g>
<!-- Node2 -->
<g id="node2" class="node"><title>Node2</title>
<g id="a_node2"><a xlink:href="icontroller_8h.html" target="_top" xlink:title="File with interface of abstract controller (from MVC). ">
<polygon fill="none" stroke="black" points="438.5,-112.5 438.5,-131.5 505.5,-131.5 505.5,-112.5 438.5,-112.5"/>
<text text-anchor="middle" x="472" y="-119.5" font-family="Helvetica,sans-Serif" font-size="10.00">icontroller.h</text>
</a>
</g>
</g>
<!-- Node1&#45;&gt;Node2 -->
<g id="edge1" class="edge"><title>Node1&#45;&gt;Node2</title>
<path fill="none" stroke="midnightblue" d="M291.38,-224.368C325.371,-205.292 407.102,-159.422 447.936,-136.505"/>
<polygon fill="midnightblue" stroke="midnightblue" points="449.684,-139.538 456.692,-131.591 446.258,-133.433 449.684,-139.538"/>
</g>
<!-- Node9 -->
<g id="node9" class="node"><title>Node9</title>
<g id="a_node9"><a xlink:href="model_8h.html" target="_top" xlink:title="File with declaration of model (from MVC). ">
<polygon fill="none" stroke="black" points="128.5,-168.5 128.5,-187.5 217.5,-187.5 217.5,-168.5 128.5,-168.5"/>
<text text-anchor="middle" x="173" y="-175.5" font-family="Helvetica,sans-Serif" font-size="10.00">../model/model.h</text>
</a>
</g>
</g>
<!-- Node1&#45;&gt;Node9 -->
<g id="edge8" class="edge"><title>Node1&#45;&gt;Node9</title>
<path fill="none" stroke="midnightblue" d="M259.451,-224.324C243.008,-215.703 217.565,-202.364 198.532,-192.386"/>
<polygon fill="midnightblue" stroke="midnightblue" points="199.989,-189.198 189.508,-187.655 196.739,-195.398 199.989,-189.198"/>
</g>
<!-- Node13 -->
<g id="node13" class="node"><title>Node13</title>
<g id="a_node13"><a xlink:href="view__elements_8h.html" target="_top" xlink:title="File with declaration of button and canvas classes. ">
<polygon fill="none" stroke="black" points="298,-112.5 298,-131.5 420,-131.5 420,-112.5 298,-112.5"/>
<text text-anchor="middle" x="359" y="-119.5" font-family="Helvetica,sans-Serif" font-size="10.00">../view/view_elements.h</text>
</a>
</g>
</g>
<!-- Node1&#45;&gt;Node13 -->
<g id="edge14" class="edge"><title>Node1&#45;&gt;Node13</title>
<path fill="none" stroke="midnightblue" d="M287.565,-224.306C298.23,-215.874 314.025,-202.29 325,-188 336.25,-173.352 345.666,-154.439 351.715,-140.795"/>
<polygon fill="midnightblue" stroke="midnightblue" points="354.955,-142.117 355.659,-131.546 348.516,-139.371 354.955,-142.117"/>
</g>
<!-- Node14 -->
<g id="node14" class="node"><title>Node14</title>
<g id="a_node14"><a xlink:href="iview_8h.html" target="_top" xlink:title="File with interface of abstract view (V from MVC). ">
<polygon fill="none" stroke="black" points="236,-168.5 236,-187.5 316,-187.5 316,-168.5 236,-168.5"/>
<text text-anchor="middle" x="276" y="-175.5" font-family="Helvetica,sans-Serif" font-size="10.00">../view/iview.h</text>
</a>
</g>
</g>
<!-- Node1&#45;&gt;Node14 -->
<g id="edge18" class="edge"><title>Node1&#45;&gt;Node14</title>
<path fill="none" stroke="midnightblue" d="M276,-224.083C276,-217.006 276,-206.861 276,-197.986"/>
<polygon fill="midnightblue" stroke="midnightblue" points="279.5,-197.751 276,-187.751 272.5,-197.751 279.5,-197.751"/>
</g>
<!-- Node15 -->
<g id="node15" class="node"><title>Node15</title>
<g id="a_node15"><a xlink:href="geomfactory_8h.html" target="_top" xlink:title="File with interface of abstract geometry factory and declaration of standard geometry factory...">
<polygon fill="none" stroke="black" points="10.5,-112.5 10.5,-131.5 119.5,-131.5 119.5,-112.5 10.5,-112.5"/>
<text text-anchor="middle" x="65" y="-119.5" font-family="Helvetica,sans-Serif" font-size="10.00">../utils/geomfactory.h</text>
</a>
</g>
</g>
<!-- Node1&#45;&gt;Node15 -->
<g id="edge20" class="edge"><title>Node1&#45;&gt;Node15</title>
<path fill="none" stroke="midnightblue" d="M215.794,-224.462C184.981,-218.016 147.966,-206.91 119,-188 100.256,-175.763 84.673,-155.023 75.1413,-140.263"/>
<polygon fill="midnightblue" stroke="midnightblue" points="78.0101,-138.247 69.7791,-131.576 72.0535,-141.924 78.0101,-138.247"/>
</g>
<!-- Node3 -->
<g id="node3" class="node"><title>Node3</title>
<g id="a_node3"><a xlink:href="geometry__elements_8h.html" target="_top" xlink:title="File with declaration of geometry element classes. ">
<polygon fill="none" stroke="black" points="101.5,-56.5 101.5,-75.5 244.5,-75.5 244.5,-56.5 101.5,-56.5"/>
<text text-anchor="middle" x="173" y="-63.5" font-family="Helvetica,sans-Serif" font-size="10.00">../view/geometry_elements.h</text>
</a>
</g>
</g>
<!-- Node2&#45;&gt;Node3 -->
<g id="edge2" class="edge"><title>Node2&#45;&gt;Node3</title>
<path fill="none" stroke="midnightblue" d="M438.22,-113.822C435.105,-113.193 431.996,-112.577 429,-112 362.739,-99.2455 286.543,-86.0378 234.625,-77.258"/>
<polygon fill="midnightblue" stroke="midnightblue" points="235.018,-73.775 224.575,-75.5625 233.853,-80.6774 235.018,-73.775"/>
</g>
<!-- Node6 -->
<g id="node6" class="node"><title>Node6</title>
<g id="a_node6"><a xlink:href="onclick_8h.html" target="_top" xlink:title="File with declaration of observer pattern classes. Two pairs of publishers and subscribers: OnClickLi...">
<polygon fill="none" stroke="black" points="370,-56.5 370,-75.5 456,-75.5 456,-56.5 370,-56.5"/>
<text text-anchor="middle" x="413" y="-63.5" font-family="Helvetica,sans-Serif" font-size="10.00">../utils/onclick.h</text>
</a>
</g>
</g>
<!-- Node2&#45;&gt;Node6 -->
<g id="edge5" class="edge"><title>Node2&#45;&gt;Node6</title>
<path fill="none" stroke="midnightblue" d="M462.521,-112.324C453.799,-104.341 440.657,-92.3128 430.102,-82.6529"/>
<polygon fill="midnightblue" stroke="midnightblue" points="432.392,-80.0036 422.652,-75.8339 427.666,-85.1674 432.392,-80.0036"/>
</g>
<!-- Node8 -->
<g id="node8" class="node"><title>Node8</title>
<polygon fill="none" stroke="#bfbfbf" points="474.5,-56.5 474.5,-75.5 515.5,-75.5 515.5,-56.5 474.5,-56.5"/>
<text text-anchor="middle" x="495" y="-63.5" font-family="Helvetica,sans-Serif" font-size="10.00">string</text>
</g>
<!-- Node2&#45;&gt;Node8 -->
<g id="edge7" class="edge"><title>Node2&#45;&gt;Node8</title>
<path fill="none" stroke="midnightblue" d="M475.798,-112.083C478.913,-104.77 483.423,-94.1814 487.289,-85.1034"/>
<polygon fill="midnightblue" stroke="midnightblue" points="490.574,-86.3229 491.273,-75.7511 484.134,-83.5798 490.574,-86.3229"/>
</g>
<!-- Node4 -->
<g id="node4" class="node"><title>Node4</title>
<g id="a_node4"><a xlink:href="logger_8h.html" target="_top" xlink:title="File with simple logger class declaration. ">
<polygon fill="none" stroke="black" points="-0.5,-0.5 -0.5,-19.5 80.5,-19.5 80.5,-0.5 -0.5,-0.5"/>
<text text-anchor="middle" x="40" y="-7.5" font-family="Helvetica,sans-Serif" font-size="10.00">../utils/logger.h</text>
</a>
</g>
</g>
<!-- Node3&#45;&gt;Node4 -->
<g id="edge3" class="edge"><title>Node3&#45;&gt;Node4</title>
<path fill="none" stroke="midnightblue" d="M151.926,-56.4435C129.94,-47.5171 95.2657,-33.4387 70.3359,-23.3168"/>
<polygon fill="midnightblue" stroke="midnightblue" points="71.5578,-20.0355 60.9756,-19.5164 68.9244,-26.5213 71.5578,-20.0355"/>
</g>
<!-- Node5 -->
<g id="node5" class="node"><title>Node5</title>
<g id="a_node5"><a xlink:href="tags_8h.html" target="_top" xlink:title="File with declaration of some tool and color tags. Used as color and tool mode flag in model (M from ...">
<polygon fill="none" stroke="black" points="136,-0.5 136,-19.5 210,-19.5 210,-0.5 136,-0.5"/>
<text text-anchor="middle" x="173" y="-7.5" font-family="Helvetica,sans-Serif" font-size="10.00">../utils/tags.h</text>
</a>
</g>
</g>
<!-- Node3&#45;&gt;Node5 -->
<g id="edge4" class="edge"><title>Node3&#45;&gt;Node5</title>
<path fill="none" stroke="midnightblue" d="M173,-56.083C173,-49.0059 173,-38.8611 173,-29.9865"/>
<polygon fill="midnightblue" stroke="midnightblue" points="176.5,-29.751 173,-19.7511 169.5,-29.7511 176.5,-29.751"/>
</g>
<!-- Node7 -->
<g id="node7" class="node"><title>Node7</title>
<polygon fill="none" stroke="#bfbfbf" points="345.5,-0.5 345.5,-19.5 374.5,-19.5 374.5,-0.5 345.5,-0.5"/>
<text text-anchor="middle" x="360" y="-7.5" font-family="Helvetica,sans-Serif" font-size="10.00">list</text>
</g>
<!-- Node6&#45;&gt;Node7 -->
<g id="edge6" class="edge"><title>Node6&#45;&gt;Node7</title>
<path fill="none" stroke="midnightblue" d="M404.248,-56.083C396.53,-48.2195 385.095,-36.5688 375.783,-27.0813"/>
<polygon fill="midnightblue" stroke="midnightblue" points="378.092,-24.4363 368.589,-19.7511 373.096,-29.3396 378.092,-24.4363"/>
</g>
<!-- Node10 -->
<g id="node10" class="node"><title>Node10</title>
<g id="a_node10"><a xlink:href="imodel_8h.html" target="_top" xlink:title="File with interface of abstract model (from MVC). ">
<polygon fill="none" stroke="black" points="146.5,-112.5 146.5,-131.5 199.5,-131.5 199.5,-112.5 146.5,-112.5"/>
<text text-anchor="middle" x="173" y="-119.5" font-family="Helvetica,sans-Serif" font-size="10.00">imodel.h</text>
</a>
</g>
</g>
<!-- Node9&#45;&gt;Node10 -->
<g id="edge9" class="edge"><title>Node9&#45;&gt;Node10</title>
<path fill="none" stroke="midnightblue" d="M173,-168.083C173,-161.006 173,-150.861 173,-141.986"/>
<polygon fill="midnightblue" stroke="midnightblue" points="176.5,-141.751 173,-131.751 169.5,-141.751 176.5,-141.751"/>
</g>
<!-- Node10&#45;&gt;Node3 -->
<g id="edge10" class="edge"><title>Node10&#45;&gt;Node3</title>
<path fill="none" stroke="midnightblue" d="M173,-112.083C173,-105.006 173,-94.8611 173,-85.9865"/>
<polygon fill="midnightblue" stroke="midnightblue" points="176.5,-85.751 173,-75.7511 169.5,-85.7511 176.5,-85.751"/>
</g>
<!-- Node11 -->
<g id="node11" class="node"><title>Node11</title>
<g id="a_node11"><a xlink:href="observe_8h.html" target="_top" xlink:title="File with declaration of observer pattern &#45; Observer and Observable. ">
<polygon fill="none" stroke="black" points="262.5,-56.5 262.5,-75.5 351.5,-75.5 351.5,-56.5 262.5,-56.5"/>
<text text-anchor="middle" x="307" y="-63.5" font-family="Helvetica,sans-Serif" font-size="10.00">../utils/observe.h</text>
</a>
</g>
</g>
<!-- Node10&#45;&gt;Node11 -->
<g id="edge11" class="edge"><title>Node10&#45;&gt;Node11</title>
<path fill="none" stroke="midnightblue" d="M194.233,-112.444C216.384,-103.517 251.319,-89.4387 276.436,-79.3168"/>
<polygon fill="midnightblue" stroke="midnightblue" points="277.9,-82.5006 285.867,-75.5164 275.283,-76.0079 277.9,-82.5006"/>
</g>
<!-- Node12 -->
<g id="node12" class="node"><title>Node12</title>
<polygon fill="none" stroke="#bfbfbf" points="31,-56.5 31,-75.5 83,-75.5 83,-56.5 31,-56.5"/>
<text text-anchor="middle" x="57" y="-63.5" font-family="Helvetica,sans-Serif" font-size="10.00">memory</text>
</g>
<!-- Node10&#45;&gt;Node12 -->
<g id="edge13" class="edge"><title>Node10&#45;&gt;Node12</title>
<path fill="none" stroke="midnightblue" d="M154.619,-112.444C135.784,-103.675 106.269,-89.9355 84.6207,-79.8579"/>
<polygon fill="midnightblue" stroke="midnightblue" points="85.8375,-76.5637 75.2946,-75.5164 82.8833,-82.9098 85.8375,-76.5637"/>
</g>
<!-- Node11&#45;&gt;Node7 -->
<g id="edge12" class="edge"><title>Node11&#45;&gt;Node7</title>
<path fill="none" stroke="midnightblue" d="M315.752,-56.083C323.47,-48.2195 334.905,-36.5688 344.217,-27.0813"/>
<polygon fill="midnightblue" stroke="midnightblue" points="346.904,-29.3396 351.411,-19.7511 341.908,-24.4363 346.904,-29.3396"/>
</g>
<!-- Node13&#45;&gt;Node3 -->
<g id="edge16" class="edge"><title>Node13&#45;&gt;Node3</title>
<path fill="none" stroke="midnightblue" d="M329.528,-112.444C297.829,-103.241 247.268,-88.5617 212.225,-78.3879"/>
<polygon fill="midnightblue" stroke="midnightblue" points="212.914,-74.9434 202.334,-75.5164 210.962,-81.6658 212.914,-74.9434"/>
</g>
<!-- Node13&#45;&gt;Node6 -->
<g id="edge15" class="edge"><title>Node13&#45;&gt;Node6</title>
<path fill="none" stroke="midnightblue" d="M367.917,-112.083C375.78,-104.22 387.431,-92.5688 396.919,-83.0813"/>
<polygon fill="midnightblue" stroke="midnightblue" points="399.653,-85.2971 404.249,-75.7511 394.703,-80.3473 399.653,-85.2971"/>
</g>
<!-- Node13&#45;&gt;Node8 -->
<g id="edge17" class="edge"><title>Node13&#45;&gt;Node8</title>
<path fill="none" stroke="midnightblue" d="M380.55,-112.444C403.296,-103.412 439.324,-89.1067 464.875,-78.9612"/>
<polygon fill="midnightblue" stroke="midnightblue" points="466.439,-82.1063 474.441,-75.1629 463.856,-75.6004 466.439,-82.1063"/>
</g>
<!-- Node14&#45;&gt;Node11 -->
<g id="edge19" class="edge"><title>Node14&#45;&gt;Node11</title>
<path fill="none" stroke="midnightblue" d="M277.196,-168.465C279.068,-155.925 283.097,-131.856 289,-112 291.697,-102.926 295.5,-93.1372 298.916,-85.0137"/>
<polygon fill="midnightblue" stroke="midnightblue" points="302.147,-86.3604 302.923,-75.7941 295.727,-83.5701 302.147,-86.3604"/>
</g>
<!-- Node15&#45;&gt;Node3 -->
<g id="edge21" class="edge"><title>Node15&#45;&gt;Node3</title>
<path fill="none" stroke="midnightblue" d="M82.3521,-112.324C99.6719,-103.664 126.515,-90.2424 146.502,-80.249"/>
<polygon fill="midnightblue" stroke="midnightblue" points="148.312,-83.2572 155.691,-75.6545 145.181,-76.9962 148.312,-83.2572"/>
</g>
<!-- Node15&#45;&gt;Node4 -->
<g id="edge22" class="edge"><title>Node15&#45;&gt;Node4</title>
<path fill="none" stroke="midnightblue" d="M52.5025,-112.302C42.1257,-104.251 28.1127,-91.245 22,-76 15.7493,-60.4108 22.1541,-41.8849 28.9949,-28.6072"/>
<polygon fill="midnightblue" stroke="midnightblue" points="32.2089,-30.0354 34.1087,-19.6123 26.1236,-26.5758 32.2089,-30.0354"/>
</g>
<!-- Node15&#45;&gt;Node12 -->
<g id="edge23" class="edge"><title>Node15&#45;&gt;Node12</title>
<path fill="none" stroke="midnightblue" d="M63.679,-112.083C62.6189,-104.927 61.0941,-94.6353 59.7691,-85.6911"/>
<polygon fill="midnightblue" stroke="midnightblue" points="63.2242,-85.1302 58.2965,-75.7511 56.2998,-86.1561 63.2242,-85.1302"/>
</g>
</g>
</svg>
