<?xml version="1.0" encoding="UTF-8" standalone="no"?>
<!DOCTYPE svg PUBLIC "-//W3C//DTD SVG 1.1//EN"
 "http://www.w3.org/Graphics/SVG/1.1/DTD/svg11.dtd">
<!-- Generated by graphviz version 2.36.0 (20140111.2315)
 -->
<!-- Title: src/controller/controller.cpp Pages: 1 -->
<svg width="516pt" height="364pt"
 viewBox="0.00 0.00 516.00 364.00" xmlns="http://www.w3.org/2000/svg" xmlns:xlink="http://www.w3.org/1999/xlink">
<g id="graph0" class="graph" transform="scale(1 1) rotate(0) translate(4 360)">
<title>src/controller/controller.cpp</title>
<!-- Node1 -->
<g id="node1" class="node"><title>Node1</title>
<polygon fill="#bfbfbf" stroke="black" points="283,-336.5 283,-355.5 417,-355.5 417,-336.5 283,-336.5"/>
<text text-anchor="middle" x="350" y="-343.5" font-family="Helvetica,sans-Serif" font-size="10.00">src/controller/controller.cpp</text>
</g>
<!-- Node2 -->
<g id="node2" class="node"><title>Node2</title>
<g id="a_node2"><a xlink:href="controller_8h.html" target="_top" xlink:title="File with controller (from MVC) declaration. ">
<polygon fill="none" stroke="black" points="200.5,-280.5 200.5,-299.5 265.5,-299.5 265.5,-280.5 200.5,-280.5"/>
<text text-anchor="middle" x="233" y="-287.5" font-family="Helvetica,sans-Serif" font-size="10.00">controller.h</text>
</a>
</g>
</g>
<!-- Node1&#45;&gt;Node2 -->
<g id="edge1" class="edge"><title>Node1&#45;&gt;Node2</title>
<path fill="none" stroke="midnightblue" d="M331.461,-336.444C312.377,-327.636 282.425,-313.812 260.564,-303.722"/>
<polygon fill="midnightblue" stroke="midnightblue" points="261.999,-300.529 251.452,-299.516 259.065,-306.885 261.999,-300.529"/>
</g>
<!-- Node18 -->
<g id="node18" class="node"><title>Node18</title>
<g id="a_node18"><a xlink:href="view_8h.html" target="_top" xlink:title="File with declaration of view (V from MVC). ">
<polygon fill="none" stroke="black" points="340.5,-224.5 340.5,-243.5 417.5,-243.5 417.5,-224.5 340.5,-224.5"/>
<text text-anchor="middle" x="379" y="-231.5" font-family="Helvetica,sans-Serif" font-size="10.00">../view/view.h</text>
</a>
</g>
</g>
<!-- Node1&#45;&gt;Node18 -->
<g id="edge29" class="edge"><title>Node1&#45;&gt;Node18</title>
<path fill="none" stroke="midnightblue" d="M352.276,-336.368C356.977,-318.537 367.849,-277.295 374.183,-253.272"/>
<polygon fill="midnightblue" stroke="midnightblue" points="377.57,-254.153 376.735,-243.591 370.801,-252.369 377.57,-254.153"/>
</g>
<!-- Node19 -->
<g id="node19" class="node"><title>Node19</title>
<polygon fill="none" stroke="#bfbfbf" points="378.5,-280.5 378.5,-299.5 427.5,-299.5 427.5,-280.5 378.5,-280.5"/>
<text text-anchor="middle" x="403" y="-287.5" font-family="Helvetica,sans-Serif" font-size="10.00">cassert</text>
</g>
<!-- Node1&#45;&gt;Node19 -->
<g id="edge34" class="edge"><title>Node1&#45;&gt;Node19</title>
<path fill="none" stroke="midnightblue" d="M358.752,-336.083C366.47,-328.22 377.905,-316.569 387.217,-307.081"/>
<polygon fill="midnightblue" stroke="midnightblue" points="389.904,-309.34 394.411,-299.751 384.908,-304.436 389.904,-309.34"/>
</g>
<!-- Node3 -->
<g id="node3" class="node"><title>Node3</title>
<g id="a_node3"><a xlink:href="icontroller_8h.html" target="_top" xlink:title="File with interface of abstract controller (from MVC). ">
<polygon fill="none" stroke="black" points="-0.5,-168.5 -0.5,-187.5 66.5,-187.5 66.5,-168.5 -0.5,-168.5"/>
<text text-anchor="middle" x="33" y="-175.5" font-family="Helvetica,sans-Serif" font-size="10.00">icontroller.h</text>
</a>
</g>
</g>
<!-- Node2&#45;&gt;Node3 -->
<g id="edge2" class="edge"><title>Node2&#45;&gt;Node3</title>
<path fill="none" stroke="midnightblue" d="M217.306,-280.368C182.621,-261.292 99.2223,-215.422 57.5553,-192.505"/>
<polygon fill="midnightblue" stroke="midnightblue" points="59.0697,-189.344 48.6208,-187.591 55.6962,-195.477 59.0697,-189.344"/>
</g>
<!-- Node11 -->
<g id="node11" class="node"><title>Node11</title>
<g id="a_node11"><a xlink:href="model_8h.html" target="_top" xlink:title="File with declaration of model (from MVC). ">
<polygon fill="none" stroke="black" points="233.5,-224.5 233.5,-243.5 322.5,-243.5 322.5,-224.5 233.5,-224.5"/>
<text text-anchor="middle" x="278" y="-231.5" font-family="Helvetica,sans-Serif" font-size="10.00">../model/model.h</text>
</a>
</g>
</g>
<!-- Node2&#45;&gt;Node11 -->
<g id="edge11" class="edge"><title>Node2&#45;&gt;Node11</title>
<path fill="none" stroke="midnightblue" d="M240.431,-280.083C246.853,-272.377 256.306,-261.033 264.122,-251.653"/>
<polygon fill="midnightblue" stroke="midnightblue" points="266.994,-253.674 270.707,-243.751 261.617,-249.193 266.994,-253.674"/>
</g>
<!-- Node15 -->
<g id="node15" class="node"><title>Node15</title>
<g id="a_node15"><a xlink:href="view__elements_8h.html" target="_top" xlink:title="File with declaration of button and canvas classes. ">
<polygon fill="none" stroke="black" points="212,-168.5 212,-187.5 334,-187.5 334,-168.5 212,-168.5"/>
<text text-anchor="middle" x="273" y="-175.5" font-family="Helvetica,sans-Serif" font-size="10.00">../view/view_elements.h</text>
</a>
</g>
</g>
<!-- Node2&#45;&gt;Node15 -->
<g id="edge19" class="edge"><title>Node2&#45;&gt;Node15</title>
<path fill="none" stroke="midnightblue" d="M228.91,-280.179C223.552,-267.282 215.752,-242.774 224,-224 229.39,-211.732 239.958,-201.341 249.904,-193.646"/>
<polygon fill="midnightblue" stroke="midnightblue" points="252.252,-196.27 258.339,-187.598 248.172,-190.581 252.252,-196.27"/>
</g>
<!-- Node16 -->
<g id="node16" class="node"><title>Node16</title>
<g id="a_node16"><a xlink:href="iview_8h.html" target="_top" xlink:title="File with interface of abstract view (V from MVC). ">
<polygon fill="none" stroke="black" points="424,-168.5 424,-187.5 504,-187.5 504,-168.5 424,-168.5"/>
<text text-anchor="middle" x="464" y="-175.5" font-family="Helvetica,sans-Serif" font-size="10.00">../view/iview.h</text>
</a>
</g>
</g>
<!-- Node2&#45;&gt;Node16 -->
<g id="edge23" class="edge"><title>Node2&#45;&gt;Node16</title>
<path fill="none" stroke="midnightblue" d="M265.601,-289.017C306.798,-287.458 378.095,-279.327 426,-244 441.746,-232.388 452.069,-212.136 457.928,-197.315"/>
<polygon fill="midnightblue" stroke="midnightblue" points="461.302,-198.279 461.419,-187.685 454.721,-195.894 461.302,-198.279"/>
</g>
<!-- Node17 -->
<g id="node17" class="node"><title>Node17</title>
<g id="a_node17"><a xlink:href="geomfactory_8h.html" target="_top" xlink:title="File with interface of abstract geometry factory and declaration of standard geometry factory...">
<polygon fill="none" stroke="black" points="84.5,-168.5 84.5,-187.5 193.5,-187.5 193.5,-168.5 84.5,-168.5"/>
<text text-anchor="middle" x="139" y="-175.5" font-family="Helvetica,sans-Serif" font-size="10.00">../utils/geomfactory.h</text>
</a>
</g>
</g>
<!-- Node2&#45;&gt;Node17 -->
<g id="edge25" class="edge"><title>Node2&#45;&gt;Node17</title>
<path fill="none" stroke="midnightblue" d="M225.624,-280.368C209.974,-262.055 173.224,-219.049 152.982,-195.362"/>
<polygon fill="midnightblue" stroke="midnightblue" points="155.499,-192.92 146.342,-187.591 150.177,-197.468 155.499,-192.92"/>
</g>
<!-- Node4 -->
<g id="node4" class="node"><title>Node4</title>
<g id="a_node4"><a xlink:href="geometry__elements_8h.html" target="_top" xlink:title="File with declaration of geometry element classes. ">
<polygon fill="none" stroke="black" points="101.5,-112.5 101.5,-131.5 244.5,-131.5 244.5,-112.5 101.5,-112.5"/>
<text text-anchor="middle" x="173" y="-119.5" font-family="Helvetica,sans-Serif" font-size="10.00">../view/geometry_elements.h</text>
</a>
</g>
</g>
<!-- Node3&#45;&gt;Node4 -->
<g id="edge3" class="edge"><title>Node3&#45;&gt;Node4</title>
<path fill="none" stroke="midnightblue" d="M55.1834,-168.444C78.4285,-159.478 115.149,-145.314 141.415,-135.183"/>
<polygon fill="midnightblue" stroke="midnightblue" points="142.85,-138.381 150.92,-131.516 140.331,-131.85 142.85,-138.381"/>
</g>
<!-- Node6 -->
<g id="node6" class="node"><title>Node6</title>
<polygon fill="none" stroke="#bfbfbf" points="54.5,-0.5 54.5,-19.5 95.5,-19.5 95.5,-0.5 54.5,-0.5"/>
<text text-anchor="middle" x="75" y="-7.5" font-family="Helvetica,sans-Serif" font-size="10.00">string</text>
</g>
<!-- Node3&#45;&gt;Node6 -->
<g id="edge10" class="edge"><title>Node3&#45;&gt;Node6</title>
<path fill="none" stroke="midnightblue" d="M29.7728,-168.305C22.6819,-147.726 7.69851,-94.8481 25,-56 30.5679,-43.4981 41.5156,-33.0124 51.751,-25.3167"/>
<polygon fill="midnightblue" stroke="midnightblue" points="53.8509,-28.1193 60.0475,-19.5256 49.8442,-22.3794 53.8509,-28.1193"/>
</g>
<!-- Node8 -->
<g id="node8" class="node"><title>Node8</title>
<g id="a_node8"><a xlink:href="onclick_8h.html" target="_top" xlink:title="File with declaration of observer pattern classes. Two pairs of publishers and subscribers: OnClickLi...">
<polygon fill="none" stroke="black" points="338,-56.5 338,-75.5 424,-75.5 424,-56.5 338,-56.5"/>
<text text-anchor="middle" x="381" y="-63.5" font-family="Helvetica,sans-Serif" font-size="10.00">../utils/onclick.h</text>
</a>
</g>
</g>
<!-- Node3&#45;&gt;Node8 -->
<g id="edge7" class="edge"><title>Node3&#45;&gt;Node8</title>
<path fill="none" stroke="midnightblue" d="M38.2237,-168.093C47.2063,-153.665 67.0437,-125.443 92,-112 131.733,-90.5967 255.627,-77.2204 327.648,-71.0432"/>
<polygon fill="midnightblue" stroke="midnightblue" points="328.21,-74.5084 337.882,-70.1839 327.624,-67.533 328.21,-74.5084"/>
</g>
<!-- Node5 -->
<g id="node5" class="node"><title>Node5</title>
<g id="a_node5"><a xlink:href="logger_8h.html" target="_top" xlink:title="File with simple logger class declaration. ">
<polygon fill="none" stroke="black" points="34.5,-56.5 34.5,-75.5 115.5,-75.5 115.5,-56.5 34.5,-56.5"/>
<text text-anchor="middle" x="75" y="-63.5" font-family="Helvetica,sans-Serif" font-size="10.00">../utils/logger.h</text>
</a>
</g>
</g>
<!-- Node4&#45;&gt;Node5 -->
<g id="edge4" class="edge"><title>Node4&#45;&gt;Node5</title>
<path fill="none" stroke="midnightblue" d="M157.255,-112.324C141.681,-103.743 117.623,-90.486 99.5407,-80.5224"/>
<polygon fill="midnightblue" stroke="midnightblue" points="101.154,-77.4152 90.7063,-75.6545 97.7756,-83.546 101.154,-77.4152"/>
</g>
<!-- Node7 -->
<g id="node7" class="node"><title>Node7</title>
<g id="a_node7"><a xlink:href="tags_8h.html" target="_top" xlink:title="File with declaration of some tool and color tags. Used as color and tool mode flag in model (M from ...">
<polygon fill="none" stroke="black" points="136,-56.5 136,-75.5 210,-75.5 210,-56.5 136,-56.5"/>
<text text-anchor="middle" x="173" y="-63.5" font-family="Helvetica,sans-Serif" font-size="10.00">../utils/tags.h</text>
</a>
</g>
</g>
<!-- Node4&#45;&gt;Node7 -->
<g id="edge6" class="edge"><title>Node4&#45;&gt;Node7</title>
<path fill="none" stroke="midnightblue" d="M173,-112.083C173,-105.006 173,-94.8611 173,-85.9865"/>
<polygon fill="midnightblue" stroke="midnightblue" points="176.5,-85.751 173,-75.7511 169.5,-85.7511 176.5,-85.751"/>
</g>
<!-- Node5&#45;&gt;Node6 -->
<g id="edge5" class="edge"><title>Node5&#45;&gt;Node6</title>
<path fill="none" stroke="midnightblue" d="M75,-56.083C75,-49.0059 75,-38.8611 75,-29.9865"/>
<polygon fill="midnightblue" stroke="midnightblue" points="78.5001,-29.751 75,-19.7511 71.5001,-29.7511 78.5001,-29.751"/>
</g>
<!-- Node9 -->
<g id="node9" class="node"><title>Node9</title>
<polygon fill="none" stroke="#bfbfbf" points="378.5,-0.5 378.5,-19.5 407.5,-19.5 407.5,-0.5 378.5,-0.5"/>
<text text-anchor="middle" x="393" y="-7.5" font-family="Helvetica,sans-Serif" font-size="10.00">list</text>
</g>
<!-- Node8&#45;&gt;Node9 -->
<g id="edge8" class="edge"><title>Node8&#45;&gt;Node9</title>
<path fill="none" stroke="midnightblue" d="M382.982,-56.083C384.572,-48.9272 386.859,-38.6353 388.846,-29.6911"/>
<polygon fill="midnightblue" stroke="midnightblue" points="392.303,-30.2722 391.055,-19.7511 385.469,-28.7537 392.303,-30.2722"/>
</g>
<!-- Node10 -->
<g id="node10" class="node"><title>Node10</title>
<polygon fill="none" stroke="#bfbfbf" points="448.5,-0.5 448.5,-19.5 507.5,-19.5 507.5,-0.5 448.5,-0.5"/>
<text text-anchor="middle" x="478" y="-7.5" font-family="Helvetica,sans-Serif" font-size="10.00">functional</text>
</g>
<!-- Node8&#45;&gt;Node10 -->
<g id="edge9" class="edge"><title>Node8&#45;&gt;Node10</title>
<path fill="none" stroke="midnightblue" d="M396.585,-56.324C411.999,-47.7428 435.812,-34.486 453.71,-24.5224"/>
<polygon fill="midnightblue" stroke="midnightblue" points="455.419,-27.5767 462.454,-19.6545 452.014,-21.4606 455.419,-27.5767"/>
</g>
<!-- Node12 -->
<g id="node12" class="node"><title>Node12</title>
<g id="a_node12"><a xlink:href="imodel_8h.html" target="_top" xlink:title="File with interface of abstract model (from MVC). ">
<polygon fill="none" stroke="black" points="352.5,-168.5 352.5,-187.5 405.5,-187.5 405.5,-168.5 352.5,-168.5"/>
<text text-anchor="middle" x="379" y="-175.5" font-family="Helvetica,sans-Serif" font-size="10.00">imodel.h</text>
</a>
</g>
</g>
<!-- Node11&#45;&gt;Node12 -->
<g id="edge12" class="edge"><title>Node11&#45;&gt;Node12</title>
<path fill="none" stroke="midnightblue" d="M294.227,-224.324C310.351,-215.703 335.3,-202.364 353.964,-192.386"/>
<polygon fill="midnightblue" stroke="midnightblue" points="355.644,-195.456 362.813,-187.655 352.344,-189.283 355.644,-195.456"/>
</g>
<!-- Node12&#45;&gt;Node4 -->
<g id="edge13" class="edge"><title>Node12&#45;&gt;Node4</title>
<path fill="none" stroke="midnightblue" d="M352.491,-170.051C317.756,-160.946 256.434,-144.871 215.259,-134.078"/>
<polygon fill="midnightblue" stroke="midnightblue" points="216.072,-130.673 205.512,-131.522 214.297,-137.444 216.072,-130.673"/>
</g>
<!-- Node13 -->
<g id="node13" class="node"><title>Node13</title>
<g id="a_node13"><a xlink:href="observe_8h.html" target="_top" xlink:title="File with declaration of observer pattern &#45; Observer and Observable. ">
<polygon fill="none" stroke="black" points="409.5,-112.5 409.5,-131.5 498.5,-131.5 498.5,-112.5 409.5,-112.5"/>
<text text-anchor="middle" x="454" y="-119.5" font-family="Helvetica,sans-Serif" font-size="10.00">../utils/observe.h</text>
</a>
</g>
</g>
<!-- Node12&#45;&gt;Node13 -->
<g id="edge14" class="edge"><title>Node12&#45;&gt;Node13</title>
<path fill="none" stroke="midnightblue" d="M391.05,-168.324C402.463,-160.107 419.831,-147.602 433.435,-137.807"/>
<polygon fill="midnightblue" stroke="midnightblue" points="435.66,-140.517 441.731,-131.834 431.57,-134.837 435.66,-140.517"/>
</g>
<!-- Node14 -->
<g id="node14" class="node"><title>Node14</title>
<polygon fill="none" stroke="#bfbfbf" points="301,-112.5 301,-131.5 353,-131.5 353,-112.5 301,-112.5"/>
<text text-anchor="middle" x="327" y="-119.5" font-family="Helvetica,sans-Serif" font-size="10.00">memory</text>
</g>
<!-- Node12&#45;&gt;Node14 -->
<g id="edge18" class="edge"><title>Node12&#45;&gt;Node14</title>
<path fill="none" stroke="midnightblue" d="M370.413,-168.083C362.841,-160.22 351.622,-148.569 342.486,-139.081"/>
<polygon fill="midnightblue" stroke="midnightblue" points="344.885,-136.527 335.427,-131.751 339.842,-141.382 344.885,-136.527"/>
</g>
<!-- Node13&#45;&gt;Node8 -->
<g id="edge17" class="edge"><title>Node13&#45;&gt;Node8</title>
<path fill="none" stroke="midnightblue" d="M442.271,-112.324C431.163,-104.107 414.258,-91.6017 401.017,-81.8069"/>
<polygon fill="midnightblue" stroke="midnightblue" points="403.063,-78.9671 392.942,-75.8339 398.9,-84.5948 403.063,-78.9671"/>
</g>
<!-- Node13&#45;&gt;Node9 -->
<g id="edge15" class="edge"><title>Node13&#45;&gt;Node9</title>
<path fill="none" stroke="midnightblue" d="M452.349,-112.114C449.675,-99.1368 443.599,-74.5293 433,-56 426.928,-45.3842 418.051,-35.0724 410.201,-27.0041"/>
<polygon fill="midnightblue" stroke="midnightblue" points="412.418,-24.2754 402.836,-19.7556 407.508,-29.2645 412.418,-24.2754"/>
</g>
<!-- Node13&#45;&gt;Node10 -->
<g id="edge16" class="edge"><title>Node13&#45;&gt;Node10</title>
<path fill="none" stroke="midnightblue" d="M456.501,-112.423C459.081,-103.404 463.121,-88.7783 466,-76 469.472,-60.5878 472.68,-42.9539 474.904,-29.9451"/>
<polygon fill="midnightblue" stroke="midnightblue" points="478.391,-30.3161 476.587,-19.8759 471.486,-29.1621 478.391,-30.3161"/>
</g>
<!-- Node15&#45;&gt;Node4 -->
<g id="edge21" class="edge"><title>Node15&#45;&gt;Node4</title>
<path fill="none" stroke="midnightblue" d="M256.933,-168.324C241.042,-159.743 216.493,-146.486 198.042,-136.522"/>
<polygon fill="midnightblue" stroke="midnightblue" points="199.489,-133.326 189.027,-131.655 196.163,-139.486 199.489,-133.326"/>
</g>
<!-- Node15&#45;&gt;Node6 -->
<g id="edge22" class="edge"><title>Node15&#45;&gt;Node6</title>
<path fill="none" stroke="midnightblue" d="M271.896,-168.298C268.544,-145.758 256.319,-85.2045 219,-56 185.642,-29.8956 136.965,-18.8144 105.634,-14.193"/>
<polygon fill="midnightblue" stroke="midnightblue" points="106.099,-10.724 95.7217,-12.861 105.166,-17.6617 106.099,-10.724"/>
</g>
<!-- Node15&#45;&gt;Node8 -->
<g id="edge20" class="edge"><title>Node15&#45;&gt;Node8</title>
<path fill="none" stroke="midnightblue" d="M303.839,-168.391C323.125,-161.506 347.058,-149.975 362,-132 372.912,-118.874 377.558,-99.7291 379.536,-85.6148"/>
<polygon fill="midnightblue" stroke="midnightblue" points="383.025,-85.9029 380.618,-75.585 376.065,-85.1515 383.025,-85.9029"/>
</g>
<!-- Node16&#45;&gt;Node13 -->
<g id="edge24" class="edge"><title>Node16&#45;&gt;Node13</title>
<path fill="none" stroke="midnightblue" d="M462.349,-168.083C461.024,-160.927 459.118,-150.635 457.461,-141.691"/>
<polygon fill="midnightblue" stroke="midnightblue" points="460.883,-140.947 455.621,-131.751 454,-142.221 460.883,-140.947"/>
</g>
<!-- Node17&#45;&gt;Node4 -->
<g id="edge26" class="edge"><title>Node17&#45;&gt;Node4</title>
<path fill="none" stroke="midnightblue" d="M144.614,-168.083C149.367,-160.534 156.318,-149.495 162.152,-140.23"/>
<polygon fill="midnightblue" stroke="midnightblue" points="165.124,-142.078 167.49,-131.751 159.2,-138.349 165.124,-142.078"/>
</g>
<!-- Node17&#45;&gt;Node5 -->
<g id="edge27" class="edge"><title>Node17&#45;&gt;Node5</title>
<path fill="none" stroke="midnightblue" d="M126.761,-168.404C116.034,-160.235 100.817,-146.997 92,-132 83.5946,-117.703 79.2819,-99.2353 77.1086,-85.641"/>
<polygon fill="midnightblue" stroke="midnightblue" points="80.5545,-85.0056 75.7433,-75.5663 73.618,-85.9457 80.5545,-85.0056"/>
</g>
<!-- Node17&#45;&gt;Node14 -->
<g id="edge28" class="edge"><title>Node17&#45;&gt;Node14</title>
<path fill="none" stroke="midnightblue" d="M168.789,-168.444C201.96,-158.916 255.565,-143.519 291.043,-133.328"/>
<polygon fill="midnightblue" stroke="midnightblue" points="292.338,-136.598 300.983,-130.473 290.405,-129.87 292.338,-136.598"/>
</g>
<!-- Node18&#45;&gt;Node3 -->
<g id="edge33" class="edge"><title>Node18&#45;&gt;Node3</title>
<path fill="none" stroke="midnightblue" d="M340.254,-225.578C337.126,-225.027 334.012,-224.494 331,-224 220.828,-205.935 189.872,-207.917 76.9699,-188.254"/>
<polygon fill="midnightblue" stroke="midnightblue" points="77.3407,-184.765 66.8852,-186.478 76.1269,-191.659 77.3407,-184.765"/>
</g>
<!-- Node18&#45;&gt;Node12 -->
<g id="edge32" class="edge"><title>Node18&#45;&gt;Node12</title>
<path fill="none" stroke="midnightblue" d="M379,-224.083C379,-217.006 379,-206.861 379,-197.986"/>
<polygon fill="midnightblue" stroke="midnightblue" points="382.5,-197.751 379,-187.751 375.5,-197.751 382.5,-197.751"/>
</g>
<!-- Node18&#45;&gt;Node15 -->
<g id="edge31" class="edge"><title>Node18&#45;&gt;Node15</title>
<path fill="none" stroke="midnightblue" d="M361.969,-224.324C344.97,-215.664 318.624,-202.242 299.007,-192.249"/>
<polygon fill="midnightblue" stroke="midnightblue" points="300.488,-189.075 289.988,-187.655 297.31,-195.312 300.488,-189.075"/>
</g>
<!-- Node18&#45;&gt;Node16 -->
<g id="edge30" class="edge"><title>Node18&#45;&gt;Node16</title>
<path fill="none" stroke="midnightblue" d="M392.657,-224.324C405.916,-215.9 426.268,-202.971 441.846,-193.074"/>
<polygon fill="midnightblue" stroke="midnightblue" points="443.813,-195.971 450.377,-187.655 440.06,-190.063 443.813,-195.971"/>
</g>
</g>
</svg>
