<?xml version="1.0" encoding="UTF-8" standalone="no"?>
<!DOCTYPE svg PUBLIC "-//W3C//DTD SVG 1.1//EN"
 "http://www.w3.org/Graphics/SVG/1.1/DTD/svg11.dtd">
<!-- Generated by graphviz version 2.36.0 (20140111.2315)
 -->
<!-- Title: src/controller/controller.cpp Pages: 1 -->
<!--zoomable 308 -->
<svg id="main" version="1.1" xmlns="http://www.w3.org/2000/svg" xmlns:xlink="http://www.w3.org/1999/xlink" xml:space="preserve" onload="init(evt)">
<style type="text/css"><![CDATA[
.edge:hover path { stroke: red; }
.edge:hover polygon { stroke: red; fill: red; }
]]></style>
<script type="text/javascript"><![CDATA[
var edges = document.getElementsByTagName('g');
if (edges && edges.length) {
  for (var i=0;i<edges.length;i++) {
    if (edges[i].id.substr(0,4)=='edge') {
      edges[i].setAttribute('class','edge');
    }
  }
}
]]></script>
        <defs>
                <circle id="rim" cx="0" cy="0" r="7"/>
                <circle id="rim2" cx="0" cy="0" r="3.5"/>
                <g id="zoomPlus">
                        <use xlink:href="#rim" fill="#404040">
                                <set attributeName="fill" to="#808080" begin="zoomplus.mouseover" end="zoomplus.mouseout"/>
                        </use>
                        <path d="M-4,0h8M0,-4v8" fill="none" stroke="white" stroke-width="1.5" pointer-events="none"/>
                </g>
                <g id="zoomMin">
                        <use xlink:href="#rim" fill="#404040">
                                <set attributeName="fill" to="#808080" begin="zoomminus.mouseover" end="zoomminus.mouseout"/>
                        </use>
                        <path d="M-4,0h8" fill="none" stroke="white" stroke-width="1.5" pointer-events="none"/>
                </g>
                <g id="dirArrow">
                        <path fill="none" stroke="white" stroke-width="1.5" d="M0,-3.0v7 M-2.5,-0.5L0,-3.0L2.5,-0.5"/>
                </g>
               <g id="resetDef">
                       <use xlink:href="#rim2" fill="#404040">
                               <set attributeName="fill" to="#808080" begin="reset.mouseover" end="reset.mouseout"/>
                       </use>
               </g>
        </defs>

<script type="text/javascript">
var viewWidth = 531;
var viewHeight = 308;
var sectionId = 'dynsection-0';
</script>
<script xlink:href="svgpan.js"/>
<svg id="graph" class="graph">
<g id="viewport">
<title>src/controller/controller.cpp</title>
<!-- Node1 -->
<g id="node1" class="node"><title>Node1</title>
<polygon fill="#bfbfbf" stroke="black" points="285,-280.5 285,-299.5 419,-299.5 419,-280.5 285,-280.5"/>
<text text-anchor="middle" x="352" y="-287.5" font-family="Helvetica,sans-Serif" font-size="10.00">src/controller/controller.cpp</text>
</g>
<!-- Node2 -->
<g id="node2" class="node"><title>Node2</title>
<g id="a_node2"><a xlink:href="controller_8h.html" target="_top" xlink:title="File with controller (from MVC) declaration. ">
<polygon fill="none" stroke="black" points="236.5,-224.5 236.5,-243.5 301.5,-243.5 301.5,-224.5 236.5,-224.5"/>
<text text-anchor="middle" x="269" y="-231.5" font-family="Helvetica,sans-Serif" font-size="10.00">controller.h</text>
</a>
</g>
</g>
<!-- Node1&#45;&gt;Node2 -->
<g id="edge1" class="edge"><title>Node1&#45;&gt;Node2</title>
<path fill="none" stroke="midnightblue" d="M338.665,-280.324C325.838,-271.979 306.215,-259.212 291.06,-249.352"/>
<polygon fill="midnightblue" stroke="midnightblue" points="292.593,-246.174 282.302,-243.655 288.776,-252.042 292.593,-246.174"/>
</g>
<!-- Node17 -->
<g id="node17" class="node"><title>Node17</title>
<g id="a_node17"><a xlink:href="view_8h.html" target="_top" xlink:title="File with declaration of view (V from MVC). ">
<polygon fill="none" stroke="black" points="324.5,-168.5 324.5,-187.5 401.5,-187.5 401.5,-168.5 324.5,-168.5"/>
<text text-anchor="middle" x="363" y="-175.5" font-family="Helvetica,sans-Serif" font-size="10.00">../view/view.h</text>
</a>
</g>
</g>
<!-- Node1&#45;&gt;Node17 -->
<g id="edge25" class="edge"><title>Node1&#45;&gt;Node17</title>
<path fill="none" stroke="midnightblue" d="M352.863,-280.368C354.638,-262.617 358.733,-221.666 361.14,-197.597"/>
<polygon fill="midnightblue" stroke="midnightblue" points="364.628,-197.89 362.141,-187.591 357.663,-197.193 364.628,-197.89"/>
</g>
<!-- Node18 -->
<g id="node18" class="node"><title>Node18</title>
<polygon fill="none" stroke="#bfbfbf" points="380.5,-224.5 380.5,-243.5 429.5,-243.5 429.5,-224.5 380.5,-224.5"/>
<text text-anchor="middle" x="405" y="-231.5" font-family="Helvetica,sans-Serif" font-size="10.00">cassert</text>
</g>
<!-- Node1&#45;&gt;Node18 -->
<g id="edge30" class="edge"><title>Node1&#45;&gt;Node18</title>
<path fill="none" stroke="midnightblue" d="M360.752,-280.083C368.47,-272.22 379.905,-260.569 389.217,-251.081"/>
<polygon fill="midnightblue" stroke="midnightblue" points="391.904,-253.34 396.411,-243.751 386.908,-248.436 391.904,-253.34"/>
</g>
<!-- Node3 -->
<g id="node3" class="node"><title>Node3</title>
<g id="a_node3"><a xlink:href="icontroller_8h.html" target="_top" xlink:title="File with interface of abstract controller (from MVC). ">
<polygon fill="none" stroke="black" points="456.5,-112.5 456.5,-131.5 523.5,-131.5 523.5,-112.5 456.5,-112.5"/>
<text text-anchor="middle" x="490" y="-119.5" font-family="Helvetica,sans-Serif" font-size="10.00">icontroller.h</text>
</a>
</g>
</g>
<!-- Node2&#45;&gt;Node3 -->
<g id="edge2" class="edge"><title>Node2&#45;&gt;Node3</title>
<path fill="none" stroke="midnightblue" d="M301.737,-226.224C331.236,-219.281 375.19,-206.819 410,-188 434.44,-174.787 458.659,-153.695 473.936,-139.139"/>
<polygon fill="midnightblue" stroke="midnightblue" points="476.731,-141.303 481.449,-131.817 471.845,-136.29 476.731,-141.303"/>
</g>
<!-- Node10 -->
<g id="node10" class="node"><title>Node10</title>
<g id="a_node10"><a xlink:href="model_8h.html" target="_top" xlink:title="File with declaration of model (from MVC). ">
<polygon fill="none" stroke="black" points="134.5,-168.5 134.5,-187.5 223.5,-187.5 223.5,-168.5 134.5,-168.5"/>
<text text-anchor="middle" x="179" y="-175.5" font-family="Helvetica,sans-Serif" font-size="10.00">../model/model.h</text>
</a>
</g>
</g>
<!-- Node2&#45;&gt;Node10 -->
<g id="edge9" class="edge"><title>Node2&#45;&gt;Node10</title>
<path fill="none" stroke="midnightblue" d="M254.54,-224.324C240.5,-215.9 218.952,-202.971 202.457,-193.074"/>
<polygon fill="midnightblue" stroke="midnightblue" points="203.8,-189.798 193.424,-187.655 200.198,-195.801 203.8,-189.798"/>
</g>
<!-- Node14 -->
<g id="node14" class="node"><title>Node14</title>
<g id="a_node14"><a xlink:href="view__elements_8h.html" target="_top" xlink:title="File with declaration of button and canvas classes. ">
<polygon fill="none" stroke="black" points="316,-112.5 316,-131.5 438,-131.5 438,-112.5 316,-112.5"/>
<text text-anchor="middle" x="377" y="-119.5" font-family="Helvetica,sans-Serif" font-size="10.00">../view/view_elements.h</text>
</a>
</g>
</g>
<!-- Node2&#45;&gt;Node14 -->
<g id="edge15" class="edge"><title>Node2&#45;&gt;Node14</title>
<path fill="none" stroke="midnightblue" d="M273.876,-224.333C281.526,-211.2 297.315,-185.898 315,-168 326.66,-156.2 341.675,-145.216 354.009,-137.054"/>
<polygon fill="midnightblue" stroke="midnightblue" points="355.912,-139.992 362.429,-131.639 352.125,-134.104 355.912,-139.992"/>
</g>
<!-- Node15 -->
<g id="node15" class="node"><title>Node15</title>
<g id="a_node15"><a xlink:href="iview_8h.html" target="_top" xlink:title="File with interface of abstract view (V from MVC). ">
<polygon fill="none" stroke="black" points="218,-112.5 218,-131.5 298,-131.5 298,-112.5 218,-112.5"/>
<text text-anchor="middle" x="258" y="-119.5" font-family="Helvetica,sans-Serif" font-size="10.00">../view/iview.h</text>
</a>
</g>
</g>
<!-- Node2&#45;&gt;Node15 -->
<g id="edge19" class="edge"><title>Node2&#45;&gt;Node15</title>
<path fill="none" stroke="midnightblue" d="M268.137,-224.368C266.362,-206.617 262.267,-165.666 259.86,-141.597"/>
<polygon fill="midnightblue" stroke="midnightblue" points="263.337,-141.193 258.859,-131.591 256.372,-141.89 263.337,-141.193"/>
</g>
<!-- Node16 -->
<g id="node16" class="node"><title>Node16</title>
<g id="a_node16"><a xlink:href="geomfactory_8h.html" target="_top" xlink:title="File with interface of abstract geometry factory and declaration of standard geometry factory...">
<polygon fill="none" stroke="black" points="10.5,-112.5 10.5,-131.5 119.5,-131.5 119.5,-112.5 10.5,-112.5"/>
<text text-anchor="middle" x="65" y="-119.5" font-family="Helvetica,sans-Serif" font-size="10.00">../utils/geomfactory.h</text>
</a>
</g>
</g>
<!-- Node2&#45;&gt;Node16 -->
<g id="edge21" class="edge"><title>Node2&#45;&gt;Node16</title>
<path fill="none" stroke="midnightblue" d="M236.348,-227.823C205.743,-221.855 159.64,-209.917 125,-188 105.225,-175.488 87.7339,-154.842 76.8138,-140.178"/>
<polygon fill="midnightblue" stroke="midnightblue" points="79.5783,-138.028 70.9019,-131.947 73.8927,-142.111 79.5783,-138.028"/>
</g>
<!-- Node4 -->
<g id="node4" class="node"><title>Node4</title>
<g id="a_node4"><a xlink:href="geometry__elements_8h.html" target="_top" xlink:title="File with declaration of geometry element classes. ">
<polygon fill="none" stroke="black" points="101.5,-56.5 101.5,-75.5 244.5,-75.5 244.5,-56.5 101.5,-56.5"/>
<text text-anchor="middle" x="173" y="-63.5" font-family="Helvetica,sans-Serif" font-size="10.00">../view/geometry_elements.h</text>
</a>
</g>
</g>
<!-- Node3&#45;&gt;Node4 -->
<g id="edge3" class="edge"><title>Node3&#45;&gt;Node4</title>
<path fill="none" stroke="midnightblue" d="M456.226,-113.786C453.111,-113.164 449.999,-112.56 447,-112 376.291,-98.8003 294.923,-85.7 239.344,-77.0676"/>
<polygon fill="midnightblue" stroke="midnightblue" points="239.693,-73.5799 229.275,-75.5087 238.622,-80.4975 239.693,-73.5799"/>
</g>
<!-- Node7 -->
<g id="node7" class="node"><title>Node7</title>
<g id="a_node7"><a xlink:href="onclick_8h.html" target="_top" xlink:title="File with declaration of observer pattern classes. Two pairs of publishers and subscribers: OnClickLi...">
<polygon fill="none" stroke="black" points="370,-56.5 370,-75.5 456,-75.5 456,-56.5 370,-56.5"/>
<text text-anchor="middle" x="413" y="-63.5" font-family="Helvetica,sans-Serif" font-size="10.00">../utils/onclick.h</text>
</a>
</g>
</g>
<!-- Node3&#45;&gt;Node7 -->
<g id="edge6" class="edge"><title>Node3&#45;&gt;Node7</title>
<path fill="none" stroke="midnightblue" d="M477.629,-112.324C465.842,-104.058 447.868,-91.4527 433.864,-81.6322"/>
<polygon fill="midnightblue" stroke="midnightblue" points="435.538,-78.5307 425.341,-75.6545 431.518,-84.2619 435.538,-78.5307"/>
</g>
<!-- Node9 -->
<g id="node9" class="node"><title>Node9</title>
<polygon fill="none" stroke="#bfbfbf" points="474.5,-56.5 474.5,-75.5 515.5,-75.5 515.5,-56.5 474.5,-56.5"/>
<text text-anchor="middle" x="495" y="-63.5" font-family="Helvetica,sans-Serif" font-size="10.00">string</text>
</g>
<!-- Node3&#45;&gt;Node9 -->
<g id="edge8" class="edge"><title>Node3&#45;&gt;Node9</title>
<path fill="none" stroke="midnightblue" d="M490.826,-112.083C491.481,-105.006 492.42,-94.8611 493.242,-85.9865"/>
<polygon fill="midnightblue" stroke="midnightblue" points="496.753,-86.0312 494.19,-75.7511 489.783,-85.3858 496.753,-86.0312"/>
</g>
<!-- Node5 -->
<g id="node5" class="node"><title>Node5</title>
<g id="a_node5"><a xlink:href="logger_8h.html" target="_top" xlink:title="File with simple logger class declaration. ">
<polygon fill="none" stroke="black" points="-0.5,-0.5 -0.5,-19.5 80.5,-19.5 80.5,-0.5 -0.5,-0.5"/>
<text text-anchor="middle" x="40" y="-7.5" font-family="Helvetica,sans-Serif" font-size="10.00">../utils/logger.h</text>
</a>
</g>
</g>
<!-- Node4&#45;&gt;Node5 -->
<g id="edge4" class="edge"><title>Node4&#45;&gt;Node5</title>
<path fill="none" stroke="midnightblue" d="M151.926,-56.4435C129.94,-47.5171 95.2657,-33.4387 70.3359,-23.3168"/>
<polygon fill="midnightblue" stroke="midnightblue" points="71.5578,-20.0355 60.9756,-19.5164 68.9244,-26.5213 71.5578,-20.0355"/>
</g>
<!-- Node6 -->
<g id="node6" class="node"><title>Node6</title>
<g id="a_node6"><a xlink:href="tags_8h.html" target="_top" xlink:title="File with declaration of some tool and color tags. Used as color and tool mode flag in model (M from ...">
<polygon fill="none" stroke="black" points="136,-0.5 136,-19.5 210,-19.5 210,-0.5 136,-0.5"/>
<text text-anchor="middle" x="173" y="-7.5" font-family="Helvetica,sans-Serif" font-size="10.00">../utils/tags.h</text>
</a>
</g>
</g>
<!-- Node4&#45;&gt;Node6 -->
<g id="edge5" class="edge"><title>Node4&#45;&gt;Node6</title>
<path fill="none" stroke="midnightblue" d="M173,-56.083C173,-49.0059 173,-38.8611 173,-29.9865"/>
<polygon fill="midnightblue" stroke="midnightblue" points="176.5,-29.751 173,-19.7511 169.5,-29.7511 176.5,-29.751"/>
</g>
<!-- Node8 -->
<g id="node8" class="node"><title>Node8</title>
<polygon fill="none" stroke="#bfbfbf" points="345.5,-0.5 345.5,-19.5 374.5,-19.5 374.5,-0.5 345.5,-0.5"/>
<text text-anchor="middle" x="360" y="-7.5" font-family="Helvetica,sans-Serif" font-size="10.00">list</text>
</g>
<!-- Node7&#45;&gt;Node8 -->
<g id="edge7" class="edge"><title>Node7&#45;&gt;Node8</title>
<path fill="none" stroke="midnightblue" d="M404.248,-56.083C396.53,-48.2195 385.095,-36.5688 375.783,-27.0813"/>
<polygon fill="midnightblue" stroke="midnightblue" points="378.092,-24.4363 368.589,-19.7511 373.096,-29.3396 378.092,-24.4363"/>
</g>
<!-- Node11 -->
<g id="node11" class="node"><title>Node11</title>
<g id="a_node11"><a xlink:href="imodel_8h.html" target="_top" xlink:title="File with interface of abstract model (from MVC). ">
<polygon fill="none" stroke="black" points="146.5,-112.5 146.5,-131.5 199.5,-131.5 199.5,-112.5 146.5,-112.5"/>
<text text-anchor="middle" x="173" y="-119.5" font-family="Helvetica,sans-Serif" font-size="10.00">imodel.h</text>
</a>
</g>
</g>
<!-- Node10&#45;&gt;Node11 -->
<g id="edge10" class="edge"><title>Node10&#45;&gt;Node11</title>
<path fill="none" stroke="midnightblue" d="M178.009,-168.083C177.214,-160.927 176.071,-150.635 175.077,-141.691"/>
<polygon fill="midnightblue" stroke="midnightblue" points="178.555,-141.303 173.972,-131.751 171.598,-142.076 178.555,-141.303"/>
</g>
<!-- Node11&#45;&gt;Node4 -->
<g id="edge11" class="edge"><title>Node11&#45;&gt;Node4</title>
<path fill="none" stroke="midnightblue" d="M173,-112.083C173,-105.006 173,-94.8611 173,-85.9865"/>
<polygon fill="midnightblue" stroke="midnightblue" points="176.5,-85.751 173,-75.7511 169.5,-85.7511 176.5,-85.751"/>
</g>
<!-- Node12 -->
<g id="node12" class="node"><title>Node12</title>
<g id="a_node12"><a xlink:href="observe_8h.html" target="_top" xlink:title="File with declaration of observer pattern &#45; Observer and Observable. ">
<polygon fill="none" stroke="black" points="262.5,-56.5 262.5,-75.5 351.5,-75.5 351.5,-56.5 262.5,-56.5"/>
<text text-anchor="middle" x="307" y="-63.5" font-family="Helvetica,sans-Serif" font-size="10.00">../utils/observe.h</text>
</a>
</g>
</g>
<!-- Node11&#45;&gt;Node12 -->
<g id="edge12" class="edge"><title>Node11&#45;&gt;Node12</title>
<path fill="none" stroke="midnightblue" d="M194.233,-112.444C216.384,-103.517 251.319,-89.4387 276.436,-79.3168"/>
<polygon fill="midnightblue" stroke="midnightblue" points="277.9,-82.5006 285.867,-75.5164 275.283,-76.0079 277.9,-82.5006"/>
</g>
<!-- Node13 -->
<g id="node13" class="node"><title>Node13</title>
<polygon fill="none" stroke="#bfbfbf" points="31,-56.5 31,-75.5 83,-75.5 83,-56.5 31,-56.5"/>
<text text-anchor="middle" x="57" y="-63.5" font-family="Helvetica,sans-Serif" font-size="10.00">memory</text>
</g>
<!-- Node11&#45;&gt;Node13 -->
<g id="edge14" class="edge"><title>Node11&#45;&gt;Node13</title>
<path fill="none" stroke="midnightblue" d="M154.619,-112.444C135.784,-103.675 106.269,-89.9355 84.6207,-79.8579"/>
<polygon fill="midnightblue" stroke="midnightblue" points="85.8375,-76.5637 75.2946,-75.5164 82.8833,-82.9098 85.8375,-76.5637"/>
</g>
<!-- Node12&#45;&gt;Node8 -->
<g id="edge13" class="edge"><title>Node12&#45;&gt;Node8</title>
<path fill="none" stroke="midnightblue" d="M315.752,-56.083C323.47,-48.2195 334.905,-36.5688 344.217,-27.0813"/>
<polygon fill="midnightblue" stroke="midnightblue" points="346.904,-29.3396 351.411,-19.7511 341.908,-24.4363 346.904,-29.3396"/>
</g>
<!-- Node14&#45;&gt;Node4 -->
<g id="edge17" class="edge"><title>Node14&#45;&gt;Node4</title>
<path fill="none" stroke="midnightblue" d="M344.676,-112.444C309.611,-103.162 253.502,-88.3093 215.035,-78.127"/>
<polygon fill="midnightblue" stroke="midnightblue" points="215.736,-74.692 205.173,-75.5164 213.945,-81.4589 215.736,-74.692"/>
</g>
<!-- Node14&#45;&gt;Node7 -->
<g id="edge16" class="edge"><title>Node14&#45;&gt;Node7</title>
<path fill="none" stroke="midnightblue" d="M382.945,-112.083C387.977,-104.534 395.337,-93.4948 401.513,-84.2298"/>
<polygon fill="midnightblue" stroke="midnightblue" points="404.531,-86.0131 407.166,-75.7511 398.707,-82.1301 404.531,-86.0131"/>
</g>
<!-- Node14&#45;&gt;Node9 -->
<g id="edge18" class="edge"><title>Node14&#45;&gt;Node9</title>
<path fill="none" stroke="midnightblue" d="M395.697,-112.444C414.944,-103.636 445.152,-89.8116 467.2,-79.722"/>
<polygon fill="midnightblue" stroke="midnightblue" points="468.753,-82.8603 476.39,-75.5164 465.84,-76.4951 468.753,-82.8603"/>
</g>
<!-- Node15&#45;&gt;Node12 -->
<g id="edge20" class="edge"><title>Node15&#45;&gt;Node12</title>
<path fill="none" stroke="midnightblue" d="M266.091,-112.083C273.155,-104.298 283.588,-92.8015 292.149,-83.3665"/>
<polygon fill="midnightblue" stroke="midnightblue" points="294.931,-85.5087 299.059,-75.7511 289.747,-80.8047 294.931,-85.5087"/>
</g>
<!-- Node16&#45;&gt;Node4 -->
<g id="edge22" class="edge"><title>Node16&#45;&gt;Node4</title>
<path fill="none" stroke="midnightblue" d="M82.3521,-112.324C99.6719,-103.664 126.515,-90.2424 146.502,-80.249"/>
<polygon fill="midnightblue" stroke="midnightblue" points="148.312,-83.2572 155.691,-75.6545 145.181,-76.9962 148.312,-83.2572"/>
</g>
<!-- Node16&#45;&gt;Node5 -->
<g id="edge23" class="edge"><title>Node16&#45;&gt;Node5</title>
<path fill="none" stroke="midnightblue" d="M52.5025,-112.302C42.1257,-104.251 28.1127,-91.245 22,-76 15.7493,-60.4108 22.1541,-41.8849 28.9949,-28.6072"/>
<polygon fill="midnightblue" stroke="midnightblue" points="32.2089,-30.0354 34.1087,-19.6123 26.1236,-26.5758 32.2089,-30.0354"/>
</g>
<!-- Node16&#45;&gt;Node13 -->
<g id="edge24" class="edge"><title>Node16&#45;&gt;Node13</title>
<path fill="none" stroke="midnightblue" d="M63.679,-112.083C62.6189,-104.927 61.0941,-94.6353 59.7691,-85.6911"/>
<polygon fill="midnightblue" stroke="midnightblue" points="63.2242,-85.1302 58.2965,-75.7511 56.2998,-86.1561 63.2242,-85.1302"/>
</g>
<!-- Node17&#45;&gt;Node3 -->
<g id="edge29" class="edge"><title>Node17&#45;&gt;Node3</title>
<path fill="none" stroke="midnightblue" d="M383.124,-168.444C404.024,-159.557 436.935,-145.563 460.716,-135.451"/>
<polygon fill="midnightblue" stroke="midnightblue" points="462.138,-138.65 469.971,-131.516 459.398,-132.208 462.138,-138.65"/>
</g>
<!-- Node17&#45;&gt;Node11 -->
<g id="edge28" class="edge"><title>Node17&#45;&gt;Node11</title>
<path fill="none" stroke="midnightblue" d="M332.894,-168.444C299.466,-158.943 245.503,-143.606 209.645,-133.415"/>
<polygon fill="midnightblue" stroke="midnightblue" points="210.169,-129.925 199.593,-130.558 208.255,-136.659 210.169,-129.925"/>
</g>
<!-- Node17&#45;&gt;Node14 -->
<g id="edge27" class="edge"><title>Node17&#45;&gt;Node14</title>
<path fill="none" stroke="midnightblue" d="M365.312,-168.083C367.167,-160.927 369.835,-150.635 372.154,-141.691"/>
<polygon fill="midnightblue" stroke="midnightblue" points="375.609,-142.309 374.731,-131.751 368.834,-140.553 375.609,-142.309"/>
</g>
<!-- Node17&#45;&gt;Node15 -->
<g id="edge26" class="edge"><title>Node17&#45;&gt;Node15</title>
<path fill="none" stroke="midnightblue" d="M346.13,-168.324C329.291,-159.664 303.193,-146.242 283.762,-136.249"/>
<polygon fill="midnightblue" stroke="midnightblue" points="285.322,-133.116 274.828,-131.655 282.12,-139.341 285.322,-133.116"/>
</g>
</g>
</svg>
        <g id="navigator" transform="translate(0 0)" fill="#404254">
                <rect fill="#f2f5e9" fill-opacity="0.5" stroke="#606060" stroke-width=".5" x="0" y="0" width="60" height="60"/>
                <use id="zoomplus" xlink:href="#zoomPlus" x="17" y="9" onmousedown="handleZoom(evt,'in')"/>
                <use id="zoomminus" xlink:href="#zoomMin" x="42" y="9" onmousedown="handleZoom(evt,'out')"/>
                <use id="reset" xlink:href="#resetDef" x="30" y="36" onmousedown="handleReset()"/>
                <g id="arrowUp" xlink:href="#dirArrow" transform="translate(30 24)" onmousedown="handlePan(0,-1)">
                  <use xlink:href="#rim" fill="#404040">
                        <set attributeName="fill" to="#808080" begin="arrowUp.mouseover" end="arrowUp.mouseout"/>
                  </use>
                  <path fill="none" stroke="white" stroke-width="1.5" d="M0,-3.0v7 M-2.5,-0.5L0,-3.0L2.5,-0.5"/>
                </g>
                <g id="arrowRight" xlink:href="#dirArrow" transform="rotate(90) translate(36 -43)" onmousedown="handlePan(1,0)">
                  <use xlink:href="#rim" fill="#404040">
                        <set attributeName="fill" to="#808080" begin="arrowRight.mouseover" end="arrowRight.mouseout"/>
                  </use>
                  <path fill="none" stroke="white" stroke-width="1.5" d="M0,-3.0v7 M-2.5,-0.5L0,-3.0L2.5,-0.5"/>
                </g>
                <g id="arrowDown" xlink:href="#dirArrow" transform="rotate(180) translate(-30 -48)" onmousedown="handlePan(0,1)">
                  <use xlink:href="#rim" fill="#404040">
                        <set attributeName="fill" to="#808080" begin="arrowDown.mouseover" end="arrowDown.mouseout"/>
                  </use>
                  <path fill="none" stroke="white" stroke-width="1.5" d="M0,-3.0v7 M-2.5,-0.5L0,-3.0L2.5,-0.5"/>
                </g>
                <g id="arrowLeft" xlink:href="#dirArrow" transform="rotate(270) translate(-36 17)" onmousedown="handlePan(-1,0)">
                  <use xlink:href="#rim" fill="#404040">
                        <set attributeName="fill" to="#808080" begin="arrowLeft.mouseover" end="arrowLeft.mouseout"/>
                  </use>
                  <path fill="none" stroke="white" stroke-width="1.5" d="M0,-3.0v7 M-2.5,-0.5L0,-3.0L2.5,-0.5"/>
                </g>
        </g>
        <svg viewBox="0 0 15 15" width="100%" height="30px" preserveAspectRatio="xMaxYMin meet">
         <g id="arrow_out" transform="scale(0.3 0.3)">
          <a xlink:href="controller_8cpp__incl_org.svg" target="_base">
           <rect id="button" ry="5" rx="5" y="6" x="6" height="38" width="38"
                fill="#f2f5e9" fill-opacity="0.5" stroke="#606060" stroke-width="1.0"/>
           <path id="arrow"
             d="M 11.500037,31.436501 C 11.940474,20.09759 22.043105,11.32322 32.158766,21.979434 L 37.068811,17.246167 C 37.068811,17.246167 37.088388,32 37.088388,32 L 22.160133,31.978069 C 22.160133,31.978069 26.997745,27.140456 26.997745,27.140456 C 18.528582,18.264221 13.291696,25.230495 11.500037,31.436501 z"
             style="fill:#404040;"/>
          </a>
         </g>
        </svg>
</svg>
