<?xml version="1.0" encoding="UTF-8" standalone="no"?>
<!DOCTYPE svg PUBLIC "-//W3C//DTD SVG 1.1//EN"
 "http://www.w3.org/Graphics/SVG/1.1/DTD/svg11.dtd">
<!-- Generated by graphviz version 2.38.0 (20140413.2041)
 -->
<!-- Title: src/controller Pages: 1 -->
<svg width="158pt" height="223pt"
 viewBox="0.00 0.00 158.00 223.00" xmlns="http://www.w3.org/2000/svg" xmlns:xlink="http://www.w3.org/1999/xlink">
<g id="graph0" class="graph" transform="scale(1 1) rotate(0) translate(4 219)">
<title>src/controller</title>
<g id="clust1" class="cluster"><title>clusterdir_68267d1309a1af8e8297ef4c3efbcdba</title>
<g id="a_clust1"><a xlink:href="dir_68267d1309a1af8e8297ef4c3efbcdba.html" target="_top" xlink:title="src">
<polygon fill="#ddddee" stroke="black" points="8,-136 8,-207 86,-207 86,-136 8,-136"/>
<text text-anchor="middle" x="47" y="-195" font-family="Helvetica,sans-Serif" font-size="10.00">src</text>
</a>
</g>
</g>
<!-- dir_41ef5d8a90b9cc03a02949a5c062e6f0 -->
<g id="node1" class="node"><title>dir_41ef5d8a90b9cc03a02949a5c062e6f0</title>
<g id="a_node1"><a xlink:href="dir_41ef5d8a90b9cc03a02949a5c062e6f0.html" target="_top" xlink:title="controller">
<polygon fill="#eeeeff" stroke="black" points="78,-180 16,-180 16,-144 78,-144 78,-180"/>
<text text-anchor="middle" x="47" y="-159.5" font-family="Helvetica,sans-Serif" font-size="10.00">controller</text>
</a>
</g>
</g>
<!-- dir_b39b5091e8d1d2be4b7fc59d57749634 -->
<g id="node2" class="node"><title>dir_b39b5091e8d1d2be4b7fc59d57749634</title>
<g id="a_node2"><a xlink:href="dir_b39b5091e8d1d2be4b7fc59d57749634.html" target="_top" xlink:title="view">
<polygon fill="none" stroke="black" points="150,-180 96,-180 96,-144 150,-144 150,-180"/>
<text text-anchor="middle" x="123" y="-159.5" font-family="Helvetica,sans-Serif" font-size="10.00">view</text>
</a>
</g>
</g>
<!-- dir_41ef5d8a90b9cc03a02949a5c062e6f0&#45;&gt;dir_b39b5091e8d1d2be4b7fc59d57749634 -->
<g id="edge6" class="edge"><title>dir_41ef5d8a90b9cc03a02949a5c062e6f0&#45;&gt;dir_b39b5091e8d1d2be4b7fc59d57749634</title>
<path fill="none" stroke="black" d="M78.1719,-162C80.6344,-162 83.0968,-162 85.5593,-162"/>
<polygon fill="black" stroke="black" points="85.6829,-165.5 95.6829,-162 85.6828,-158.5 85.6829,-165.5"/>
<g id="a_edge6&#45;headlabel"><a xlink:href="dir_000001_000004.html" target="_top" xlink:title="4">
<text text-anchor="middle" x="82.0882" y="-165.839" font-family="Helvetica,sans-Serif" font-size="10.00">4</text>
</a>
</g>
</g>
<!-- dir_5dd65160827af56e6353642206b80129 -->
<g id="node3" class="node"><title>dir_5dd65160827af56e6353642206b80129</title>
<g id="a_node3"><a xlink:href="dir_5dd65160827af56e6353642206b80129.html" target="_top" xlink:title="model">
<polygon fill="none" stroke="black" points="108,-108 54,-108 54,-72 108,-72 108,-108"/>
<text text-anchor="middle" x="81" y="-87.5" font-family="Helvetica,sans-Serif" font-size="10.00">model</text>
</a>
</g>
</g>
<!-- dir_41ef5d8a90b9cc03a02949a5c062e6f0&#45;&gt;dir_5dd65160827af56e6353642206b80129 -->
<g id="edge7" class="edge"><title>dir_41ef5d8a90b9cc03a02949a5c062e6f0&#45;&gt;dir_5dd65160827af56e6353642206b80129</title>
<path fill="none" stroke="black" d="M55.4045,-143.697C59.2748,-135.728 63.9517,-126.1 68.2431,-117.264"/>
<polygon fill="black" stroke="black" points="71.4714,-118.629 72.6922,-108.104 65.1748,-115.57 71.4714,-118.629"/>
<g id="a_edge7&#45;headlabel"><a xlink:href="dir_000001_000002.html" target="_top" xlink:title="1">
<text text-anchor="middle" x="72.4549" y="-120.602" font-family="Helvetica,sans-Serif" font-size="10.00">1</text>
</a>
</g>
</g>
<!-- dir_313caf1132e152dd9b58bea13a4052ca -->
<g id="node4" class="node"><title>dir_313caf1132e152dd9b58bea13a4052ca</title>
<g id="a_node4"><a xlink:href="dir_313caf1132e152dd9b58bea13a4052ca.html" target="_top" xlink:title="utils">
<polygon fill="none" stroke="black" points="140,-36 86,-36 86,-0 140,-0 140,-36"/>
<text text-anchor="middle" x="113" y="-15.5" font-family="Helvetica,sans-Serif" font-size="10.00">utils</text>
</a>
</g>
</g>
<!-- dir_41ef5d8a90b9cc03a02949a5c062e6f0&#45;&gt;dir_313caf1132e152dd9b58bea13a4052ca -->
<g id="edge8" class="edge"><title>dir_41ef5d8a90b9cc03a02949a5c062e6f0&#45;&gt;dir_313caf1132e152dd9b58bea13a4052ca</title>
<path fill="none" stroke="black" d="M42.1788,-143.944C37.8738,-125.263 33.8077,-94.9138 45,-72 51.8855,-57.9036 64.5315,-46.4657 77.0668,-37.8724"/>
<polygon fill="black" stroke="black" points="79.1164,-40.7162 85.6553,-32.3799 75.345,-34.819 79.1164,-40.7162"/>
<g id="a_edge8&#45;headlabel"><a xlink:href="dir_000001_000003.html" target="_top" xlink:title="2">
<text text-anchor="middle" x="77.6178" y="-42.5447" font-family="Helvetica,sans-Serif" font-size="10.00">2</text>
</a>
</g>
</g>
<!-- dir_b39b5091e8d1d2be4b7fc59d57749634&#45;&gt;dir_41ef5d8a90b9cc03a02949a5c062e6f0 -->
<g id="edge2" class="edge"><title>dir_b39b5091e8d1d2be4b7fc59d57749634&#45;&gt;dir_41ef5d8a90b9cc03a02949a5c062e6f0</title>
<path fill="none" stroke="black" d="M95.6829,-162C93.2204,-162 90.7579,-162 88.2954,-162"/>
<polygon fill="black" stroke="black" points="88.1719,-158.5 78.1719,-162 88.1718,-165.5 88.1719,-158.5"/>
<g id="a_edge2&#45;headlabel"><a xlink:href="dir_000004_000001.html" target="_top" xlink:title="1">
<text text-anchor="middle" x="91.7665" y="-153.161" font-family="Helvetica,sans-Serif" font-size="10.00">1</text>
</a>
</g>
</g>
<!-- dir_b39b5091e8d1d2be4b7fc59d57749634&#45;&gt;dir_5dd65160827af56e6353642206b80129 -->
<g id="edge1" class="edge"><title>dir_b39b5091e8d1d2be4b7fc59d57749634&#45;&gt;dir_5dd65160827af56e6353642206b80129</title>
<path fill="none" stroke="black" d="M106.702,-143.697C101.04,-135.644 94.9799,-125.894 90.0427,-116.982"/>
<polygon fill="black" stroke="black" points="93.1238,-115.322 85.3676,-108.104 86.9301,-118.583 93.1238,-115.322"/>
<g id="a_edge1&#45;headlabel"><a xlink:href="dir_000004_000002.html" target="_top" xlink:title="1">
<text text-anchor="middle" x="97.3109" y="-114.679" font-family="Helvetica,sans-Serif" font-size="10.00">1</text>
</a>
</g>
</g>
<!-- dir_b39b5091e8d1d2be4b7fc59d57749634&#45;&gt;dir_313caf1132e152dd9b58bea13a4052ca -->
<g id="edge3" class="edge"><title>dir_b39b5091e8d1d2be4b7fc59d57749634&#45;&gt;dir_313caf1132e152dd9b58bea13a4052ca</title>
<path fill="none" stroke="black" d="M115.171,-143.935C111.716,-126.017 109.788,-97.0243 108,-72 107.406,-63.6804 106.732,-54.6283 106.506,-46.3982"/>
<polygon fill="black" stroke="black" points="110.006,-46.1847 106.51,-36.1832 103.006,-46.1817 110.006,-46.1847"/>
<g id="a_edge3&#45;headlabel"><a xlink:href="dir_000004_000003.html" target="_top" xlink:title="4">
<text text-anchor="middle" x="112.844" y="-47.2805" font-family="Helvetica,sans-Serif" font-size="10.00">4</text>
</a>
</g>
</g>
<!-- dir_5dd65160827af56e6353642206b80129&#45;&gt;dir_b39b5091e8d1d2be4b7fc59d57749634 -->
<g id="edge4" class="edge"><title>dir_5dd65160827af56e6353642206b80129&#45;&gt;dir_b39b5091e8d1d2be4b7fc59d57749634</title>
<path fill="none" stroke="black" d="M97.1576,-108.104C102.813,-116.129 108.879,-125.871 113.835,-134.797"/>
<polygon fill="black" stroke="black" points="110.77,-136.488 118.534,-143.697 116.96,-133.219 110.77,-136.488"/>
<g id="a_edge4&#45;headlabel"><a xlink:href="dir_000002_000004.html" target="_top" xlink:title="1">
<text text-anchor="middle" x="106.581" y="-132.134" font-family="Helvetica,sans-Serif" font-size="10.00">1</text>
</a>
</g>
</g>
<!-- dir_5dd65160827af56e6353642206b80129&#45;&gt;dir_313caf1132e152dd9b58bea13a4052ca -->
<g id="edge5" class="edge"><title>dir_5dd65160827af56e6353642206b80129&#45;&gt;dir_313caf1132e152dd9b58bea13a4052ca</title>
<path fill="none" stroke="black" d="M88.9101,-71.6966C92.5527,-63.7284 96.9545,-54.0995 100.994,-45.2641"/>
<polygon fill="black" stroke="black" points="104.206,-46.6543 105.181,-36.1043 97.8401,-43.7439 104.206,-46.6543"/>
<g id="a_edge5&#45;headlabel"><a xlink:href="dir_000002_000003.html" target="_top" xlink:title="1">
<text text-anchor="middle" x="105.294" y="-48.6039" font-family="Helvetica,sans-Serif" font-size="10.00">1</text>
</a>
</g>
</g>
<!-- dir_313caf1132e152dd9b58bea13a4052ca&#45;&gt;dir_b39b5091e8d1d2be4b7fc59d57749634 -->
<g id="edge9" class="edge"><title>dir_313caf1132e152dd9b58bea13a4052ca&#45;&gt;dir_b39b5091e8d1d2be4b7fc59d57749634</title>
<path fill="none" stroke="black" d="M122.153,-36.1832C124.127,-46.5543 125.145,-60.0347 126,-72 127.481,-92.7232 129.057,-116.168 128.927,-133.791"/>
<polygon fill="black" stroke="black" points="125.424,-133.831 128.61,-143.935 132.421,-134.05 125.424,-133.831"/>
<g id="a_edge9&#45;headlabel"><a xlink:href="dir_000003_000004.html" target="_top" xlink:title="1">
<text text-anchor="middle" x="122.699" y="-127.649" font-family="Helvetica,sans-Serif" font-size="10.00">1</text>
</a>
</g>
</g>
</g>
</svg>
