<?xml version="1.0" encoding="UTF-8" standalone="no"?>
<!DOCTYPE svg PUBLIC "-//W3C//DTD SVG 1.1//EN"
 "http://www.w3.org/Graphics/SVG/1.1/DTD/svg11.dtd">
<!-- Generated by graphviz version 2.36.0 (20140111.2315)
 -->
<!-- Title: src Pages: 1 -->
<svg width="134pt" height="364pt"
 viewBox="0.00 0.00 134.00 364.00" xmlns="http://www.w3.org/2000/svg" xmlns:xlink="http://www.w3.org/1999/xlink">
<g id="graph0" class="graph" transform="scale(1 1) rotate(0) translate(4 360)">
<title>src</title>
<g id="clust1" class="cluster"><title>clusterdir_68267d1309a1af8e8297ef4c3efbcdba</title>
<g id="a_clust1"><a xlink:href="dir_68267d1309a1af8e8297ef4c3efbcdba.html" target="_top">
<polygon fill="#eeeeff" stroke="black" points="8,-8 8,-348 118,-348 118,-8 8,-8"/>
</a>
</g>
</g>
<!-- dir_68267d1309a1af8e8297ef4c3efbcdba -->
<g id="node1" class="node"><title>dir_68267d1309a1af8e8297ef4c3efbcdba</title>
<text text-anchor="middle" x="82" y="-319.5" font-family="Helvetica,sans-Serif" font-size="10.00">src</text>
</g>
<!-- dir_41ef5d8a90b9cc03a02949a5c062e6f0 -->
<g id="node2" class="node"><title>dir_41ef5d8a90b9cc03a02949a5c062e6f0</title>
<g id="a_node2"><a xlink:href="dir_41ef5d8a90b9cc03a02949a5c062e6f0.html" target="_top" xlink:title="controller">
<polygon fill="white" stroke="black" points="109.5,-268 54.5,-268 54.5,-232 109.5,-232 109.5,-268"/>
<text text-anchor="middle" x="82" y="-247.5" font-family="Helvetica,sans-Serif" font-size="10.00">controller</text>
</a>
</g>
</g>
<!-- dir_68267d1309a1af8e8297ef4c3efbcdba&#45;&gt;dir_41ef5d8a90b9cc03a02949a5c062e6f0 -->
<g id="edge1" class="edge"><title>dir_68267d1309a1af8e8297ef4c3efbcdba&#45;&gt;dir_41ef5d8a90b9cc03a02949a5c062e6f0</title>
<path fill="none" stroke="black" d="M82,-303.697C82,-295.983 82,-286.712 82,-278.112"/>
<polygon fill="black" stroke="black" points="85.5001,-278.104 82,-268.104 78.5001,-278.104 85.5001,-278.104"/>
<g id="a_edge1&#45;headlabel"><a xlink:href="dir_000000_000001.html" target="_top" xlink:title="2">
<text text-anchor="middle" x="88.3393" y="-279.199" font-family="Helvetica,sans-Serif" font-size="10.00">2</text>
</a>
</g>
</g>
<!-- dir_5dd65160827af56e6353642206b80129 -->
<g id="node3" class="node"><title>dir_5dd65160827af56e6353642206b80129</title>
<g id="a_node3"><a xlink:href="dir_5dd65160827af56e6353642206b80129.html" target="_top" xlink:title="model">
<polygon fill="white" stroke="black" points="70,-196 16,-196 16,-160 70,-160 70,-196"/>
<text text-anchor="middle" x="43" y="-175.5" font-family="Helvetica,sans-Serif" font-size="10.00">model</text>
</a>
</g>
</g>
<!-- dir_41ef5d8a90b9cc03a02949a5c062e6f0&#45;&gt;dir_5dd65160827af56e6353642206b80129 -->
<g id="edge8" class="edge"><title>dir_41ef5d8a90b9cc03a02949a5c062e6f0&#45;&gt;dir_5dd65160827af56e6353642206b80129</title>
<path fill="none" stroke="black" d="M72.3595,-231.697C67.8729,-223.644 62.4412,-213.894 57.4759,-204.982"/>
<polygon fill="black" stroke="black" points="60.4541,-203.137 52.5296,-196.104 54.3391,-206.544 60.4541,-203.137"/>
<g id="a_edge8&#45;headlabel"><a xlink:href="dir_000001_000002.html" target="_top" xlink:title="1">
<text text-anchor="middle" x="64.6839" y="-202.395" font-family="Helvetica,sans-Serif" font-size="10.00">1</text>
</a>
</g>
</g>
<!-- dir_313caf1132e152dd9b58bea13a4052ca -->
<g id="node4" class="node"><title>dir_313caf1132e152dd9b58bea13a4052ca</title>
<g id="a_node4"><a xlink:href="dir_313caf1132e152dd9b58bea13a4052ca.html" target="_top" xlink:title="utils">
<polygon fill="white" stroke="black" points="90,-124 36,-124 36,-88 90,-88 90,-124"/>
<text text-anchor="middle" x="63" y="-103.5" font-family="Helvetica,sans-Serif" font-size="10.00">utils</text>
</a>
</g>
</g>
<!-- dir_41ef5d8a90b9cc03a02949a5c062e6f0&#45;&gt;dir_313caf1132e152dd9b58bea13a4052ca -->
<g id="edge9" class="edge"><title>dir_41ef5d8a90b9cc03a02949a5c062e6f0&#45;&gt;dir_313caf1132e152dd9b58bea13a4052ca</title>
<path fill="none" stroke="black" d="M82.732,-231.809C83.1941,-213.788 83.0753,-184.712 79,-160 77.5768,-151.37 75.1437,-142.178 72.5985,-133.915"/>
<polygon fill="black" stroke="black" points="75.9231,-132.821 69.4986,-124.396 69.2671,-134.988 75.9231,-132.821"/>
<g id="a_edge9&#45;headlabel"><a xlink:href="dir_000001_000003.html" target="_top" xlink:title="2">
<text text-anchor="middle" x="79.7358" y="-132.859" font-family="Helvetica,sans-Serif" font-size="10.00">2</text>
</a>
</g>
</g>
<!-- dir_b39b5091e8d1d2be4b7fc59d57749634 -->
<g id="node5" class="node"><title>dir_b39b5091e8d1d2be4b7fc59d57749634</title>
<g id="a_node5"><a xlink:href="dir_b39b5091e8d1d2be4b7fc59d57749634.html" target="_top" xlink:title="view">
<polygon fill="white" stroke="black" points="90,-52 36,-52 36,-16 90,-16 90,-52"/>
<text text-anchor="middle" x="63" y="-31.5" font-family="Helvetica,sans-Serif" font-size="10.00">view</text>
</a>
</g>
</g>
<!-- dir_41ef5d8a90b9cc03a02949a5c062e6f0&#45;&gt;dir_b39b5091e8d1d2be4b7fc59d57749634 -->
<g id="edge7" class="edge"><title>dir_41ef5d8a90b9cc03a02949a5c062e6f0&#45;&gt;dir_b39b5091e8d1d2be4b7fc59d57749634</title>
<path fill="none" stroke="black" d="M82.8131,-231.647C89.0827,-201.66 105.531,-138.507 90,-88 87.0228,-78.3183 81.6085,-68.8182 76.2727,-60.5956"/>
<polygon fill="black" stroke="black" points="79.1237,-58.5631 70.6327,-52.2264 73.3188,-62.4751 79.1237,-58.5631"/>
<g id="a_edge7&#45;headlabel"><a xlink:href="dir_000001_000004.html" target="_top" xlink:title="4">
<text text-anchor="middle" x="83.487" y="-57.4573" font-family="Helvetica,sans-Serif" font-size="10.00">4</text>
</a>
</g>
</g>
<!-- dir_5dd65160827af56e6353642206b80129&#45;&gt;dir_313caf1132e152dd9b58bea13a4052ca -->
<g id="edge6" class="edge"><title>dir_5dd65160827af56e6353642206b80129&#45;&gt;dir_313caf1132e152dd9b58bea13a4052ca</title>
<path fill="none" stroke="black" d="M47.9438,-159.697C50.172,-151.898 52.8547,-142.509 55.3345,-133.829"/>
<polygon fill="black" stroke="black" points="58.7311,-134.681 58.113,-124.104 52.0004,-132.758 58.7311,-134.681"/>
<g id="a_edge6&#45;headlabel"><a xlink:href="dir_000002_000003.html" target="_top" xlink:title="1">
<text text-anchor="middle" x="60.4737" y="-136.417" font-family="Helvetica,sans-Serif" font-size="10.00">1</text>
</a>
</g>
</g>
<!-- dir_5dd65160827af56e6353642206b80129&#45;&gt;dir_b39b5091e8d1d2be4b7fc59d57749634 -->
<g id="edge5" class="edge"><title>dir_5dd65160827af56e6353642206b80129&#45;&gt;dir_b39b5091e8d1d2be4b7fc59d57749634</title>
<path fill="none" stroke="black" d="M28.5448,-159.981C19.0218,-141.853 10.4786,-112.459 18,-88 21.0406,-78.1123 26.623,-68.414 32.9307,-60.0725"/>
<polygon fill="black" stroke="black" points="35.7419,-62.165 39.4129,-52.2264 30.3454,-57.7065 35.7419,-62.165"/>
<g id="a_edge5&#45;headlabel"><a xlink:href="dir_000002_000004.html" target="_top" xlink:title="1">
<text text-anchor="middle" x="35.6413" y="-64.2445" font-family="Helvetica,sans-Serif" font-size="10.00">1</text>
</a>
</g>
</g>
<!-- dir_313caf1132e152dd9b58bea13a4052ca&#45;&gt;dir_b39b5091e8d1d2be4b7fc59d57749634 -->
<g id="edge10" class="edge"><title>dir_313caf1132e152dd9b58bea13a4052ca&#45;&gt;dir_b39b5091e8d1d2be4b7fc59d57749634</title>
<path fill="none" stroke="black" d="M57.0843,-87.6966C56.2886,-79.9827 56.0621,-70.7125 56.4047,-62.1124"/>
<polygon fill="black" stroke="black" points="59.8984,-62.3243 57.105,-52.1043 52.9154,-61.8356 59.8984,-62.3243"/>
<g id="a_edge10&#45;headlabel"><a xlink:href="dir_000003_000004.html" target="_top" xlink:title="1">
<text text-anchor="middle" x="62.4799" y="-63.6083" font-family="Helvetica,sans-Serif" font-size="10.00">1</text>
</a>
</g>
</g>
<!-- dir_b39b5091e8d1d2be4b7fc59d57749634&#45;&gt;dir_41ef5d8a90b9cc03a02949a5c062e6f0 -->
<g id="edge3" class="edge"><title>dir_b39b5091e8d1d2be4b7fc59d57749634&#45;&gt;dir_41ef5d8a90b9cc03a02949a5c062e6f0</title>
<path fill="none" stroke="black" d="M86.5871,-52.2264C95.3729,-61.9695 103.946,-74.8163 108,-88 122.075,-133.772 109.886,-189.93 97.5041,-222.376"/>
<polygon fill="black" stroke="black" points="94.2579,-221.067 93.6842,-231.647 100.73,-223.734 94.2579,-221.067"/>
<g id="a_edge3&#45;headlabel"><a xlink:href="dir_000004_000001.html" target="_top" xlink:title="1">
<text text-anchor="middle" x="93.0022" y="-214.162" font-family="Helvetica,sans-Serif" font-size="10.00">1</text>
</a>
</g>
</g>
<!-- dir_b39b5091e8d1d2be4b7fc59d57749634&#45;&gt;dir_5dd65160827af56e6353642206b80129 -->
<g id="edge2" class="edge"><title>dir_b39b5091e8d1d2be4b7fc59d57749634&#45;&gt;dir_5dd65160827af56e6353642206b80129</title>
<path fill="none" stroke="black" d="M55.3673,-52.2264C48.6271,-61.9695 40.0541,-74.8163 36,-88 29.7126,-108.446 34.651,-132.341 39.2893,-150.22"/>
<polygon fill="black" stroke="black" points="35.9346,-151.224 41.8984,-159.981 42.6972,-149.416 35.9346,-151.224"/>
<g id="a_edge2&#45;headlabel"><a xlink:href="dir_000004_000002.html" target="_top" xlink:title="1">
<text text-anchor="middle" x="32.2634" y="-145.985" font-family="Helvetica,sans-Serif" font-size="10.00">1</text>
</a>
</g>
</g>
<!-- dir_b39b5091e8d1d2be4b7fc59d57749634&#45;&gt;dir_313caf1132e152dd9b58bea13a4052ca -->
<g id="edge4" class="edge"><title>dir_b39b5091e8d1d2be4b7fc59d57749634&#45;&gt;dir_313caf1132e152dd9b58bea13a4052ca</title>
<path fill="none" stroke="black" d="M68.895,-52.1043C69.7005,-59.7913 69.9369,-69.0537 69.604,-77.6651"/>
<polygon fill="black" stroke="black" points="66.1085,-77.4805 68.9157,-87.6966 73.0921,-77.9597 66.1085,-77.4805"/>
<g id="a_edge4&#45;headlabel"><a xlink:href="dir_000004_000003.html" target="_top" xlink:title="4">
<text text-anchor="middle" x="63.5219" y="-71.2" font-family="Helvetica,sans-Serif" font-size="10.00">4</text>
</a>
</g>
</g>
</g>
</svg>
