<?xml version="1.0" encoding="UTF-8" standalone="no"?>
<!DOCTYPE svg PUBLIC "-//W3C//DTD SVG 1.1//EN"
 "http://www.w3.org/Graphics/SVG/1.1/DTD/svg11.dtd">
<!-- Generated by graphviz version 2.36.0 (20140111.2315)
 -->
<!-- Title: src/controller Pages: 1 -->
<svg width="175pt" height="223pt"
 viewBox="0.00 0.00 175.00 223.00" xmlns="http://www.w3.org/2000/svg" xmlns:xlink="http://www.w3.org/1999/xlink">
<g id="graph0" class="graph" transform="scale(1 1) rotate(0) translate(4 219)">
<title>src/controller</title>
<g id="clust1" class="cluster"><title>clusterdir_68267d1309a1af8e8297ef4c3efbcdba</title>
<g id="a_clust1"><a xlink:href="dir_68267d1309a1af8e8297ef4c3efbcdba.html" target="_top" xlink:title="src">
<polygon fill="#ddddee" stroke="black" points="8,-136 8,-207 80,-207 80,-136 8,-136"/>
<text text-anchor="middle" x="44" y="-195" font-family="Helvetica,sans-Serif" font-size="10.00">src</text>
</a>
</g>
</g>
<!-- dir_41ef5d8a90b9cc03a02949a5c062e6f0 -->
<g id="node1" class="node"><title>dir_41ef5d8a90b9cc03a02949a5c062e6f0</title>
<g id="a_node1"><a xlink:href="dir_41ef5d8a90b9cc03a02949a5c062e6f0.html" target="_top" xlink:title="controller">
<polygon fill="#eeeeff" stroke="black" points="71.5,-180 16.5,-180 16.5,-144 71.5,-144 71.5,-180"/>
<text text-anchor="middle" x="44" y="-159.5" font-family="Helvetica,sans-Serif" font-size="10.00">controller</text>
</a>
</g>
</g>
<!-- dir_b39b5091e8d1d2be4b7fc59d57749634 -->
<g id="node2" class="node"><title>dir_b39b5091e8d1d2be4b7fc59d57749634</title>
<g id="a_node2"><a xlink:href="dir_b39b5091e8d1d2be4b7fc59d57749634.html" target="_top" xlink:title="view">
<polygon fill="none" stroke="black" points="167,-180 113,-180 113,-144 167,-144 167,-180"/>
<text text-anchor="middle" x="140" y="-159.5" font-family="Helvetica,sans-Serif" font-size="10.00">view</text>
</a>
</g>
</g>
<!-- dir_41ef5d8a90b9cc03a02949a5c062e6f0&#45;&gt;dir_b39b5091e8d1d2be4b7fc59d57749634 -->
<g id="edge6" class="edge"><title>dir_41ef5d8a90b9cc03a02949a5c062e6f0&#45;&gt;dir_b39b5091e8d1d2be4b7fc59d57749634</title>
<path fill="none" stroke="black" d="M71.75,-162C82.0142,-162 92.2783,-162 102.542,-162"/>
<polygon fill="black" stroke="black" points="102.807,-165.5 112.807,-162 102.807,-158.5 102.807,-165.5"/>
<g id="a_edge6&#45;headlabel"><a xlink:href="dir_000001_000004.html" target="_top" xlink:title="4">
<text text-anchor="middle" x="99.212" y="-165.839" font-family="Helvetica,sans-Serif" font-size="10.00">4</text>
</a>
</g>
</g>
<!-- dir_5dd65160827af56e6353642206b80129 -->
<g id="node3" class="node"><title>dir_5dd65160827af56e6353642206b80129</title>
<g id="a_node3"><a xlink:href="dir_5dd65160827af56e6353642206b80129.html" target="_top" xlink:title="model">
<polygon fill="none" stroke="black" points="115,-108 61,-108 61,-72 115,-72 115,-108"/>
<text text-anchor="middle" x="88" y="-87.5" font-family="Helvetica,sans-Serif" font-size="10.00">model</text>
</a>
</g>
</g>
<!-- dir_41ef5d8a90b9cc03a02949a5c062e6f0&#45;&gt;dir_5dd65160827af56e6353642206b80129 -->
<g id="edge7" class="edge"><title>dir_41ef5d8a90b9cc03a02949a5c062e6f0&#45;&gt;dir_5dd65160827af56e6353642206b80129</title>
<path fill="none" stroke="black" d="M54.8764,-143.697C59.9916,-135.559 66.1955,-125.689 71.8449,-116.701"/>
<polygon fill="black" stroke="black" points="74.8902,-118.433 77.2487,-108.104 68.9637,-114.708 74.8902,-118.433"/>
<g id="a_edge7&#45;headlabel"><a xlink:href="dir_000001_000002.html" target="_top" xlink:title="1">
<text text-anchor="middle" x="75.3811" y="-120.488" font-family="Helvetica,sans-Serif" font-size="10.00">1</text>
</a>
</g>
</g>
<!-- dir_313caf1132e152dd9b58bea13a4052ca -->
<g id="node4" class="node"><title>dir_313caf1132e152dd9b58bea13a4052ca</title>
<g id="a_node4"><a xlink:href="dir_313caf1132e152dd9b58bea13a4052ca.html" target="_top" xlink:title="utils">
<polygon fill="none" stroke="black" points="147,-36 93,-36 93,-0 147,-0 147,-36"/>
<text text-anchor="middle" x="120" y="-15.5" font-family="Helvetica,sans-Serif" font-size="10.00">utils</text>
</a>
</g>
</g>
<!-- dir_41ef5d8a90b9cc03a02949a5c062e6f0&#45;&gt;dir_313caf1132e152dd9b58bea13a4052ca -->
<g id="edge8" class="edge"><title>dir_41ef5d8a90b9cc03a02949a5c062e6f0&#45;&gt;dir_313caf1132e152dd9b58bea13a4052ca</title>
<path fill="none" stroke="black" d="M41.6688,-143.777C39.9648,-124.95 39.746,-94.4739 52,-72 59.452,-58.333 72.0719,-47.0234 84.4309,-38.4113"/>
<polygon fill="black" stroke="black" points="86.4268,-41.2881 92.8787,-32.8843 82.5944,-35.4304 86.4268,-41.2881"/>
<g id="a_edge8&#45;headlabel"><a xlink:href="dir_000001_000003.html" target="_top" xlink:title="2">
<text text-anchor="middle" x="84.9732" y="-43.132" font-family="Helvetica,sans-Serif" font-size="10.00">2</text>
</a>
</g>
</g>
<!-- dir_b39b5091e8d1d2be4b7fc59d57749634&#45;&gt;dir_41ef5d8a90b9cc03a02949a5c062e6f0 -->
<g id="edge2" class="edge"><title>dir_b39b5091e8d1d2be4b7fc59d57749634&#45;&gt;dir_41ef5d8a90b9cc03a02949a5c062e6f0</title>
<path fill="none" stroke="black" d="M112.807,-162C102.542,-162 92.2783,-162 82.0142,-162"/>
<polygon fill="black" stroke="black" points="81.75,-158.5 71.75,-162 81.75,-165.5 81.75,-158.5"/>
<g id="a_edge2&#45;headlabel"><a xlink:href="dir_000004_000001.html" target="_top" xlink:title="1">
<text text-anchor="middle" x="85.3446" y="-153.161" font-family="Helvetica,sans-Serif" font-size="10.00">1</text>
</a>
</g>
</g>
<!-- dir_b39b5091e8d1d2be4b7fc59d57749634&#45;&gt;dir_5dd65160827af56e6353642206b80129 -->
<g id="edge1" class="edge"><title>dir_b39b5091e8d1d2be4b7fc59d57749634&#45;&gt;dir_5dd65160827af56e6353642206b80129</title>
<path fill="none" stroke="black" d="M121.23,-143.697C114.346,-135.559 106.808,-125.689 100.559,-116.701"/>
<polygon fill="black" stroke="black" points="103.279,-114.472 94.811,-108.104 97.4594,-118.363 103.279,-114.472"/>
<g id="a_edge1&#45;headlabel"><a xlink:href="dir_000004_000002.html" target="_top" xlink:title="1">
<text text-anchor="middle" x="107.637" y="-113.382" font-family="Helvetica,sans-Serif" font-size="10.00">1</text>
</a>
</g>
</g>
<!-- dir_b39b5091e8d1d2be4b7fc59d57749634&#45;&gt;dir_313caf1132e152dd9b58bea13a4052ca -->
<g id="edge3" class="edge"><title>dir_b39b5091e8d1d2be4b7fc59d57749634&#45;&gt;dir_313caf1132e152dd9b58bea13a4052ca</title>
<path fill="none" stroke="black" d="M133.003,-143.871C127.036,-119.67 120.483,-75.2108 118.399,-46.3932"/>
<polygon fill="black" stroke="black" points="121.882,-45.9788 117.83,-36.1893 114.893,-46.3687 121.882,-45.9788"/>
<g id="a_edge3&#45;headlabel"><a xlink:href="dir_000004_000003.html" target="_top" xlink:title="4">
<text text-anchor="middle" x="124.917" y="-46.9098" font-family="Helvetica,sans-Serif" font-size="10.00">4</text>
</a>
</g>
</g>
<!-- dir_5dd65160827af56e6353642206b80129&#45;&gt;dir_b39b5091e8d1d2be4b7fc59d57749634 -->
<g id="edge4" class="edge"><title>dir_5dd65160827af56e6353642206b80129&#45;&gt;dir_b39b5091e8d1d2be4b7fc59d57749634</title>
<path fill="none" stroke="black" d="M106.601,-108.104C113.547,-116.298 121.175,-126.282 127.483,-135.359"/>
<polygon fill="black" stroke="black" points="124.592,-137.332 133.062,-143.697 130.41,-133.439 124.592,-137.332"/>
<g id="a_edge4&#45;headlabel"><a xlink:href="dir_000002_000004.html" target="_top" xlink:title="1">
<text text-anchor="middle" x="120.233" y="-133.423" font-family="Helvetica,sans-Serif" font-size="10.00">1</text>
</a>
</g>
</g>
<!-- dir_5dd65160827af56e6353642206b80129&#45;&gt;dir_313caf1132e152dd9b58bea13a4052ca -->
<g id="edge5" class="edge"><title>dir_5dd65160827af56e6353642206b80129&#45;&gt;dir_313caf1132e152dd9b58bea13a4052ca</title>
<path fill="none" stroke="black" d="M95.9101,-71.6966C99.5527,-63.7284 103.954,-54.0995 107.994,-45.2641"/>
<polygon fill="black" stroke="black" points="111.206,-46.6543 112.181,-36.1043 104.84,-43.7439 111.206,-46.6543"/>
<g id="a_edge5&#45;headlabel"><a xlink:href="dir_000002_000003.html" target="_top" xlink:title="1">
<text text-anchor="middle" x="112.294" y="-48.6039" font-family="Helvetica,sans-Serif" font-size="10.00">1</text>
</a>
</g>
</g>
<!-- dir_313caf1132e152dd9b58bea13a4052ca&#45;&gt;dir_b39b5091e8d1d2be4b7fc59d57749634 -->
<g id="edge9" class="edge"><title>dir_313caf1132e152dd9b58bea13a4052ca&#45;&gt;dir_b39b5091e8d1d2be4b7fc59d57749634</title>
<path fill="none" stroke="black" d="M127.012,-36.1893C132.98,-60.4244 139.53,-104.888 141.606,-133.679"/>
<polygon fill="black" stroke="black" points="138.123,-134.081 142.172,-143.871 145.112,-133.693 138.123,-134.081"/>
<g id="a_edge9&#45;headlabel"><a xlink:href="dir_000003_000004.html" target="_top" xlink:title="1">
<text text-anchor="middle" x="135.089" y="-128.149" font-family="Helvetica,sans-Serif" font-size="10.00">1</text>
</a>
</g>
</g>
</g>
</svg>
