<?xml version="1.0" encoding="UTF-8" standalone="no"?>
<!DOCTYPE svg PUBLIC "-//W3C//DTD SVG 1.1//EN"
 "http://www.w3.org/Graphics/SVG/1.1/DTD/svg11.dtd">
<!-- Generated by graphviz version 2.36.0 (20140111.2315)
 -->
<!-- Title: src/view Pages: 1 -->
<svg width="169pt" height="188pt"
 viewBox="0.00 0.00 168.55 188.00" xmlns="http://www.w3.org/2000/svg" xmlns:xlink="http://www.w3.org/1999/xlink">
<g id="graph0" class="graph" transform="scale(1 1) rotate(0) translate(4 184)">
<title>src/view</title>
<g id="clust1" class="cluster"><title>clusterdir_68267d1309a1af8e8297ef4c3efbcdba</title>
<g id="a_clust1"><a xlink:href="dir_68267d1309a1af8e8297ef4c3efbcdba.html" target="_top" xlink:title="src">
<polygon fill="#ddddee" stroke="black" points="8,-64 8,-135 78,-135 78,-64 8,-64"/>
<text text-anchor="middle" x="43" y="-123" font-family="Helvetica,sans-Serif" font-size="10.00">src</text>
</a>
</g>
</g>
<!-- dir_b39b5091e8d1d2be4b7fc59d57749634 -->
<g id="node1" class="node"><title>dir_b39b5091e8d1d2be4b7fc59d57749634</title>
<g id="a_node1"><a xlink:href="dir_b39b5091e8d1d2be4b7fc59d57749634.html" target="_top" xlink:title="view">
<polygon fill="#eeeeff" stroke="black" points="70,-108 16,-108 16,-72 70,-72 70,-108"/>
<text text-anchor="middle" x="43" y="-87.5" font-family="Helvetica,sans-Serif" font-size="10.00">view</text>
</a>
</g>
</g>
<!-- dir_5dd65160827af56e6353642206b80129 -->
<g id="node2" class="node"><title>dir_5dd65160827af56e6353642206b80129</title>
<g id="a_node2"><a xlink:href="dir_5dd65160827af56e6353642206b80129.html" target="_top" xlink:title="model">
<polygon fill="none" stroke="black" points="142,-108 88,-108 88,-72 142,-72 142,-108"/>
<text text-anchor="middle" x="115" y="-87.5" font-family="Helvetica,sans-Serif" font-size="10.00">model</text>
</a>
</g>
</g>
<!-- dir_b39b5091e8d1d2be4b7fc59d57749634&#45;&gt;dir_5dd65160827af56e6353642206b80129 -->
<g id="edge1" class="edge"><title>dir_b39b5091e8d1d2be4b7fc59d57749634&#45;&gt;dir_5dd65160827af56e6353642206b80129</title>
<path fill="none" stroke="black" d="M70.2812,-90C72.7377,-90 75.1942,-90 77.6507,-90"/>
<polygon fill="black" stroke="black" points="77.7495,-93.5001 87.7495,-90 77.7495,-86.5001 77.7495,-93.5001"/>
<g id="a_edge1&#45;headlabel"><a xlink:href="dir_000004_000002.html" target="_top" xlink:title="1">
<text text-anchor="middle" x="74.1549" y="-93.8393" font-family="Helvetica,sans-Serif" font-size="10.00">1</text>
</a>
</g>
</g>
<!-- dir_41ef5d8a90b9cc03a02949a5c062e6f0 -->
<g id="node3" class="node"><title>dir_41ef5d8a90b9cc03a02949a5c062e6f0</title>
<g id="a_node3"><a xlink:href="dir_41ef5d8a90b9cc03a02949a5c062e6f0.html" target="_top" xlink:title="controller">
<polygon fill="none" stroke="black" points="142.5,-180 87.5,-180 87.5,-144 142.5,-144 142.5,-180"/>
<text text-anchor="middle" x="115" y="-159.5" font-family="Helvetica,sans-Serif" font-size="10.00">controller</text>
</a>
</g>
</g>
<!-- dir_b39b5091e8d1d2be4b7fc59d57749634&#45;&gt;dir_41ef5d8a90b9cc03a02949a5c062e6f0 -->
<g id="edge2" class="edge"><title>dir_b39b5091e8d1d2be4b7fc59d57749634&#45;&gt;dir_41ef5d8a90b9cc03a02949a5c062e6f0</title>
<path fill="none" stroke="black" d="M47.3111,-108.186C52.9276,-116.706 61.3767,-126.881 70,-135 72.8241,-137.659 75.9287,-140.277 79.1628,-142.768"/>
<polygon fill="black" stroke="black" points="77.2125,-145.676 87.3823,-148.646 81.2847,-139.982 77.2125,-145.676"/>
<g id="a_edge2&#45;headlabel"><a xlink:href="dir_000004_000001.html" target="_top" xlink:title="1">
<text text-anchor="middle" x="72.637" y="-143.394" font-family="Helvetica,sans-Serif" font-size="10.00">1</text>
</a>
</g>
</g>
<!-- dir_313caf1132e152dd9b58bea13a4052ca -->
<g id="node4" class="node"><title>dir_313caf1132e152dd9b58bea13a4052ca</title>
<g id="a_node4"><a xlink:href="dir_313caf1132e152dd9b58bea13a4052ca.html" target="_top" xlink:title="utils">
<polygon fill="none" stroke="black" points="142,-36 88,-36 88,-0 142,-0 142,-36"/>
<text text-anchor="middle" x="115" y="-15.5" font-family="Helvetica,sans-Serif" font-size="10.00">utils</text>
</a>
</g>
</g>
<!-- dir_b39b5091e8d1d2be4b7fc59d57749634&#45;&gt;dir_313caf1132e152dd9b58bea13a4052ca -->
<g id="edge3" class="edge"><title>dir_b39b5091e8d1d2be4b7fc59d57749634&#45;&gt;dir_313caf1132e152dd9b58bea13a4052ca</title>
<path fill="none" stroke="black" d="M54.882,-71.6966C62.8836,-63.0503 73.6114,-52.4486 83.8404,-43.027"/>
<polygon fill="black" stroke="black" points="86.4326,-45.4023 91.5119,-36.1043 81.743,-40.2054 86.4326,-45.4023"/>
<g id="a_edge3&#45;headlabel"><a xlink:href="dir_000004_000003.html" target="_top" xlink:title="4">
<text text-anchor="middle" x="85.6661" y="-47.4183" font-family="Helvetica,sans-Serif" font-size="10.00">4</text>
</a>
</g>
</g>
<!-- dir_5dd65160827af56e6353642206b80129&#45;&gt;dir_b39b5091e8d1d2be4b7fc59d57749634 -->
<g id="edge4" class="edge"><title>dir_5dd65160827af56e6353642206b80129&#45;&gt;dir_b39b5091e8d1d2be4b7fc59d57749634</title>
<path fill="none" stroke="black" d="M87.7495,-90C85.293,-90 82.8366,-90 80.3801,-90"/>
<polygon fill="black" stroke="black" points="80.2813,-86.5001 70.2812,-90 80.2812,-93.5001 80.2813,-86.5001"/>
<g id="a_edge4&#45;headlabel"><a xlink:href="dir_000002_000004.html" target="_top" xlink:title="1">
<text text-anchor="middle" x="83.8759" y="-81.1607" font-family="Helvetica,sans-Serif" font-size="10.00">1</text>
</a>
</g>
</g>
<!-- dir_5dd65160827af56e6353642206b80129&#45;&gt;dir_313caf1132e152dd9b58bea13a4052ca -->
<g id="edge5" class="edge"><title>dir_5dd65160827af56e6353642206b80129&#45;&gt;dir_313caf1132e152dd9b58bea13a4052ca</title>
<path fill="none" stroke="black" d="M115,-71.6966C115,-63.9827 115,-54.7125 115,-46.1124"/>
<polygon fill="black" stroke="black" points="118.5,-46.1043 115,-36.1043 111.5,-46.1044 118.5,-46.1043"/>
<g id="a_edge5&#45;headlabel"><a xlink:href="dir_000002_000003.html" target="_top" xlink:title="1">
<text text-anchor="middle" x="121.339" y="-47.199" font-family="Helvetica,sans-Serif" font-size="10.00">1</text>
</a>
</g>
</g>
<!-- dir_41ef5d8a90b9cc03a02949a5c062e6f0&#45;&gt;dir_b39b5091e8d1d2be4b7fc59d57749634 -->
<g id="edge6" class="edge"><title>dir_41ef5d8a90b9cc03a02949a5c062e6f0&#45;&gt;dir_b39b5091e8d1d2be4b7fc59d57749634</title>
<path fill="none" stroke="black" d="M98.4444,-143.9C94.884,-141.076 91.2557,-138.065 88,-135 81.9367,-129.291 75.9596,-122.566 70.3482,-116.114"/>
<polygon fill="black" stroke="black" points="72.6588,-113.437 63.4571,-108.186 67.3754,-118.029 72.6588,-113.437"/>
<g id="a_edge6&#45;headlabel"><a xlink:href="dir_000001_000004.html" target="_top" xlink:title="4">
<text text-anchor="middle" x="77.1598" y="-111.788" font-family="Helvetica,sans-Serif" font-size="10.00">4</text>
</a>
</g>
</g>
<!-- dir_41ef5d8a90b9cc03a02949a5c062e6f0&#45;&gt;dir_5dd65160827af56e6353642206b80129 -->
<g id="edge7" class="edge"><title>dir_41ef5d8a90b9cc03a02949a5c062e6f0&#45;&gt;dir_5dd65160827af56e6353642206b80129</title>
<path fill="none" stroke="black" d="M115,-143.697C115,-135.983 115,-126.712 115,-118.112"/>
<polygon fill="black" stroke="black" points="118.5,-118.104 115,-108.104 111.5,-118.104 118.5,-118.104"/>
<g id="a_edge7&#45;headlabel"><a xlink:href="dir_000001_000002.html" target="_top" xlink:title="1">
<text text-anchor="middle" x="121.339" y="-119.199" font-family="Helvetica,sans-Serif" font-size="10.00">1</text>
</a>
</g>
</g>
<!-- dir_41ef5d8a90b9cc03a02949a5c062e6f0&#45;&gt;dir_313caf1132e152dd9b58bea13a4052ca -->
<g id="edge8" class="edge"><title>dir_41ef5d8a90b9cc03a02949a5c062e6f0&#45;&gt;dir_313caf1132e152dd9b58bea13a4052ca</title>
<path fill="none" stroke="black" d="M142.64,-145.544C146.003,-142.493 148.964,-138.981 151,-135 165.366,-106.904 161.445,-93.7767 151,-64 148.496,-56.8603 144.329,-50.0119 139.701,-43.9057"/>
<polygon fill="black" stroke="black" points="142.293,-41.5479 133.217,-36.0815 136.903,-46.0145 142.293,-41.5479"/>
<g id="a_edge8&#45;headlabel"><a xlink:href="dir_000001_000003.html" target="_top" xlink:title="2">
<text text-anchor="middle" x="146.773" y="-40.0039" font-family="Helvetica,sans-Serif" font-size="10.00">2</text>
</a>
</g>
</g>
<!-- dir_313caf1132e152dd9b58bea13a4052ca&#45;&gt;dir_b39b5091e8d1d2be4b7fc59d57749634 -->
<g id="edge9" class="edge"><title>dir_313caf1132e152dd9b58bea13a4052ca&#45;&gt;dir_b39b5091e8d1d2be4b7fc59d57749634</title>
<path fill="none" stroke="black" d="M103.302,-36.1043C95.3426,-44.7205 84.6321,-55.316 74.3956,-64.7555"/>
<polygon fill="black" stroke="black" points="71.7869,-62.3955 66.7135,-71.6966 76.4798,-67.5894 71.7869,-62.3955"/>
<g id="a_edge9&#45;headlabel"><a xlink:href="dir_000003_000004.html" target="_top" xlink:title="1">
<text text-anchor="middle" x="72.5505" y="-55.3789" font-family="Helvetica,sans-Serif" font-size="10.00">1</text>
</a>
</g>
</g>
</g>
</svg>
