<?xml version="1.0" encoding="UTF-8" standalone="no"?>
<!DOCTYPE svg PUBLIC "-//W3C//DTD SVG 1.1//EN"
 "http://www.w3.org/Graphics/SVG/1.1/DTD/svg11.dtd">
<!-- Generated by graphviz version 2.38.0 (20140413.2041)
 -->
<!-- Title: src/utils/geomfactory.h Pages: 1 -->
<svg width="307pt" height="196pt"
 viewBox="0.00 0.00 306.50 196.00" xmlns="http://www.w3.org/2000/svg" xmlns:xlink="http://www.w3.org/1999/xlink">
<g id="graph0" class="graph" transform="scale(1 1) rotate(0) translate(4 192)">
<title>src/utils/geomfactory.h</title>
<!-- Node1 -->
<g id="node1" class="node"><title>Node1</title>
<polygon fill="#bfbfbf" stroke="black" points="83.5,-168.5 83.5,-187.5 208.5,-187.5 208.5,-168.5 83.5,-168.5"/>
<text text-anchor="middle" x="146" y="-175.5" font-family="Helvetica,sans-Serif" font-size="10.00">src/utils/geomfactory.h</text>
</g>
<!-- Node2 -->
<g id="node2" class="node"><title>Node2</title>
<g id="a_node2"><a xlink:href="geometry__elements_8h.html" target="_top" xlink:title="File with declaration of geometry element classes. ">
<polygon fill="none" stroke="black" points="68.5,-112.5 68.5,-131.5 223.5,-131.5 223.5,-112.5 68.5,-112.5"/>
<text text-anchor="middle" x="146" y="-119.5" font-family="Helvetica,sans-Serif" font-size="10.00">../view/geometry_elements.h</text>
</a>
</g>
</g>
<!-- Node1&#45;&gt;Node2 -->
<g id="edge1" class="edge"><title>Node1&#45;&gt;Node2</title>
<path fill="none" stroke="midnightblue" d="M146,-168.083C146,-161.006 146,-150.861 146,-141.986"/>
<polygon fill="midnightblue" stroke="midnightblue" points="149.5,-141.751 146,-131.751 142.5,-141.751 149.5,-141.751"/>
</g>
<!-- Node3 -->
<g id="node3" class="node"><title>Node3</title>
<g id="a_node3"><a xlink:href="logger_8h.html" target="_top" xlink:title="File with simple logger class declaration. ">
<polygon fill="none" stroke="black" points="0,-56.5 0,-75.5 86,-75.5 86,-56.5 0,-56.5"/>
<text text-anchor="middle" x="43" y="-63.5" font-family="Helvetica,sans-Serif" font-size="10.00">../utils/logger.h</text>
</a>
</g>
</g>
<!-- Node1&#45;&gt;Node3 -->
<g id="edge5" class="edge"><title>Node1&#45;&gt;Node3</title>
<path fill="none" stroke="midnightblue" d="M115.588,-168.428C96.626,-161.559 73.2091,-150.031 59,-132 48.5564,-118.747 44.8124,-99.6199 43.528,-85.5439"/>
<polygon fill="midnightblue" stroke="midnightblue" points="47.0213,-85.3259 42.9441,-75.547 40.0332,-85.7341 47.0213,-85.3259"/>
</g>
<!-- Node6 -->
<g id="node6" class="node"><title>Node6</title>
<polygon fill="none" stroke="#bfbfbf" points="241.5,-112.5 241.5,-131.5 298.5,-131.5 298.5,-112.5 241.5,-112.5"/>
<text text-anchor="middle" x="270" y="-119.5" font-family="Helvetica,sans-Serif" font-size="10.00">memory</text>
</g>
<!-- Node1&#45;&gt;Node6 -->
<g id="edge6" class="edge"><title>Node1&#45;&gt;Node6</title>
<path fill="none" stroke="midnightblue" d="M165.648,-168.444C185.965,-159.596 217.903,-145.687 241.098,-135.586"/>
<polygon fill="midnightblue" stroke="midnightblue" points="242.673,-138.718 250.444,-131.516 239.878,-132.3 242.673,-138.718"/>
</g>
<!-- Node2&#45;&gt;Node3 -->
<g id="edge2" class="edge"><title>Node2&#45;&gt;Node3</title>
<path fill="none" stroke="midnightblue" d="M129.451,-112.324C113.008,-103.703 87.5652,-90.3643 68.5316,-80.3855"/>
<polygon fill="midnightblue" stroke="midnightblue" points="69.9895,-77.198 59.5077,-75.6545 66.7391,-83.3977 69.9895,-77.198"/>
</g>
<!-- Node5 -->
<g id="node5" class="node"><title>Node5</title>
<g id="a_node5"><a xlink:href="tags_8h.html" target="_top" xlink:title="File with declaration of some tool and color tags. Used as color and tool mode flag in model (M from ...">
<polygon fill="none" stroke="black" points="107,-56.5 107,-75.5 185,-75.5 185,-56.5 107,-56.5"/>
<text text-anchor="middle" x="146" y="-63.5" font-family="Helvetica,sans-Serif" font-size="10.00">../utils/tags.h</text>
</a>
</g>
</g>
<!-- Node2&#45;&gt;Node5 -->
<g id="edge4" class="edge"><title>Node2&#45;&gt;Node5</title>
<path fill="none" stroke="midnightblue" d="M146,-112.083C146,-105.006 146,-94.8611 146,-85.9865"/>
<polygon fill="midnightblue" stroke="midnightblue" points="149.5,-85.751 146,-75.7511 142.5,-85.7511 149.5,-85.751"/>
</g>
<!-- Node4 -->
<g id="node4" class="node"><title>Node4</title>
<polygon fill="none" stroke="#bfbfbf" points="21,-0.5 21,-19.5 65,-19.5 65,-0.5 21,-0.5"/>
<text text-anchor="middle" x="43" y="-7.5" font-family="Helvetica,sans-Serif" font-size="10.00">string</text>
</g>
<!-- Node3&#45;&gt;Node4 -->
<g id="edge3" class="edge"><title>Node3&#45;&gt;Node4</title>
<path fill="none" stroke="midnightblue" d="M43,-56.083C43,-49.0059 43,-38.8611 43,-29.9865"/>
<polygon fill="midnightblue" stroke="midnightblue" points="46.5001,-29.751 43,-19.7511 39.5001,-29.7511 46.5001,-29.751"/>
</g>
</g>
</svg>
