<?xml version="1.0" encoding="UTF-8" standalone="no"?>
<!DOCTYPE svg PUBLIC "-//W3C//DTD SVG 1.1//EN"
 "http://www.w3.org/Graphics/SVG/1.1/DTD/svg11.dtd">
<!-- Generated by graphviz version 2.38.0 (20140413.2041)
 -->
<!-- Title: src/controller/icontroller.h Pages: 1 -->
<svg width="373pt" height="196pt"
 viewBox="0.00 0.00 372.50 196.00" xmlns="http://www.w3.org/2000/svg" xmlns:xlink="http://www.w3.org/1999/xlink">
<g id="graph0" class="graph" transform="scale(1 1) rotate(0) translate(4 192)">
<title>src/controller/icontroller.h</title>
<!-- Node1 -->
<g id="node1" class="node"><title>Node1</title>
<polygon fill="#bfbfbf" stroke="black" points="141.5,-168.5 141.5,-187.5 278.5,-187.5 278.5,-168.5 141.5,-168.5"/>
<text text-anchor="middle" x="210" y="-175.5" font-family="Helvetica,sans-Serif" font-size="10.00">src/controller/icontroller.h</text>
</g>
<!-- Node2 -->
<g id="node2" class="node"><title>Node2</title>
<g id="a_node2"><a xlink:href="geometry__elements_8h.html" target="_top" xlink:title="File with declaration of geometry element classes. ">
<polygon fill="none" stroke="black" points="26.5,-112.5 26.5,-131.5 181.5,-131.5 181.5,-112.5 26.5,-112.5"/>
<text text-anchor="middle" x="104" y="-119.5" font-family="Helvetica,sans-Serif" font-size="10.00">../view/geometry_elements.h</text>
</a>
</g>
</g>
<!-- Node1&#45;&gt;Node2 -->
<g id="edge1" class="edge"><title>Node1&#45;&gt;Node2</title>
<path fill="none" stroke="midnightblue" d="M192.969,-168.324C175.97,-159.664 149.624,-146.242 130.007,-136.249"/>
<polygon fill="midnightblue" stroke="midnightblue" points="131.488,-133.075 120.988,-131.655 128.31,-139.312 131.488,-133.075"/>
</g>
<!-- Node4 -->
<g id="node4" class="node"><title>Node4</title>
<polygon fill="none" stroke="#bfbfbf" points="104,-0.5 104,-19.5 148,-19.5 148,-0.5 104,-0.5"/>
<text text-anchor="middle" x="126" y="-7.5" font-family="Helvetica,sans-Serif" font-size="10.00">string</text>
</g>
<!-- Node1&#45;&gt;Node4 -->
<g id="edge8" class="edge"><title>Node1&#45;&gt;Node4</title>
<path fill="none" stroke="midnightblue" d="M210.845,-168.29C212.449,-147.224 213.948,-92.5616 191,-56 182.487,-42.4359 168.231,-31.8882 155.236,-24.425"/>
<polygon fill="midnightblue" stroke="midnightblue" points="156.565,-21.1668 146.096,-19.5368 153.264,-27.3394 156.565,-21.1668"/>
</g>
<!-- Node6 -->
<g id="node6" class="node"><title>Node6</title>
<g id="a_node6"><a xlink:href="onclick_8h.html" target="_top" xlink:title="File with declaration of observer pattern classes. Two pairs of publishers and subscribers: OnClickLi...">
<polygon fill="none" stroke="black" points="238.5,-112.5 238.5,-131.5 327.5,-131.5 327.5,-112.5 238.5,-112.5"/>
<text text-anchor="middle" x="283" y="-119.5" font-family="Helvetica,sans-Serif" font-size="10.00">../utils/onclick.h</text>
</a>
</g>
</g>
<!-- Node1&#45;&gt;Node6 -->
<g id="edge5" class="edge"><title>Node1&#45;&gt;Node6</title>
<path fill="none" stroke="midnightblue" d="M221.729,-168.324C232.837,-160.107 249.742,-147.602 262.983,-137.807"/>
<polygon fill="midnightblue" stroke="midnightblue" points="265.1,-140.595 271.058,-131.834 260.937,-134.967 265.1,-140.595"/>
</g>
<!-- Node3 -->
<g id="node3" class="node"><title>Node3</title>
<g id="a_node3"><a xlink:href="logger_8h.html" target="_top" xlink:title="File with simple logger class declaration. ">
<polygon fill="none" stroke="black" points="0,-56.5 0,-75.5 86,-75.5 86,-56.5 0,-56.5"/>
<text text-anchor="middle" x="43" y="-63.5" font-family="Helvetica,sans-Serif" font-size="10.00">../utils/logger.h</text>
</a>
</g>
</g>
<!-- Node2&#45;&gt;Node3 -->
<g id="edge2" class="edge"><title>Node2&#45;&gt;Node3</title>
<path fill="none" stroke="midnightblue" d="M94.1993,-112.324C85.1819,-104.341 71.594,-92.3128 60.682,-82.6529"/>
<polygon fill="midnightblue" stroke="midnightblue" points="62.7866,-79.8416 52.979,-75.8339 58.1467,-85.083 62.7866,-79.8416"/>
</g>
<!-- Node5 -->
<g id="node5" class="node"><title>Node5</title>
<g id="a_node5"><a xlink:href="tags_8h.html" target="_top" xlink:title="File with declaration of some tool and color tags. Used as color and tool mode flag in model (M from ...">
<polygon fill="none" stroke="black" points="104,-56.5 104,-75.5 182,-75.5 182,-56.5 104,-56.5"/>
<text text-anchor="middle" x="143" y="-63.5" font-family="Helvetica,sans-Serif" font-size="10.00">../utils/tags.h</text>
</a>
</g>
</g>
<!-- Node2&#45;&gt;Node5 -->
<g id="edge4" class="edge"><title>Node2&#45;&gt;Node5</title>
<path fill="none" stroke="midnightblue" d="M110.44,-112.083C115.949,-104.455 124.031,-93.2645 130.765,-83.9408"/>
<polygon fill="midnightblue" stroke="midnightblue" points="133.662,-85.9071 136.68,-75.7511 127.987,-81.8087 133.662,-85.9071"/>
</g>
<!-- Node3&#45;&gt;Node4 -->
<g id="edge3" class="edge"><title>Node3&#45;&gt;Node4</title>
<path fill="none" stroke="midnightblue" d="M56.3354,-56.324C69.162,-47.979 88.785,-35.2122 103.94,-25.3524"/>
<polygon fill="midnightblue" stroke="midnightblue" points="106.224,-28.0417 112.698,-19.6545 102.407,-22.1742 106.224,-28.0417"/>
</g>
<!-- Node7 -->
<g id="node7" class="node"><title>Node7</title>
<polygon fill="none" stroke="#bfbfbf" points="253,-56.5 253,-75.5 283,-75.5 283,-56.5 253,-56.5"/>
<text text-anchor="middle" x="268" y="-63.5" font-family="Helvetica,sans-Serif" font-size="10.00">list</text>
</g>
<!-- Node6&#45;&gt;Node7 -->
<g id="edge6" class="edge"><title>Node6&#45;&gt;Node7</title>
<path fill="none" stroke="midnightblue" d="M280.523,-112.083C278.514,-104.849 275.614,-94.4087 273.11,-85.3968"/>
<polygon fill="midnightblue" stroke="midnightblue" points="276.48,-84.4495 270.431,-75.7511 269.735,-86.323 276.48,-84.4495"/>
</g>
<!-- Node8 -->
<g id="node8" class="node"><title>Node8</title>
<polygon fill="none" stroke="#bfbfbf" points="301.5,-56.5 301.5,-75.5 364.5,-75.5 364.5,-56.5 301.5,-56.5"/>
<text text-anchor="middle" x="333" y="-63.5" font-family="Helvetica,sans-Serif" font-size="10.00">functional</text>
</g>
<!-- Node6&#45;&gt;Node8 -->
<g id="edge7" class="edge"><title>Node6&#45;&gt;Node8</title>
<path fill="none" stroke="midnightblue" d="M291.256,-112.083C298.465,-104.298 309.11,-92.8015 317.846,-83.3665"/>
<polygon fill="midnightblue" stroke="midnightblue" points="320.671,-85.4666 324.897,-75.7511 315.535,-80.7108 320.671,-85.4666"/>
</g>
</g>
</svg>
