<?xml version="1.0" encoding="UTF-8" standalone="no"?>
<!DOCTYPE svg PUBLIC "-//W3C//DTD SVG 1.1//EN"
 "http://www.w3.org/Graphics/SVG/1.1/DTD/svg11.dtd">
<!-- Generated by graphviz version 2.36.0 (20140111.2315)
 -->
<!-- Title: src/controller/icontroller.h Pages: 1 -->
<svg width="357pt" height="196pt"
 viewBox="0.00 0.00 357.00 196.00" xmlns="http://www.w3.org/2000/svg" xmlns:xlink="http://www.w3.org/1999/xlink">
<g id="graph0" class="graph" transform="scale(1 1) rotate(0) translate(4 192)">
<title>src/controller/icontroller.h</title>
<!-- Node1 -->
<g id="node1" class="node"><title>Node1</title>
<polygon fill="#bfbfbf" stroke="black" points="138,-168.5 138,-187.5 264,-187.5 264,-168.5 138,-168.5"/>
<text text-anchor="middle" x="201" y="-175.5" font-family="Helvetica,sans-Serif" font-size="10.00">src/controller/icontroller.h</text>
</g>
<!-- Node2 -->
<g id="node2" class="node"><title>Node2</title>
<g id="a_node2"><a xlink:href="geometry__elements_8h.html" target="_top" xlink:title="File with declaration of geometry element classes. ">
<polygon fill="none" stroke="black" points="29.5,-112.5 29.5,-131.5 172.5,-131.5 172.5,-112.5 29.5,-112.5"/>
<text text-anchor="middle" x="101" y="-119.5" font-family="Helvetica,sans-Serif" font-size="10.00">../view/geometry_elements.h</text>
</a>
</g>
</g>
<!-- Node1&#45;&gt;Node2 -->
<g id="edge1" class="edge"><title>Node1&#45;&gt;Node2</title>
<path fill="none" stroke="midnightblue" d="M184.933,-168.324C169.042,-159.743 144.493,-146.486 126.042,-136.522"/>
<polygon fill="midnightblue" stroke="midnightblue" points="127.489,-133.326 117.027,-131.655 124.163,-139.486 127.489,-133.326"/>
</g>
<!-- Node4 -->
<g id="node4" class="node"><title>Node4</title>
<polygon fill="none" stroke="#bfbfbf" points="99.5,-0.5 99.5,-19.5 140.5,-19.5 140.5,-0.5 99.5,-0.5"/>
<text text-anchor="middle" x="120" y="-7.5" font-family="Helvetica,sans-Serif" font-size="10.00">string</text>
</g>
<!-- Node1&#45;&gt;Node4 -->
<g id="edge8" class="edge"><title>Node1&#45;&gt;Node4</title>
<path fill="none" stroke="midnightblue" d="M201.792,-168.322C203.28,-147.328 204.539,-92.8151 182,-56 173.841,-42.6734 160.113,-32.1011 147.646,-24.5618"/>
<polygon fill="midnightblue" stroke="midnightblue" points="149.316,-21.4855 138.888,-19.6121 145.872,-27.5795 149.316,-21.4855"/>
</g>
<!-- Node6 -->
<g id="node6" class="node"><title>Node6</title>
<g id="a_node6"><a xlink:href="onclick_8h.html" target="_top" xlink:title="File with declaration of observer pattern classes. Two pairs of publishers and subscribers: OnClickLi...">
<polygon fill="none" stroke="black" points="229,-112.5 229,-131.5 315,-131.5 315,-112.5 229,-112.5"/>
<text text-anchor="middle" x="272" y="-119.5" font-family="Helvetica,sans-Serif" font-size="10.00">../utils/onclick.h</text>
</a>
</g>
</g>
<!-- Node1&#45;&gt;Node6 -->
<g id="edge5" class="edge"><title>Node1&#45;&gt;Node6</title>
<path fill="none" stroke="midnightblue" d="M212.407,-168.324C223.109,-160.185 239.341,-147.839 252.163,-138.087"/>
<polygon fill="midnightblue" stroke="midnightblue" points="254.544,-140.673 260.385,-131.834 250.307,-135.102 254.544,-140.673"/>
</g>
<!-- Node3 -->
<g id="node3" class="node"><title>Node3</title>
<g id="a_node3"><a xlink:href="logger_8h.html" target="_top" xlink:title="File with simple logger class declaration. ">
<polygon fill="none" stroke="black" points="-0.5,-56.5 -0.5,-75.5 80.5,-75.5 80.5,-56.5 -0.5,-56.5"/>
<text text-anchor="middle" x="40" y="-63.5" font-family="Helvetica,sans-Serif" font-size="10.00">../utils/logger.h</text>
</a>
</g>
</g>
<!-- Node2&#45;&gt;Node3 -->
<g id="edge2" class="edge"><title>Node2&#45;&gt;Node3</title>
<path fill="none" stroke="midnightblue" d="M91.1993,-112.324C82.1819,-104.341 68.594,-92.3128 57.682,-82.6529"/>
<polygon fill="midnightblue" stroke="midnightblue" points="59.7866,-79.8416 49.979,-75.8339 55.1467,-85.083 59.7866,-79.8416"/>
</g>
<!-- Node5 -->
<g id="node5" class="node"><title>Node5</title>
<g id="a_node5"><a xlink:href="tags_8h.html" target="_top" xlink:title="File with declaration of some tool and color tags. Used as color and tool mode flag in model (M from ...">
<polygon fill="none" stroke="black" points="99,-56.5 99,-75.5 173,-75.5 173,-56.5 99,-56.5"/>
<text text-anchor="middle" x="136" y="-63.5" font-family="Helvetica,sans-Serif" font-size="10.00">../utils/tags.h</text>
</a>
</g>
</g>
<!-- Node2&#45;&gt;Node5 -->
<g id="edge4" class="edge"><title>Node2&#45;&gt;Node5</title>
<path fill="none" stroke="midnightblue" d="M106.78,-112.083C111.672,-104.534 118.827,-93.4948 124.833,-84.2298"/>
<polygon fill="midnightblue" stroke="midnightblue" points="127.826,-86.0463 130.328,-75.7511 121.952,-82.239 127.826,-86.0463"/>
</g>
<!-- Node3&#45;&gt;Node4 -->
<g id="edge3" class="edge"><title>Node3&#45;&gt;Node4</title>
<path fill="none" stroke="midnightblue" d="M52.8534,-56.324C65.2164,-47.979 84.1301,-35.2122 98.7372,-25.3524"/>
<polygon fill="midnightblue" stroke="midnightblue" points="100.848,-28.1503 107.179,-19.6545 96.9318,-22.3483 100.848,-28.1503"/>
</g>
<!-- Node7 -->
<g id="node7" class="node"><title>Node7</title>
<polygon fill="none" stroke="#bfbfbf" points="243.5,-56.5 243.5,-75.5 272.5,-75.5 272.5,-56.5 243.5,-56.5"/>
<text text-anchor="middle" x="258" y="-63.5" font-family="Helvetica,sans-Serif" font-size="10.00">list</text>
</g>
<!-- Node6&#45;&gt;Node7 -->
<g id="edge6" class="edge"><title>Node6&#45;&gt;Node7</title>
<path fill="none" stroke="midnightblue" d="M269.688,-112.083C267.833,-104.927 265.165,-94.6353 262.846,-85.6911"/>
<polygon fill="midnightblue" stroke="midnightblue" points="266.166,-84.5527 260.269,-75.7511 259.391,-86.3094 266.166,-84.5527"/>
</g>
<!-- Node8 -->
<g id="node8" class="node"><title>Node8</title>
<polygon fill="none" stroke="#bfbfbf" points="290.5,-56.5 290.5,-75.5 349.5,-75.5 349.5,-56.5 290.5,-56.5"/>
<text text-anchor="middle" x="320" y="-63.5" font-family="Helvetica,sans-Serif" font-size="10.00">functional</text>
</g>
<!-- Node6&#45;&gt;Node8 -->
<g id="edge7" class="edge"><title>Node6&#45;&gt;Node8</title>
<path fill="none" stroke="midnightblue" d="M279.926,-112.083C286.846,-104.298 297.065,-92.8015 305.452,-83.3665"/>
<polygon fill="midnightblue" stroke="midnightblue" points="308.194,-85.5505 312.221,-75.7511 302.962,-80.8999 308.194,-85.5505"/>
</g>
</g>
</svg>
