<?xml version="1.0" encoding="UTF-8" standalone="no"?>
<!DOCTYPE svg PUBLIC "-//W3C//DTD SVG 1.1//EN"
 "http://www.w3.org/Graphics/SVG/1.1/DTD/svg11.dtd">
<!-- Generated by graphviz version 2.36.0 (20140111.2315)
 -->
<!-- Title: src/model/imodel.h Pages: 1 -->
<svg width="491pt" height="196pt"
 viewBox="0.00 0.00 491.00 196.00" xmlns="http://www.w3.org/2000/svg" xmlns:xlink="http://www.w3.org/1999/xlink">
<g id="graph0" class="graph" transform="scale(1 1) rotate(0) translate(4 192)">
<title>src/model/imodel.h</title>
<!-- Node1 -->
<g id="node1" class="node"><title>Node1</title>
<polygon fill="#bfbfbf" stroke="black" points="203.5,-168.5 203.5,-187.5 302.5,-187.5 302.5,-168.5 203.5,-168.5"/>
<text text-anchor="middle" x="253" y="-175.5" font-family="Helvetica,sans-Serif" font-size="10.00">src/model/imodel.h</text>
</g>
<!-- Node2 -->
<g id="node2" class="node"><title>Node2</title>
<g id="a_node2"><a xlink:href="model_8h.html" target="_top" xlink:title="File with declaration of model (from MVC). ">
<polygon fill="none" stroke="black" points="254.5,-112.5 254.5,-131.5 351.5,-131.5 351.5,-112.5 254.5,-112.5"/>
<text text-anchor="middle" x="303" y="-119.5" font-family="Helvetica,sans-Serif" font-size="10.00">src/model/model.h</text>
</a>
</g>
</g>
<!-- Node1&#45;&gt;Node2 -->
<g id="edge1" class="edge"><title>Node1&#45;&gt;Node2</title>
<path fill="none" stroke="midnightblue" d="M268.076,-160.718C276.889,-151.2 287.666,-139.561 294.897,-131.751"/>
<polygon fill="midnightblue" stroke="midnightblue" points="265.482,-158.367 261.256,-168.083 270.619,-163.123 265.482,-158.367"/>
</g>
<!-- Node7 -->
<g id="node7" class="node"><title>Node7</title>
<g id="a_node7"><a xlink:href="view_8h.html" target="_top" xlink:title="File with declaration of view (V from MVC). ">
<polygon fill="none" stroke="black" points="92.5,-56.5 92.5,-75.5 177.5,-75.5 177.5,-56.5 92.5,-56.5"/>
<text text-anchor="middle" x="135" y="-63.5" font-family="Helvetica,sans-Serif" font-size="10.00">src/view/view.h</text>
</a>
</g>
</g>
<!-- Node1&#45;&gt;Node7 -->
<g id="edge7" class="edge"><title>Node1&#45;&gt;Node7</title>
<path fill="none" stroke="midnightblue" d="M236.385,-161.512C211.171,-138.007 164.081,-94.1096 144.216,-75.5914"/>
<polygon fill="midnightblue" stroke="midnightblue" points="234.039,-164.11 243.741,-168.368 238.813,-158.99 234.039,-164.11"/>
</g>
<!-- Node3 -->
<g id="node3" class="node"><title>Node3</title>
<g id="a_node3"><a xlink:href="controller_8h.html" target="_top" xlink:title="File with controller (from MVC) declaration. ">
<polygon fill="none" stroke="black" points="196,-56.5 196,-75.5 320,-75.5 320,-56.5 196,-56.5"/>
<text text-anchor="middle" x="258" y="-63.5" font-family="Helvetica,sans-Serif" font-size="10.00">src/controller/controller.h</text>
</a>
</g>
</g>
<!-- Node2&#45;&gt;Node3 -->
<g id="edge2" class="edge"><title>Node2&#45;&gt;Node3</title>
<path fill="none" stroke="midnightblue" d="M288.953,-104.144C281.113,-94.7357 271.671,-83.4046 265.293,-75.7511"/>
<polygon fill="midnightblue" stroke="midnightblue" points="286.479,-106.641 295.569,-112.083 291.856,-102.16 286.479,-106.641"/>
</g>
<!-- Node5 -->
<g id="node5" class="node"><title>Node5</title>
<g id="a_node5"><a xlink:href="tester_8cpp.html" target="_top" xlink:title="File with tester class for the whole programm. ">
<polygon fill="none" stroke="black" points="265.5,-0.5 265.5,-19.5 342.5,-19.5 342.5,-0.5 265.5,-0.5"/>
<text text-anchor="middle" x="304" y="-7.5" font-family="Helvetica,sans-Serif" font-size="10.00">src/tester.cpp</text>
</a>
</g>
</g>
<!-- Node2&#45;&gt;Node5 -->
<g id="edge6" class="edge"><title>Node2&#45;&gt;Node5</title>
<path fill="none" stroke="midnightblue" d="M315.241,-103.834C320.247,-95.7882 325.454,-85.8248 328,-76 333.371,-55.2723 319.67,-31.9442 310.822,-19.6529"/>
<polygon fill="midnightblue" stroke="midnightblue" points="312.251,-102.01 309.629,-112.275 318.08,-105.886 312.251,-102.01"/>
</g>
<!-- Node6 -->
<g id="node6" class="node"><title>Node6</title>
<g id="a_node6"><a xlink:href="model_8cpp.html" target="_top" xlink:title="File with implementation of model (from MVC). ">
<polygon fill="none" stroke="black" points="376.5,-56.5 376.5,-75.5 483.5,-75.5 483.5,-56.5 376.5,-56.5"/>
<text text-anchor="middle" x="430" y="-63.5" font-family="Helvetica,sans-Serif" font-size="10.00">src/model/model.cpp</text>
</a>
</g>
</g>
<!-- Node2&#45;&gt;Node6 -->
<g id="edge5" class="edge"><title>Node2&#45;&gt;Node6</title>
<path fill="none" stroke="midnightblue" d="M332.391,-108.503C356.2,-98.3795 389.106,-84.388 409.971,-75.5164"/>
<polygon fill="midnightblue" stroke="midnightblue" points="330.957,-105.31 323.124,-112.444 333.696,-111.751 330.957,-105.31"/>
</g>
<!-- Node4 -->
<g id="node4" class="node"><title>Node4</title>
<g id="a_node4"><a xlink:href="controller_8cpp.html" target="_top" xlink:title="File with controller (from MVC) implementation. ">
<polygon fill="none" stroke="black" points="113,-0.5 113,-19.5 247,-19.5 247,-0.5 113,-0.5"/>
<text text-anchor="middle" x="180" y="-7.5" font-family="Helvetica,sans-Serif" font-size="10.00">src/controller/controller.cpp</text>
</a>
</g>
</g>
<!-- Node3&#45;&gt;Node4 -->
<g id="edge3" class="edge"><title>Node3&#45;&gt;Node4</title>
<path fill="none" stroke="midnightblue" d="M237.232,-50.6221C222.983,-40.7574 204.544,-27.9919 192.501,-19.6545"/>
<polygon fill="midnightblue" stroke="midnightblue" points="235.254,-53.5095 245.468,-56.324 239.238,-47.7541 235.254,-53.5095"/>
</g>
<!-- Node3&#45;&gt;Node5 -->
<g id="edge4" class="edge"><title>Node3&#45;&gt;Node5</title>
<path fill="none" stroke="midnightblue" d="M272.114,-48.4314C280.176,-38.9673 289.959,-27.4827 296.545,-19.7511"/>
<polygon fill="midnightblue" stroke="midnightblue" points="269.416,-46.2009 265.596,-56.083 274.745,-50.7402 269.416,-46.2009"/>
</g>
<!-- Node7&#45;&gt;Node4 -->
<g id="edge8" class="edge"><title>Node7&#45;&gt;Node4</title>
<path fill="none" stroke="midnightblue" d="M149.047,-48.144C156.887,-38.7357 166.329,-27.4046 172.707,-19.7511"/>
<polygon fill="midnightblue" stroke="midnightblue" points="146.144,-46.1601 142.431,-56.083 151.521,-50.6414 146.144,-46.1601"/>
</g>
<!-- Node7&#45;&gt;Node5 -->
<g id="edge9" class="edge"><title>Node7&#45;&gt;Node5</title>
<path fill="none" stroke="midnightblue" d="M171.603,-53.3044C203.447,-43.1294 248.842,-28.6246 277.347,-19.5164"/>
<polygon fill="midnightblue" stroke="midnightblue" points="170.239,-50.0659 161.779,-56.4435 172.369,-56.7337 170.239,-50.0659"/>
</g>
<!-- Node8 -->
<g id="node8" class="node"><title>Node8</title>
<g id="a_node8"><a xlink:href="view_8cpp.html" target="_top" xlink:title="File with implementation of view (V from MVC). ">
<polygon fill="none" stroke="black" points="-0.5,-0.5 -0.5,-19.5 94.5,-19.5 94.5,-0.5 -0.5,-0.5"/>
<text text-anchor="middle" x="47" y="-7.5" font-family="Helvetica,sans-Serif" font-size="10.00">src/view/view.cpp</text>
</a>
</g>
</g>
<!-- Node7&#45;&gt;Node8 -->
<g id="edge10" class="edge"><title>Node7&#45;&gt;Node8</title>
<path fill="none" stroke="midnightblue" d="M112.023,-50.9005C95.8866,-40.9986 74.8187,-28.0705 61.1036,-19.6545"/>
<polygon fill="midnightblue" stroke="midnightblue" points="110.507,-54.0769 120.861,-56.324 114.169,-48.1106 110.507,-54.0769"/>
</g>
</g>
</svg>
