<?xml version="1.0" encoding="UTF-8" standalone="no"?>
<!DOCTYPE svg PUBLIC "-//W3C//DTD SVG 1.1//EN"
 "http://www.w3.org/Graphics/SVG/1.1/DTD/svg11.dtd">
<!-- Generated by graphviz version 2.38.0 (20140413.2041)
 -->
<!-- Title: src/model/imodel.h Pages: 1 -->
<svg width="520pt" height="196pt"
 viewBox="0.00 0.00 520.00 196.00" xmlns="http://www.w3.org/2000/svg" xmlns:xlink="http://www.w3.org/1999/xlink">
<g id="graph0" class="graph" transform="scale(1 1) rotate(0) translate(4 192)">
<title>src/model/imodel.h</title>
<!-- Node1 -->
<g id="node1" class="node"><title>Node1</title>
<polygon fill="#bfbfbf" stroke="black" points="211.5,-168.5 211.5,-187.5 319.5,-187.5 319.5,-168.5 211.5,-168.5"/>
<text text-anchor="middle" x="265.5" y="-175.5" font-family="Helvetica,sans-Serif" font-size="10.00">src/model/imodel.h</text>
</g>
<!-- Node2 -->
<g id="node2" class="node"><title>Node2</title>
<g id="a_node2"><a xlink:href="model_8h.html" target="_top" xlink:title="File with declaration of model (from MVC). ">
<polygon fill="none" stroke="black" points="265.5,-112.5 265.5,-131.5 371.5,-131.5 371.5,-112.5 265.5,-112.5"/>
<text text-anchor="middle" x="318.5" y="-119.5" font-family="Helvetica,sans-Serif" font-size="10.00">src/model/model.h</text>
</a>
</g>
</g>
<!-- Node1&#45;&gt;Node2 -->
<g id="edge1" class="edge"><title>Node1&#45;&gt;Node2</title>
<path fill="none" stroke="midnightblue" d="M281.481,-160.718C290.822,-151.2 302.246,-139.561 309.911,-131.751"/>
<polygon fill="midnightblue" stroke="midnightblue" points="278.759,-158.494 274.252,-168.083 283.754,-163.398 278.759,-158.494"/>
</g>
<!-- Node7 -->
<g id="node7" class="node"><title>Node7</title>
<g id="a_node7"><a xlink:href="view_8h.html" target="_top" xlink:title="File with declaration of view (V from MVC). ">
<polygon fill="none" stroke="black" points="98.5,-56.5 98.5,-75.5 184.5,-75.5 184.5,-56.5 98.5,-56.5"/>
<text text-anchor="middle" x="141.5" y="-63.5" font-family="Helvetica,sans-Serif" font-size="10.00">src/view/view.h</text>
</a>
</g>
</g>
<!-- Node1&#45;&gt;Node7 -->
<g id="edge7" class="edge"><title>Node1&#45;&gt;Node7</title>
<path fill="none" stroke="midnightblue" d="M248.04,-161.512C221.544,-138.007 172.06,-94.1096 151.185,-75.5914"/>
<polygon fill="midnightblue" stroke="midnightblue" points="245.966,-164.351 255.77,-168.368 250.612,-159.114 245.966,-164.351"/>
</g>
<!-- Node3 -->
<g id="node3" class="node"><title>Node3</title>
<g id="a_node3"><a xlink:href="controller_8h.html" target="_top" xlink:title="File with controller (from MVC) declaration. ">
<polygon fill="none" stroke="black" points="203,-56.5 203,-75.5 338,-75.5 338,-56.5 203,-56.5"/>
<text text-anchor="middle" x="270.5" y="-63.5" font-family="Helvetica,sans-Serif" font-size="10.00">src/controller/controller.h</text>
</a>
</g>
</g>
<!-- Node2&#45;&gt;Node3 -->
<g id="edge2" class="edge"><title>Node2&#45;&gt;Node3</title>
<path fill="none" stroke="midnightblue" d="M303.772,-104.431C295.36,-94.9673 285.151,-83.4827 278.279,-75.7511"/>
<polygon fill="midnightblue" stroke="midnightblue" points="301.314,-106.934 310.574,-112.083 306.546,-102.284 301.314,-106.934"/>
</g>
<!-- Node5 -->
<g id="node5" class="node"><title>Node5</title>
<g id="a_node5"><a xlink:href="tester_8cpp.html" target="_top" xlink:title="File with tester class for the whole programm. ">
<polygon fill="none" stroke="black" points="279.5,-0.5 279.5,-19.5 361.5,-19.5 361.5,-0.5 279.5,-0.5"/>
<text text-anchor="middle" x="320.5" y="-7.5" font-family="Helvetica,sans-Serif" font-size="10.00">src/tester.cpp</text>
</a>
</g>
</g>
<!-- Node2&#45;&gt;Node5 -->
<g id="edge6" class="edge"><title>Node2&#45;&gt;Node5</title>
<path fill="none" stroke="midnightblue" d="M332.01,-104.301C337.668,-96.253 343.598,-86.1565 346.5,-76 352.443,-55.1982 337.552,-31.8991 327.925,-19.6322"/>
<polygon fill="midnightblue" stroke="midnightblue" points="329.124,-102.315 325.912,-112.411 334.719,-106.521 329.124,-102.315"/>
</g>
<!-- Node6 -->
<g id="node6" class="node"><title>Node6</title>
<g id="a_node6"><a xlink:href="model_8cpp.html" target="_top" xlink:title="File with implementation of model (from MVC). ">
<polygon fill="none" stroke="black" points="395,-56.5 395,-75.5 512,-75.5 512,-56.5 395,-56.5"/>
<text text-anchor="middle" x="453.5" y="-63.5" font-family="Helvetica,sans-Serif" font-size="10.00">src/model/model.cpp</text>
</a>
</g>
</g>
<!-- Node2&#45;&gt;Node6 -->
<g id="edge5" class="edge"><title>Node2&#45;&gt;Node6</title>
<path fill="none" stroke="midnightblue" d="M349.406,-108.638C374.74,-98.504 409.931,-84.4274 432.209,-75.5164"/>
<polygon fill="midnightblue" stroke="midnightblue" points="347.876,-105.48 339.891,-112.444 350.476,-111.979 347.876,-105.48"/>
</g>
<!-- Node4 -->
<g id="node4" class="node"><title>Node4</title>
<g id="a_node4"><a xlink:href="controller_8cpp.html" target="_top" xlink:title="File with controller (from MVC) implementation. ">
<polygon fill="none" stroke="black" points="115.5,-0.5 115.5,-19.5 261.5,-19.5 261.5,-0.5 115.5,-0.5"/>
<text text-anchor="middle" x="188.5" y="-7.5" font-family="Helvetica,sans-Serif" font-size="10.00">src/controller/controller.cpp</text>
</a>
</g>
</g>
<!-- Node3&#45;&gt;Node4 -->
<g id="edge3" class="edge"><title>Node3&#45;&gt;Node4</title>
<path fill="none" stroke="midnightblue" d="M248.667,-50.6221C233.687,-40.7574 214.303,-27.9919 201.642,-19.6545"/>
<polygon fill="midnightblue" stroke="midnightblue" points="247.049,-53.7471 257.325,-56.324 250.899,-47.9009 247.049,-53.7471"/>
</g>
<!-- Node3&#45;&gt;Node5 -->
<g id="edge4" class="edge"><title>Node3&#45;&gt;Node5</title>
<path fill="none" stroke="midnightblue" d="M285.576,-48.7175C294.389,-39.1997 305.166,-27.5608 312.397,-19.7511"/>
<polygon fill="midnightblue" stroke="midnightblue" points="282.982,-46.3674 278.756,-56.083 288.119,-51.1233 282.982,-46.3674"/>
</g>
<!-- Node7&#45;&gt;Node4 -->
<g id="edge8" class="edge"><title>Node7&#45;&gt;Node4</title>
<path fill="none" stroke="midnightblue" d="M155.921,-48.4314C164.158,-38.9673 174.154,-27.4827 180.883,-19.7511"/>
<polygon fill="midnightblue" stroke="midnightblue" points="153.186,-46.2421 149.261,-56.083 158.466,-50.8378 153.186,-46.2421"/>
</g>
<!-- Node7&#45;&gt;Node5 -->
<g id="edge9" class="edge"><title>Node7&#45;&gt;Node5</title>
<path fill="none" stroke="midnightblue" d="M179.831,-53.4363C213.58,-43.2551 261.947,-28.664 292.27,-19.5164"/>
<polygon fill="midnightblue" stroke="midnightblue" points="178.426,-50.2044 169.863,-56.4435 180.448,-56.9061 178.426,-50.2044"/>
</g>
<!-- Node8 -->
<g id="node8" class="node"><title>Node8</title>
<g id="a_node8"><a xlink:href="view_8cpp.html" target="_top" xlink:title="File with implementation of view (V from MVC). ">
<polygon fill="none" stroke="black" points="0,-0.5 0,-19.5 97,-19.5 97,-0.5 0,-0.5"/>
<text text-anchor="middle" x="48.5" y="-7.5" font-family="Helvetica,sans-Serif" font-size="10.00">src/view/view.cpp</text>
</a>
</g>
</g>
<!-- Node7&#45;&gt;Node8 -->
<g id="edge10" class="edge"><title>Node7&#45;&gt;Node8</title>
<path fill="none" stroke="midnightblue" d="M117.694,-51.1774C100.581,-41.2407 78.0347,-28.1492 63.405,-19.6545"/>
<polygon fill="midnightblue" stroke="midnightblue" points="116.153,-54.3293 126.558,-56.324 119.668,-48.2758 116.153,-54.3293"/>
</g>
</g>
</svg>
