<?xml version="1.0" encoding="UTF-8" standalone="no"?>
<!DOCTYPE svg PUBLIC "-//W3C//DTD SVG 1.1//EN"
 "http://www.w3.org/Graphics/SVG/1.1/DTD/svg11.dtd">
<!-- Generated by graphviz version 2.36.0 (20140111.2315)
 -->
<!-- Title: Graphical Class Hierarchy Pages: 1 -->
<svg width="250pt" height="104pt"
 viewBox="0.00 0.00 250.00 104.00" xmlns="http://www.w3.org/2000/svg" xmlns:xlink="http://www.w3.org/1999/xlink">
<g id="graph0" class="graph" transform="scale(1 1) rotate(0) translate(4 100)">
<title>Graphical Class Hierarchy</title>
<!-- Node1 -->
<g id="node1" class="node"><title>Node1</title>
<g id="a_node1"><a xlink:href="classotus_1_1GeometryElement.html" target="_top" xlink:title="otus::GeometryElement">
<polygon fill="none" stroke="black" points="0,-38.5 0,-57.5 120,-57.5 120,-38.5 0,-38.5"/>
<text text-anchor="middle" x="60" y="-45.5" font-family="Helvetica,sans-Serif" font-size="10.00">otus::GeometryElement</text>
</a>
</g>
</g>
<!-- Node2 -->
<g id="node2" class="node"><title>Node2</title>
<g id="a_node2"><a xlink:href="classotus_1_1Dot.html" target="_top" xlink:title="otus::Dot">
<polygon fill="none" stroke="black" points="170.5,-76.5 170.5,-95.5 227.5,-95.5 227.5,-76.5 170.5,-76.5"/>
<text text-anchor="middle" x="199" y="-83.5" font-family="Helvetica,sans-Serif" font-size="10.00">otus::Dot</text>
</a>
</g>
</g>
<!-- Node1&#45;&gt;Node2 -->
<g id="edge1" class="edge"><title>Node1&#45;&gt;Node2</title>
<path fill="none" stroke="midnightblue" d="M105.413,-60.3189C126.778,-66.245 151.726,-73.1647 170.338,-78.3273"/>
<polygon fill="midnightblue" stroke="midnightblue" points="106.143,-56.8892 95.5709,-57.589 104.272,-63.6346 106.143,-56.8892"/>
</g>
<!-- Node3 -->
<g id="node3" class="node"><title>Node3</title>
<g id="a_node3"><a xlink:href="classotus_1_1Line.html" target="_top" xlink:title="otus::Line">
<polygon fill="none" stroke="black" points="169.5,-38.5 169.5,-57.5 228.5,-57.5 228.5,-38.5 169.5,-38.5"/>
<text text-anchor="middle" x="199" y="-45.5" font-family="Helvetica,sans-Serif" font-size="10.00">otus::Line</text>
</a>
</g>
</g>
<!-- Node1&#45;&gt;Node3 -->
<g id="edge2" class="edge"><title>Node1&#45;&gt;Node3</title>
<path fill="none" stroke="midnightblue" d="M130.35,-48C144.194,-48 157.992,-48 169.481,-48"/>
<polygon fill="midnightblue" stroke="midnightblue" points="130.293,-44.5001 120.293,-48 130.293,-51.5001 130.293,-44.5001"/>
</g>
<!-- Node4 -->
<g id="node4" class="node"><title>Node4</title>
<g id="a_node4"><a xlink:href="classotus_1_1Rectangle.html" target="_top" xlink:title="otus::Rectangle">
<polygon fill="none" stroke="black" points="156,-0.5 156,-19.5 242,-19.5 242,-0.5 156,-0.5"/>
<text text-anchor="middle" x="199" y="-7.5" font-family="Helvetica,sans-Serif" font-size="10.00">otus::Rectangle</text>
</a>
</g>
</g>
<!-- Node1&#45;&gt;Node4 -->
<g id="edge3" class="edge"><title>Node1&#45;&gt;Node4</title>
<path fill="none" stroke="midnightblue" d="M105.411,-35.6817C124.234,-30.4607 145.838,-24.4684 163.44,-19.5859"/>
<polygon fill="midnightblue" stroke="midnightblue" points="104.272,-32.3654 95.5709,-38.411 106.143,-39.1108 104.272,-32.3654"/>
</g>
</g>
</svg>
