<?xml version="1.0" encoding="UTF-8" standalone="no"?>
<!DOCTYPE svg PUBLIC "-//W3C//DTD SVG 1.1//EN"
 "http://www.w3.org/Graphics/SVG/1.1/DTD/svg11.dtd">
<!-- Generated by graphviz version 2.38.0 (20140413.2041)
 -->
<!-- Title: Graphical Class Hierarchy Pages: 1 -->
<svg width="426pt" height="39pt"
 viewBox="0.00 0.00 426.00 39.00" xmlns="http://www.w3.org/2000/svg" xmlns:xlink="http://www.w3.org/1999/xlink">
<g id="graph0" class="graph" transform="scale(1 1) rotate(0) translate(4 35)">
<title>Graphical Class Hierarchy</title>
<!-- Node1 -->
<g id="node1" class="node"><title>Node1</title>
<g id="a_node1"><a xlink:href="classotus_1_1BaseListenable.html" target="_top" xlink:title="otus::BaseListenable\l\&lt; Args \&gt;">
<polygon fill="none" stroke="black" points="0,-0.5 0,-30.5 116,-30.5 116,-0.5 0,-0.5"/>
<text text-anchor="start" x="8" y="-18.5" font-family="Helvetica,sans-Serif" font-size="10.00">otus::BaseListenable</text>
<text text-anchor="middle" x="58" y="-7.5" font-family="Helvetica,sans-Serif" font-size="10.00">&lt; Args &gt;</text>
</a>
</g>
</g>
<!-- Node2 -->
<g id="node2" class="node"><title>Node2</title>
<g id="a_node2"><a xlink:href="classotus_1_1ModelInterface.html" target="_top" xlink:title="otus::ModelInterface">
<polygon fill="none" stroke="black" points="152,-6 152,-25 266,-25 266,-6 152,-6"/>
<text text-anchor="middle" x="209" y="-13" font-family="Helvetica,sans-Serif" font-size="10.00">otus::ModelInterface</text>
</a>
</g>
</g>
<!-- Node1&#45;&gt;Node2 -->
<g id="edge1" class="edge"><title>Node1&#45;&gt;Node2</title>
<path fill="none" stroke="midnightblue" d="M126.407,-15.5C134.865,-15.5 143.447,-15.5 151.709,-15.5"/>
<polygon fill="midnightblue" stroke="midnightblue" points="126.181,-12.0001 116.181,-15.5 126.181,-19.0001 126.181,-12.0001"/>
</g>
<!-- Node3 -->
<g id="node3" class="node"><title>Node3</title>
<g id="a_node3"><a xlink:href="classotus_1_1StandardModel.html" target="_top" xlink:title="otus::StandardModel">
<polygon fill="none" stroke="black" points="302,-6 302,-25 418,-25 418,-6 302,-6"/>
<text text-anchor="middle" x="360" y="-13" font-family="Helvetica,sans-Serif" font-size="10.00">otus::StandardModel</text>
</a>
</g>
</g>
<!-- Node2&#45;&gt;Node3 -->
<g id="edge2" class="edge"><title>Node2&#45;&gt;Node3</title>
<path fill="none" stroke="midnightblue" d="M276.462,-15.5C284.847,-15.5 293.37,-15.5 301.599,-15.5"/>
<polygon fill="midnightblue" stroke="midnightblue" points="276.331,-12.0001 266.331,-15.5 276.33,-19.0001 276.331,-12.0001"/>
</g>
</g>
</svg>
