<?xml version="1.0" encoding="UTF-8" standalone="no"?>
<!DOCTYPE svg PUBLIC "-//W3C//DTD SVG 1.1//EN"
 "http://www.w3.org/Graphics/SVG/1.1/DTD/svg11.dtd">
<!-- Generated by graphviz version 2.36.0 (20140111.2315)
 -->
<!-- Title: Graphical Class Hierarchy Pages: 1 -->
<svg width="234pt" height="180pt"
 viewBox="0.00 0.00 234.00 180.00" xmlns="http://www.w3.org/2000/svg" xmlns:xlink="http://www.w3.org/1999/xlink">
<g id="graph0" class="graph" transform="scale(1 1) rotate(0) translate(4 176)">
<title>Graphical Class Hierarchy</title>
<!-- Node1 -->
<g id="node1" class="node"><title>Node1</title>
<g id="a_node1"><a xlink:href="classotus_1_1OnClickable.html" target="_top" xlink:title="otus::OnClickable">
<polygon fill="none" stroke="black" points="0.5,-76.5 0.5,-95.5 95.5,-95.5 95.5,-76.5 0.5,-76.5"/>
<text text-anchor="middle" x="48" y="-83.5" font-family="Helvetica,sans-Serif" font-size="10.00">otus::OnClickable</text>
</a>
</g>
</g>
<!-- Node2 -->
<g id="node2" class="node"><title>Node2</title>
<g id="a_node2"><a xlink:href="classotus_1_1ClearButton.html" target="_top" xlink:title="otus::ClearButton">
<polygon fill="none" stroke="black" points="132.5,-152.5 132.5,-171.5 225.5,-171.5 225.5,-152.5 132.5,-152.5"/>
<text text-anchor="middle" x="179" y="-159.5" font-family="Helvetica,sans-Serif" font-size="10.00">otus::ClearButton</text>
</a>
</g>
</g>
<!-- Node1&#45;&gt;Node2 -->
<g id="edge1" class="edge"><title>Node1&#45;&gt;Node2</title>
<path fill="none" stroke="midnightblue" d="M69.3866,-101.799C85.7321,-114.015 109.568,-130.84 132,-143 138.381,-146.459 145.527,-149.694 152.249,-152.479"/>
<polygon fill="midnightblue" stroke="midnightblue" points="71.217,-98.7947 61.1328,-95.5451 66.9895,-104.374 71.217,-98.7947"/>
</g>
<!-- Node3 -->
<g id="node3" class="node"><title>Node3</title>
<g id="a_node3"><a xlink:href="classotus_1_1ColorButton.html" target="_top" xlink:title="otus::ColorButton">
<polygon fill="none" stroke="black" points="132.5,-114.5 132.5,-133.5 225.5,-133.5 225.5,-114.5 132.5,-114.5"/>
<text text-anchor="middle" x="179" y="-121.5" font-family="Helvetica,sans-Serif" font-size="10.00">otus::ColorButton</text>
</a>
</g>
</g>
<!-- Node1&#45;&gt;Node3 -->
<g id="edge2" class="edge"><title>Node1&#45;&gt;Node3</title>
<path fill="none" stroke="midnightblue" d="M91.554,-98.5353C109.103,-103.705 129.113,-109.599 145.458,-114.414"/>
<polygon fill="midnightblue" stroke="midnightblue" points="92.1336,-95.0574 81.5521,-95.589 90.1556,-101.772 92.1336,-95.0574"/>
</g>
<!-- Node4 -->
<g id="node4" class="node"><title>Node4</title>
<g id="a_node4"><a xlink:href="classotus_1_1OpenButton.html" target="_top" xlink:title="otus::OpenButton">
<polygon fill="none" stroke="black" points="132.5,-76.5 132.5,-95.5 225.5,-95.5 225.5,-76.5 132.5,-76.5"/>
<text text-anchor="middle" x="179" y="-83.5" font-family="Helvetica,sans-Serif" font-size="10.00">otus::OpenButton</text>
</a>
</g>
</g>
<!-- Node1&#45;&gt;Node4 -->
<g id="edge3" class="edge"><title>Node1&#45;&gt;Node4</title>
<path fill="none" stroke="midnightblue" d="M105.852,-86C114.72,-86 123.784,-86 132.361,-86"/>
<polygon fill="midnightblue" stroke="midnightblue" points="105.572,-82.5001 95.572,-86 105.572,-89.5001 105.572,-82.5001"/>
</g>
<!-- Node5 -->
<g id="node5" class="node"><title>Node5</title>
<g id="a_node5"><a xlink:href="classotus_1_1SaveButton.html" target="_top" xlink:title="otus::SaveButton">
<polygon fill="none" stroke="black" points="133,-38.5 133,-57.5 225,-57.5 225,-38.5 133,-38.5"/>
<text text-anchor="middle" x="179" y="-45.5" font-family="Helvetica,sans-Serif" font-size="10.00">otus::SaveButton</text>
</a>
</g>
</g>
<!-- Node1&#45;&gt;Node5 -->
<g id="edge4" class="edge"><title>Node1&#45;&gt;Node5</title>
<path fill="none" stroke="midnightblue" d="M91.554,-73.4647C109.103,-68.2952 129.113,-62.4009 145.458,-57.5859"/>
<polygon fill="midnightblue" stroke="midnightblue" points="90.1556,-70.2279 81.5521,-76.411 92.1336,-76.9426 90.1556,-70.2279"/>
</g>
<!-- Node6 -->
<g id="node6" class="node"><title>Node6</title>
<g id="a_node6"><a xlink:href="classotus_1_1ToolButton.html" target="_top" xlink:title="otus::ToolButton">
<polygon fill="none" stroke="black" points="134.5,-0.5 134.5,-19.5 223.5,-19.5 223.5,-0.5 134.5,-0.5"/>
<text text-anchor="middle" x="179" y="-7.5" font-family="Helvetica,sans-Serif" font-size="10.00">otus::ToolButton</text>
</a>
</g>
</g>
<!-- Node1&#45;&gt;Node6 -->
<g id="edge5" class="edge"><title>Node1&#45;&gt;Node6</title>
<path fill="none" stroke="midnightblue" d="M69.3866,-70.201C85.7321,-57.9846 109.568,-41.1599 132,-29 138.381,-25.5411 145.527,-22.3065 152.249,-19.5213"/>
<polygon fill="midnightblue" stroke="midnightblue" points="66.9895,-67.626 61.1328,-76.4549 71.217,-73.2053 66.9895,-67.626"/>
</g>
</g>
</svg>
