<?xml version="1.0" encoding="UTF-8" standalone="no"?>
<!DOCTYPE svg PUBLIC "-//W3C//DTD SVG 1.1//EN"
 "http://www.w3.org/Graphics/SVG/1.1/DTD/svg11.dtd">
<!-- Generated by graphviz version 2.36.0 (20140111.2315)
 -->
<!-- Title: Graphical Class Hierarchy Pages: 1 -->
<svg width="402pt" height="38pt"
 viewBox="0.00 0.00 402.00 38.00" xmlns="http://www.w3.org/2000/svg" xmlns:xlink="http://www.w3.org/1999/xlink">
<g id="graph0" class="graph" transform="scale(1 1) rotate(0) translate(4 34)">
<title>Graphical Class Hierarchy</title>
<!-- Node1 -->
<g id="node1" class="node"><title>Node1</title>
<g id="a_node1"><a xlink:href="classotus_1_1BaseListenable.html" target="_top" xlink:title="otus::BaseListenable\l\&lt; Args \&gt;">
<polygon fill="none" stroke="black" points="0,-0 0,-30 108,-30 108,-0 0,-0"/>
<text text-anchor="start" x="8" y="-18" font-family="Helvetica,sans-Serif" font-size="10.00">otus::BaseListenable</text>
<text text-anchor="middle" x="54" y="-7" font-family="Helvetica,sans-Serif" font-size="10.00">&lt; Args &gt;</text>
</a>
</g>
</g>
<!-- Node2 -->
<g id="node2" class="node"><title>Node2</title>
<g id="a_node2"><a xlink:href="classotus_1_1ModelInterface.html" target="_top" xlink:title="otus::ModelInterface">
<polygon fill="none" stroke="black" points="144,-5.5 144,-24.5 250,-24.5 250,-5.5 144,-5.5"/>
<text text-anchor="middle" x="197" y="-12.5" font-family="Helvetica,sans-Serif" font-size="10.00">otus::ModelInterface</text>
</a>
</g>
</g>
<!-- Node1&#45;&gt;Node2 -->
<g id="edge1" class="edge"><title>Node1&#45;&gt;Node2</title>
<path fill="none" stroke="midnightblue" d="M118.447,-15C126.842,-15 135.371,-15 143.553,-15"/>
<polygon fill="midnightblue" stroke="midnightblue" points="118.306,-11.5001 108.306,-15 118.306,-18.5001 118.306,-11.5001"/>
</g>
<!-- Node3 -->
<g id="node3" class="node"><title>Node3</title>
<g id="a_node3"><a xlink:href="classotus_1_1StandardModel.html" target="_top" xlink:title="otus::StandardModel">
<polygon fill="none" stroke="black" points="286.5,-5.5 286.5,-24.5 393.5,-24.5 393.5,-5.5 286.5,-5.5"/>
<text text-anchor="middle" x="340" y="-12.5" font-family="Helvetica,sans-Serif" font-size="10.00">otus::StandardModel</text>
</a>
</g>
</g>
<!-- Node2&#45;&gt;Node3 -->
<g id="edge2" class="edge"><title>Node2&#45;&gt;Node3</title>
<path fill="none" stroke="midnightblue" d="M260.174,-15C268.847,-15 277.69,-15 286.169,-15"/>
<polygon fill="midnightblue" stroke="midnightblue" points="260.103,-11.5001 250.103,-15 260.103,-18.5001 260.103,-11.5001"/>
</g>
</g>
</svg>
