<?xml version="1.0" encoding="UTF-8" standalone="no"?>
<!DOCTYPE svg PUBLIC "-//W3C//DTD SVG 1.1//EN"
 "http://www.w3.org/Graphics/SVG/1.1/DTD/svg11.dtd">
<!-- Generated by graphviz version 2.36.0 (20140111.2315)
 -->
<!-- Title: Graphical Class Hierarchy Pages: 1 -->
<svg width="256pt" height="218pt"
 viewBox="0.00 0.00 256.00 218.00" xmlns="http://www.w3.org/2000/svg" xmlns:xlink="http://www.w3.org/1999/xlink">
<g id="graph0" class="graph" transform="scale(1 1) rotate(0) translate(4 214)">
<title>Graphical Class Hierarchy</title>
<!-- Node1 -->
<g id="node1" class="node"><title>Node1</title>
<g id="a_node1"><a xlink:href="classotus_1_1BaseOnClickable.html" target="_top" xlink:title="otus::BaseOnClickable\l\&lt; Args \&gt;">
<polygon fill="none" stroke="black" points="0.5,-90 0.5,-120 117.5,-120 117.5,-90 0.5,-90"/>
<text text-anchor="start" x="8.5" y="-108" font-family="Helvetica,sans-Serif" font-size="10.00">otus::BaseOnClickable</text>
<text text-anchor="middle" x="59" y="-97" font-family="Helvetica,sans-Serif" font-size="10.00">&lt; Args &gt;</text>
</a>
</g>
</g>
<!-- Node2 -->
<g id="node2" class="node"><title>Node2</title>
<g id="a_node2"><a xlink:href="classotus_1_1Canvas.html" target="_top" xlink:title="otus::Canvas">
<polygon fill="none" stroke="black" points="163.5,-190.5 163.5,-209.5 238.5,-209.5 238.5,-190.5 163.5,-190.5"/>
<text text-anchor="middle" x="201" y="-197.5" font-family="Helvetica,sans-Serif" font-size="10.00">otus::Canvas</text>
</a>
</g>
</g>
<!-- Node1&#45;&gt;Node2 -->
<g id="edge1" class="edge"><title>Node1&#45;&gt;Node2</title>
<path fill="none" stroke="midnightblue" d="M83.6601,-127.366C101.857,-143.734 128.18,-165.67 154,-181 159.944,-184.529 166.665,-187.708 173.097,-190.411"/>
<polygon fill="midnightblue" stroke="midnightblue" points="85.6464,-124.44 75.902,-120.281 80.926,-129.609 85.6464,-124.44"/>
</g>
<!-- Node3 -->
<g id="node3" class="node"><title>Node3</title>
<g id="a_node3"><a xlink:href="classotus_1_1ClearButton.html" target="_top" xlink:title="otus::ClearButton">
<polygon fill="none" stroke="black" points="154.5,-152.5 154.5,-171.5 247.5,-171.5 247.5,-152.5 154.5,-152.5"/>
<text text-anchor="middle" x="201" y="-159.5" font-family="Helvetica,sans-Serif" font-size="10.00">otus::ClearButton</text>
</a>
</g>
</g>
<!-- Node1&#45;&gt;Node3 -->
<g id="edge2" class="edge"><title>Node1&#45;&gt;Node3</title>
<path fill="none" stroke="midnightblue" d="M106.562,-123.957C129.953,-133.481 157.292,-144.612 176.331,-152.363"/>
<polygon fill="midnightblue" stroke="midnightblue" points="107.731,-120.655 97.1499,-120.125 105.092,-127.138 107.731,-120.655"/>
</g>
<!-- Node4 -->
<g id="node4" class="node"><title>Node4</title>
<g id="a_node4"><a xlink:href="classotus_1_1ColorButton.html" target="_top" xlink:title="otus::ColorButton">
<polygon fill="none" stroke="black" points="154.5,-114.5 154.5,-133.5 247.5,-133.5 247.5,-114.5 154.5,-114.5"/>
<text text-anchor="middle" x="201" y="-121.5" font-family="Helvetica,sans-Serif" font-size="10.00">otus::ColorButton</text>
</a>
</g>
</g>
<!-- Node1&#45;&gt;Node4 -->
<g id="edge3" class="edge"><title>Node1&#45;&gt;Node4</title>
<path fill="none" stroke="midnightblue" d="M127.845,-114.207C136.83,-115.427 145.862,-116.653 154.349,-117.805"/>
<polygon fill="midnightblue" stroke="midnightblue" points="128.132,-110.714 117.752,-112.838 127.19,-117.651 128.132,-110.714"/>
</g>
<!-- Node5 -->
<g id="node5" class="node"><title>Node5</title>
<g id="a_node5"><a xlink:href="classotus_1_1OpenButton.html" target="_top" xlink:title="otus::OpenButton">
<polygon fill="none" stroke="black" points="154.5,-76.5 154.5,-95.5 247.5,-95.5 247.5,-76.5 154.5,-76.5"/>
<text text-anchor="middle" x="201" y="-83.5" font-family="Helvetica,sans-Serif" font-size="10.00">otus::OpenButton</text>
</a>
</g>
</g>
<!-- Node1&#45;&gt;Node5 -->
<g id="edge4" class="edge"><title>Node1&#45;&gt;Node5</title>
<path fill="none" stroke="midnightblue" d="M127.845,-95.7925C136.83,-94.5731 145.862,-93.3473 154.349,-92.1954"/>
<polygon fill="midnightblue" stroke="midnightblue" points="127.19,-92.3492 117.752,-97.1623 128.132,-99.2856 127.19,-92.3492"/>
</g>
<!-- Node6 -->
<g id="node6" class="node"><title>Node6</title>
<g id="a_node6"><a xlink:href="classotus_1_1SaveButton.html" target="_top" xlink:title="otus::SaveButton">
<polygon fill="none" stroke="black" points="155,-38.5 155,-57.5 247,-57.5 247,-38.5 155,-38.5"/>
<text text-anchor="middle" x="201" y="-45.5" font-family="Helvetica,sans-Serif" font-size="10.00">otus::SaveButton</text>
</a>
</g>
</g>
<!-- Node1&#45;&gt;Node6 -->
<g id="edge5" class="edge"><title>Node1&#45;&gt;Node6</title>
<path fill="none" stroke="midnightblue" d="M106.562,-86.0428C129.953,-76.5191 157.292,-65.3882 176.331,-57.6365"/>
<polygon fill="midnightblue" stroke="midnightblue" points="105.092,-82.8621 97.1499,-89.8747 107.731,-89.3454 105.092,-82.8621"/>
</g>
<!-- Node7 -->
<g id="node7" class="node"><title>Node7</title>
<g id="a_node7"><a xlink:href="classotus_1_1ToolButton.html" target="_top" xlink:title="otus::ToolButton">
<polygon fill="none" stroke="black" points="156.5,-0.5 156.5,-19.5 245.5,-19.5 245.5,-0.5 156.5,-0.5"/>
<text text-anchor="middle" x="201" y="-7.5" font-family="Helvetica,sans-Serif" font-size="10.00">otus::ToolButton</text>
</a>
</g>
</g>
<!-- Node1&#45;&gt;Node7 -->
<g id="edge6" class="edge"><title>Node1&#45;&gt;Node7</title>
<path fill="none" stroke="midnightblue" d="M83.6601,-82.6341C101.857,-66.2661 128.18,-44.3304 154,-29 159.944,-25.471 166.665,-22.2921 173.097,-19.5892"/>
<polygon fill="midnightblue" stroke="midnightblue" points="80.926,-80.3911 75.902,-89.719 85.6464,-85.56 80.926,-80.3911"/>
</g>
</g>
</svg>
