<?xml version="1.0" encoding="UTF-8" standalone="no"?>
<!DOCTYPE svg PUBLIC "-//W3C//DTD SVG 1.1//EN"
 "http://www.w3.org/Graphics/SVG/1.1/DTD/svg11.dtd">
<!-- Generated by graphviz version 2.36.0 (20140111.2315)
 -->
<!-- Title: Graphical Class Hierarchy Pages: 1 -->
<svg width="482pt" height="66pt"
 viewBox="0.00 0.00 482.00 66.00" xmlns="http://www.w3.org/2000/svg" xmlns:xlink="http://www.w3.org/1999/xlink">
<g id="graph0" class="graph" transform="scale(1 1) rotate(0) translate(4 62)">
<title>Graphical Class Hierarchy</title>
<!-- Node1 -->
<g id="node1" class="node"><title>Node1</title>
<g id="a_node1"><a xlink:href="classotus_1_1OnClickListener.html" target="_top" xlink:title="otus::OnClickListener">
<polygon fill="none" stroke="black" points="23.5,-38.5 23.5,-57.5 134.5,-57.5 134.5,-38.5 23.5,-38.5"/>
<text text-anchor="middle" x="79" y="-45.5" font-family="Helvetica,sans-Serif" font-size="10.00">otus::OnClickListener</text>
</a>
</g>
</g>
<!-- Node2 -->
<g id="node2" class="node"><title>Node2</title>
<g id="a_node2"><a xlink:href="classotus_1_1ControllerInterface.html" target="_top" xlink:title="otus::ControllerInterface">
<polygon fill="none" stroke="black" points="194,-19.5 194,-38.5 316,-38.5 316,-19.5 194,-19.5"/>
<text text-anchor="middle" x="255" y="-26.5" font-family="Helvetica,sans-Serif" font-size="10.00">otus::ControllerInterface</text>
</a>
</g>
</g>
<!-- Node1&#45;&gt;Node2 -->
<g id="edge1" class="edge"><title>Node1&#45;&gt;Node2</title>
<path fill="none" stroke="midnightblue" d="M144.936,-40.9093C160.971,-39.1583 178.077,-37.2904 193.873,-35.5656"/>
<polygon fill="midnightblue" stroke="midnightblue" points="144.138,-37.4755 134.577,-42.0404 144.898,-44.4341 144.138,-37.4755"/>
</g>
<!-- Node3 -->
<g id="node3" class="node"><title>Node3</title>
<g id="a_node3"><a xlink:href="classotus_1_1StandardController.html" target="_top" xlink:title="otus::StandardController">
<polygon fill="none" stroke="black" points="352,-19.5 352,-38.5 474,-38.5 474,-19.5 352,-19.5"/>
<text text-anchor="middle" x="413" y="-26.5" font-family="Helvetica,sans-Serif" font-size="10.00">otus::StandardController</text>
</a>
</g>
</g>
<!-- Node2&#45;&gt;Node3 -->
<g id="edge2" class="edge"><title>Node2&#45;&gt;Node3</title>
<path fill="none" stroke="midnightblue" d="M326.538,-29C334.99,-29 343.56,-29 351.847,-29"/>
<polygon fill="midnightblue" stroke="midnightblue" points="326.314,-25.5001 316.314,-29 326.314,-32.5001 326.314,-25.5001"/>
</g>
<!-- Node4 -->
<g id="node4" class="node"><title>Node4</title>
<g id="a_node4"><a xlink:href="classotus_1_1OnCoordinateClickListener.html" target="_top" xlink:title="otus::OnCoordinateClickListener">
<polygon fill="none" stroke="black" points="0,-0.5 0,-19.5 158,-19.5 158,-0.5 0,-0.5"/>
<text text-anchor="middle" x="79" y="-7.5" font-family="Helvetica,sans-Serif" font-size="10.00">otus::OnCoordinateClickListener</text>
</a>
</g>
</g>
<!-- Node4&#45;&gt;Node2 -->
<g id="edge3" class="edge"><title>Node4&#45;&gt;Node2</title>
<path fill="none" stroke="midnightblue" d="M168.265,-19.6381C176.941,-20.5855 185.6,-21.5311 193.898,-22.4371"/>
<polygon fill="midnightblue" stroke="midnightblue" points="168.414,-16.1337 158.093,-18.5274 167.654,-23.0923 168.414,-16.1337"/>
</g>
</g>
</svg>
