<?xml version="1.0" encoding="UTF-8" standalone="no"?>
<!DOCTYPE svg PUBLIC "-//W3C//DTD SVG 1.1//EN"
 "http://www.w3.org/Graphics/SVG/1.1/DTD/svg11.dtd">
<!-- Generated by graphviz version 2.38.0 (20140413.2041)
 -->
<!-- Title: Graphical Class Hierarchy Pages: 1 -->
<svg width="268pt" height="218pt"
 viewBox="0.00 0.00 268.00 218.00" xmlns="http://www.w3.org/2000/svg" xmlns:xlink="http://www.w3.org/1999/xlink">
<g id="graph0" class="graph" transform="scale(1 1) rotate(0) translate(4 214)">
<title>Graphical Class Hierarchy</title>
<!-- Node1 -->
<g id="node1" class="node"><title>Node1</title>
<g id="a_node1"><a xlink:href="classotus_1_1BaseOnClickable.html" target="_top" xlink:title="otus::BaseOnClickable\l\&lt; Args \&gt;">
<polygon fill="none" stroke="black" points="0,-90 0,-120 123,-120 123,-90 0,-90"/>
<text text-anchor="start" x="8" y="-108" font-family="Helvetica,sans-Serif" font-size="10.00">otus::BaseOnClickable</text>
<text text-anchor="middle" x="61.5" y="-97" font-family="Helvetica,sans-Serif" font-size="10.00">&lt; Args &gt;</text>
</a>
</g>
</g>
<!-- Node2 -->
<g id="node2" class="node"><title>Node2</title>
<g id="a_node2"><a xlink:href="classotus_1_1Canvas.html" target="_top" xlink:title="otus::Canvas">
<polygon fill="none" stroke="black" points="170,-190.5 170,-209.5 249,-209.5 249,-190.5 170,-190.5"/>
<text text-anchor="middle" x="209.5" y="-197.5" font-family="Helvetica,sans-Serif" font-size="10.00">otus::Canvas</text>
</a>
</g>
</g>
<!-- Node1&#45;&gt;Node2 -->
<g id="edge1" class="edge"><title>Node1&#45;&gt;Node2</title>
<path fill="none" stroke="midnightblue" d="M85.935,-126.772C104.634,-143.291 132.07,-165.695 159,-181 165.322,-184.593 172.456,-187.778 179.299,-190.464"/>
<polygon fill="midnightblue" stroke="midnightblue" points="88.265,-124.16 78.4832,-120.09 83.5918,-129.371 88.265,-124.16"/>
</g>
<!-- Node3 -->
<g id="node3" class="node"><title>Node3</title>
<g id="a_node3"><a xlink:href="classotus_1_1ClearButton.html" target="_top" xlink:title="otus::ClearButton">
<polygon fill="none" stroke="black" points="159,-152.5 159,-171.5 260,-171.5 260,-152.5 159,-152.5"/>
<text text-anchor="middle" x="209.5" y="-159.5" font-family="Helvetica,sans-Serif" font-size="10.00">otus::ClearButton</text>
</a>
</g>
</g>
<!-- Node1&#45;&gt;Node3 -->
<g id="edge2" class="edge"><title>Node1&#45;&gt;Node3</title>
<path fill="none" stroke="midnightblue" d="M109.963,-123.784C125.572,-129.937 143.018,-136.786 159,-143 166.979,-146.102 175.693,-149.458 183.556,-152.474"/>
<polygon fill="midnightblue" stroke="midnightblue" points="111.098,-120.47 100.512,-120.056 108.53,-126.981 111.098,-120.47"/>
</g>
<!-- Node4 -->
<g id="node4" class="node"><title>Node4</title>
<g id="a_node4"><a xlink:href="classotus_1_1ColorButton.html" target="_top" xlink:title="otus::ColorButton">
<polygon fill="none" stroke="black" points="159,-114.5 159,-133.5 260,-133.5 260,-114.5 159,-114.5"/>
<text text-anchor="middle" x="209.5" y="-121.5" font-family="Helvetica,sans-Serif" font-size="10.00">otus::ColorButton</text>
</a>
</g>
</g>
<!-- Node1&#45;&gt;Node4 -->
<g id="edge3" class="edge"><title>Node1&#45;&gt;Node4</title>
<path fill="none" stroke="midnightblue" d="M133.275,-114.21C141.942,-115.338 150.65,-116.472 158.912,-117.547"/>
<polygon fill="midnightblue" stroke="midnightblue" points="133.517,-110.712 123.149,-112.893 132.613,-117.654 133.517,-110.712"/>
</g>
<!-- Node5 -->
<g id="node5" class="node"><title>Node5</title>
<g id="a_node5"><a xlink:href="classotus_1_1OpenButton.html" target="_top" xlink:title="otus::OpenButton">
<polygon fill="none" stroke="black" points="159,-76.5 159,-95.5 260,-95.5 260,-76.5 159,-76.5"/>
<text text-anchor="middle" x="209.5" y="-83.5" font-family="Helvetica,sans-Serif" font-size="10.00">otus::OpenButton</text>
</a>
</g>
</g>
<!-- Node1&#45;&gt;Node5 -->
<g id="edge4" class="edge"><title>Node1&#45;&gt;Node5</title>
<path fill="none" stroke="midnightblue" d="M133.275,-95.7896C141.942,-94.6617 150.65,-93.5284 158.912,-92.4532"/>
<polygon fill="midnightblue" stroke="midnightblue" points="132.613,-92.346 123.149,-97.1074 133.517,-99.2875 132.613,-92.346"/>
</g>
<!-- Node6 -->
<g id="node6" class="node"><title>Node6</title>
<g id="a_node6"><a xlink:href="classotus_1_1SaveButton.html" target="_top" xlink:title="otus::SaveButton">
<polygon fill="none" stroke="black" points="159.5,-38.5 159.5,-57.5 259.5,-57.5 259.5,-38.5 159.5,-38.5"/>
<text text-anchor="middle" x="209.5" y="-45.5" font-family="Helvetica,sans-Serif" font-size="10.00">otus::SaveButton</text>
</a>
</g>
</g>
<!-- Node1&#45;&gt;Node6 -->
<g id="edge5" class="edge"><title>Node1&#45;&gt;Node6</title>
<path fill="none" stroke="midnightblue" d="M109.963,-86.2156C125.572,-80.0633 143.018,-73.2139 159,-67 166.979,-63.8978 175.693,-60.5421 183.556,-57.5264"/>
<polygon fill="midnightblue" stroke="midnightblue" points="108.53,-83.0187 100.512,-89.9442 111.098,-89.5303 108.53,-83.0187"/>
</g>
<!-- Node7 -->
<g id="node7" class="node"><title>Node7</title>
<g id="a_node7"><a xlink:href="classotus_1_1ToolButton.html" target="_top" xlink:title="otus::ToolButton">
<polygon fill="none" stroke="black" points="162.5,-0.5 162.5,-19.5 256.5,-19.5 256.5,-0.5 162.5,-0.5"/>
<text text-anchor="middle" x="209.5" y="-7.5" font-family="Helvetica,sans-Serif" font-size="10.00">otus::ToolButton</text>
</a>
</g>
</g>
<!-- Node1&#45;&gt;Node7 -->
<g id="edge6" class="edge"><title>Node1&#45;&gt;Node7</title>
<path fill="none" stroke="midnightblue" d="M85.935,-83.2285C104.634,-66.7085 132.07,-44.305 159,-29 165.322,-25.4069 172.456,-22.222 179.299,-19.5356"/>
<polygon fill="midnightblue" stroke="midnightblue" points="83.5918,-80.6285 78.4832,-89.9103 88.265,-85.8402 83.5918,-80.6285"/>
</g>
</g>
</svg>
