<?xml version="1.0" encoding="UTF-8" standalone="no"?>
<!DOCTYPE svg PUBLIC "-//W3C//DTD SVG 1.1//EN"
 "http://www.w3.org/Graphics/SVG/1.1/DTD/svg11.dtd">
<!-- Generated by graphviz version 2.36.0 (20140111.2315)
 -->
<!-- Title: Graphical Class Hierarchy Pages: 1 -->
<svg width="386pt" height="28pt"
 viewBox="0.00 0.00 386.00 28.00" xmlns="http://www.w3.org/2000/svg" xmlns:xlink="http://www.w3.org/1999/xlink">
<g id="graph0" class="graph" transform="scale(1 1) rotate(0) translate(4 24)">
<title>Graphical Class Hierarchy</title>
<!-- Node1 -->
<g id="node1" class="node"><title>Node1</title>
<g id="a_node1"><a xlink:href="classotus_1_1Observable.html" target="_top" xlink:title="otus::Observable">
<polygon fill="none" stroke="black" points="0.5,-0.5 0.5,-19.5 91.5,-19.5 91.5,-0.5 0.5,-0.5"/>
<text text-anchor="middle" x="46" y="-7.5" font-family="Helvetica,sans-Serif" font-size="10.00">otus::Observable</text>
</a>
</g>
</g>
<!-- Node2 -->
<g id="node2" class="node"><title>Node2</title>
<g id="a_node2"><a xlink:href="classotus_1_1ModelInterface.html" target="_top" xlink:title="otus::ModelInterface">
<polygon fill="none" stroke="black" points="128,-0.5 128,-19.5 234,-19.5 234,-0.5 128,-0.5"/>
<text text-anchor="middle" x="181" y="-7.5" font-family="Helvetica,sans-Serif" font-size="10.00">otus::ModelInterface</text>
</a>
</g>
</g>
<!-- Node1&#45;&gt;Node2 -->
<g id="edge1" class="edge"><title>Node1&#45;&gt;Node2</title>
<path fill="none" stroke="midnightblue" d="M101.664,-10C110.327,-10 119.268,-10 127.872,-10"/>
<polygon fill="midnightblue" stroke="midnightblue" points="101.657,-6.5001 91.6571,-10 101.657,-13.5001 101.657,-6.5001"/>
</g>
<!-- Node3 -->
<g id="node3" class="node"><title>Node3</title>
<g id="a_node3"><a xlink:href="classotus_1_1StandardModel.html" target="_top" xlink:title="otus::StandardModel">
<polygon fill="none" stroke="black" points="270.5,-0.5 270.5,-19.5 377.5,-19.5 377.5,-0.5 270.5,-0.5"/>
<text text-anchor="middle" x="324" y="-7.5" font-family="Helvetica,sans-Serif" font-size="10.00">otus::StandardModel</text>
</a>
</g>
</g>
<!-- Node2&#45;&gt;Node3 -->
<g id="edge2" class="edge"><title>Node2&#45;&gt;Node3</title>
<path fill="none" stroke="midnightblue" d="M244.174,-10C252.847,-10 261.69,-10 270.169,-10"/>
<polygon fill="midnightblue" stroke="midnightblue" points="244.103,-6.5001 234.103,-10 244.103,-13.5001 244.103,-6.5001"/>
</g>
</g>
</svg>
