<?xml version="1.0" encoding="UTF-8" standalone="no"?>
<!DOCTYPE svg PUBLIC "-//W3C//DTD SVG 1.1//EN"
 "http://www.w3.org/Graphics/SVG/1.1/DTD/svg11.dtd">
<!-- Generated by graphviz version 2.36.0 (20140111.2315)
 -->
<!-- Title: Graphical Class Hierarchy Pages: 1 -->
<svg width="366pt" height="28pt"
 viewBox="0.00 0.00 366.00 28.00" xmlns="http://www.w3.org/2000/svg" xmlns:xlink="http://www.w3.org/1999/xlink">
<g id="graph0" class="graph" transform="scale(1 1) rotate(0) translate(4 24)">
<title>Graphical Class Hierarchy</title>
<!-- Node1 -->
<g id="node1" class="node"><title>Node1</title>
<g id="a_node1"><a xlink:href="classotus_1_1Observer.html" target="_top" xlink:title="otus::Observer">
<polygon fill="none" stroke="black" points="0.5,-0.5 0.5,-19.5 81.5,-19.5 81.5,-0.5 0.5,-0.5"/>
<text text-anchor="middle" x="41" y="-7.5" font-family="Helvetica,sans-Serif" font-size="10.00">otus::Observer</text>
</a>
</g>
</g>
<!-- Node2 -->
<g id="node2" class="node"><title>Node2</title>
<g id="a_node2"><a xlink:href="classotus_1_1ViewInterface.html" target="_top" xlink:title="otus::ViewInterface">
<polygon fill="none" stroke="black" points="118.5,-0.5 118.5,-19.5 219.5,-19.5 219.5,-0.5 118.5,-0.5"/>
<text text-anchor="middle" x="169" y="-7.5" font-family="Helvetica,sans-Serif" font-size="10.00">otus::ViewInterface</text>
</a>
</g>
</g>
<!-- Node1&#45;&gt;Node2 -->
<g id="edge1" class="edge"><title>Node1&#45;&gt;Node2</title>
<path fill="none" stroke="midnightblue" d="M91.6414,-10C100.442,-10 109.607,-10 118.406,-10"/>
<polygon fill="midnightblue" stroke="midnightblue" points="91.5215,-6.5001 81.5215,-10 91.5214,-13.5001 91.5215,-6.5001"/>
</g>
<!-- Node3 -->
<g id="node3" class="node"><title>Node3</title>
<g id="a_node3"><a xlink:href="classotus_1_1StandardView.html" target="_top" xlink:title="otus::StandardView">
<polygon fill="none" stroke="black" points="256,-0.5 256,-19.5 358,-19.5 358,-0.5 256,-0.5"/>
<text text-anchor="middle" x="307" y="-7.5" font-family="Helvetica,sans-Serif" font-size="10.00">otus::StandardView</text>
</a>
</g>
</g>
<!-- Node2&#45;&gt;Node3 -->
<g id="edge2" class="edge"><title>Node2&#45;&gt;Node3</title>
<path fill="none" stroke="midnightblue" d="M230.149,-10C238.675,-10 247.368,-10 255.682,-10"/>
<polygon fill="midnightblue" stroke="midnightblue" points="229.869,-6.5001 219.869,-10 229.869,-13.5001 229.869,-6.5001"/>
</g>
</g>
</svg>
