<?xml version="1.0" encoding="UTF-8" standalone="no"?>
<!DOCTYPE svg PUBLIC "-//W3C//DTD SVG 1.1//EN"
 "http://www.w3.org/Graphics/SVG/1.1/DTD/svg11.dtd">
<!-- Generated by graphviz version 2.38.0 (20140413.2041)
 -->
<!-- Title: Graphical Class Hierarchy Pages: 1 -->
<svg width="265pt" height="104pt"
 viewBox="0.00 0.00 265.00 104.00" xmlns="http://www.w3.org/2000/svg" xmlns:xlink="http://www.w3.org/1999/xlink">
<g id="graph0" class="graph" transform="scale(1 1) rotate(0) translate(4 100)">
<title>Graphical Class Hierarchy</title>
<!-- Node1 -->
<g id="node1" class="node"><title>Node1</title>
<g id="a_node1"><a xlink:href="classotus_1_1GeometryElement.html" target="_top" xlink:title="otus::GeometryElement">
<polygon fill="none" stroke="black" points="0,-38.5 0,-57.5 131,-57.5 131,-38.5 0,-38.5"/>
<text text-anchor="middle" x="65.5" y="-45.5" font-family="Helvetica,sans-Serif" font-size="10.00">otus::GeometryElement</text>
</a>
</g>
</g>
<!-- Node2 -->
<g id="node2" class="node"><title>Node2</title>
<g id="a_node2"><a xlink:href="classotus_1_1Dot.html" target="_top" xlink:title="otus::Dot">
<polygon fill="none" stroke="black" points="181.5,-76.5 181.5,-95.5 242.5,-95.5 242.5,-76.5 181.5,-76.5"/>
<text text-anchor="middle" x="212" y="-83.5" font-family="Helvetica,sans-Serif" font-size="10.00">otus::Dot</text>
</a>
</g>
</g>
<!-- Node1&#45;&gt;Node2 -->
<g id="edge1" class="edge"><title>Node1&#45;&gt;Node2</title>
<path fill="none" stroke="midnightblue" d="M112.664,-60.1401C135.17,-66.0585 161.576,-73.0027 181.355,-78.2041"/>
<polygon fill="midnightblue" stroke="midnightblue" points="113.525,-56.7475 102.963,-57.589 111.744,-63.5173 113.525,-56.7475"/>
</g>
<!-- Node3 -->
<g id="node3" class="node"><title>Node3</title>
<g id="a_node3"><a xlink:href="classotus_1_1Line.html" target="_top" xlink:title="otus::Line">
<polygon fill="none" stroke="black" points="180.5,-38.5 180.5,-57.5 243.5,-57.5 243.5,-38.5 180.5,-38.5"/>
<text text-anchor="middle" x="212" y="-45.5" font-family="Helvetica,sans-Serif" font-size="10.00">otus::Line</text>
</a>
</g>
</g>
<!-- Node1&#45;&gt;Node3 -->
<g id="edge2" class="edge"><title>Node1&#45;&gt;Node3</title>
<path fill="none" stroke="midnightblue" d="M141.218,-48C155.066,-48 168.793,-48 180.361,-48"/>
<polygon fill="midnightblue" stroke="midnightblue" points="141.142,-44.5001 131.142,-48 141.142,-51.5001 141.142,-44.5001"/>
</g>
<!-- Node4 -->
<g id="node4" class="node"><title>Node4</title>
<g id="a_node4"><a xlink:href="classotus_1_1Rectangle.html" target="_top" xlink:title="otus::Rectangle">
<polygon fill="none" stroke="black" points="167,-0.5 167,-19.5 257,-19.5 257,-0.5 167,-0.5"/>
<text text-anchor="middle" x="212" y="-7.5" font-family="Helvetica,sans-Serif" font-size="10.00">otus::Rectangle</text>
</a>
</g>
</g>
<!-- Node1&#45;&gt;Node4 -->
<g id="edge3" class="edge"><title>Node1&#45;&gt;Node4</title>
<path fill="none" stroke="midnightblue" d="M112.833,-35.8157C132.894,-30.54 156.029,-24.4562 174.799,-19.5201"/>
<polygon fill="midnightblue" stroke="midnightblue" points="111.744,-32.4827 102.963,-38.411 113.525,-39.2526 111.744,-32.4827"/>
</g>
</g>
</svg>
