<?xml version="1.0" encoding="UTF-8" standalone="no"?>
<!DOCTYPE svg PUBLIC "-//W3C//DTD SVG 1.1//EN"
 "http://www.w3.org/Graphics/SVG/1.1/DTD/svg11.dtd">
<!-- Generated by graphviz version 2.36.0 (20140111.2315)
 -->
<!-- Title: src/view/iview.h Pages: 1 -->
<svg width="138pt" height="196pt"
 viewBox="0.00 0.00 138.00 196.00" xmlns="http://www.w3.org/2000/svg" xmlns:xlink="http://www.w3.org/1999/xlink">
<g id="graph0" class="graph" transform="scale(1 1) rotate(0) translate(4 192)">
<title>src/view/iview.h</title>
<!-- Node1 -->
<g id="node1" class="node"><title>Node1</title>
<polygon fill="#bfbfbf" stroke="black" points="14.5,-168.5 14.5,-187.5 101.5,-187.5 101.5,-168.5 14.5,-168.5"/>
<text text-anchor="middle" x="58" y="-175.5" font-family="Helvetica,sans-Serif" font-size="10.00">src/view/iview.h</text>
</g>
<!-- Node2 -->
<g id="node2" class="node"><title>Node2</title>
<g id="a_node2"><a xlink:href="observe_8h.html" target="_top" xlink:title="File with declaration of observer pattern &#45; Observer and Observable. ">
<polygon fill="none" stroke="black" points="13.5,-112.5 13.5,-131.5 102.5,-131.5 102.5,-112.5 13.5,-112.5"/>
<text text-anchor="middle" x="58" y="-119.5" font-family="Helvetica,sans-Serif" font-size="10.00">../utils/observe.h</text>
</a>
</g>
</g>
<!-- Node1&#45;&gt;Node2 -->
<g id="edge1" class="edge"><title>Node1&#45;&gt;Node2</title>
<path fill="none" stroke="midnightblue" d="M58,-168.083C58,-161.006 58,-150.861 58,-141.986"/>
<polygon fill="midnightblue" stroke="midnightblue" points="61.5001,-141.751 58,-131.751 54.5001,-141.751 61.5001,-141.751"/>
</g>
<!-- Node3 -->
<g id="node3" class="node"><title>Node3</title>
<polygon fill="none" stroke="#bfbfbf" points="-0.5,-0.5 -0.5,-19.5 28.5,-19.5 28.5,-0.5 -0.5,-0.5"/>
<text text-anchor="middle" x="14" y="-7.5" font-family="Helvetica,sans-Serif" font-size="10.00">list</text>
</g>
<!-- Node2&#45;&gt;Node3 -->
<g id="edge2" class="edge"><title>Node2&#45;&gt;Node3</title>
<path fill="none" stroke="midnightblue" d="M48.2709,-112.424C39.5138,-104.075 27.1111,-90.5467 21,-76 14.88,-61.432 13.3462,-43.4855 13.2204,-30.1435"/>
<polygon fill="midnightblue" stroke="midnightblue" points="16.7255,-29.8615 13.3924,-19.8047 9.72642,-29.745 16.7255,-29.8615"/>
</g>
<!-- Node4 -->
<g id="node4" class="node"><title>Node4</title>
<polygon fill="none" stroke="#bfbfbf" points="71.5,-0.5 71.5,-19.5 130.5,-19.5 130.5,-0.5 71.5,-0.5"/>
<text text-anchor="middle" x="101" y="-7.5" font-family="Helvetica,sans-Serif" font-size="10.00">functional</text>
</g>
<!-- Node2&#45;&gt;Node4 -->
<g id="edge3" class="edge"><title>Node2&#45;&gt;Node4</title>
<path fill="none" stroke="midnightblue" d="M67.465,-112.37C75.9846,-103.983 88.0516,-90.4296 94,-76 100.022,-61.3913 101.565,-43.4484 101.719,-30.1181"/>
<polygon fill="midnightblue" stroke="midnightblue" points="105.214,-29.7408 101.574,-19.7908 98.2144,-29.8387 105.214,-29.7408"/>
</g>
<!-- Node5 -->
<g id="node5" class="node"><title>Node5</title>
<g id="a_node5"><a xlink:href="onclick_8h.html" target="_top" xlink:title="File with declaration of observer pattern classes. Two pairs of publishers and subscribers: OnClickLi...">
<polygon fill="none" stroke="black" points="30,-56.5 30,-75.5 86,-75.5 86,-56.5 30,-56.5"/>
<text text-anchor="middle" x="58" y="-63.5" font-family="Helvetica,sans-Serif" font-size="10.00">onclick.h</text>
</a>
</g>
</g>
<!-- Node2&#45;&gt;Node5 -->
<g id="edge4" class="edge"><title>Node2&#45;&gt;Node5</title>
<path fill="none" stroke="midnightblue" d="M58,-112.083C58,-105.006 58,-94.8611 58,-85.9865"/>
<polygon fill="midnightblue" stroke="midnightblue" points="61.5001,-85.751 58,-75.7511 54.5001,-85.7511 61.5001,-85.751"/>
</g>
<!-- Node5&#45;&gt;Node3 -->
<g id="edge5" class="edge"><title>Node5&#45;&gt;Node3</title>
<path fill="none" stroke="midnightblue" d="M50.7343,-56.083C44.4552,-48.3768 35.2124,-37.0333 27.5692,-27.6531"/>
<polygon fill="midnightblue" stroke="midnightblue" points="30.1606,-25.2926 21.1305,-19.7511 24.7339,-29.7143 30.1606,-25.2926"/>
</g>
<!-- Node5&#45;&gt;Node4 -->
<g id="edge6" class="edge"><title>Node5&#45;&gt;Node4</title>
<path fill="none" stroke="midnightblue" d="M65.1006,-56.083C71.237,-48.3768 80.2697,-37.0333 87.7392,-27.6531"/>
<polygon fill="midnightblue" stroke="midnightblue" points="90.5402,-29.7542 94.0315,-19.7511 85.0643,-25.3936 90.5402,-29.7542"/>
</g>
</g>
</svg>
