<?xml version="1.0" encoding="UTF-8" standalone="no"?>
<!DOCTYPE svg PUBLIC "-//W3C//DTD SVG 1.1//EN"
 "http://www.w3.org/Graphics/SVG/1.1/DTD/svg11.dtd">
<!-- Generated by graphviz version 2.36.0 (20140111.2315)
 -->
<!-- Title: src/view/iview.cpp Pages: 1 -->
<svg width="104pt" height="196pt"
 viewBox="0.00 0.00 104.00 196.00" xmlns="http://www.w3.org/2000/svg" xmlns:xlink="http://www.w3.org/1999/xlink">
<g id="graph0" class="graph" transform="scale(1 1) rotate(0) translate(4 192)">
<title>src/view/iview.cpp</title>
<!-- Node1 -->
<g id="node1" class="node"><title>Node1</title>
<polygon fill="#bfbfbf" stroke="black" points="-1,-168.5 -1,-187.5 97,-187.5 97,-168.5 -1,-168.5"/>
<text text-anchor="middle" x="48" y="-175.5" font-family="Helvetica,sans-Serif" font-size="10.00">src/view/iview.cpp</text>
</g>
<!-- Node2 -->
<g id="node2" class="node"><title>Node2</title>
<g id="a_node2"><a xlink:href="iview_8h.html" target="_top" xlink:title="File with interface of abstract view (V from MVC). ">
<polygon fill="none" stroke="black" points="24.5,-112.5 24.5,-131.5 71.5,-131.5 71.5,-112.5 24.5,-112.5"/>
<text text-anchor="middle" x="48" y="-119.5" font-family="Helvetica,sans-Serif" font-size="10.00">iview.h</text>
</a>
</g>
</g>
<!-- Node1&#45;&gt;Node2 -->
<g id="edge1" class="edge"><title>Node1&#45;&gt;Node2</title>
<path fill="none" stroke="midnightblue" d="M48,-168.083C48,-161.006 48,-150.861 48,-141.986"/>
<polygon fill="midnightblue" stroke="midnightblue" points="51.5001,-141.751 48,-131.751 44.5001,-141.751 51.5001,-141.751"/>
</g>
<!-- Node3 -->
<g id="node3" class="node"><title>Node3</title>
<g id="a_node3"><a xlink:href="observe_8h.html" target="_top" xlink:title="File with declaration of observer pattern &#45; Observer and Observable. ">
<polygon fill="none" stroke="black" points="3.5,-56.5 3.5,-75.5 92.5,-75.5 92.5,-56.5 3.5,-56.5"/>
<text text-anchor="middle" x="48" y="-63.5" font-family="Helvetica,sans-Serif" font-size="10.00">../utils/observe.h</text>
</a>
</g>
</g>
<!-- Node2&#45;&gt;Node3 -->
<g id="edge2" class="edge"><title>Node2&#45;&gt;Node3</title>
<path fill="none" stroke="midnightblue" d="M48,-112.083C48,-105.006 48,-94.8611 48,-85.9865"/>
<polygon fill="midnightblue" stroke="midnightblue" points="51.5001,-85.751 48,-75.7511 44.5001,-85.7511 51.5001,-85.751"/>
</g>
<!-- Node4 -->
<g id="node4" class="node"><title>Node4</title>
<polygon fill="none" stroke="#bfbfbf" points="33.5,-0.5 33.5,-19.5 62.5,-19.5 62.5,-0.5 33.5,-0.5"/>
<text text-anchor="middle" x="48" y="-7.5" font-family="Helvetica,sans-Serif" font-size="10.00">list</text>
</g>
<!-- Node3&#45;&gt;Node4 -->
<g id="edge3" class="edge"><title>Node3&#45;&gt;Node4</title>
<path fill="none" stroke="midnightblue" d="M48,-56.083C48,-49.0059 48,-38.8611 48,-29.9865"/>
<polygon fill="midnightblue" stroke="midnightblue" points="51.5001,-29.751 48,-19.7511 44.5001,-29.7511 51.5001,-29.751"/>
</g>
</g>
</svg>
