<?xml version="1.0" encoding="UTF-8" standalone="no"?>
<!DOCTYPE svg PUBLIC "-//W3C//DTD SVG 1.1//EN"
 "http://www.w3.org/Graphics/SVG/1.1/DTD/svg11.dtd">
<!-- Generated by graphviz version 2.36.0 (20140111.2315)
 -->
<!-- Title: src/view/iview.h Pages: 1 -->
<svg width="373pt" height="140pt"
 viewBox="0.00 0.00 373.00 140.00" xmlns="http://www.w3.org/2000/svg" xmlns:xlink="http://www.w3.org/1999/xlink">
<g id="graph0" class="graph" transform="scale(1 1) rotate(0) translate(4 136)">
<title>src/view/iview.h</title>
<!-- Node1 -->
<g id="node1" class="node"><title>Node1</title>
<polygon fill="#bfbfbf" stroke="black" points="79.5,-112.5 79.5,-131.5 166.5,-131.5 166.5,-112.5 79.5,-112.5"/>
<text text-anchor="middle" x="123" y="-119.5" font-family="Helvetica,sans-Serif" font-size="10.00">src/view/iview.h</text>
</g>
<!-- Node2 -->
<g id="node2" class="node"><title>Node2</title>
<g id="a_node2"><a xlink:href="controller_8h.html" target="_top" xlink:title="File with controller (from MVC) declaration. ">
<polygon fill="none" stroke="black" points="0,-56.5 0,-75.5 124,-75.5 124,-56.5 0,-56.5"/>
<text text-anchor="middle" x="62" y="-63.5" font-family="Helvetica,sans-Serif" font-size="10.00">src/controller/controller.h</text>
</a>
</g>
</g>
<!-- Node1&#45;&gt;Node2 -->
<g id="edge1" class="edge"><title>Node1&#45;&gt;Node2</title>
<path fill="none" stroke="midnightblue" d="M105.533,-105.537C94.6562,-95.9087 81.0561,-83.8694 71.979,-75.8339"/>
<polygon fill="midnightblue" stroke="midnightblue" points="103.392,-108.316 113.199,-112.324 108.032,-103.075 103.392,-108.316"/>
</g>
<!-- Node5 -->
<g id="node5" class="node"><title>Node5</title>
<g id="a_node5"><a xlink:href="view_8h.html" target="_top" xlink:title="File with declaration of view (V from MVC). ">
<polygon fill="none" stroke="black" points="142.5,-56.5 142.5,-75.5 227.5,-75.5 227.5,-56.5 142.5,-56.5"/>
<text text-anchor="middle" x="185" y="-63.5" font-family="Helvetica,sans-Serif" font-size="10.00">src/view/view.h</text>
</a>
</g>
</g>
<!-- Node1&#45;&gt;Node5 -->
<g id="edge4" class="edge"><title>Node1&#45;&gt;Node5</title>
<path fill="none" stroke="midnightblue" d="M140.754,-105.537C151.808,-95.9087 165.631,-83.8694 174.857,-75.8339"/>
<polygon fill="midnightblue" stroke="midnightblue" points="138.203,-103.117 132.961,-112.324 142.801,-108.395 138.203,-103.117"/>
</g>
<!-- Node3 -->
<g id="node3" class="node"><title>Node3</title>
<g id="a_node3"><a xlink:href="controller_8cpp.html" target="_top" xlink:title="File with controller (from MVC) implementation. ">
<polygon fill="none" stroke="black" points="118,-0.5 118,-19.5 252,-19.5 252,-0.5 118,-0.5"/>
<text text-anchor="middle" x="185" y="-7.5" font-family="Helvetica,sans-Serif" font-size="10.00">src/controller/controller.cpp</text>
</a>
</g>
</g>
<!-- Node2&#45;&gt;Node3 -->
<g id="edge2" class="edge"><title>Node2&#45;&gt;Node3</title>
<path fill="none" stroke="midnightblue" d="M90.7734,-52.3678C113.807,-42.2553 145.484,-28.3486 165.601,-19.5164"/>
<polygon fill="midnightblue" stroke="midnightblue" points="89.2392,-49.2188 81.4897,-56.4435 92.0532,-55.6283 89.2392,-49.2188"/>
</g>
<!-- Node4 -->
<g id="node4" class="node"><title>Node4</title>
<g id="a_node4"><a xlink:href="tester_8cpp.html" target="_top" xlink:title="File with tester class for the whole programm. ">
<polygon fill="none" stroke="black" points="22.5,-0.5 22.5,-19.5 99.5,-19.5 99.5,-0.5 22.5,-0.5"/>
<text text-anchor="middle" x="61" y="-7.5" font-family="Helvetica,sans-Serif" font-size="10.00">src/tester.cpp</text>
</a>
</g>
</g>
<!-- Node2&#45;&gt;Node4 -->
<g id="edge3" class="edge"><title>Node2&#45;&gt;Node4</title>
<path fill="none" stroke="midnightblue" d="M61.6445,-45.8045C61.4798,-36.9102 61.2922,-26.7798 61.1621,-19.7511"/>
<polygon fill="midnightblue" stroke="midnightblue" points="58.1502,-46.1495 61.8349,-56.083 65.149,-46.0199 58.1502,-46.1495"/>
</g>
<!-- Node5&#45;&gt;Node3 -->
<g id="edge5" class="edge"><title>Node5&#45;&gt;Node3</title>
<path fill="none" stroke="midnightblue" d="M185,-45.8045C185,-36.9102 185,-26.7798 185,-19.7511"/>
<polygon fill="midnightblue" stroke="midnightblue" points="181.5,-46.083 185,-56.083 188.5,-46.083 181.5,-46.083"/>
</g>
<!-- Node5&#45;&gt;Node4 -->
<g id="edge6" class="edge"><title>Node5&#45;&gt;Node4</title>
<path fill="none" stroke="midnightblue" d="M155.993,-52.3678C132.771,-42.2553 100.837,-28.3486 80.5562,-19.5164"/>
<polygon fill="midnightblue" stroke="midnightblue" points="154.786,-55.6597 165.352,-56.4435 157.581,-49.2419 154.786,-55.6597"/>
</g>
<!-- Node6 -->
<g id="node6" class="node"><title>Node6</title>
<g id="a_node6"><a xlink:href="view_8cpp.html" target="_top" xlink:title="File with implementation of view (V from MVC). ">
<polygon fill="none" stroke="black" points="270.5,-0.5 270.5,-19.5 365.5,-19.5 365.5,-0.5 270.5,-0.5"/>
<text text-anchor="middle" x="318" y="-7.5" font-family="Helvetica,sans-Serif" font-size="10.00">src/view/view.cpp</text>
</a>
</g>
</g>
<!-- Node5&#45;&gt;Node6 -->
<g id="edge7" class="edge"><title>Node5&#45;&gt;Node6</title>
<path fill="none" stroke="midnightblue" d="M215.448,-52.6377C240.407,-42.504 275.077,-28.4274 297.024,-19.5164"/>
<polygon fill="midnightblue" stroke="midnightblue" points="214.023,-49.4387 206.074,-56.4435 216.656,-55.9245 214.023,-49.4387"/>
</g>
</g>
</svg>
