<?xml version="1.0" encoding="UTF-8" standalone="no"?>
<!DOCTYPE svg PUBLIC "-//W3C//DTD SVG 1.1//EN"
 "http://www.w3.org/Graphics/SVG/1.1/DTD/svg11.dtd">
<!-- Generated by graphviz version 2.38.0 (20140413.2041)
 -->
<!-- Title: src/view/iview.h Pages: 1 -->
<svg width="144pt" height="196pt"
 viewBox="0.00 0.00 143.50 196.00" xmlns="http://www.w3.org/2000/svg" xmlns:xlink="http://www.w3.org/1999/xlink">
<g id="graph0" class="graph" transform="scale(1 1) rotate(0) translate(4 192)">
<title>src/view/iview.h</title>
<!-- Node1 -->
<g id="node1" class="node"><title>Node1</title>
<polygon fill="#bfbfbf" stroke="black" points="16,-168.5 16,-187.5 104,-187.5 104,-168.5 16,-168.5"/>
<text text-anchor="middle" x="60" y="-175.5" font-family="Helvetica,sans-Serif" font-size="10.00">src/view/iview.h</text>
</g>
<!-- Node2 -->
<g id="node2" class="node"><title>Node2</title>
<g id="a_node2"><a xlink:href="observe_8h.html" target="_top" xlink:title="File with declaration of observer pattern &#45; Observer and Observable. ">
<polygon fill="none" stroke="black" points="12.5,-112.5 12.5,-131.5 107.5,-131.5 107.5,-112.5 12.5,-112.5"/>
<text text-anchor="middle" x="60" y="-119.5" font-family="Helvetica,sans-Serif" font-size="10.00">../utils/observe.h</text>
</a>
</g>
</g>
<!-- Node1&#45;&gt;Node2 -->
<g id="edge1" class="edge"><title>Node1&#45;&gt;Node2</title>
<path fill="none" stroke="midnightblue" d="M60,-168.083C60,-161.006 60,-150.861 60,-141.986"/>
<polygon fill="midnightblue" stroke="midnightblue" points="63.5001,-141.751 60,-131.751 56.5001,-141.751 63.5001,-141.751"/>
</g>
<!-- Node3 -->
<g id="node3" class="node"><title>Node3</title>
<polygon fill="none" stroke="#bfbfbf" points="0,-0.5 0,-19.5 30,-19.5 30,-0.5 0,-0.5"/>
<text text-anchor="middle" x="15" y="-7.5" font-family="Helvetica,sans-Serif" font-size="10.00">list</text>
</g>
<!-- Node2&#45;&gt;Node3 -->
<g id="edge2" class="edge"><title>Node2&#45;&gt;Node3</title>
<path fill="none" stroke="midnightblue" d="M50.0072,-112.478C41.0128,-104.168 28.2745,-90.6657 22,-76 15.7846,-61.4725 14.2592,-43.5224 14.1608,-30.1687"/>
<polygon fill="midnightblue" stroke="midnightblue" points="17.6668,-29.8839 14.3598,-19.8185 10.6681,-29.7494 17.6668,-29.8839"/>
</g>
<!-- Node4 -->
<g id="node4" class="node"><title>Node4</title>
<polygon fill="none" stroke="#bfbfbf" points="72.5,-0.5 72.5,-19.5 135.5,-19.5 135.5,-0.5 72.5,-0.5"/>
<text text-anchor="middle" x="104" y="-7.5" font-family="Helvetica,sans-Serif" font-size="10.00">functional</text>
</g>
<!-- Node2&#45;&gt;Node4 -->
<g id="edge3" class="edge"><title>Node2&#45;&gt;Node4</title>
<path fill="none" stroke="midnightblue" d="M70.3932,-112.179C79.4008,-103.859 91.9164,-90.5245 98,-76 104.095,-61.4477 105.336,-43.4998 105.199,-30.1533"/>
<polygon fill="midnightblue" stroke="midnightblue" points="108.683,-29.672 104.811,-19.81 101.688,-29.9341 108.683,-29.672"/>
</g>
<!-- Node5 -->
<g id="node5" class="node"><title>Node5</title>
<g id="a_node5"><a xlink:href="onclick_8h.html" target="_top" xlink:title="File with declaration of observer pattern classes. Two pairs of publishers and subscribers: OnClickLi...">
<polygon fill="none" stroke="black" points="31,-56.5 31,-75.5 89,-75.5 89,-56.5 31,-56.5"/>
<text text-anchor="middle" x="60" y="-63.5" font-family="Helvetica,sans-Serif" font-size="10.00">onclick.h</text>
</a>
</g>
</g>
<!-- Node2&#45;&gt;Node5 -->
<g id="edge4" class="edge"><title>Node2&#45;&gt;Node5</title>
<path fill="none" stroke="midnightblue" d="M60,-112.083C60,-105.006 60,-94.8611 60,-85.9865"/>
<polygon fill="midnightblue" stroke="midnightblue" points="63.5001,-85.751 60,-75.7511 56.5001,-85.7511 63.5001,-85.751"/>
</g>
<!-- Node5&#45;&gt;Node3 -->
<g id="edge5" class="edge"><title>Node5&#45;&gt;Node3</title>
<path fill="none" stroke="midnightblue" d="M52.5692,-56.083C46.1473,-48.3768 36.6944,-37.0333 28.8775,-27.6531"/>
<polygon fill="midnightblue" stroke="midnightblue" points="31.3832,-25.1927 22.2926,-19.7511 26.0057,-29.674 31.3832,-25.1927"/>
</g>
<!-- Node5&#45;&gt;Node4 -->
<g id="edge6" class="edge"><title>Node5&#45;&gt;Node4</title>
<path fill="none" stroke="midnightblue" d="M67.2657,-56.083C73.5448,-48.3768 82.7876,-37.0333 90.4308,-27.6531"/>
<polygon fill="midnightblue" stroke="midnightblue" points="93.2661,-29.7143 96.8695,-19.7511 87.8394,-25.2926 93.2661,-29.7143"/>
</g>
</g>
</svg>
