<?xml version="1.0" encoding="UTF-8" standalone="no"?>
<!DOCTYPE svg PUBLIC "-//W3C//DTD SVG 1.1//EN"
 "http://www.w3.org/Graphics/SVG/1.1/DTD/svg11.dtd">
<!-- Generated by graphviz version 2.38.0 (20140413.2041)
 -->
<!-- Title: src/view/iview.h Pages: 1 -->
<svg width="393pt" height="140pt"
 viewBox="0.00 0.00 393.00 140.00" xmlns="http://www.w3.org/2000/svg" xmlns:xlink="http://www.w3.org/1999/xlink">
<g id="graph0" class="graph" transform="scale(1 1) rotate(0) translate(4 136)">
<title>src/view/iview.h</title>
<!-- Node1 -->
<g id="node1" class="node"><title>Node1</title>
<polygon fill="#bfbfbf" stroke="black" points="87.5,-112.5 87.5,-131.5 175.5,-131.5 175.5,-112.5 87.5,-112.5"/>
<text text-anchor="middle" x="131.5" y="-119.5" font-family="Helvetica,sans-Serif" font-size="10.00">src/view/iview.h</text>
</g>
<!-- Node2 -->
<g id="node2" class="node"><title>Node2</title>
<g id="a_node2"><a xlink:href="controller_8h.html" target="_top" xlink:title="File with controller (from MVC) declaration. ">
<polygon fill="none" stroke="black" points="0,-56.5 0,-75.5 135,-75.5 135,-56.5 0,-56.5"/>
<text text-anchor="middle" x="67.5" y="-63.5" font-family="Helvetica,sans-Serif" font-size="10.00">src/controller/controller.h</text>
</a>
</g>
</g>
<!-- Node1&#45;&gt;Node2 -->
<g id="edge1" class="edge"><title>Node1&#45;&gt;Node2</title>
<path fill="none" stroke="midnightblue" d="M113.509,-105.82C102.042,-96.1452 87.5867,-83.9481 77.9698,-75.8339"/>
<polygon fill="midnightblue" stroke="midnightblue" points="111.317,-108.55 121.217,-112.324 115.831,-103.2 111.317,-108.55"/>
</g>
<!-- Node5 -->
<g id="node5" class="node"><title>Node5</title>
<g id="a_node5"><a xlink:href="view_8h.html" target="_top" xlink:title="File with declaration of view (V from MVC). ">
<polygon fill="none" stroke="black" points="153.5,-56.5 153.5,-75.5 239.5,-75.5 239.5,-56.5 153.5,-56.5"/>
<text text-anchor="middle" x="196.5" y="-63.5" font-family="Helvetica,sans-Serif" font-size="10.00">src/view/view.h</text>
</a>
</g>
</g>
<!-- Node1&#45;&gt;Node5 -->
<g id="edge4" class="edge"><title>Node1&#45;&gt;Node5</title>
<path fill="none" stroke="midnightblue" d="M149.773,-105.82C161.418,-96.1452 176.099,-83.9481 185.867,-75.8339"/>
<polygon fill="midnightblue" stroke="midnightblue" points="147.399,-103.242 141.943,-112.324 151.872,-108.626 147.399,-103.242"/>
</g>
<!-- Node3 -->
<g id="node3" class="node"><title>Node3</title>
<g id="a_node3"><a xlink:href="controller_8cpp.html" target="_top" xlink:title="File with controller (from MVC) implementation. ">
<polygon fill="none" stroke="black" points="123.5,-0.5 123.5,-19.5 269.5,-19.5 269.5,-0.5 123.5,-0.5"/>
<text text-anchor="middle" x="196.5" y="-7.5" font-family="Helvetica,sans-Serif" font-size="10.00">src/controller/controller.cpp</text>
</a>
</g>
</g>
<!-- Node2&#45;&gt;Node3 -->
<g id="edge2" class="edge"><title>Node2&#45;&gt;Node3</title>
<path fill="none" stroke="midnightblue" d="M97.354,-52.503C121.538,-42.3795 154.962,-28.388 176.155,-19.5164"/>
<polygon fill="midnightblue" stroke="midnightblue" points="95.8133,-49.3536 87.9404,-56.4435 98.5164,-55.8106 95.8133,-49.3536"/>
</g>
<!-- Node4 -->
<g id="node4" class="node"><title>Node4</title>
<g id="a_node4"><a xlink:href="tester_8cpp.html" target="_top" xlink:title="File with tester class for the whole programm. ">
<polygon fill="none" stroke="black" points="23.5,-0.5 23.5,-19.5 105.5,-19.5 105.5,-0.5 23.5,-0.5"/>
<text text-anchor="middle" x="64.5" y="-7.5" font-family="Helvetica,sans-Serif" font-size="10.00">src/tester.cpp</text>
</a>
</g>
</g>
<!-- Node2&#45;&gt;Node4 -->
<g id="edge3" class="edge"><title>Node2&#45;&gt;Node4</title>
<path fill="none" stroke="midnightblue" d="M66.4336,-45.8045C65.9395,-36.9102 65.3767,-26.7798 64.9862,-19.7511"/>
<polygon fill="midnightblue" stroke="midnightblue" points="62.9552,-46.2926 67.0046,-56.083 69.9444,-45.9042 62.9552,-46.2926"/>
</g>
<!-- Node5&#45;&gt;Node3 -->
<g id="edge5" class="edge"><title>Node5&#45;&gt;Node3</title>
<path fill="none" stroke="midnightblue" d="M196.5,-45.8045C196.5,-36.9102 196.5,-26.7798 196.5,-19.7511"/>
<polygon fill="midnightblue" stroke="midnightblue" points="193,-46.083 196.5,-56.083 200,-46.083 193,-46.083"/>
</g>
<!-- Node5&#45;&gt;Node4 -->
<g id="edge6" class="edge"><title>Node5&#45;&gt;Node4</title>
<path fill="none" stroke="midnightblue" d="M166.281,-52.6377C141.51,-42.504 107.1,-28.4274 85.3179,-19.5164"/>
<polygon fill="midnightblue" stroke="midnightblue" points="165.003,-55.8966 175.584,-56.4435 167.654,-49.4177 165.003,-55.8966"/>
</g>
<!-- Node6 -->
<g id="node6" class="node"><title>Node6</title>
<g id="a_node6"><a xlink:href="view_8cpp.html" target="_top" xlink:title="File with implementation of view (V from MVC). ">
<polygon fill="none" stroke="black" points="288,-0.5 288,-19.5 385,-19.5 385,-0.5 288,-0.5"/>
<text text-anchor="middle" x="336.5" y="-7.5" font-family="Helvetica,sans-Serif" font-size="10.00">src/view/view.cpp</text>
</a>
</g>
</g>
<!-- Node5&#45;&gt;Node6 -->
<g id="edge7" class="edge"><title>Node5&#45;&gt;Node6</title>
<path fill="none" stroke="midnightblue" d="M228.202,-52.772C254.5,-42.6287 291.216,-28.4669 314.42,-19.5164"/>
<polygon fill="midnightblue" stroke="midnightblue" points="226.754,-49.5792 218.683,-56.4435 229.273,-56.1103 226.754,-49.5792"/>
</g>
</g>
</svg>
