<?xml version="1.0" encoding="UTF-8" standalone="no"?>
<!DOCTYPE svg PUBLIC "-//W3C//DTD SVG 1.1//EN"
 "http://www.w3.org/Graphics/SVG/1.1/DTD/svg11.dtd">
<!-- Generated by graphviz version 2.38.0 (20140413.2041)
 -->
<!-- Title: src/utils/logger.h Pages: 1 -->
<svg width="667pt" height="308pt"
 viewBox="0.00 0.00 666.50 308.00" xmlns="http://www.w3.org/2000/svg" xmlns:xlink="http://www.w3.org/1999/xlink">
<g id="graph0" class="graph" transform="scale(1 1) rotate(0) translate(4 304)">
<title>src/utils/logger.h</title>
<!-- Node1 -->
<g id="node1" class="node"><title>Node1</title>
<polygon fill="#bfbfbf" stroke="black" points="405,-280.5 405,-299.5 500,-299.5 500,-280.5 405,-280.5"/>
<text text-anchor="middle" x="452.5" y="-287.5" font-family="Helvetica,sans-Serif" font-size="10.00">src/utils/logger.h</text>
</g>
<!-- Node2 -->
<g id="node2" class="node"><title>Node2</title>
<g id="a_node2"><a xlink:href="geometry__elements_8h.html" target="_top" xlink:title="File with declaration of geometry element classes. ">
<polygon fill="none" stroke="black" points="230,-224.5 230,-243.5 393,-243.5 393,-224.5 230,-224.5"/>
<text text-anchor="middle" x="311.5" y="-231.5" font-family="Helvetica,sans-Serif" font-size="10.00">src/view/geometry_elements.h</text>
</a>
</g>
</g>
<!-- Node1&#45;&gt;Node2 -->
<g id="edge1" class="edge"><title>Node1&#45;&gt;Node2</title>
<path fill="none" stroke="midnightblue" d="M420.571,-276.772C394.086,-266.629 357.108,-252.467 333.737,-243.516"/>
<polygon fill="midnightblue" stroke="midnightblue" points="419.568,-280.136 430.158,-280.444 422.071,-273.599 419.568,-280.136"/>
</g>
<!-- Node14 -->
<g id="node14" class="node"><title>Node14</title>
<g id="a_node14"><a xlink:href="geomfactory_8h.html" target="_top" xlink:title="File with interface of abstract geometry factory and declaration of standard geometry factory...">
<polygon fill="none" stroke="black" points="406,-168.5 406,-187.5 531,-187.5 531,-168.5 406,-168.5"/>
<text text-anchor="middle" x="468.5" y="-175.5" font-family="Helvetica,sans-Serif" font-size="10.00">src/utils/geomfactory.h</text>
</a>
</g>
</g>
<!-- Node1&#45;&gt;Node14 -->
<g id="edge24" class="edge"><title>Node1&#45;&gt;Node14</title>
<path fill="none" stroke="midnightblue" d="M455.213,-270.348C458.718,-246.254 464.673,-205.308 467.25,-187.591"/>
<polygon fill="midnightblue" stroke="midnightblue" points="451.731,-269.969 453.755,-280.368 458.659,-270.976 451.731,-269.969"/>
</g>
<!-- Node17 -->
<g id="node17" class="node"><title>Node17</title>
<g id="a_node17"><a xlink:href="logger_8cpp.html" target="_top" xlink:title="File with implementation of logger. ">
<polygon fill="none" stroke="black" points="480.5,-224.5 480.5,-243.5 586.5,-243.5 586.5,-224.5 480.5,-224.5"/>
<text text-anchor="middle" x="533.5" y="-231.5" font-family="Helvetica,sans-Serif" font-size="10.00">src/utils/logger.cpp</text>
</a>
</g>
</g>
<!-- Node1&#45;&gt;Node17 -->
<g id="edge25" class="edge"><title>Node1&#45;&gt;Node17</title>
<path fill="none" stroke="midnightblue" d="M474.067,-274.622C488.864,-264.757 508.012,-251.992 520.518,-243.655"/>
<polygon fill="midnightblue" stroke="midnightblue" points="471.893,-271.865 465.514,-280.324 475.776,-277.689 471.893,-271.865"/>
</g>
<!-- Node3 -->
<g id="node3" class="node"><title>Node3</title>
<g id="a_node3"><a xlink:href="icontroller_8h.html" target="_top" xlink:title="File with interface of abstract controller (from MVC). ">
<polygon fill="none" stroke="black" points="50,-112.5 50,-131.5 187,-131.5 187,-112.5 50,-112.5"/>
<text text-anchor="middle" x="118.5" y="-119.5" font-family="Helvetica,sans-Serif" font-size="10.00">src/controller/icontroller.h</text>
</a>
</g>
</g>
<!-- Node2&#45;&gt;Node3 -->
<g id="edge2" class="edge"><title>Node2&#45;&gt;Node3</title>
<path fill="none" stroke="midnightblue" d="M219.646,-230.103C150.298,-225.752 63.3162,-214.917 40.5,-188 20.6677,-164.603 63.829,-142.983 93.514,-131.533"/>
<polygon fill="midnightblue" stroke="midnightblue" points="219.55,-233.603 229.739,-230.699 219.963,-226.615 219.55,-233.603"/>
</g>
<!-- Node9 -->
<g id="node9" class="node"><title>Node9</title>
<g id="a_node9"><a xlink:href="imodel_8h.html" target="_top" xlink:title="File with interface of abstract model (from MVC). ">
<polygon fill="none" stroke="black" points="241.5,-168.5 241.5,-187.5 349.5,-187.5 349.5,-168.5 241.5,-168.5"/>
<text text-anchor="middle" x="295.5" y="-175.5" font-family="Helvetica,sans-Serif" font-size="10.00">src/model/imodel.h</text>
</a>
</g>
</g>
<!-- Node2&#45;&gt;Node9 -->
<g id="edge10" class="edge"><title>Node2&#45;&gt;Node9</title>
<path fill="none" stroke="midnightblue" d="M305.988,-214.396C303.311,-205.362 300.222,-194.936 298.093,-187.751"/>
<polygon fill="midnightblue" stroke="midnightblue" points="302.661,-215.489 308.858,-224.083 309.373,-213.501 302.661,-215.489"/>
</g>
<!-- Node12 -->
<g id="node12" class="node"><title>Node12</title>
<g id="a_node12"><a xlink:href="view__elements_8h.html" target="_top" xlink:title="File with declaration of button and canvas classes. ">
<polygon fill="none" stroke="black" points="205,-112.5 205,-131.5 342,-131.5 342,-112.5 205,-112.5"/>
<text text-anchor="middle" x="273.5" y="-119.5" font-family="Helvetica,sans-Serif" font-size="10.00">src/view/view_elements.h</text>
</a>
</g>
</g>
<!-- Node2&#45;&gt;Node12 -->
<g id="edge16" class="edge"><title>Node2&#45;&gt;Node12</title>
<path fill="none" stroke="midnightblue" d="M334.015,-218.405C350.905,-205.541 369.388,-186.084 358.5,-168 347.39,-149.547 325.893,-138.265 307.299,-131.612"/>
<polygon fill="midnightblue" stroke="midnightblue" points="331.597,-215.83 325.492,-224.489 335.664,-221.527 331.597,-215.83"/>
</g>
<!-- Node2&#45;&gt;Node14 -->
<g id="edge20" class="edge"><title>Node2&#45;&gt;Node14</title>
<path fill="none" stroke="midnightblue" d="M345.889,-221.172C375.452,-211.004 417.373,-196.585 443.739,-187.516"/>
<polygon fill="midnightblue" stroke="midnightblue" points="344.695,-217.881 336.377,-224.444 346.972,-224.501 344.695,-217.881"/>
</g>
<!-- Node16 -->
<g id="node16" class="node"><title>Node16</title>
<g id="a_node16"><a xlink:href="geometry__elements_8cpp.html" target="_top" xlink:title="File with implementation of geometry element classes. ">
<polygon fill="none" stroke="black" points="49.5,-168.5 49.5,-187.5 223.5,-187.5 223.5,-168.5 49.5,-168.5"/>
<text text-anchor="middle" x="136.5" y="-175.5" font-family="Helvetica,sans-Serif" font-size="10.00">src/view/geometry_elements.cpp</text>
</a>
</g>
</g>
<!-- Node2&#45;&gt;Node16 -->
<g id="edge23" class="edge"><title>Node2&#45;&gt;Node16</title>
<path fill="none" stroke="midnightblue" d="M274.025,-221.436C241.03,-211.255 193.744,-196.664 164.1,-187.516"/>
<polygon fill="midnightblue" stroke="midnightblue" points="273.183,-224.839 283.771,-224.444 275.247,-218.151 273.183,-224.839"/>
</g>
<!-- Node4 -->
<g id="node4" class="node"><title>Node4</title>
<g id="a_node4"><a xlink:href="controller_8h.html" target="_top" xlink:title="File with controller (from MVC) declaration. ">
<polygon fill="none" stroke="black" points="276,-56.5 276,-75.5 411,-75.5 411,-56.5 276,-56.5"/>
<text text-anchor="middle" x="343.5" y="-63.5" font-family="Helvetica,sans-Serif" font-size="10.00">src/controller/controller.h</text>
</a>
</g>
</g>
<!-- Node3&#45;&gt;Node4 -->
<g id="edge3" class="edge"><title>Node3&#45;&gt;Node4</title>
<path fill="none" stroke="midnightblue" d="M163.965,-110.088C206.473,-99.8865 269.079,-84.8612 308.015,-75.5164"/>
<polygon fill="midnightblue" stroke="midnightblue" points="163.059,-106.706 154.152,-112.444 164.693,-113.513 163.059,-106.706"/>
</g>
<!-- Node7 -->
<g id="node7" class="node"><title>Node7</title>
<g id="a_node7"><a xlink:href="view_8h.html" target="_top" xlink:title="File with declaration of view (V from MVC). ">
<polygon fill="none" stroke="black" points="5.5,-56.5 5.5,-75.5 91.5,-75.5 91.5,-56.5 5.5,-56.5"/>
<text text-anchor="middle" x="48.5" y="-63.5" font-family="Helvetica,sans-Serif" font-size="10.00">src/view/view.h</text>
</a>
</g>
</g>
<!-- Node3&#45;&gt;Node7 -->
<g id="edge6" class="edge"><title>Node3&#45;&gt;Node7</title>
<path fill="none" stroke="midnightblue" d="M99.1862,-106.101C86.5883,-96.3824 70.5719,-84.0269 59.9513,-75.8339"/>
<polygon fill="midnightblue" stroke="midnightblue" points="97.1976,-108.987 107.253,-112.324 101.473,-103.445 97.1976,-108.987"/>
</g>
<!-- Node5 -->
<g id="node5" class="node"><title>Node5</title>
<g id="a_node5"><a xlink:href="controller_8cpp.html" target="_top" xlink:title="File with controller (from MVC) implementation. ">
<polygon fill="none" stroke="black" points="127.5,-0.5 127.5,-19.5 273.5,-19.5 273.5,-0.5 127.5,-0.5"/>
<text text-anchor="middle" x="200.5" y="-7.5" font-family="Helvetica,sans-Serif" font-size="10.00">src/controller/controller.cpp</text>
</a>
</g>
</g>
<!-- Node4&#45;&gt;Node5 -->
<g id="edge4" class="edge"><title>Node4&#45;&gt;Node5</title>
<path fill="none" stroke="midnightblue" d="M311.473,-52.9058C284.588,-42.7536 246.859,-28.5063 223.053,-19.5164"/>
<polygon fill="midnightblue" stroke="midnightblue" points="310.25,-56.1851 320.841,-56.4435 312.722,-49.6364 310.25,-56.1851"/>
</g>
<!-- Node6 -->
<g id="node6" class="node"><title>Node6</title>
<g id="a_node6"><a xlink:href="tester_8cpp.html" target="_top" xlink:title="File with tester class for the whole programm. ">
<polygon fill="none" stroke="black" points="302.5,-0.5 302.5,-19.5 384.5,-19.5 384.5,-0.5 302.5,-0.5"/>
<text text-anchor="middle" x="343.5" y="-7.5" font-family="Helvetica,sans-Serif" font-size="10.00">src/tester.cpp</text>
</a>
</g>
</g>
<!-- Node4&#45;&gt;Node6 -->
<g id="edge5" class="edge"><title>Node4&#45;&gt;Node6</title>
<path fill="none" stroke="midnightblue" d="M343.5,-45.8045C343.5,-36.9102 343.5,-26.7798 343.5,-19.7511"/>
<polygon fill="midnightblue" stroke="midnightblue" points="340,-46.083 343.5,-56.083 347,-46.083 340,-46.083"/>
</g>
<!-- Node7&#45;&gt;Node5 -->
<g id="edge7" class="edge"><title>Node7&#45;&gt;Node5</title>
<path fill="none" stroke="midnightblue" d="M82.1675,-53.0392C110.768,-42.8786 151.112,-28.5457 176.528,-19.5164"/>
<polygon fill="midnightblue" stroke="midnightblue" points="80.8362,-49.7978 72.5849,-56.4435 83.1796,-56.3939 80.8362,-49.7978"/>
</g>
<!-- Node7&#45;&gt;Node6 -->
<g id="edge8" class="edge"><title>Node7&#45;&gt;Node6</title>
<path fill="none" stroke="midnightblue" d="M101.698,-55.2621C159.201,-44.7361 249.634,-28.1822 302.079,-18.5821"/>
<polygon fill="midnightblue" stroke="midnightblue" points="100.918,-51.8466 91.7115,-57.0901 102.178,-58.7322 100.918,-51.8466"/>
</g>
<!-- Node8 -->
<g id="node8" class="node"><title>Node8</title>
<g id="a_node8"><a xlink:href="view_8cpp.html" target="_top" xlink:title="File with implementation of view (V from MVC). ">
<polygon fill="none" stroke="black" points="0,-0.5 0,-19.5 97,-19.5 97,-0.5 0,-0.5"/>
<text text-anchor="middle" x="48.5" y="-7.5" font-family="Helvetica,sans-Serif" font-size="10.00">src/view/view.cpp</text>
</a>
</g>
</g>
<!-- Node7&#45;&gt;Node8 -->
<g id="edge9" class="edge"><title>Node7&#45;&gt;Node8</title>
<path fill="none" stroke="midnightblue" d="M48.5,-45.8045C48.5,-36.9102 48.5,-26.7798 48.5,-19.7511"/>
<polygon fill="midnightblue" stroke="midnightblue" points="45.0001,-46.083 48.5,-56.083 52.0001,-46.083 45.0001,-46.083"/>
</g>
<!-- Node9&#45;&gt;Node7 -->
<g id="edge15" class="edge"><title>Node9&#45;&gt;Node7</title>
<path fill="none" stroke="midnightblue" d="M231.204,-167.747C157.701,-156.86 46.6574,-139.339 40.5,-132 27.0536,-115.973 37.0692,-89.4057 43.7666,-75.7294"/>
<polygon fill="midnightblue" stroke="midnightblue" points="230.908,-171.241 241.312,-169.237 231.929,-164.316 230.908,-171.241"/>
</g>
<!-- Node10 -->
<g id="node10" class="node"><title>Node10</title>
<g id="a_node10"><a xlink:href="model_8h.html" target="_top" xlink:title="File with declaration of model (from MVC). ">
<polygon fill="none" stroke="black" points="398.5,-112.5 398.5,-131.5 504.5,-131.5 504.5,-112.5 398.5,-112.5"/>
<text text-anchor="middle" x="451.5" y="-119.5" font-family="Helvetica,sans-Serif" font-size="10.00">src/model/model.h</text>
</a>
</g>
</g>
<!-- Node9&#45;&gt;Node10 -->
<g id="edge11" class="edge"><title>Node9&#45;&gt;Node10</title>
<path fill="none" stroke="midnightblue" d="M329.67,-165.172C359.044,-155.004 400.698,-140.585 426.897,-131.516"/>
<polygon fill="midnightblue" stroke="midnightblue" points="328.524,-161.865 320.219,-168.444 330.813,-168.48 328.524,-161.865"/>
</g>
<!-- Node10&#45;&gt;Node4 -->
<g id="edge12" class="edge"><title>Node10&#45;&gt;Node4</title>
<path fill="none" stroke="midnightblue" d="M424.952,-107.726C404.954,-97.7271 378.113,-84.3065 360.809,-75.6545"/>
<polygon fill="midnightblue" stroke="midnightblue" points="423.638,-110.982 434.148,-112.324 426.769,-104.721 423.638,-110.982"/>
</g>
<!-- Node10&#45;&gt;Node6 -->
<g id="edge14" class="edge"><title>Node10&#45;&gt;Node6</title>
<path fill="none" stroke="midnightblue" d="M499.533,-109.654C535.234,-98.9317 574.561,-80.7907 554.5,-56 533.589,-30.159 440.238,-18.5186 384.954,-13.8095"/>
<polygon fill="midnightblue" stroke="midnightblue" points="498.27,-106.374 489.611,-112.48 500.188,-113.106 498.27,-106.374"/>
</g>
<!-- Node11 -->
<g id="node11" class="node"><title>Node11</title>
<g id="a_node11"><a xlink:href="model_8cpp.html" target="_top" xlink:title="File with implementation of model (from MVC). ">
<polygon fill="none" stroke="black" points="429,-56.5 429,-75.5 546,-75.5 546,-56.5 429,-56.5"/>
<text text-anchor="middle" x="487.5" y="-63.5" font-family="Helvetica,sans-Serif" font-size="10.00">src/model/model.cpp</text>
</a>
</g>
</g>
<!-- Node10&#45;&gt;Node11 -->
<g id="edge13" class="edge"><title>Node10&#45;&gt;Node11</title>
<path fill="none" stroke="midnightblue" d="M463.123,-103.566C469.317,-94.2747 476.668,-83.2484 481.666,-75.7511"/>
<polygon fill="midnightblue" stroke="midnightblue" points="460.08,-101.821 457.445,-112.083 465.904,-105.704 460.08,-101.821"/>
</g>
<!-- Node12&#45;&gt;Node4 -->
<g id="edge17" class="edge"><title>Node12&#45;&gt;Node4</title>
<path fill="none" stroke="midnightblue" d="M292.814,-106.101C305.412,-96.3824 321.428,-84.0269 332.049,-75.8339"/>
<polygon fill="midnightblue" stroke="midnightblue" points="290.527,-103.445 284.747,-112.324 294.802,-108.987 290.527,-103.445"/>
</g>
<!-- Node12&#45;&gt;Node7 -->
<g id="edge18" class="edge"><title>Node12&#45;&gt;Node7</title>
<path fill="none" stroke="midnightblue" d="M228.035,-110.088C185.527,-99.8865 122.921,-84.8612 83.9851,-75.5164"/>
<polygon fill="midnightblue" stroke="midnightblue" points="227.307,-113.513 237.848,-112.444 228.941,-106.706 227.307,-113.513"/>
</g>
<!-- Node13 -->
<g id="node13" class="node"><title>Node13</title>
<g id="a_node13"><a xlink:href="view__elements_8cpp.html" target="_top" xlink:title="File with implementation of button and canvas classes. ">
<polygon fill="none" stroke="black" points="109.5,-56.5 109.5,-75.5 257.5,-75.5 257.5,-56.5 109.5,-56.5"/>
<text text-anchor="middle" x="183.5" y="-63.5" font-family="Helvetica,sans-Serif" font-size="10.00">src/view/view_elements.cpp</text>
</a>
</g>
</g>
<!-- Node12&#45;&gt;Node13 -->
<g id="edge19" class="edge"><title>Node12&#45;&gt;Node13</title>
<path fill="none" stroke="midnightblue" d="M250.462,-107.177C233.901,-97.2407 212.082,-84.1492 197.924,-75.6545"/>
<polygon fill="midnightblue" stroke="midnightblue" points="248.664,-110.18 259.04,-112.324 252.266,-104.178 248.664,-110.18"/>
</g>
<!-- Node14&#45;&gt;Node4 -->
<g id="edge21" class="edge"><title>Node14&#45;&gt;Node4</title>
<path fill="none" stroke="midnightblue" d="M438.799,-163.971C423.057,-156.152 404.027,-145.168 389.5,-132 370.858,-115.102 355.473,-89.3778 348.136,-75.9179"/>
<polygon fill="midnightblue" stroke="midnightblue" points="437.575,-167.265 448.106,-168.422 440.595,-160.95 437.575,-167.265"/>
</g>
<!-- Node15 -->
<g id="node15" class="node"><title>Node15</title>
<g id="a_node15"><a xlink:href="geomfactory_8cpp.html" target="_top" xlink:title="File with implementation of geometry factory class. ">
<polygon fill="none" stroke="black" points="522.5,-112.5 522.5,-131.5 658.5,-131.5 658.5,-112.5 522.5,-112.5"/>
<text text-anchor="middle" x="590.5" y="-119.5" font-family="Helvetica,sans-Serif" font-size="10.00">src/utils/geomfactory.cpp</text>
</a>
</g>
</g>
<!-- Node14&#45;&gt;Node15 -->
<g id="edge22" class="edge"><title>Node14&#45;&gt;Node15</title>
<path fill="none" stroke="midnightblue" d="M497.039,-164.368C519.886,-154.255 551.305,-140.349 571.259,-131.516"/>
<polygon fill="midnightblue" stroke="midnightblue" points="495.559,-161.196 487.831,-168.444 498.392,-167.597 495.559,-161.196"/>
</g>
</g>
</svg>
