<?xml version="1.0" encoding="UTF-8" standalone="no"?>
<!DOCTYPE svg PUBLIC "-//W3C//DTD SVG 1.1//EN"
 "http://www.w3.org/Graphics/SVG/1.1/DTD/svg11.dtd">
<!-- Generated by graphviz version 2.38.0 (20140413.2041)
 -->
<!-- Title: src/utils/logger.cpp Pages: 1 -->
<svg width="284pt" height="140pt"
 viewBox="0.00 0.00 283.50 140.00" xmlns="http://www.w3.org/2000/svg" xmlns:xlink="http://www.w3.org/1999/xlink">
<g id="graph0" class="graph" transform="scale(1 1) rotate(0) translate(4 136)">
<title>src/utils/logger.cpp</title>
<!-- Node1 -->
<g id="node1" class="node"><title>Node1</title>
<polygon fill="#bfbfbf" stroke="black" points="86.5,-112.5 86.5,-131.5 192.5,-131.5 192.5,-112.5 86.5,-112.5"/>
<text text-anchor="middle" x="139.5" y="-119.5" font-family="Helvetica,sans-Serif" font-size="10.00">src/utils/logger.cpp</text>
</g>
<!-- Node2 -->
<g id="node2" class="node"><title>Node2</title>
<g id="a_node2"><a xlink:href="logger_8h.html" target="_top" xlink:title="File with simple logger class declaration. ">
<polygon fill="none" stroke="black" points="0,-56.5 0,-75.5 55,-75.5 55,-56.5 0,-56.5"/>
<text text-anchor="middle" x="27.5" y="-63.5" font-family="Helvetica,sans-Serif" font-size="10.00">logger.h</text>
</a>
</g>
</g>
<!-- Node1&#45;&gt;Node2 -->
<g id="edge1" class="edge"><title>Node1&#45;&gt;Node2</title>
<path fill="none" stroke="midnightblue" d="M121.505,-112.324C103.462,-103.625 75.4531,-90.1202 54.6973,-80.113"/>
<polygon fill="midnightblue" stroke="midnightblue" points="55.9778,-76.8449 45.4501,-75.6545 52.9377,-83.1502 55.9778,-76.8449"/>
</g>
<!-- Node4 -->
<g id="node4" class="node"><title>Node4</title>
<polygon fill="none" stroke="#bfbfbf" points="73,-56.5 73,-75.5 132,-75.5 132,-56.5 73,-56.5"/>
<text text-anchor="middle" x="102.5" y="-63.5" font-family="Helvetica,sans-Serif" font-size="10.00">iostream</text>
</g>
<!-- Node1&#45;&gt;Node4 -->
<g id="edge3" class="edge"><title>Node1&#45;&gt;Node4</title>
<path fill="none" stroke="midnightblue" d="M133.39,-112.083C128.218,-104.534 120.654,-93.4948 114.306,-84.2298"/>
<polygon fill="midnightblue" stroke="midnightblue" points="117.036,-82.0221 108.496,-75.7511 111.261,-85.9787 117.036,-82.0221"/>
</g>
<!-- Node5 -->
<g id="node5" class="node"><title>Node5</title>
<polygon fill="none" stroke="#bfbfbf" points="150,-56.5 150,-75.5 205,-75.5 205,-56.5 150,-56.5"/>
<text text-anchor="middle" x="177.5" y="-63.5" font-family="Helvetica,sans-Serif" font-size="10.00">iomanip</text>
</g>
<!-- Node1&#45;&gt;Node5 -->
<g id="edge4" class="edge"><title>Node1&#45;&gt;Node5</title>
<path fill="none" stroke="midnightblue" d="M145.775,-112.083C151.142,-104.455 159.018,-93.2645 165.579,-83.9408"/>
<polygon fill="midnightblue" stroke="midnightblue" points="168.449,-85.9434 171.342,-75.7511 162.725,-81.9149 168.449,-85.9434"/>
</g>
<!-- Node6 -->
<g id="node6" class="node"><title>Node6</title>
<polygon fill="none" stroke="#bfbfbf" points="223.5,-56.5 223.5,-75.5 275.5,-75.5 275.5,-56.5 223.5,-56.5"/>
<text text-anchor="middle" x="249.5" y="-63.5" font-family="Helvetica,sans-Serif" font-size="10.00">cassert</text>
</g>
<!-- Node1&#45;&gt;Node6 -->
<g id="edge5" class="edge"><title>Node1&#45;&gt;Node6</title>
<path fill="none" stroke="midnightblue" d="M157.173,-112.324C174.894,-103.625 202.403,-90.1202 222.788,-80.113"/>
<polygon fill="midnightblue" stroke="midnightblue" points="224.436,-83.2031 231.87,-75.6545 221.351,-76.9195 224.436,-83.2031"/>
</g>
<!-- Node3 -->
<g id="node3" class="node"><title>Node3</title>
<polygon fill="none" stroke="#bfbfbf" points="5.5,-0.5 5.5,-19.5 49.5,-19.5 49.5,-0.5 5.5,-0.5"/>
<text text-anchor="middle" x="27.5" y="-7.5" font-family="Helvetica,sans-Serif" font-size="10.00">string</text>
</g>
<!-- Node2&#45;&gt;Node3 -->
<g id="edge2" class="edge"><title>Node2&#45;&gt;Node3</title>
<path fill="none" stroke="midnightblue" d="M27.5,-56.083C27.5,-49.0059 27.5,-38.8611 27.5,-29.9865"/>
<polygon fill="midnightblue" stroke="midnightblue" points="31.0001,-29.751 27.5,-19.7511 24.0001,-29.7511 31.0001,-29.751"/>
</g>
</g>
</svg>
