<?xml version="1.0" encoding="UTF-8" standalone="no"?>
<!DOCTYPE svg PUBLIC "-//W3C//DTD SVG 1.1//EN"
 "http://www.w3.org/Graphics/SVG/1.1/DTD/svg11.dtd">
<!-- Generated by graphviz version 2.36.0 (20140111.2315)
 -->
<!-- Title: src/utils/logger.cpp Pages: 1 -->
<svg width="266pt" height="140pt"
 viewBox="0.00 0.00 266.00 140.00" xmlns="http://www.w3.org/2000/svg" xmlns:xlink="http://www.w3.org/1999/xlink">
<g id="graph0" class="graph" transform="scale(1 1) rotate(0) translate(4 136)">
<title>src/utils/logger.cpp</title>
<!-- Node1 -->
<g id="node1" class="node"><title>Node1</title>
<polygon fill="#bfbfbf" stroke="black" points="81.5,-112.5 81.5,-131.5 180.5,-131.5 180.5,-112.5 81.5,-112.5"/>
<text text-anchor="middle" x="131" y="-119.5" font-family="Helvetica,sans-Serif" font-size="10.00">src/utils/logger.cpp</text>
</g>
<!-- Node2 -->
<g id="node2" class="node"><title>Node2</title>
<g id="a_node2"><a xlink:href="logger_8h.html" target="_top" xlink:title="File with simple logger class declaration. ">
<polygon fill="none" stroke="black" points="-0.5,-56.5 -0.5,-75.5 50.5,-75.5 50.5,-56.5 -0.5,-56.5"/>
<text text-anchor="middle" x="25" y="-63.5" font-family="Helvetica,sans-Serif" font-size="10.00">logger.h</text>
</a>
</g>
</g>
<!-- Node1&#45;&gt;Node2 -->
<g id="edge1" class="edge"><title>Node1&#45;&gt;Node2</title>
<path fill="none" stroke="midnightblue" d="M113.969,-112.324C96.9702,-103.664 70.6239,-90.2424 51.0074,-80.249"/>
<polygon fill="midnightblue" stroke="midnightblue" points="52.4876,-77.0752 41.9885,-75.6545 49.3101,-83.3125 52.4876,-77.0752"/>
</g>
<!-- Node4 -->
<g id="node4" class="node"><title>Node4</title>
<polygon fill="none" stroke="#bfbfbf" points="69,-56.5 69,-75.5 123,-75.5 123,-56.5 69,-56.5"/>
<text text-anchor="middle" x="96" y="-63.5" font-family="Helvetica,sans-Serif" font-size="10.00">iostream</text>
</g>
<!-- Node1&#45;&gt;Node4 -->
<g id="edge3" class="edge"><title>Node1&#45;&gt;Node4</title>
<path fill="none" stroke="midnightblue" d="M125.22,-112.083C120.328,-104.534 113.173,-93.4948 107.167,-84.2298"/>
<polygon fill="midnightblue" stroke="midnightblue" points="110.048,-82.239 101.672,-75.7511 104.174,-86.0463 110.048,-82.239"/>
</g>
<!-- Node5 -->
<g id="node5" class="node"><title>Node5</title>
<polygon fill="none" stroke="#bfbfbf" points="141,-56.5 141,-75.5 191,-75.5 191,-56.5 141,-56.5"/>
<text text-anchor="middle" x="166" y="-63.5" font-family="Helvetica,sans-Serif" font-size="10.00">iomanip</text>
</g>
<!-- Node1&#45;&gt;Node5 -->
<g id="edge4" class="edge"><title>Node1&#45;&gt;Node5</title>
<path fill="none" stroke="midnightblue" d="M136.78,-112.083C141.672,-104.534 148.827,-93.4948 154.833,-84.2298"/>
<polygon fill="midnightblue" stroke="midnightblue" points="157.826,-86.0463 160.328,-75.7511 151.952,-82.239 157.826,-86.0463"/>
</g>
<!-- Node6 -->
<g id="node6" class="node"><title>Node6</title>
<polygon fill="none" stroke="#bfbfbf" points="209.5,-56.5 209.5,-75.5 258.5,-75.5 258.5,-56.5 209.5,-56.5"/>
<text text-anchor="middle" x="234" y="-63.5" font-family="Helvetica,sans-Serif" font-size="10.00">cassert</text>
</g>
<!-- Node1&#45;&gt;Node6 -->
<g id="edge5" class="edge"><title>Node1&#45;&gt;Node6</title>
<path fill="none" stroke="midnightblue" d="M147.549,-112.324C163.992,-103.703 189.435,-90.3643 208.468,-80.3855"/>
<polygon fill="midnightblue" stroke="midnightblue" points="210.261,-83.3977 217.492,-75.6545 207.011,-77.198 210.261,-83.3977"/>
</g>
<!-- Node3 -->
<g id="node3" class="node"><title>Node3</title>
<polygon fill="none" stroke="#bfbfbf" points="4.5,-0.5 4.5,-19.5 45.5,-19.5 45.5,-0.5 4.5,-0.5"/>
<text text-anchor="middle" x="25" y="-7.5" font-family="Helvetica,sans-Serif" font-size="10.00">string</text>
</g>
<!-- Node2&#45;&gt;Node3 -->
<g id="edge2" class="edge"><title>Node2&#45;&gt;Node3</title>
<path fill="none" stroke="midnightblue" d="M25,-56.083C25,-49.0059 25,-38.8611 25,-29.9865"/>
<polygon fill="midnightblue" stroke="midnightblue" points="28.5001,-29.751 25,-19.7511 21.5001,-29.7511 28.5001,-29.751"/>
</g>
</g>
</svg>
