<?xml version="1.0" encoding="UTF-8" standalone="no"?>
<!DOCTYPE svg PUBLIC "-//W3C//DTD SVG 1.1//EN"
 "http://www.w3.org/Graphics/SVG/1.1/DTD/svg11.dtd">
<!-- Generated by graphviz version 2.36.0 (20140111.2315)
 -->
<!-- Title: src/utils/logger.h Pages: 1 -->
<!--zoomable 308 -->
<svg id="main" version="1.1" xmlns="http://www.w3.org/2000/svg" xmlns:xlink="http://www.w3.org/1999/xlink" xml:space="preserve" onload="init(evt)">
<style type="text/css"><![CDATA[
.edge:hover path { stroke: red; }
.edge:hover polygon { stroke: red; fill: red; }
]]></style>
<script type="text/javascript"><![CDATA[
var edges = document.getElementsByTagName('g');
if (edges && edges.length) {
  for (var i=0;i<edges.length;i++) {
    if (edges[i].id.substr(0,4)=='edge') {
      edges[i].setAttribute('class','edge');
    }
  }
}
]]></script>
        <defs>
                <circle id="rim" cx="0" cy="0" r="7"/>
                <circle id="rim2" cx="0" cy="0" r="3.5"/>
                <g id="zoomPlus">
                        <use xlink:href="#rim" fill="#404040">
                                <set attributeName="fill" to="#808080" begin="zoomplus.mouseover" end="zoomplus.mouseout"/>
                        </use>
                        <path d="M-4,0h8M0,-4v8" fill="none" stroke="white" stroke-width="1.5" pointer-events="none"/>
                </g>
                <g id="zoomMin">
                        <use xlink:href="#rim" fill="#404040">
                                <set attributeName="fill" to="#808080" begin="zoomminus.mouseover" end="zoomminus.mouseout"/>
                        </use>
                        <path d="M-4,0h8" fill="none" stroke="white" stroke-width="1.5" pointer-events="none"/>
                </g>
                <g id="dirArrow">
                        <path fill="none" stroke="white" stroke-width="1.5" d="M0,-3.0v7 M-2.5,-0.5L0,-3.0L2.5,-0.5"/>
                </g>
               <g id="resetDef">
                       <use xlink:href="#rim2" fill="#404040">
                               <set attributeName="fill" to="#808080" begin="reset.mouseover" end="reset.mouseout"/>
                       </use>
               </g>
        </defs>

<script type="text/javascript">
var viewWidth = 632;
var viewHeight = 308;
var sectionId = 'dynsection-1';
</script>
<script xlink:href="svgpan.js"/>
<svg id="graph" class="graph">
<g id="viewport">
<title>src/utils/logger.h</title>
<!-- Node1 -->
<g id="node1" class="node"><title>Node1</title>
<polygon fill="#bfbfbf" stroke="black" points="383.5,-280.5 383.5,-299.5 472.5,-299.5 472.5,-280.5 383.5,-280.5"/>
<text text-anchor="middle" x="428" y="-287.5" font-family="Helvetica,sans-Serif" font-size="10.00">src/utils/logger.h</text>
</g>
<!-- Node2 -->
<g id="node2" class="node"><title>Node2</title>
<g id="a_node2"><a xlink:href="geometry__elements_8h.html" target="_top" xlink:title="File with declaration of geometry element classes. ">
<polygon fill="none" stroke="black" points="220,-224.5 220,-243.5 370,-243.5 370,-224.5 220,-224.5"/>
<text text-anchor="middle" x="295" y="-231.5" font-family="Helvetica,sans-Serif" font-size="10.00">src/view/geometry_elements.h</text>
</a>
</g>
</g>
<!-- Node1&#45;&gt;Node2 -->
<g id="edge1" class="edge"><title>Node1&#45;&gt;Node2</title>
<path fill="none" stroke="midnightblue" d="M397.552,-276.638C372.593,-266.504 337.923,-252.427 315.976,-243.516"/>
<polygon fill="midnightblue" stroke="midnightblue" points="396.344,-279.924 406.926,-280.444 398.977,-273.439 396.344,-279.924"/>
</g>
<!-- Node14 -->
<g id="node14" class="node"><title>Node14</title>
<g id="a_node14"><a xlink:href="geomfactory_8h.html" target="_top" xlink:title="File with interface of abstract geometry factory and declaration of standard geometry factory...">
<polygon fill="none" stroke="black" points="386,-168.5 386,-187.5 502,-187.5 502,-168.5 386,-168.5"/>
<text text-anchor="middle" x="444" y="-175.5" font-family="Helvetica,sans-Serif" font-size="10.00">src/utils/geomfactory.h</text>
</a>
</g>
</g>
<!-- Node1&#45;&gt;Node14 -->
<g id="edge24" class="edge"><title>Node1&#45;&gt;Node14</title>
<path fill="none" stroke="midnightblue" d="M430.713,-270.348C434.218,-246.254 440.173,-205.308 442.75,-187.591"/>
<polygon fill="midnightblue" stroke="midnightblue" points="427.231,-269.969 429.255,-280.368 434.159,-270.976 427.231,-269.969"/>
</g>
<!-- Node17 -->
<g id="node17" class="node"><title>Node17</title>
<g id="a_node17"><a xlink:href="logger_8cpp.html" target="_top" xlink:title="File with implementation of logger. ">
<polygon fill="none" stroke="black" points="456.5,-224.5 456.5,-243.5 555.5,-243.5 555.5,-224.5 456.5,-224.5"/>
<text text-anchor="middle" x="506" y="-231.5" font-family="Helvetica,sans-Serif" font-size="10.00">src/utils/logger.cpp</text>
</a>
</g>
</g>
<!-- Node1&#45;&gt;Node17 -->
<g id="edge25" class="edge"><title>Node1&#45;&gt;Node17</title>
<path fill="none" stroke="midnightblue" d="M448.768,-274.622C463.017,-264.757 481.456,-251.992 493.499,-243.655"/>
<polygon fill="midnightblue" stroke="midnightblue" points="446.762,-271.754 440.532,-280.324 450.746,-277.51 446.762,-271.754"/>
</g>
<!-- Node3 -->
<g id="node3" class="node"><title>Node3</title>
<g id="a_node3"><a xlink:href="icontroller_8h.html" target="_top" xlink:title="File with interface of abstract controller (from MVC). ">
<polygon fill="none" stroke="black" points="51,-112.5 51,-131.5 177,-131.5 177,-112.5 51,-112.5"/>
<text text-anchor="middle" x="114" y="-119.5" font-family="Helvetica,sans-Serif" font-size="10.00">src/controller/icontroller.h</text>
</a>
</g>
</g>
<!-- Node2&#45;&gt;Node3 -->
<g id="edge2" class="edge"><title>Node2&#45;&gt;Node3</title>
<path fill="none" stroke="midnightblue" d="M209.642,-229.273C144.795,-224.439 63.2471,-213.36 42,-188 23.0736,-165.41 63.6688,-143.33 91.2527,-131.619"/>
<polygon fill="midnightblue" stroke="midnightblue" points="209.672,-232.784 219.894,-229.996 210.165,-225.801 209.672,-232.784"/>
</g>
<!-- Node9 -->
<g id="node9" class="node"><title>Node9</title>
<g id="a_node9"><a xlink:href="imodel_8h.html" target="_top" xlink:title="File with interface of abstract model (from MVC). ">
<polygon fill="none" stroke="black" points="230.5,-168.5 230.5,-187.5 329.5,-187.5 329.5,-168.5 230.5,-168.5"/>
<text text-anchor="middle" x="280" y="-175.5" font-family="Helvetica,sans-Serif" font-size="10.00">src/model/imodel.h</text>
</a>
</g>
</g>
<!-- Node2&#45;&gt;Node9 -->
<g id="edge10" class="edge"><title>Node2&#45;&gt;Node9</title>
<path fill="none" stroke="midnightblue" d="M289.832,-214.396C287.323,-205.362 284.427,-194.936 282.431,-187.751"/>
<polygon fill="midnightblue" stroke="midnightblue" points="286.474,-215.385 292.523,-224.083 293.219,-213.511 286.474,-215.385"/>
</g>
<!-- Node12 -->
<g id="node12" class="node"><title>Node12</title>
<g id="a_node12"><a xlink:href="view__elements_8h.html" target="_top" xlink:title="File with declaration of button and canvas classes. ">
<polygon fill="none" stroke="black" points="195,-112.5 195,-131.5 325,-131.5 325,-112.5 195,-112.5"/>
<text text-anchor="middle" x="260" y="-119.5" font-family="Helvetica,sans-Serif" font-size="10.00">src/view/view_elements.h</text>
</a>
</g>
</g>
<!-- Node2&#45;&gt;Node12 -->
<g id="edge16" class="edge"><title>Node2&#45;&gt;Node12</title>
<path fill="none" stroke="midnightblue" d="M316.175,-217.885C331.602,-204.919 348.163,-185.597 338,-168 327.523,-149.859 306.643,-138.38 289.121,-131.559"/>
<polygon fill="midnightblue" stroke="midnightblue" points="313.602,-215.455 307.898,-224.383 317.925,-220.961 313.602,-215.455"/>
</g>
<!-- Node2&#45;&gt;Node14 -->
<g id="edge20" class="edge"><title>Node2&#45;&gt;Node14</title>
<path fill="none" stroke="midnightblue" d="M328.371,-220.906C356.384,-210.754 395.696,-196.506 420.501,-187.516"/>
<polygon fill="midnightblue" stroke="midnightblue" points="326.819,-217.746 318.609,-224.444 329.204,-224.327 326.819,-217.746"/>
</g>
<!-- Node16 -->
<g id="node16" class="node"><title>Node16</title>
<g id="a_node16"><a xlink:href="geometry__elements_8cpp.html" target="_top" xlink:title="File with implementation of geometry element classes. ">
<polygon fill="none" stroke="black" points="51.5,-168.5 51.5,-187.5 212.5,-187.5 212.5,-168.5 51.5,-168.5"/>
<text text-anchor="middle" x="132" y="-175.5" font-family="Helvetica,sans-Serif" font-size="10.00">src/view/geometry_elements.cpp</text>
</a>
</g>
</g>
<!-- Node2&#45;&gt;Node16 -->
<g id="edge23" class="edge"><title>Node2&#45;&gt;Node16</title>
<path fill="none" stroke="midnightblue" d="M259.297,-221.172C228.604,-211.004 185.081,-196.585 157.707,-187.516"/>
<polygon fill="midnightblue" stroke="midnightblue" points="258.579,-224.621 269.172,-224.444 260.78,-217.976 258.579,-224.621"/>
</g>
<!-- Node4 -->
<g id="node4" class="node"><title>Node4</title>
<g id="a_node4"><a xlink:href="controller_8h.html" target="_top" xlink:title="File with controller (from MVC) declaration. ">
<polygon fill="none" stroke="black" points="266,-56.5 266,-75.5 390,-75.5 390,-56.5 266,-56.5"/>
<text text-anchor="middle" x="328" y="-63.5" font-family="Helvetica,sans-Serif" font-size="10.00">src/controller/controller.h</text>
</a>
</g>
</g>
<!-- Node3&#45;&gt;Node4 -->
<g id="edge3" class="edge"><title>Node3&#45;&gt;Node4</title>
<path fill="none" stroke="midnightblue" d="M157.755,-109.959C198.174,-99.7598 257.373,-84.8217 294.25,-75.5164"/>
<polygon fill="midnightblue" stroke="midnightblue" points="156.749,-106.603 147.909,-112.444 158.461,-113.39 156.749,-106.603"/>
</g>
<!-- Node7 -->
<g id="node7" class="node"><title>Node7</title>
<g id="a_node7"><a xlink:href="view_8h.html" target="_top" xlink:title="File with declaration of view (V from MVC). ">
<polygon fill="none" stroke="black" points="4.5,-56.5 4.5,-75.5 89.5,-75.5 89.5,-56.5 4.5,-56.5"/>
<text text-anchor="middle" x="47" y="-63.5" font-family="Helvetica,sans-Serif" font-size="10.00">src/view/view.h</text>
</a>
</g>
</g>
<!-- Node3&#45;&gt;Node7 -->
<g id="edge6" class="edge"><title>Node3&#45;&gt;Node7</title>
<path fill="none" stroke="midnightblue" d="M95.1652,-105.82C83.1616,-96.1452 68.0283,-83.9481 57.9606,-75.8339"/>
<polygon fill="midnightblue" stroke="midnightblue" points="93.253,-108.774 103.235,-112.324 97.6457,-103.324 93.253,-108.774"/>
</g>
<!-- Node5 -->
<g id="node5" class="node"><title>Node5</title>
<g id="a_node5"><a xlink:href="controller_8cpp.html" target="_top" xlink:title="File with controller (from MVC) implementation. ">
<polygon fill="none" stroke="black" points="125,-0.5 125,-19.5 259,-19.5 259,-0.5 125,-0.5"/>
<text text-anchor="middle" x="192" y="-7.5" font-family="Helvetica,sans-Serif" font-size="10.00">src/controller/controller.cpp</text>
</a>
</g>
</g>
<!-- Node4&#45;&gt;Node5 -->
<g id="edge4" class="edge"><title>Node4&#45;&gt;Node5</title>
<path fill="none" stroke="midnightblue" d="M296.865,-52.6377C271.343,-42.504 235.891,-28.4274 213.449,-19.5164"/>
<polygon fill="midnightblue" stroke="midnightblue" points="295.865,-56.0061 306.45,-56.4435 298.448,-49.5002 295.865,-56.0061"/>
</g>
<!-- Node6 -->
<g id="node6" class="node"><title>Node6</title>
<g id="a_node6"><a xlink:href="tester_8cpp.html" target="_top" xlink:title="File with tester class for the whole programm. ">
<polygon fill="none" stroke="black" points="289.5,-0.5 289.5,-19.5 366.5,-19.5 366.5,-0.5 289.5,-0.5"/>
<text text-anchor="middle" x="328" y="-7.5" font-family="Helvetica,sans-Serif" font-size="10.00">src/tester.cpp</text>
</a>
</g>
</g>
<!-- Node4&#45;&gt;Node6 -->
<g id="edge5" class="edge"><title>Node4&#45;&gt;Node6</title>
<path fill="none" stroke="midnightblue" d="M328,-45.8045C328,-36.9102 328,-26.7798 328,-19.7511"/>
<polygon fill="midnightblue" stroke="midnightblue" points="324.5,-46.083 328,-56.083 331.5,-46.083 324.5,-46.083"/>
</g>
<!-- Node7&#45;&gt;Node5 -->
<g id="edge7" class="edge"><title>Node7&#45;&gt;Node5</title>
<path fill="none" stroke="midnightblue" d="M79.4751,-52.9058C106.736,-42.7536 144.992,-28.5063 169.132,-19.5164"/>
<polygon fill="midnightblue" stroke="midnightblue" points="78.1254,-49.6736 69.9757,-56.4435 80.5684,-56.2334 78.1254,-49.6736"/>
</g>
<!-- Node7&#45;&gt;Node6 -->
<g id="edge8" class="edge"><title>Node7&#45;&gt;Node6</title>
<path fill="none" stroke="midnightblue" d="M99.615,-54.8889C154.801,-44.2838 240.215,-27.8697 289.448,-18.4085"/>
<polygon fill="midnightblue" stroke="midnightblue" points="98.8376,-51.4742 89.6779,-56.7986 100.159,-58.3484 98.8376,-51.4742"/>
</g>
<!-- Node8 -->
<g id="node8" class="node"><title>Node8</title>
<g id="a_node8"><a xlink:href="view_8cpp.html" target="_top" xlink:title="File with implementation of view (V from MVC). ">
<polygon fill="none" stroke="black" points="-0.5,-0.5 -0.5,-19.5 94.5,-19.5 94.5,-0.5 -0.5,-0.5"/>
<text text-anchor="middle" x="47" y="-7.5" font-family="Helvetica,sans-Serif" font-size="10.00">src/view/view.cpp</text>
</a>
</g>
</g>
<!-- Node7&#45;&gt;Node8 -->
<g id="edge9" class="edge"><title>Node7&#45;&gt;Node8</title>
<path fill="none" stroke="midnightblue" d="M47,-45.8045C47,-36.9102 47,-26.7798 47,-19.7511"/>
<polygon fill="midnightblue" stroke="midnightblue" points="43.5001,-46.083 47,-56.083 50.5001,-46.083 43.5001,-46.083"/>
</g>
<!-- Node9&#45;&gt;Node7 -->
<g id="edge15" class="edge"><title>Node9&#45;&gt;Node7</title>
<path fill="none" stroke="midnightblue" d="M220,-167.603C151.388,-156.57 47.7183,-138.901 42,-132 28.7125,-115.965 37.1088,-89.401 42.8828,-75.7274"/>
<polygon fill="midnightblue" stroke="midnightblue" points="219.844,-171.123 230.272,-169.247 220.951,-164.211 219.844,-171.123"/>
</g>
<!-- Node10 -->
<g id="node10" class="node"><title>Node10</title>
<g id="a_node10"><a xlink:href="model_8h.html" target="_top" xlink:title="File with declaration of model (from MVC). ">
<polygon fill="none" stroke="black" points="381.5,-112.5 381.5,-131.5 478.5,-131.5 478.5,-112.5 381.5,-112.5"/>
<text text-anchor="middle" x="430" y="-119.5" font-family="Helvetica,sans-Serif" font-size="10.00">src/model/model.h</text>
</a>
</g>
</g>
<!-- Node9&#45;&gt;Node10 -->
<g id="edge11" class="edge"><title>Node9&#45;&gt;Node10</title>
<path fill="none" stroke="midnightblue" d="M313.225,-165.039C341.448,-154.879 381.262,-140.546 406.343,-131.516"/>
<polygon fill="midnightblue" stroke="midnightblue" points="311.991,-161.763 303.768,-168.444 314.362,-168.349 311.991,-161.763"/>
</g>
<!-- Node10&#45;&gt;Node4 -->
<g id="edge12" class="edge"><title>Node10&#45;&gt;Node4</title>
<path fill="none" stroke="midnightblue" d="M404.669,-107.59C385.81,-97.6052 360.616,-84.2672 344.347,-75.6545"/>
<polygon fill="midnightblue" stroke="midnightblue" points="403.136,-110.738 413.612,-112.324 406.412,-104.552 403.136,-110.738"/>
</g>
<!-- Node10&#45;&gt;Node6 -->
<g id="edge14" class="edge"><title>Node10&#45;&gt;Node6</title>
<path fill="none" stroke="midnightblue" d="M472.651,-109.412C505.688,-98.303 542.9,-79.7315 524,-56 504.696,-31.7623 417.935,-19.5018 366.541,-14.2618"/>
<polygon fill="midnightblue" stroke="midnightblue" points="471.507,-106.103 463.047,-112.482 473.638,-112.771 471.507,-106.103"/>
</g>
<!-- Node11 -->
<g id="node11" class="node"><title>Node11</title>
<g id="a_node11"><a xlink:href="model_8cpp.html" target="_top" xlink:title="File with implementation of model (from MVC). ">
<polygon fill="none" stroke="black" points="408.5,-56.5 408.5,-75.5 515.5,-75.5 515.5,-56.5 408.5,-56.5"/>
<text text-anchor="middle" x="462" y="-63.5" font-family="Helvetica,sans-Serif" font-size="10.00">src/model/model.cpp</text>
</a>
</g>
</g>
<!-- Node10&#45;&gt;Node11 -->
<g id="edge13" class="edge"><title>Node10&#45;&gt;Node11</title>
<path fill="none" stroke="midnightblue" d="M440.504,-103.275C445.973,-94.0454 452.418,-83.1703 456.814,-75.7511"/>
<polygon fill="midnightblue" stroke="midnightblue" points="437.371,-101.696 435.284,-112.083 443.393,-105.264 437.371,-101.696"/>
</g>
<!-- Node12&#45;&gt;Node4 -->
<g id="edge17" class="edge"><title>Node12&#45;&gt;Node4</title>
<path fill="none" stroke="midnightblue" d="M278.762,-106.101C291,-96.3824 306.559,-84.0269 316.876,-75.8339"/>
<polygon fill="midnightblue" stroke="midnightblue" points="276.58,-103.364 270.925,-112.324 280.933,-108.846 276.58,-103.364"/>
</g>
<!-- Node12&#45;&gt;Node7 -->
<g id="edge18" class="edge"><title>Node12&#45;&gt;Node7</title>
<path fill="none" stroke="midnightblue" d="M216.449,-109.959C176.219,-99.7598 117.297,-84.8217 80.5926,-75.5164"/>
<polygon fill="midnightblue" stroke="midnightblue" points="215.696,-113.379 226.25,-112.444 217.416,-106.593 215.696,-113.379"/>
</g>
<!-- Node13 -->
<g id="node13" class="node"><title>Node13</title>
<g id="a_node13"><a xlink:href="view__elements_8cpp.html" target="_top" xlink:title="File with implementation of button and canvas classes. ">
<polygon fill="none" stroke="black" points="108,-56.5 108,-75.5 248,-75.5 248,-56.5 108,-56.5"/>
<text text-anchor="middle" x="178" y="-63.5" font-family="Helvetica,sans-Serif" font-size="10.00">src/view/view_elements.cpp</text>
</a>
</g>
</g>
<!-- Node12&#45;&gt;Node13 -->
<g id="edge19" class="edge"><title>Node12&#45;&gt;Node13</title>
<path fill="none" stroke="midnightblue" d="M238.167,-106.622C223.187,-96.7574 203.803,-83.9919 191.142,-75.6545"/>
<polygon fill="midnightblue" stroke="midnightblue" points="236.549,-109.747 246.825,-112.324 240.399,-103.901 236.549,-109.747"/>
</g>
<!-- Node14&#45;&gt;Node4 -->
<g id="edge21" class="edge"><title>Node14&#45;&gt;Node4</title>
<path fill="none" stroke="midnightblue" d="M417.047,-163.696C402.654,-155.763 385.231,-144.757 372,-132 354.146,-114.786 339.439,-89.1948 332.429,-75.8385"/>
<polygon fill="midnightblue" stroke="midnightblue" points="415.52,-166.849 425.992,-168.454 418.807,-160.668 415.52,-166.849"/>
</g>
<!-- Node15 -->
<g id="node15" class="node"><title>Node15</title>
<g id="a_node15"><a xlink:href="geomfactory_8cpp.html" target="_top" xlink:title="File with implementation of geometry factory class. ">
<polygon fill="none" stroke="black" points="496.5,-112.5 496.5,-131.5 623.5,-131.5 623.5,-112.5 496.5,-112.5"/>
<text text-anchor="middle" x="560" y="-119.5" font-family="Helvetica,sans-Serif" font-size="10.00">src/utils/geomfactory.cpp</text>
</a>
</g>
</g>
<!-- Node14&#45;&gt;Node15 -->
<g id="edge22" class="edge"><title>Node14&#45;&gt;Node15</title>
<path fill="none" stroke="midnightblue" d="M471.72,-164.096C493.392,-154.007 522.902,-140.27 541.705,-131.516"/>
<polygon fill="midnightblue" stroke="midnightblue" points="469.969,-161.05 462.381,-168.444 472.923,-167.396 469.969,-161.05"/>
</g>
</g>
</svg>
        <g id="navigator" transform="translate(0 0)" fill="#404254">
                <rect fill="#f2f5e9" fill-opacity="0.5" stroke="#606060" stroke-width=".5" x="0" y="0" width="60" height="60"/>
                <use id="zoomplus" xlink:href="#zoomPlus" x="17" y="9" onmousedown="handleZoom(evt,'in')"/>
                <use id="zoomminus" xlink:href="#zoomMin" x="42" y="9" onmousedown="handleZoom(evt,'out')"/>
                <use id="reset" xlink:href="#resetDef" x="30" y="36" onmousedown="handleReset()"/>
                <g id="arrowUp" xlink:href="#dirArrow" transform="translate(30 24)" onmousedown="handlePan(0,-1)">
                  <use xlink:href="#rim" fill="#404040">
                        <set attributeName="fill" to="#808080" begin="arrowUp.mouseover" end="arrowUp.mouseout"/>
                  </use>
                  <path fill="none" stroke="white" stroke-width="1.5" d="M0,-3.0v7 M-2.5,-0.5L0,-3.0L2.5,-0.5"/>
                </g>
                <g id="arrowRight" xlink:href="#dirArrow" transform="rotate(90) translate(36 -43)" onmousedown="handlePan(1,0)">
                  <use xlink:href="#rim" fill="#404040">
                        <set attributeName="fill" to="#808080" begin="arrowRight.mouseover" end="arrowRight.mouseout"/>
                  </use>
                  <path fill="none" stroke="white" stroke-width="1.5" d="M0,-3.0v7 M-2.5,-0.5L0,-3.0L2.5,-0.5"/>
                </g>
                <g id="arrowDown" xlink:href="#dirArrow" transform="rotate(180) translate(-30 -48)" onmousedown="handlePan(0,1)">
                  <use xlink:href="#rim" fill="#404040">
                        <set attributeName="fill" to="#808080" begin="arrowDown.mouseover" end="arrowDown.mouseout"/>
                  </use>
                  <path fill="none" stroke="white" stroke-width="1.5" d="M0,-3.0v7 M-2.5,-0.5L0,-3.0L2.5,-0.5"/>
                </g>
                <g id="arrowLeft" xlink:href="#dirArrow" transform="rotate(270) translate(-36 17)" onmousedown="handlePan(-1,0)">
                  <use xlink:href="#rim" fill="#404040">
                        <set attributeName="fill" to="#808080" begin="arrowLeft.mouseover" end="arrowLeft.mouseout"/>
                  </use>
                  <path fill="none" stroke="white" stroke-width="1.5" d="M0,-3.0v7 M-2.5,-0.5L0,-3.0L2.5,-0.5"/>
                </g>
        </g>
        <svg viewBox="0 0 15 15" width="100%" height="30px" preserveAspectRatio="xMaxYMin meet">
         <g id="arrow_out" transform="scale(0.3 0.3)">
          <a xlink:href="logger_8h__dep__incl_org.svg" target="_base">
           <rect id="button" ry="5" rx="5" y="6" x="6" height="38" width="38"
                fill="#f2f5e9" fill-opacity="0.5" stroke="#606060" stroke-width="1.0"/>
           <path id="arrow"
             d="M 11.500037,31.436501 C 11.940474,20.09759 22.043105,11.32322 32.158766,21.979434 L 37.068811,17.246167 C 37.068811,17.246167 37.088388,32 37.088388,32 L 22.160133,31.978069 C 22.160133,31.978069 26.997745,27.140456 26.997745,27.140456 C 18.528582,18.264221 13.291696,25.230495 11.500037,31.436501 z"
             style="fill:#404040;"/>
          </a>
         </g>
        </svg>
</svg>
