<?xml version="1.0" encoding="UTF-8" standalone="no"?>
<!DOCTYPE svg PUBLIC "-//W3C//DTD SVG 1.1//EN"
 "http://www.w3.org/Graphics/SVG/1.1/DTD/svg11.dtd">
<!-- Generated by graphviz version 2.36.0 (20140111.2315)
 -->
<!-- Title: src/model/model.h Pages: 1 -->
<svg width="361pt" height="196pt"
 viewBox="0.00 0.00 361.00 196.00" xmlns="http://www.w3.org/2000/svg" xmlns:xlink="http://www.w3.org/1999/xlink">
<g id="graph0" class="graph" transform="scale(1 1) rotate(0) translate(4 192)">
<title>src/model/model.h</title>
<!-- Node1 -->
<g id="node1" class="node"><title>Node1</title>
<polygon fill="#bfbfbf" stroke="black" points="189.5,-168.5 189.5,-187.5 286.5,-187.5 286.5,-168.5 189.5,-168.5"/>
<text text-anchor="middle" x="238" y="-175.5" font-family="Helvetica,sans-Serif" font-size="10.00">src/model/model.h</text>
</g>
<!-- Node2 -->
<g id="node2" class="node"><title>Node2</title>
<g id="a_node2"><a xlink:href="imodel_8h.html" target="_top" xlink:title="File with interface of abstract model (from MVC). ">
<polygon fill="none" stroke="black" points="211.5,-112.5 211.5,-131.5 264.5,-131.5 264.5,-112.5 211.5,-112.5"/>
<text text-anchor="middle" x="238" y="-119.5" font-family="Helvetica,sans-Serif" font-size="10.00">imodel.h</text>
</a>
</g>
</g>
<!-- Node1&#45;&gt;Node2 -->
<g id="edge1" class="edge"><title>Node1&#45;&gt;Node2</title>
<path fill="none" stroke="midnightblue" d="M238,-168.083C238,-161.006 238,-150.861 238,-141.986"/>
<polygon fill="midnightblue" stroke="midnightblue" points="241.5,-141.751 238,-131.751 234.5,-141.751 241.5,-141.751"/>
</g>
<!-- Node3 -->
<g id="node3" class="node"><title>Node3</title>
<g id="a_node3"><a xlink:href="geometry__elements_8h.html" target="_top" xlink:title="File with declaration of geometry element classes. ">
<polygon fill="none" stroke="black" points="32.5,-56.5 32.5,-75.5 175.5,-75.5 175.5,-56.5 32.5,-56.5"/>
<text text-anchor="middle" x="104" y="-63.5" font-family="Helvetica,sans-Serif" font-size="10.00">../view/geometry_elements.h</text>
</a>
</g>
</g>
<!-- Node2&#45;&gt;Node3 -->
<g id="edge2" class="edge"><title>Node2&#45;&gt;Node3</title>
<path fill="none" stroke="midnightblue" d="M216.767,-112.444C194.616,-103.517 159.681,-89.4387 134.564,-79.3168"/>
<polygon fill="midnightblue" stroke="midnightblue" points="135.717,-76.0079 125.133,-75.5164 133.1,-82.5006 135.717,-76.0079"/>
</g>
<!-- Node6 -->
<g id="node6" class="node"><title>Node6</title>
<g id="a_node6"><a xlink:href="observe_8h.html" target="_top" xlink:title="File with declaration of observer pattern &#45; Observer and Observable. ">
<polygon fill="none" stroke="black" points="193.5,-56.5 193.5,-75.5 282.5,-75.5 282.5,-56.5 193.5,-56.5"/>
<text text-anchor="middle" x="238" y="-63.5" font-family="Helvetica,sans-Serif" font-size="10.00">../utils/observe.h</text>
</a>
</g>
</g>
<!-- Node2&#45;&gt;Node6 -->
<g id="edge5" class="edge"><title>Node2&#45;&gt;Node6</title>
<path fill="none" stroke="midnightblue" d="M238,-112.083C238,-105.006 238,-94.8611 238,-85.9865"/>
<polygon fill="midnightblue" stroke="midnightblue" points="241.5,-85.751 238,-75.7511 234.5,-85.7511 241.5,-85.751"/>
</g>
<!-- Node8 -->
<g id="node8" class="node"><title>Node8</title>
<polygon fill="none" stroke="#bfbfbf" points="301,-56.5 301,-75.5 353,-75.5 353,-56.5 301,-56.5"/>
<text text-anchor="middle" x="327" y="-63.5" font-family="Helvetica,sans-Serif" font-size="10.00">memory</text>
</g>
<!-- Node2&#45;&gt;Node8 -->
<g id="edge7" class="edge"><title>Node2&#45;&gt;Node8</title>
<path fill="none" stroke="midnightblue" d="M252.299,-112.324C266.183,-103.9 287.492,-90.9709 303.804,-81.0741"/>
<polygon fill="midnightblue" stroke="midnightblue" points="306.002,-83.8341 312.736,-75.6545 302.371,-77.8495 306.002,-83.8341"/>
</g>
<!-- Node4 -->
<g id="node4" class="node"><title>Node4</title>
<g id="a_node4"><a xlink:href="logger_8h.html" target="_top" xlink:title="File with simple logger class declaration. ">
<polygon fill="none" stroke="black" points="-0.5,-0.5 -0.5,-19.5 80.5,-19.5 80.5,-0.5 -0.5,-0.5"/>
<text text-anchor="middle" x="40" y="-7.5" font-family="Helvetica,sans-Serif" font-size="10.00">../utils/logger.h</text>
</a>
</g>
</g>
<!-- Node3&#45;&gt;Node4 -->
<g id="edge3" class="edge"><title>Node3&#45;&gt;Node4</title>
<path fill="none" stroke="midnightblue" d="M93.7173,-56.324C84.1637,-48.2631 69.7203,-36.0765 58.2157,-26.3695"/>
<polygon fill="midnightblue" stroke="midnightblue" points="60.3698,-23.6076 50.4698,-19.8339 55.8557,-28.9577 60.3698,-23.6076"/>
</g>
<!-- Node5 -->
<g id="node5" class="node"><title>Node5</title>
<g id="a_node5"><a xlink:href="tags_8h.html" target="_top" xlink:title="File with declaration of some tool and color tags. Used as color and tool mode flag in model (M from ...">
<polygon fill="none" stroke="black" points="99,-0.5 99,-19.5 173,-19.5 173,-0.5 99,-0.5"/>
<text text-anchor="middle" x="136" y="-7.5" font-family="Helvetica,sans-Serif" font-size="10.00">../utils/tags.h</text>
</a>
</g>
</g>
<!-- Node3&#45;&gt;Node5 -->
<g id="edge4" class="edge"><title>Node3&#45;&gt;Node5</title>
<path fill="none" stroke="midnightblue" d="M109.284,-56.083C113.711,-48.6127 120.163,-37.7244 125.618,-28.5199"/>
<polygon fill="midnightblue" stroke="midnightblue" points="128.727,-30.1383 130.814,-19.7511 122.705,-26.5697 128.727,-30.1383"/>
</g>
<!-- Node7 -->
<g id="node7" class="node"><title>Node7</title>
<polygon fill="none" stroke="#bfbfbf" points="223.5,-0.5 223.5,-19.5 252.5,-19.5 252.5,-0.5 223.5,-0.5"/>
<text text-anchor="middle" x="238" y="-7.5" font-family="Helvetica,sans-Serif" font-size="10.00">list</text>
</g>
<!-- Node6&#45;&gt;Node7 -->
<g id="edge6" class="edge"><title>Node6&#45;&gt;Node7</title>
<path fill="none" stroke="midnightblue" d="M238,-56.083C238,-49.0059 238,-38.8611 238,-29.9865"/>
<polygon fill="midnightblue" stroke="midnightblue" points="241.5,-29.751 238,-19.7511 234.5,-29.7511 241.5,-29.751"/>
</g>
</g>
</svg>
