<?xml version="1.0" encoding="UTF-8" standalone="no"?>
<!DOCTYPE svg PUBLIC "-//W3C//DTD SVG 1.1//EN"
 "http://www.w3.org/Graphics/SVG/1.1/DTD/svg11.dtd">
<!-- Generated by graphviz version 2.38.0 (20140413.2041)
 -->
<!-- Title: src/model/model.h Pages: 1 -->
<svg width="359pt" height="140pt"
 viewBox="0.00 0.00 358.50 140.00" xmlns="http://www.w3.org/2000/svg" xmlns:xlink="http://www.w3.org/1999/xlink">
<g id="graph0" class="graph" transform="scale(1 1) rotate(0) translate(4 136)">
<title>src/model/model.h</title>
<!-- Node1 -->
<g id="node1" class="node"><title>Node1</title>
<polygon fill="#bfbfbf" stroke="black" points="152,-112.5 152,-131.5 258,-131.5 258,-112.5 152,-112.5"/>
<text text-anchor="middle" x="205" y="-119.5" font-family="Helvetica,sans-Serif" font-size="10.00">src/model/model.h</text>
</g>
<!-- Node2 -->
<g id="node2" class="node"><title>Node2</title>
<g id="a_node2"><a xlink:href="controller_8h.html" target="_top" xlink:title="File with controller (from MVC) declaration. ">
<polygon fill="none" stroke="black" points="41.5,-56.5 41.5,-75.5 176.5,-75.5 176.5,-56.5 41.5,-56.5"/>
<text text-anchor="middle" x="109" y="-63.5" font-family="Helvetica,sans-Serif" font-size="10.00">src/controller/controller.h</text>
</a>
</g>
</g>
<!-- Node1&#45;&gt;Node2 -->
<g id="edge1" class="edge"><title>Node1&#45;&gt;Node2</title>
<path fill="none" stroke="midnightblue" d="M180.426,-107.177C162.761,-97.2407 139.487,-84.1492 124.386,-75.6545"/>
<polygon fill="midnightblue" stroke="midnightblue" points="179.144,-110.472 189.576,-112.324 182.576,-104.371 179.144,-110.472"/>
</g>
<!-- Node4 -->
<g id="node4" class="node"><title>Node4</title>
<g id="a_node4"><a xlink:href="tester_8cpp.html" target="_top" xlink:title="File with tester class for the whole programm. ">
<polygon fill="none" stroke="black" points="164,-0.5 164,-19.5 246,-19.5 246,-0.5 164,-0.5"/>
<text text-anchor="middle" x="205" y="-7.5" font-family="Helvetica,sans-Serif" font-size="10.00">src/tester.cpp</text>
</a>
</g>
</g>
<!-- Node1&#45;&gt;Node4 -->
<g id="edge5" class="edge"><title>Node1&#45;&gt;Node4</title>
<path fill="none" stroke="midnightblue" d="M205,-102.348C205,-78.2538 205,-37.3079 205,-19.5914"/>
<polygon fill="midnightblue" stroke="midnightblue" points="201.5,-102.368 205,-112.368 208.5,-102.369 201.5,-102.368"/>
</g>
<!-- Node5 -->
<g id="node5" class="node"><title>Node5</title>
<g id="a_node5"><a xlink:href="model_8cpp.html" target="_top" xlink:title="File with implementation of model (from MVC). ">
<polygon fill="none" stroke="black" points="233.5,-56.5 233.5,-75.5 350.5,-75.5 350.5,-56.5 233.5,-56.5"/>
<text text-anchor="middle" x="292" y="-63.5" font-family="Helvetica,sans-Serif" font-size="10.00">src/model/model.cpp</text>
</a>
</g>
</g>
<!-- Node1&#45;&gt;Node5 -->
<g id="edge4" class="edge"><title>Node1&#45;&gt;Node5</title>
<path fill="none" stroke="midnightblue" d="M227.716,-106.901C243.669,-96.9986 264.497,-84.0705 278.057,-75.6545"/>
<polygon fill="midnightblue" stroke="midnightblue" points="225.629,-104.077 218.978,-112.324 229.32,-110.024 225.629,-104.077"/>
</g>
<!-- Node3 -->
<g id="node3" class="node"><title>Node3</title>
<g id="a_node3"><a xlink:href="controller_8cpp.html" target="_top" xlink:title="File with controller (from MVC) implementation. ">
<polygon fill="none" stroke="black" points="0,-0.5 0,-19.5 146,-19.5 146,-0.5 0,-0.5"/>
<text text-anchor="middle" x="73" y="-7.5" font-family="Helvetica,sans-Serif" font-size="10.00">src/controller/controller.cpp</text>
</a>
</g>
</g>
<!-- Node2&#45;&gt;Node3 -->
<g id="edge2" class="edge"><title>Node2&#45;&gt;Node3</title>
<path fill="none" stroke="midnightblue" d="M97.3771,-47.5656C91.1832,-38.2747 83.8323,-27.2484 78.8341,-19.7511"/>
<polygon fill="midnightblue" stroke="midnightblue" points="94.5961,-49.7039 103.055,-56.083 100.42,-45.821 94.5961,-49.7039"/>
</g>
<!-- Node2&#45;&gt;Node4 -->
<g id="edge3" class="edge"><title>Node2&#45;&gt;Node4</title>
<path fill="none" stroke="midnightblue" d="M133.574,-51.1774C151.239,-41.2407 174.513,-28.1492 189.614,-19.6545"/>
<polygon fill="midnightblue" stroke="midnightblue" points="131.424,-48.3708 124.424,-56.324 134.856,-54.4718 131.424,-48.3708"/>
</g>
</g>
</svg>
