<?xml version="1.0" encoding="UTF-8" standalone="no"?>
<!DOCTYPE svg PUBLIC "-//W3C//DTD SVG 1.1//EN"
 "http://www.w3.org/Graphics/SVG/1.1/DTD/svg11.dtd">
<!-- Generated by graphviz version 2.36.0 (20140111.2315)
 -->
<!-- Title: src/model/model.cpp Pages: 1 -->
<svg width="386pt" height="308pt"
 viewBox="0.00 0.00 386.00 308.00" xmlns="http://www.w3.org/2000/svg" xmlns:xlink="http://www.w3.org/1999/xlink">
<g id="graph0" class="graph" transform="scale(1 1) rotate(0) translate(4 304)">
<title>src/model/model.cpp</title>
<!-- Node1 -->
<g id="node1" class="node"><title>Node1</title>
<polygon fill="#bfbfbf" stroke="black" points="209.5,-280.5 209.5,-299.5 316.5,-299.5 316.5,-280.5 209.5,-280.5"/>
<text text-anchor="middle" x="263" y="-287.5" font-family="Helvetica,sans-Serif" font-size="10.00">src/model/model.cpp</text>
</g>
<!-- Node2 -->
<g id="node2" class="node"><title>Node2</title>
<g id="a_node2"><a xlink:href="model_8h.html" target="_top" xlink:title="File with declaration of model (from MVC). ">
<polygon fill="none" stroke="black" points="237.5,-224.5 237.5,-243.5 288.5,-243.5 288.5,-224.5 237.5,-224.5"/>
<text text-anchor="middle" x="263" y="-231.5" font-family="Helvetica,sans-Serif" font-size="10.00">model.h</text>
</a>
</g>
</g>
<!-- Node1&#45;&gt;Node2 -->
<g id="edge1" class="edge"><title>Node1&#45;&gt;Node2</title>
<path fill="none" stroke="midnightblue" d="M263,-280.083C263,-273.006 263,-262.861 263,-253.986"/>
<polygon fill="midnightblue" stroke="midnightblue" points="266.5,-253.751 263,-243.751 259.5,-253.751 266.5,-253.751"/>
</g>
<!-- Node3 -->
<g id="node3" class="node"><title>Node3</title>
<g id="a_node3"><a xlink:href="imodel_8h.html" target="_top" xlink:title="File with interface of abstract model (from MVC). ">
<polygon fill="none" stroke="black" points="236.5,-168.5 236.5,-187.5 289.5,-187.5 289.5,-168.5 236.5,-168.5"/>
<text text-anchor="middle" x="263" y="-175.5" font-family="Helvetica,sans-Serif" font-size="10.00">imodel.h</text>
</a>
</g>
</g>
<!-- Node2&#45;&gt;Node3 -->
<g id="edge2" class="edge"><title>Node2&#45;&gt;Node3</title>
<path fill="none" stroke="midnightblue" d="M263,-224.083C263,-217.006 263,-206.861 263,-197.986"/>
<polygon fill="midnightblue" stroke="midnightblue" points="266.5,-197.751 263,-187.751 259.5,-197.751 266.5,-197.751"/>
</g>
<!-- Node4 -->
<g id="node4" class="node"><title>Node4</title>
<g id="a_node4"><a xlink:href="geometry__elements_8h.html" target="_top" xlink:title="File with declaration of geometry element classes. ">
<polygon fill="none" stroke="black" points="57.5,-112.5 57.5,-131.5 200.5,-131.5 200.5,-112.5 57.5,-112.5"/>
<text text-anchor="middle" x="129" y="-119.5" font-family="Helvetica,sans-Serif" font-size="10.00">../view/geometry_elements.h</text>
</a>
</g>
</g>
<!-- Node3&#45;&gt;Node4 -->
<g id="edge3" class="edge"><title>Node3&#45;&gt;Node4</title>
<path fill="none" stroke="midnightblue" d="M241.767,-168.444C219.616,-159.517 184.681,-145.439 159.564,-135.317"/>
<polygon fill="midnightblue" stroke="midnightblue" points="160.717,-132.008 150.133,-131.516 158.1,-138.501 160.717,-132.008"/>
</g>
<!-- Node8 -->
<g id="node8" class="node"><title>Node8</title>
<g id="a_node8"><a xlink:href="observe_8h.html" target="_top" xlink:title="File with declaration of observer pattern &#45; Observer and Observable. ">
<polygon fill="none" stroke="black" points="218.5,-112.5 218.5,-131.5 307.5,-131.5 307.5,-112.5 218.5,-112.5"/>
<text text-anchor="middle" x="263" y="-119.5" font-family="Helvetica,sans-Serif" font-size="10.00">../utils/observe.h</text>
</a>
</g>
</g>
<!-- Node3&#45;&gt;Node8 -->
<g id="edge7" class="edge"><title>Node3&#45;&gt;Node8</title>
<path fill="none" stroke="midnightblue" d="M263,-168.083C263,-161.006 263,-150.861 263,-141.986"/>
<polygon fill="midnightblue" stroke="midnightblue" points="266.5,-141.751 263,-131.751 259.5,-141.751 266.5,-141.751"/>
</g>
<!-- Node12 -->
<g id="node12" class="node"><title>Node12</title>
<polygon fill="none" stroke="#bfbfbf" points="326,-112.5 326,-131.5 378,-131.5 378,-112.5 326,-112.5"/>
<text text-anchor="middle" x="352" y="-119.5" font-family="Helvetica,sans-Serif" font-size="10.00">memory</text>
</g>
<!-- Node3&#45;&gt;Node12 -->
<g id="edge13" class="edge"><title>Node3&#45;&gt;Node12</title>
<path fill="none" stroke="midnightblue" d="M277.299,-168.324C291.183,-159.9 312.492,-146.971 328.804,-137.074"/>
<polygon fill="midnightblue" stroke="midnightblue" points="331.002,-139.834 337.736,-131.655 327.371,-133.85 331.002,-139.834"/>
</g>
<!-- Node5 -->
<g id="node5" class="node"><title>Node5</title>
<g id="a_node5"><a xlink:href="logger_8h.html" target="_top" xlink:title="File with simple logger class declaration. ">
<polygon fill="none" stroke="black" points="-0.5,-56.5 -0.5,-75.5 80.5,-75.5 80.5,-56.5 -0.5,-56.5"/>
<text text-anchor="middle" x="40" y="-63.5" font-family="Helvetica,sans-Serif" font-size="10.00">../utils/logger.h</text>
</a>
</g>
</g>
<!-- Node4&#45;&gt;Node5 -->
<g id="edge4" class="edge"><title>Node4&#45;&gt;Node5</title>
<path fill="none" stroke="midnightblue" d="M114.701,-112.324C100.817,-103.9 79.5076,-90.9709 63.1963,-81.0741"/>
<polygon fill="midnightblue" stroke="midnightblue" points="64.6289,-77.8495 54.2639,-75.6545 60.9978,-83.8341 64.6289,-77.8495"/>
</g>
<!-- Node7 -->
<g id="node7" class="node"><title>Node7</title>
<g id="a_node7"><a xlink:href="tags_8h.html" target="_top" xlink:title="File with declaration of some tool and color tags. Used as color and tool mode flag in model (M from ...">
<polygon fill="none" stroke="black" points="99,-56.5 99,-75.5 173,-75.5 173,-56.5 99,-56.5"/>
<text text-anchor="middle" x="136" y="-63.5" font-family="Helvetica,sans-Serif" font-size="10.00">../utils/tags.h</text>
</a>
</g>
</g>
<!-- Node4&#45;&gt;Node7 -->
<g id="edge6" class="edge"><title>Node4&#45;&gt;Node7</title>
<path fill="none" stroke="midnightblue" d="M130.156,-112.083C131.084,-104.927 132.418,-94.6353 133.577,-85.6911"/>
<polygon fill="midnightblue" stroke="midnightblue" points="137.051,-86.1181 134.866,-75.7511 130.109,-85.2181 137.051,-86.1181"/>
</g>
<!-- Node6 -->
<g id="node6" class="node"><title>Node6</title>
<polygon fill="none" stroke="#bfbfbf" points="19.5,-0.5 19.5,-19.5 60.5,-19.5 60.5,-0.5 19.5,-0.5"/>
<text text-anchor="middle" x="40" y="-7.5" font-family="Helvetica,sans-Serif" font-size="10.00">string</text>
</g>
<!-- Node5&#45;&gt;Node6 -->
<g id="edge5" class="edge"><title>Node5&#45;&gt;Node6</title>
<path fill="none" stroke="midnightblue" d="M40,-56.083C40,-49.0059 40,-38.8611 40,-29.9865"/>
<polygon fill="midnightblue" stroke="midnightblue" points="43.5001,-29.751 40,-19.7511 36.5001,-29.7511 43.5001,-29.751"/>
</g>
<!-- Node9 -->
<g id="node9" class="node"><title>Node9</title>
<polygon fill="none" stroke="#bfbfbf" points="204.5,-0.5 204.5,-19.5 233.5,-19.5 233.5,-0.5 204.5,-0.5"/>
<text text-anchor="middle" x="219" y="-7.5" font-family="Helvetica,sans-Serif" font-size="10.00">list</text>
</g>
<!-- Node8&#45;&gt;Node9 -->
<g id="edge8" class="edge"><title>Node8&#45;&gt;Node9</title>
<path fill="none" stroke="midnightblue" d="M253.271,-112.424C244.514,-104.075 232.111,-90.5467 226,-76 219.88,-61.432 218.346,-43.4855 218.22,-30.1435"/>
<polygon fill="midnightblue" stroke="midnightblue" points="221.725,-29.8615 218.392,-19.8047 214.726,-29.745 221.725,-29.8615"/>
</g>
<!-- Node10 -->
<g id="node10" class="node"><title>Node10</title>
<polygon fill="none" stroke="#bfbfbf" points="276.5,-0.5 276.5,-19.5 335.5,-19.5 335.5,-0.5 276.5,-0.5"/>
<text text-anchor="middle" x="306" y="-7.5" font-family="Helvetica,sans-Serif" font-size="10.00">functional</text>
</g>
<!-- Node8&#45;&gt;Node10 -->
<g id="edge9" class="edge"><title>Node8&#45;&gt;Node10</title>
<path fill="none" stroke="midnightblue" d="M272.465,-112.37C280.985,-103.983 293.052,-90.4296 299,-76 305.022,-61.3913 306.565,-43.4484 306.719,-30.1181"/>
<polygon fill="midnightblue" stroke="midnightblue" points="310.214,-29.7408 306.574,-19.7908 303.214,-29.8387 310.214,-29.7408"/>
</g>
<!-- Node11 -->
<g id="node11" class="node"><title>Node11</title>
<g id="a_node11"><a xlink:href="onclick_8h.html" target="_top" xlink:title="File with declaration of observer pattern classes. Two pairs of publishers and subscribers: OnClickLi...">
<polygon fill="none" stroke="black" points="235,-56.5 235,-75.5 291,-75.5 291,-56.5 235,-56.5"/>
<text text-anchor="middle" x="263" y="-63.5" font-family="Helvetica,sans-Serif" font-size="10.00">onclick.h</text>
</a>
</g>
</g>
<!-- Node8&#45;&gt;Node11 -->
<g id="edge10" class="edge"><title>Node8&#45;&gt;Node11</title>
<path fill="none" stroke="midnightblue" d="M263,-112.083C263,-105.006 263,-94.8611 263,-85.9865"/>
<polygon fill="midnightblue" stroke="midnightblue" points="266.5,-85.751 263,-75.7511 259.5,-85.7511 266.5,-85.751"/>
</g>
<!-- Node11&#45;&gt;Node9 -->
<g id="edge11" class="edge"><title>Node11&#45;&gt;Node9</title>
<path fill="none" stroke="midnightblue" d="M255.734,-56.083C249.455,-48.3768 240.212,-37.0333 232.569,-27.6531"/>
<polygon fill="midnightblue" stroke="midnightblue" points="235.161,-25.2926 226.131,-19.7511 229.734,-29.7143 235.161,-25.2926"/>
</g>
<!-- Node11&#45;&gt;Node10 -->
<g id="edge12" class="edge"><title>Node11&#45;&gt;Node10</title>
<path fill="none" stroke="midnightblue" d="M270.101,-56.083C276.237,-48.3768 285.27,-37.0333 292.739,-27.6531"/>
<polygon fill="midnightblue" stroke="midnightblue" points="295.54,-29.7542 299.032,-19.7511 290.064,-25.3936 295.54,-29.7542"/>
</g>
</g>
</svg>
