<?xml version="1.0" encoding="UTF-8" standalone="no"?>
<!DOCTYPE svg PUBLIC "-//W3C//DTD SVG 1.1//EN"
 "http://www.w3.org/Graphics/SVG/1.1/DTD/svg11.dtd">
<!-- Generated by graphviz version 2.36.0 (20140111.2315)
 -->
<!-- Title: src/model/model.h Pages: 1 -->
<svg width="334pt" height="140pt"
 viewBox="0.00 0.00 334.00 140.00" xmlns="http://www.w3.org/2000/svg" xmlns:xlink="http://www.w3.org/1999/xlink">
<g id="graph0" class="graph" transform="scale(1 1) rotate(0) translate(4 136)">
<title>src/model/model.h</title>
<!-- Node1 -->
<g id="node1" class="node"><title>Node1</title>
<polygon fill="#bfbfbf" stroke="black" points="142.5,-112.5 142.5,-131.5 239.5,-131.5 239.5,-112.5 142.5,-112.5"/>
<text text-anchor="middle" x="191" y="-119.5" font-family="Helvetica,sans-Serif" font-size="10.00">src/model/model.h</text>
</g>
<!-- Node2 -->
<g id="node2" class="node"><title>Node2</title>
<g id="a_node2"><a xlink:href="controller_8h.html" target="_top" xlink:title="File with controller (from MVC) declaration. ">
<polygon fill="none" stroke="black" points="39,-56.5 39,-75.5 163,-75.5 163,-56.5 39,-56.5"/>
<text text-anchor="middle" x="101" y="-63.5" font-family="Helvetica,sans-Serif" font-size="10.00">src/controller/controller.h</text>
</a>
</g>
</g>
<!-- Node1&#45;&gt;Node2 -->
<g id="edge1" class="edge"><title>Node1&#45;&gt;Node2</title>
<path fill="none" stroke="midnightblue" d="M167.962,-107.177C151.401,-97.2407 129.582,-84.1492 115.424,-75.6545"/>
<polygon fill="midnightblue" stroke="midnightblue" points="166.164,-110.18 176.54,-112.324 169.766,-104.178 166.164,-110.18"/>
</g>
<!-- Node4 -->
<g id="node4" class="node"><title>Node4</title>
<g id="a_node4"><a xlink:href="tester_8cpp.html" target="_top" xlink:title="File with tester class for the whole programm. ">
<polygon fill="none" stroke="black" points="152.5,-0.5 152.5,-19.5 229.5,-19.5 229.5,-0.5 152.5,-0.5"/>
<text text-anchor="middle" x="191" y="-7.5" font-family="Helvetica,sans-Serif" font-size="10.00">src/tester.cpp</text>
</a>
</g>
</g>
<!-- Node1&#45;&gt;Node4 -->
<g id="edge5" class="edge"><title>Node1&#45;&gt;Node4</title>
<path fill="none" stroke="midnightblue" d="M191,-102.348C191,-78.2538 191,-37.3079 191,-19.5914"/>
<polygon fill="midnightblue" stroke="midnightblue" points="187.5,-102.368 191,-112.368 194.5,-102.369 187.5,-102.368"/>
</g>
<!-- Node5 -->
<g id="node5" class="node"><title>Node5</title>
<g id="a_node5"><a xlink:href="model_8cpp.html" target="_top" xlink:title="File with implementation of model (from MVC). ">
<polygon fill="none" stroke="black" points="219.5,-56.5 219.5,-75.5 326.5,-75.5 326.5,-56.5 219.5,-56.5"/>
<text text-anchor="middle" x="273" y="-63.5" font-family="Helvetica,sans-Serif" font-size="10.00">src/model/model.cpp</text>
</a>
</g>
</g>
<!-- Node1&#45;&gt;Node5 -->
<g id="edge4" class="edge"><title>Node1&#45;&gt;Node5</title>
<path fill="none" stroke="midnightblue" d="M212.833,-106.622C227.813,-96.7574 247.197,-83.9919 259.858,-75.6545"/>
<polygon fill="midnightblue" stroke="midnightblue" points="210.601,-103.901 204.175,-112.324 214.451,-109.747 210.601,-103.901"/>
</g>
<!-- Node3 -->
<g id="node3" class="node"><title>Node3</title>
<g id="a_node3"><a xlink:href="controller_8cpp.html" target="_top" xlink:title="File with controller (from MVC) implementation. ">
<polygon fill="none" stroke="black" points="0,-0.5 0,-19.5 134,-19.5 134,-0.5 0,-0.5"/>
<text text-anchor="middle" x="67" y="-7.5" font-family="Helvetica,sans-Serif" font-size="10.00">src/controller/controller.cpp</text>
</a>
</g>
</g>
<!-- Node2&#45;&gt;Node3 -->
<g id="edge2" class="edge"><title>Node2&#45;&gt;Node3</title>
<path fill="none" stroke="midnightblue" d="M90.0228,-47.5656C84.173,-38.2747 77.2305,-27.2484 72.5099,-19.7511"/>
<polygon fill="midnightblue" stroke="midnightblue" points="87.0956,-49.4855 95.3856,-56.083 93.0192,-45.7558 87.0956,-49.4855"/>
</g>
<!-- Node2&#45;&gt;Node4 -->
<g id="edge3" class="edge"><title>Node2&#45;&gt;Node4</title>
<path fill="none" stroke="midnightblue" d="M124.038,-51.1774C140.599,-41.2407 162.418,-28.1492 176.576,-19.6545"/>
<polygon fill="midnightblue" stroke="midnightblue" points="122.234,-48.1777 115.46,-56.324 125.836,-54.1802 122.234,-48.1777"/>
</g>
</g>
</svg>
