<?xml version="1.0" encoding="UTF-8" standalone="no"?>
<!DOCTYPE svg PUBLIC "-//W3C//DTD SVG 1.1//EN"
 "http://www.w3.org/Graphics/SVG/1.1/DTD/svg11.dtd">
<!-- Generated by graphviz version 2.38.0 (20140413.2041)
 -->
<!-- Title: src/model/model.h Pages: 1 -->
<svg width="407pt" height="252pt"
 viewBox="0.00 0.00 406.50 252.00" xmlns="http://www.w3.org/2000/svg" xmlns:xlink="http://www.w3.org/1999/xlink">
<g id="graph0" class="graph" transform="scale(1 1) rotate(0) translate(4 248)">
<title>src/model/model.h</title>
<!-- Node1 -->
<g id="node1" class="node"><title>Node1</title>
<polygon fill="#bfbfbf" stroke="black" points="223,-224.5 223,-243.5 329,-243.5 329,-224.5 223,-224.5"/>
<text text-anchor="middle" x="276" y="-231.5" font-family="Helvetica,sans-Serif" font-size="10.00">src/model/model.h</text>
</g>
<!-- Node2 -->
<g id="node2" class="node"><title>Node2</title>
<g id="a_node2"><a xlink:href="imodel_8h.html" target="_top" xlink:title="File with interface of abstract model (from MVC). ">
<polygon fill="none" stroke="black" points="247,-168.5 247,-187.5 305,-187.5 305,-168.5 247,-168.5"/>
<text text-anchor="middle" x="276" y="-175.5" font-family="Helvetica,sans-Serif" font-size="10.00">imodel.h</text>
</a>
</g>
</g>
<!-- Node1&#45;&gt;Node2 -->
<g id="edge1" class="edge"><title>Node1&#45;&gt;Node2</title>
<path fill="none" stroke="midnightblue" d="M276,-224.083C276,-217.006 276,-206.861 276,-197.986"/>
<polygon fill="midnightblue" stroke="midnightblue" points="279.5,-197.751 276,-187.751 272.5,-197.751 279.5,-197.751"/>
</g>
<!-- Node3 -->
<g id="node3" class="node"><title>Node3</title>
<g id="a_node3"><a xlink:href="geometry__elements_8h.html" target="_top" xlink:title="File with declaration of geometry element classes. ">
<polygon fill="none" stroke="black" points="55.5,-112.5 55.5,-131.5 210.5,-131.5 210.5,-112.5 55.5,-112.5"/>
<text text-anchor="middle" x="133" y="-119.5" font-family="Helvetica,sans-Serif" font-size="10.00">../view/geometry_elements.h</text>
</a>
</g>
</g>
<!-- Node2&#45;&gt;Node3 -->
<g id="edge2" class="edge"><title>Node2&#45;&gt;Node3</title>
<path fill="none" stroke="midnightblue" d="M253.341,-168.444C229.598,-159.478 192.091,-145.314 165.262,-135.183"/>
<polygon fill="midnightblue" stroke="midnightblue" points="166.144,-131.775 155.553,-131.516 163.671,-138.324 166.144,-131.775"/>
</g>
<!-- Node7 -->
<g id="node7" class="node"><title>Node7</title>
<g id="a_node7"><a xlink:href="observe_8h.html" target="_top" xlink:title="File with declaration of observer pattern &#45; Observer and Observable. ">
<polygon fill="none" stroke="black" points="228.5,-112.5 228.5,-131.5 323.5,-131.5 323.5,-112.5 228.5,-112.5"/>
<text text-anchor="middle" x="276" y="-119.5" font-family="Helvetica,sans-Serif" font-size="10.00">../utils/observe.h</text>
</a>
</g>
</g>
<!-- Node2&#45;&gt;Node7 -->
<g id="edge6" class="edge"><title>Node2&#45;&gt;Node7</title>
<path fill="none" stroke="midnightblue" d="M276,-168.083C276,-161.006 276,-150.861 276,-141.986"/>
<polygon fill="midnightblue" stroke="midnightblue" points="279.5,-141.751 276,-131.751 272.5,-141.751 279.5,-141.751"/>
</g>
<!-- Node11 -->
<g id="node11" class="node"><title>Node11</title>
<polygon fill="none" stroke="#bfbfbf" points="341.5,-112.5 341.5,-131.5 398.5,-131.5 398.5,-112.5 341.5,-112.5"/>
<text text-anchor="middle" x="370" y="-119.5" font-family="Helvetica,sans-Serif" font-size="10.00">memory</text>
</g>
<!-- Node2&#45;&gt;Node11 -->
<g id="edge12" class="edge"><title>Node2&#45;&gt;Node11</title>
<path fill="none" stroke="midnightblue" d="M291.103,-168.324C305.903,-159.822 328.694,-146.729 345.982,-136.797"/>
<polygon fill="midnightblue" stroke="midnightblue" points="348.007,-139.671 354.935,-131.655 344.52,-133.601 348.007,-139.671"/>
</g>
<!-- Node4 -->
<g id="node4" class="node"><title>Node4</title>
<g id="a_node4"><a xlink:href="logger_8h.html" target="_top" xlink:title="File with simple logger class declaration. ">
<polygon fill="none" stroke="black" points="0,-56.5 0,-75.5 86,-75.5 86,-56.5 0,-56.5"/>
<text text-anchor="middle" x="43" y="-63.5" font-family="Helvetica,sans-Serif" font-size="10.00">../utils/logger.h</text>
</a>
</g>
</g>
<!-- Node3&#45;&gt;Node4 -->
<g id="edge3" class="edge"><title>Node3&#45;&gt;Node4</title>
<path fill="none" stroke="midnightblue" d="M118.54,-112.324C104.5,-103.9 82.9515,-90.9709 66.4569,-81.0741"/>
<polygon fill="midnightblue" stroke="midnightblue" points="67.7999,-77.7983 57.4242,-75.6545 64.1984,-83.8007 67.7999,-77.7983"/>
</g>
<!-- Node6 -->
<g id="node6" class="node"><title>Node6</title>
<g id="a_node6"><a xlink:href="tags_8h.html" target="_top" xlink:title="File with declaration of some tool and color tags. Used as color and tool mode flag in model (M from ...">
<polygon fill="none" stroke="black" points="104,-56.5 104,-75.5 182,-75.5 182,-56.5 104,-56.5"/>
<text text-anchor="middle" x="143" y="-63.5" font-family="Helvetica,sans-Serif" font-size="10.00">../utils/tags.h</text>
</a>
</g>
</g>
<!-- Node3&#45;&gt;Node6 -->
<g id="edge5" class="edge"><title>Node3&#45;&gt;Node6</title>
<path fill="none" stroke="midnightblue" d="M134.651,-112.083C135.976,-104.927 137.882,-94.6353 139.539,-85.6911"/>
<polygon fill="midnightblue" stroke="midnightblue" points="143,-86.2212 141.379,-75.7511 136.117,-84.9466 143,-86.2212"/>
</g>
<!-- Node5 -->
<g id="node5" class="node"><title>Node5</title>
<polygon fill="none" stroke="#bfbfbf" points="21,-0.5 21,-19.5 65,-19.5 65,-0.5 21,-0.5"/>
<text text-anchor="middle" x="43" y="-7.5" font-family="Helvetica,sans-Serif" font-size="10.00">string</text>
</g>
<!-- Node4&#45;&gt;Node5 -->
<g id="edge4" class="edge"><title>Node4&#45;&gt;Node5</title>
<path fill="none" stroke="midnightblue" d="M43,-56.083C43,-49.0059 43,-38.8611 43,-29.9865"/>
<polygon fill="midnightblue" stroke="midnightblue" points="46.5001,-29.751 43,-19.7511 39.5001,-29.7511 46.5001,-29.751"/>
</g>
<!-- Node8 -->
<g id="node8" class="node"><title>Node8</title>
<polygon fill="none" stroke="#bfbfbf" points="216,-0.5 216,-19.5 246,-19.5 246,-0.5 216,-0.5"/>
<text text-anchor="middle" x="231" y="-7.5" font-family="Helvetica,sans-Serif" font-size="10.00">list</text>
</g>
<!-- Node7&#45;&gt;Node8 -->
<g id="edge7" class="edge"><title>Node7&#45;&gt;Node8</title>
<path fill="none" stroke="midnightblue" d="M266.007,-112.478C257.013,-104.168 244.275,-90.6657 238,-76 231.785,-61.4725 230.259,-43.5224 230.161,-30.1687"/>
<polygon fill="midnightblue" stroke="midnightblue" points="233.667,-29.8839 230.36,-19.8185 226.668,-29.7494 233.667,-29.8839"/>
</g>
<!-- Node9 -->
<g id="node9" class="node"><title>Node9</title>
<polygon fill="none" stroke="#bfbfbf" points="288.5,-0.5 288.5,-19.5 351.5,-19.5 351.5,-0.5 288.5,-0.5"/>
<text text-anchor="middle" x="320" y="-7.5" font-family="Helvetica,sans-Serif" font-size="10.00">functional</text>
</g>
<!-- Node7&#45;&gt;Node9 -->
<g id="edge8" class="edge"><title>Node7&#45;&gt;Node9</title>
<path fill="none" stroke="midnightblue" d="M286.393,-112.179C295.401,-103.859 307.916,-90.5245 314,-76 320.095,-61.4477 321.336,-43.4998 321.199,-30.1533"/>
<polygon fill="midnightblue" stroke="midnightblue" points="324.683,-29.672 320.811,-19.81 317.688,-29.9341 324.683,-29.672"/>
</g>
<!-- Node10 -->
<g id="node10" class="node"><title>Node10</title>
<g id="a_node10"><a xlink:href="onclick_8h.html" target="_top" xlink:title="File with declaration of observer pattern classes. Two pairs of publishers and subscribers: OnClickLi...">
<polygon fill="none" stroke="black" points="247,-56.5 247,-75.5 305,-75.5 305,-56.5 247,-56.5"/>
<text text-anchor="middle" x="276" y="-63.5" font-family="Helvetica,sans-Serif" font-size="10.00">onclick.h</text>
</a>
</g>
</g>
<!-- Node7&#45;&gt;Node10 -->
<g id="edge9" class="edge"><title>Node7&#45;&gt;Node10</title>
<path fill="none" stroke="midnightblue" d="M276,-112.083C276,-105.006 276,-94.8611 276,-85.9865"/>
<polygon fill="midnightblue" stroke="midnightblue" points="279.5,-85.751 276,-75.7511 272.5,-85.7511 279.5,-85.751"/>
</g>
<!-- Node10&#45;&gt;Node8 -->
<g id="edge10" class="edge"><title>Node10&#45;&gt;Node8</title>
<path fill="none" stroke="midnightblue" d="M268.569,-56.083C262.147,-48.3768 252.694,-37.0333 244.878,-27.6531"/>
<polygon fill="midnightblue" stroke="midnightblue" points="247.383,-25.1927 238.293,-19.7511 242.006,-29.674 247.383,-25.1927"/>
</g>
<!-- Node10&#45;&gt;Node9 -->
<g id="edge11" class="edge"><title>Node10&#45;&gt;Node9</title>
<path fill="none" stroke="midnightblue" d="M283.266,-56.083C289.545,-48.3768 298.788,-37.0333 306.431,-27.6531"/>
<polygon fill="midnightblue" stroke="midnightblue" points="309.266,-29.7143 312.869,-19.7511 303.839,-25.2926 309.266,-29.7143"/>
</g>
</g>
</svg>
