<?xml version="1.0" encoding="UTF-8" standalone="no"?>
<!DOCTYPE svg PUBLIC "-//W3C//DTD SVG 1.1//EN"
 "http://www.w3.org/Graphics/SVG/1.1/DTD/svg11.dtd">
<!-- Generated by graphviz version 2.36.0 (20140111.2315)
 -->
<!-- Title: src/utils/observe.h Pages: 1 -->
<svg width="491pt" height="252pt"
 viewBox="0.00 0.00 491.00 252.00" xmlns="http://www.w3.org/2000/svg" xmlns:xlink="http://www.w3.org/1999/xlink">
<g id="graph0" class="graph" transform="scale(1 1) rotate(0) translate(4 248)">
<title>src/utils/observe.h</title>
<!-- Node1 -->
<g id="node1" class="node"><title>Node1</title>
<polygon fill="#bfbfbf" stroke="black" points="134.5,-224.5 134.5,-243.5 231.5,-243.5 231.5,-224.5 134.5,-224.5"/>
<text text-anchor="middle" x="183" y="-231.5" font-family="Helvetica,sans-Serif" font-size="10.00">src/utils/observe.h</text>
</g>
<!-- Node2 -->
<g id="node2" class="node"><title>Node2</title>
<g id="a_node2"><a xlink:href="imodel_8h.html" target="_top" xlink:title="File with interface of abstract model (from MVC). ">
<polygon fill="none" stroke="black" points="94.5,-168.5 94.5,-187.5 193.5,-187.5 193.5,-168.5 94.5,-168.5"/>
<text text-anchor="middle" x="144" y="-175.5" font-family="Helvetica,sans-Serif" font-size="10.00">src/model/imodel.h</text>
</a>
</g>
</g>
<!-- Node1&#45;&gt;Node2 -->
<g id="edge1" class="edge"><title>Node1&#45;&gt;Node2</title>
<path fill="none" stroke="midnightblue" d="M170.618,-215.855C163.865,-206.505 155.791,-195.327 150.32,-187.751"/>
<polygon fill="midnightblue" stroke="midnightblue" points="167.868,-218.025 176.56,-224.083 173.542,-213.927 167.868,-218.025"/>
</g>
<!-- Node10 -->
<g id="node10" class="node"><title>Node10</title>
<g id="a_node10"><a xlink:href="iview_8h.html" target="_top" xlink:title="File with interface of abstract view (V from MVC). ">
<polygon fill="none" stroke="black" points="178.5,-112.5 178.5,-131.5 265.5,-131.5 265.5,-112.5 178.5,-112.5"/>
<text text-anchor="middle" x="222" y="-119.5" font-family="Helvetica,sans-Serif" font-size="10.00">src/view/iview.h</text>
</a>
</g>
</g>
<!-- Node1&#45;&gt;Node10 -->
<g id="edge12" class="edge"><title>Node1&#45;&gt;Node10</title>
<path fill="none" stroke="midnightblue" d="M191.01,-215.189C194.571,-206.986 198.697,-197.077 202,-188 209.268,-168.029 216.203,-144.007 219.68,-131.504"/>
<polygon fill="midnightblue" stroke="midnightblue" points="187.746,-213.915 186.904,-224.476 194.148,-216.745 187.746,-213.915"/>
</g>
<!-- Node3 -->
<g id="node3" class="node"><title>Node3</title>
<g id="a_node3"><a xlink:href="model_8h.html" target="_top" xlink:title="File with declaration of model (from MVC). ">
<polygon fill="none" stroke="black" points="295.5,-112.5 295.5,-131.5 392.5,-131.5 392.5,-112.5 295.5,-112.5"/>
<text text-anchor="middle" x="344" y="-119.5" font-family="Helvetica,sans-Serif" font-size="10.00">src/model/model.h</text>
</a>
</g>
</g>
<!-- Node2&#45;&gt;Node3 -->
<g id="edge2" class="edge"><title>Node2&#45;&gt;Node3</title>
<path fill="none" stroke="midnightblue" d="M185.374,-165.829C223.136,-155.633 278.14,-140.782 312.458,-131.516"/>
<polygon fill="midnightblue" stroke="midnightblue" points="184.433,-162.458 175.691,-168.444 186.257,-169.216 184.433,-162.458"/>
</g>
<!-- Node8 -->
<g id="node8" class="node"><title>Node8</title>
<g id="a_node8"><a xlink:href="view_8h.html" target="_top" xlink:title="File with declaration of view (V from MVC). ">
<polygon fill="none" stroke="black" points="92.5,-56.5 92.5,-75.5 177.5,-75.5 177.5,-56.5 92.5,-56.5"/>
<text text-anchor="middle" x="135" y="-63.5" font-family="Helvetica,sans-Serif" font-size="10.00">src/view/view.h</text>
</a>
</g>
</g>
<!-- Node2&#45;&gt;Node8 -->
<g id="edge8" class="edge"><title>Node2&#45;&gt;Node8</title>
<path fill="none" stroke="midnightblue" d="M142.474,-158.348C140.503,-134.254 137.152,-93.3079 135.703,-75.5914"/>
<polygon fill="midnightblue" stroke="midnightblue" points="138.99,-158.687 143.294,-168.368 145.967,-158.116 138.99,-158.687"/>
</g>
<!-- Node4 -->
<g id="node4" class="node"><title>Node4</title>
<g id="a_node4"><a xlink:href="controller_8h.html" target="_top" xlink:title="File with controller (from MVC) declaration. ">
<polygon fill="none" stroke="black" points="196,-56.5 196,-75.5 320,-75.5 320,-56.5 196,-56.5"/>
<text text-anchor="middle" x="258" y="-63.5" font-family="Helvetica,sans-Serif" font-size="10.00">src/controller/controller.h</text>
</a>
</g>
</g>
<!-- Node3&#45;&gt;Node4 -->
<g id="edge3" class="edge"><title>Node3&#45;&gt;Node4</title>
<path fill="none" stroke="midnightblue" d="M321.545,-106.901C305.776,-96.9986 285.186,-84.0705 271.783,-75.6545"/>
<polygon fill="midnightblue" stroke="midnightblue" points="319.852,-109.97 330.183,-112.324 323.575,-104.042 319.852,-109.97"/>
</g>
<!-- Node6 -->
<g id="node6" class="node"><title>Node6</title>
<g id="a_node6"><a xlink:href="tester_8cpp.html" target="_top" xlink:title="File with tester class for the whole programm. ">
<polygon fill="none" stroke="black" points="265.5,-0.5 265.5,-19.5 342.5,-19.5 342.5,-0.5 265.5,-0.5"/>
<text text-anchor="middle" x="304" y="-7.5" font-family="Helvetica,sans-Serif" font-size="10.00">src/tester.cpp</text>
</a>
</g>
</g>
<!-- Node3&#45;&gt;Node6 -->
<g id="edge7" class="edge"><title>Node3&#45;&gt;Node6</title>
<path fill="none" stroke="midnightblue" d="M340.661,-102.195C338.01,-89.0088 333.785,-71.1098 328,-56 322.935,-42.7699 314.826,-28.4993 309.457,-19.6568"/>
<polygon fill="midnightblue" stroke="midnightblue" points="337.289,-103.204 342.584,-112.381 344.168,-101.905 337.289,-103.204"/>
</g>
<!-- Node7 -->
<g id="node7" class="node"><title>Node7</title>
<g id="a_node7"><a xlink:href="model_8cpp.html" target="_top" xlink:title="File with implementation of model (from MVC). ">
<polygon fill="none" stroke="black" points="376.5,-56.5 376.5,-75.5 483.5,-75.5 483.5,-56.5 376.5,-56.5"/>
<text text-anchor="middle" x="430" y="-63.5" font-family="Helvetica,sans-Serif" font-size="10.00">src/model/model.cpp</text>
</a>
</g>
</g>
<!-- Node3&#45;&gt;Node7 -->
<g id="edge6" class="edge"><title>Node3&#45;&gt;Node7</title>
<path fill="none" stroke="midnightblue" d="M366.455,-106.901C382.224,-96.9986 402.814,-84.0705 416.217,-75.6545"/>
<polygon fill="midnightblue" stroke="midnightblue" points="364.425,-104.042 357.817,-112.324 368.148,-109.97 364.425,-104.042"/>
</g>
<!-- Node5 -->
<g id="node5" class="node"><title>Node5</title>
<g id="a_node5"><a xlink:href="controller_8cpp.html" target="_top" xlink:title="File with controller (from MVC) implementation. ">
<polygon fill="none" stroke="black" points="113,-0.5 113,-19.5 247,-19.5 247,-0.5 113,-0.5"/>
<text text-anchor="middle" x="180" y="-7.5" font-family="Helvetica,sans-Serif" font-size="10.00">src/controller/controller.cpp</text>
</a>
</g>
</g>
<!-- Node4&#45;&gt;Node5 -->
<g id="edge4" class="edge"><title>Node4&#45;&gt;Node5</title>
<path fill="none" stroke="midnightblue" d="M237.232,-50.6221C222.983,-40.7574 204.544,-27.9919 192.501,-19.6545"/>
<polygon fill="midnightblue" stroke="midnightblue" points="235.254,-53.5095 245.468,-56.324 239.238,-47.7541 235.254,-53.5095"/>
</g>
<!-- Node4&#45;&gt;Node6 -->
<g id="edge5" class="edge"><title>Node4&#45;&gt;Node6</title>
<path fill="none" stroke="midnightblue" d="M272.114,-48.4314C280.176,-38.9673 289.959,-27.4827 296.545,-19.7511"/>
<polygon fill="midnightblue" stroke="midnightblue" points="269.416,-46.2009 265.596,-56.083 274.745,-50.7402 269.416,-46.2009"/>
</g>
<!-- Node8&#45;&gt;Node5 -->
<g id="edge9" class="edge"><title>Node8&#45;&gt;Node5</title>
<path fill="none" stroke="midnightblue" d="M149.047,-48.144C156.887,-38.7357 166.329,-27.4046 172.707,-19.7511"/>
<polygon fill="midnightblue" stroke="midnightblue" points="146.144,-46.1601 142.431,-56.083 151.521,-50.6414 146.144,-46.1601"/>
</g>
<!-- Node8&#45;&gt;Node6 -->
<g id="edge10" class="edge"><title>Node8&#45;&gt;Node6</title>
<path fill="none" stroke="midnightblue" d="M171.603,-53.3044C203.447,-43.1294 248.842,-28.6246 277.347,-19.5164"/>
<polygon fill="midnightblue" stroke="midnightblue" points="170.239,-50.0659 161.779,-56.4435 172.369,-56.7337 170.239,-50.0659"/>
</g>
<!-- Node9 -->
<g id="node9" class="node"><title>Node9</title>
<g id="a_node9"><a xlink:href="view_8cpp.html" target="_top" xlink:title="File with implementation of view (V from MVC). ">
<polygon fill="none" stroke="black" points="-0.5,-0.5 -0.5,-19.5 94.5,-19.5 94.5,-0.5 -0.5,-0.5"/>
<text text-anchor="middle" x="47" y="-7.5" font-family="Helvetica,sans-Serif" font-size="10.00">src/view/view.cpp</text>
</a>
</g>
</g>
<!-- Node8&#45;&gt;Node9 -->
<g id="edge11" class="edge"><title>Node8&#45;&gt;Node9</title>
<path fill="none" stroke="midnightblue" d="M112.023,-50.9005C95.8866,-40.9986 74.8187,-28.0705 61.1036,-19.6545"/>
<polygon fill="midnightblue" stroke="midnightblue" points="110.507,-54.0769 120.861,-56.324 114.169,-48.1106 110.507,-54.0769"/>
</g>
<!-- Node10&#45;&gt;Node4 -->
<g id="edge13" class="edge"><title>Node10&#45;&gt;Node4</title>
<path fill="none" stroke="midnightblue" d="M233.623,-103.566C239.817,-94.2747 247.168,-83.2484 252.166,-75.7511"/>
<polygon fill="midnightblue" stroke="midnightblue" points="230.58,-101.821 227.945,-112.083 236.404,-105.704 230.58,-101.821"/>
</g>
<!-- Node10&#45;&gt;Node8 -->
<g id="edge14" class="edge"><title>Node10&#45;&gt;Node8</title>
<path fill="none" stroke="midnightblue" d="M199.284,-106.901C183.331,-96.9986 162.503,-84.0705 148.943,-75.6545"/>
<polygon fill="midnightblue" stroke="midnightblue" points="197.68,-110.024 208.022,-112.324 201.371,-104.077 197.68,-110.024"/>
</g>
</g>
</svg>
