<?xml version="1.0" encoding="UTF-8" standalone="no"?>
<!DOCTYPE svg PUBLIC "-//W3C//DTD SVG 1.1//EN"
 "http://www.w3.org/Graphics/SVG/1.1/DTD/svg11.dtd">
<!-- Generated by graphviz version 2.36.0 (20140111.2315)
 -->
<!-- Title: src/utils/observe.cpp Pages: 1 -->
<svg width="133pt" height="140pt"
 viewBox="0.00 0.00 133.00 140.00" xmlns="http://www.w3.org/2000/svg" xmlns:xlink="http://www.w3.org/1999/xlink">
<g id="graph0" class="graph" transform="scale(1 1) rotate(0) translate(4 136)">
<title>src/utils/observe.cpp</title>
<!-- Node1 -->
<g id="node1" class="node"><title>Node1</title>
<polygon fill="#bfbfbf" stroke="black" points="11.5,-112.5 11.5,-131.5 118.5,-131.5 118.5,-112.5 11.5,-112.5"/>
<text text-anchor="middle" x="65" y="-119.5" font-family="Helvetica,sans-Serif" font-size="10.00">src/utils/observe.cpp</text>
</g>
<!-- Node2 -->
<g id="node2" class="node"><title>Node2</title>
<g id="a_node2"><a xlink:href="observe_8h.html" target="_top" xlink:title="File with declaration of observer pattern &#45; Observer and Observable. ">
<polygon fill="none" stroke="black" points="-0.5,-56.5 -0.5,-75.5 58.5,-75.5 58.5,-56.5 -0.5,-56.5"/>
<text text-anchor="middle" x="29" y="-63.5" font-family="Helvetica,sans-Serif" font-size="10.00">observe.h</text>
</a>
</g>
</g>
<!-- Node1&#45;&gt;Node2 -->
<g id="edge1" class="edge"><title>Node1&#45;&gt;Node2</title>
<path fill="none" stroke="midnightblue" d="M59.0553,-112.083C54.0227,-104.534 46.6632,-93.4948 40.4865,-84.2298"/>
<polygon fill="midnightblue" stroke="midnightblue" points="43.2933,-82.1301 34.8341,-75.7511 37.4689,-86.0131 43.2933,-82.1301"/>
</g>
<!-- Node4 -->
<g id="node4" class="node"><title>Node4</title>
<polygon fill="none" stroke="#bfbfbf" points="76.5,-56.5 76.5,-75.5 125.5,-75.5 125.5,-56.5 76.5,-56.5"/>
<text text-anchor="middle" x="101" y="-63.5" font-family="Helvetica,sans-Serif" font-size="10.00">cassert</text>
</g>
<!-- Node1&#45;&gt;Node4 -->
<g id="edge3" class="edge"><title>Node1&#45;&gt;Node4</title>
<path fill="none" stroke="midnightblue" d="M70.9447,-112.083C75.9773,-104.534 83.3368,-93.4948 89.5135,-84.2298"/>
<polygon fill="midnightblue" stroke="midnightblue" points="92.5311,-86.0131 95.1659,-75.7511 86.7067,-82.1301 92.5311,-86.0131"/>
</g>
<!-- Node3 -->
<g id="node3" class="node"><title>Node3</title>
<polygon fill="none" stroke="#bfbfbf" points="14.5,-0.5 14.5,-19.5 43.5,-19.5 43.5,-0.5 14.5,-0.5"/>
<text text-anchor="middle" x="29" y="-7.5" font-family="Helvetica,sans-Serif" font-size="10.00">list</text>
</g>
<!-- Node2&#45;&gt;Node3 -->
<g id="edge2" class="edge"><title>Node2&#45;&gt;Node3</title>
<path fill="none" stroke="midnightblue" d="M29,-56.083C29,-49.0059 29,-38.8611 29,-29.9865"/>
<polygon fill="midnightblue" stroke="midnightblue" points="32.5001,-29.751 29,-19.7511 25.5001,-29.7511 32.5001,-29.751"/>
</g>
</g>
</svg>
