<?xml version="1.0" encoding="UTF-8" standalone="no"?>
<!DOCTYPE svg PUBLIC "-//W3C//DTD SVG 1.1//EN"
 "http://www.w3.org/Graphics/SVG/1.1/DTD/svg11.dtd">
<!-- Generated by graphviz version 2.38.0 (20140413.2041)
 -->
<!-- Title: src/utils/observe.h Pages: 1 -->
<svg width="520pt" height="252pt"
 viewBox="0.00 0.00 520.00 252.00" xmlns="http://www.w3.org/2000/svg" xmlns:xlink="http://www.w3.org/1999/xlink">
<g id="graph0" class="graph" transform="scale(1 1) rotate(0) translate(4 248)">
<title>src/utils/observe.h</title>
<!-- Node1 -->
<g id="node1" class="node"><title>Node1</title>
<polygon fill="#bfbfbf" stroke="black" points="140.5,-224.5 140.5,-243.5 244.5,-243.5 244.5,-224.5 140.5,-224.5"/>
<text text-anchor="middle" x="192.5" y="-231.5" font-family="Helvetica,sans-Serif" font-size="10.00">src/utils/observe.h</text>
</g>
<!-- Node2 -->
<g id="node2" class="node"><title>Node2</title>
<g id="a_node2"><a xlink:href="imodel_8h.html" target="_top" xlink:title="File with interface of abstract model (from MVC). ">
<polygon fill="none" stroke="black" points="97.5,-168.5 97.5,-187.5 205.5,-187.5 205.5,-168.5 97.5,-168.5"/>
<text text-anchor="middle" x="151.5" y="-175.5" font-family="Helvetica,sans-Serif" font-size="10.00">src/model/imodel.h</text>
</a>
</g>
</g>
<!-- Node1&#45;&gt;Node2 -->
<g id="edge1" class="edge"><title>Node1&#45;&gt;Node2</title>
<path fill="none" stroke="midnightblue" d="M179.483,-215.855C172.383,-206.505 163.896,-195.327 158.144,-187.751"/>
<polygon fill="midnightblue" stroke="midnightblue" points="176.895,-218.235 185.73,-224.083 182.47,-214.002 176.895,-218.235"/>
</g>
<!-- Node10 -->
<g id="node10" class="node"><title>Node10</title>
<g id="a_node10"><a xlink:href="iview_8h.html" target="_top" xlink:title="File with interface of abstract view (V from MVC). ">
<polygon fill="none" stroke="black" points="189.5,-112.5 189.5,-131.5 277.5,-131.5 277.5,-112.5 189.5,-112.5"/>
<text text-anchor="middle" x="233.5" y="-119.5" font-family="Helvetica,sans-Serif" font-size="10.00">src/view/iview.h</text>
</a>
</g>
</g>
<!-- Node1&#45;&gt;Node10 -->
<g id="edge12" class="edge"><title>Node1&#45;&gt;Node10</title>
<path fill="none" stroke="midnightblue" d="M202.02,-215.302C206.186,-207.136 210.927,-197.224 214.5,-188 222.144,-168.266 228.432,-144.148 231.492,-131.567"/>
<polygon fill="midnightblue" stroke="midnightblue" points="198.88,-213.753 197.341,-224.235 205.081,-217.001 198.88,-213.753"/>
</g>
<!-- Node3 -->
<g id="node3" class="node"><title>Node3</title>
<g id="a_node3"><a xlink:href="model_8h.html" target="_top" xlink:title="File with declaration of model (from MVC). ">
<polygon fill="none" stroke="black" points="309.5,-112.5 309.5,-131.5 415.5,-131.5 415.5,-112.5 309.5,-112.5"/>
<text text-anchor="middle" x="362.5" y="-119.5" font-family="Helvetica,sans-Serif" font-size="10.00">src/model/model.h</text>
</a>
</g>
</g>
<!-- Node2&#45;&gt;Node3 -->
<g id="edge2" class="edge"><title>Node2&#45;&gt;Node3</title>
<path fill="none" stroke="midnightblue" d="M194.642,-165.959C234.494,-155.76 292.863,-140.822 329.223,-131.516"/>
<polygon fill="midnightblue" stroke="midnightblue" points="193.754,-162.573 184.934,-168.444 195.489,-169.355 193.754,-162.573"/>
</g>
<!-- Node8 -->
<g id="node8" class="node"><title>Node8</title>
<g id="a_node8"><a xlink:href="view_8h.html" target="_top" xlink:title="File with declaration of view (V from MVC). ">
<polygon fill="none" stroke="black" points="98.5,-56.5 98.5,-75.5 184.5,-75.5 184.5,-56.5 98.5,-56.5"/>
<text text-anchor="middle" x="141.5" y="-63.5" font-family="Helvetica,sans-Serif" font-size="10.00">src/view/view.h</text>
</a>
</g>
</g>
<!-- Node2&#45;&gt;Node8 -->
<g id="edge8" class="edge"><title>Node2&#45;&gt;Node8</title>
<path fill="none" stroke="midnightblue" d="M149.804,-158.348C147.614,-134.254 143.892,-93.3079 142.281,-75.5914"/>
<polygon fill="midnightblue" stroke="midnightblue" points="146.324,-158.726 150.715,-168.368 153.295,-158.093 146.324,-158.726"/>
</g>
<!-- Node4 -->
<g id="node4" class="node"><title>Node4</title>
<g id="a_node4"><a xlink:href="controller_8h.html" target="_top" xlink:title="File with controller (from MVC) declaration. ">
<polygon fill="none" stroke="black" points="203,-56.5 203,-75.5 338,-75.5 338,-56.5 203,-56.5"/>
<text text-anchor="middle" x="270.5" y="-63.5" font-family="Helvetica,sans-Serif" font-size="10.00">src/controller/controller.h</text>
</a>
</g>
</g>
<!-- Node3&#45;&gt;Node4 -->
<g id="edge3" class="edge"><title>Node3&#45;&gt;Node4</title>
<path fill="none" stroke="midnightblue" d="M338.95,-107.177C322.021,-97.2407 299.717,-84.1492 285.245,-75.6545"/>
<polygon fill="midnightblue" stroke="midnightblue" points="337.323,-110.28 347.719,-112.324 340.866,-104.243 337.323,-110.28"/>
</g>
<!-- Node6 -->
<g id="node6" class="node"><title>Node6</title>
<g id="a_node6"><a xlink:href="tester_8cpp.html" target="_top" xlink:title="File with tester class for the whole programm. ">
<polygon fill="none" stroke="black" points="279.5,-0.5 279.5,-19.5 361.5,-19.5 361.5,-0.5 279.5,-0.5"/>
<text text-anchor="middle" x="320.5" y="-7.5" font-family="Helvetica,sans-Serif" font-size="10.00">src/tester.cpp</text>
</a>
</g>
</g>
<!-- Node3&#45;&gt;Node6 -->
<g id="edge7" class="edge"><title>Node3&#45;&gt;Node6</title>
<path fill="none" stroke="midnightblue" d="M359.32,-102.132C356.743,-88.9172 352.541,-71.0094 346.5,-56 341.11,-42.6076 332.301,-28.3776 326.453,-19.5883"/>
<polygon fill="midnightblue" stroke="midnightblue" points="355.944,-103.131 361.172,-112.346 362.832,-101.882 355.944,-103.131"/>
</g>
<!-- Node7 -->
<g id="node7" class="node"><title>Node7</title>
<g id="a_node7"><a xlink:href="model_8cpp.html" target="_top" xlink:title="File with implementation of model (from MVC). ">
<polygon fill="none" stroke="black" points="395,-56.5 395,-75.5 512,-75.5 512,-56.5 395,-56.5"/>
<text text-anchor="middle" x="453.5" y="-63.5" font-family="Helvetica,sans-Serif" font-size="10.00">src/model/model.cpp</text>
</a>
</g>
</g>
<!-- Node3&#45;&gt;Node7 -->
<g id="edge6" class="edge"><title>Node3&#45;&gt;Node7</title>
<path fill="none" stroke="midnightblue" d="M385.794,-107.177C402.539,-97.2407 424.6,-84.1492 438.916,-75.6545"/>
<polygon fill="midnightblue" stroke="midnightblue" points="383.934,-104.211 377.121,-112.324 387.507,-110.231 383.934,-104.211"/>
</g>
<!-- Node5 -->
<g id="node5" class="node"><title>Node5</title>
<g id="a_node5"><a xlink:href="controller_8cpp.html" target="_top" xlink:title="File with controller (from MVC) implementation. ">
<polygon fill="none" stroke="black" points="115.5,-0.5 115.5,-19.5 261.5,-19.5 261.5,-0.5 115.5,-0.5"/>
<text text-anchor="middle" x="188.5" y="-7.5" font-family="Helvetica,sans-Serif" font-size="10.00">src/controller/controller.cpp</text>
</a>
</g>
</g>
<!-- Node4&#45;&gt;Node5 -->
<g id="edge4" class="edge"><title>Node4&#45;&gt;Node5</title>
<path fill="none" stroke="midnightblue" d="M248.667,-50.6221C233.687,-40.7574 214.303,-27.9919 201.642,-19.6545"/>
<polygon fill="midnightblue" stroke="midnightblue" points="247.049,-53.7471 257.325,-56.324 250.899,-47.9009 247.049,-53.7471"/>
</g>
<!-- Node4&#45;&gt;Node6 -->
<g id="edge5" class="edge"><title>Node4&#45;&gt;Node6</title>
<path fill="none" stroke="midnightblue" d="M285.576,-48.7175C294.389,-39.1997 305.166,-27.5608 312.397,-19.7511"/>
<polygon fill="midnightblue" stroke="midnightblue" points="282.982,-46.3674 278.756,-56.083 288.119,-51.1233 282.982,-46.3674"/>
</g>
<!-- Node8&#45;&gt;Node5 -->
<g id="edge9" class="edge"><title>Node8&#45;&gt;Node5</title>
<path fill="none" stroke="midnightblue" d="M155.921,-48.4314C164.158,-38.9673 174.154,-27.4827 180.883,-19.7511"/>
<polygon fill="midnightblue" stroke="midnightblue" points="153.186,-46.2421 149.261,-56.083 158.466,-50.8378 153.186,-46.2421"/>
</g>
<!-- Node8&#45;&gt;Node6 -->
<g id="edge10" class="edge"><title>Node8&#45;&gt;Node6</title>
<path fill="none" stroke="midnightblue" d="M179.831,-53.4363C213.58,-43.2551 261.947,-28.664 292.27,-19.5164"/>
<polygon fill="midnightblue" stroke="midnightblue" points="178.426,-50.2044 169.863,-56.4435 180.448,-56.9061 178.426,-50.2044"/>
</g>
<!-- Node9 -->
<g id="node9" class="node"><title>Node9</title>
<g id="a_node9"><a xlink:href="view_8cpp.html" target="_top" xlink:title="File with implementation of view (V from MVC). ">
<polygon fill="none" stroke="black" points="0,-0.5 0,-19.5 97,-19.5 97,-0.5 0,-0.5"/>
<text text-anchor="middle" x="48.5" y="-7.5" font-family="Helvetica,sans-Serif" font-size="10.00">src/view/view.cpp</text>
</a>
</g>
</g>
<!-- Node8&#45;&gt;Node9 -->
<g id="edge11" class="edge"><title>Node8&#45;&gt;Node9</title>
<path fill="none" stroke="midnightblue" d="M117.694,-51.1774C100.581,-41.2407 78.0347,-28.1492 63.405,-19.6545"/>
<polygon fill="midnightblue" stroke="midnightblue" points="116.153,-54.3293 126.558,-56.324 119.668,-48.2758 116.153,-54.3293"/>
</g>
<!-- Node10&#45;&gt;Node4 -->
<g id="edge13" class="edge"><title>Node10&#45;&gt;Node4</title>
<path fill="none" stroke="midnightblue" d="M245.446,-103.566C251.812,-94.2747 259.367,-83.2484 264.504,-75.7511"/>
<polygon fill="midnightblue" stroke="midnightblue" points="242.375,-101.855 239.61,-112.083 248.149,-105.812 242.375,-101.855"/>
</g>
<!-- Node10&#45;&gt;Node8 -->
<g id="edge14" class="edge"><title>Node10&#45;&gt;Node8</title>
<path fill="none" stroke="midnightblue" d="M209.95,-107.177C193.021,-97.2407 170.717,-84.1492 156.245,-75.6545"/>
<polygon fill="midnightblue" stroke="midnightblue" points="208.323,-110.28 218.719,-112.324 211.866,-104.243 208.323,-110.28"/>
</g>
</g>
</svg>
