<?xml version="1.0" encoding="UTF-8" standalone="no"?>
<!DOCTYPE svg PUBLIC "-//W3C//DTD SVG 1.1//EN"
 "http://www.w3.org/Graphics/SVG/1.1/DTD/svg11.dtd">
<!-- Generated by graphviz version 2.36.0 (20140111.2315)
 -->
<!-- Title: src/utils/observe.h Pages: 1 -->
<svg width="515pt" height="252pt"
 viewBox="0.00 0.00 515.00 252.00" xmlns="http://www.w3.org/2000/svg" xmlns:xlink="http://www.w3.org/1999/xlink">
<g id="graph0" class="graph" transform="scale(1 1) rotate(0) translate(4 248)">
<title>src/utils/observe.h</title>
<!-- Node1 -->
<g id="node1" class="node"><title>Node1</title>
<polygon fill="#bfbfbf" stroke="black" points="188.5,-224.5 188.5,-243.5 285.5,-243.5 285.5,-224.5 188.5,-224.5"/>
<text text-anchor="middle" x="237" y="-231.5" font-family="Helvetica,sans-Serif" font-size="10.00">src/utils/observe.h</text>
</g>
<!-- Node2 -->
<g id="node2" class="node"><title>Node2</title>
<g id="a_node2"><a xlink:href="imodel_8h.html" target="_top" xlink:title="File with interface of abstract model (from MVC). ">
<polygon fill="none" stroke="black" points="187.5,-168.5 187.5,-187.5 286.5,-187.5 286.5,-168.5 187.5,-168.5"/>
<text text-anchor="middle" x="237" y="-175.5" font-family="Helvetica,sans-Serif" font-size="10.00">src/model/imodel.h</text>
</a>
</g>
</g>
<!-- Node1&#45;&gt;Node2 -->
<g id="edge1" class="edge"><title>Node1&#45;&gt;Node2</title>
<path fill="none" stroke="midnightblue" d="M237,-213.805C237,-204.91 237,-194.78 237,-187.751"/>
<polygon fill="midnightblue" stroke="midnightblue" points="233.5,-214.083 237,-224.083 240.5,-214.083 233.5,-214.083"/>
</g>
<!-- Node10 -->
<g id="node10" class="node"><title>Node10</title>
<g id="a_node10"><a xlink:href="iview_8h.html" target="_top" xlink:title="File with interface of abstract view (V from MVC). ">
<polygon fill="none" stroke="black" points="115.5,-112.5 115.5,-131.5 202.5,-131.5 202.5,-112.5 115.5,-112.5"/>
<text text-anchor="middle" x="159" y="-119.5" font-family="Helvetica,sans-Serif" font-size="10.00">src/view/iview.h</text>
</a>
</g>
</g>
<!-- Node1&#45;&gt;Node10 -->
<g id="edge12" class="edge"><title>Node1&#45;&gt;Node10</title>
<path fill="none" stroke="midnightblue" d="M212.008,-219.092C200.157,-211.344 186.717,-200.693 178,-188 165.886,-170.362 161.394,-144.95 159.808,-131.732"/>
<polygon fill="midnightblue" stroke="midnightblue" points="210.311,-222.157 220.657,-224.437 213.991,-216.202 210.311,-222.157"/>
</g>
<!-- Node12 -->
<g id="node12" class="node"><title>Node12</title>
<g id="a_node12"><a xlink:href="observe_8cpp.html" target="_top" xlink:title="File with implementation of Observable class. ">
<polygon fill="none" stroke="black" points="304.5,-168.5 304.5,-187.5 411.5,-187.5 411.5,-168.5 304.5,-168.5"/>
<text text-anchor="middle" x="358" y="-175.5" font-family="Helvetica,sans-Serif" font-size="10.00">src/utils/observe.cpp</text>
</a>
</g>
</g>
<!-- Node1&#45;&gt;Node12 -->
<g id="edge16" class="edge"><title>Node1&#45;&gt;Node12</title>
<path fill="none" stroke="midnightblue" d="M265.306,-220.368C287.965,-210.255 319.126,-196.349 338.917,-187.516"/>
<polygon fill="midnightblue" stroke="midnightblue" points="263.878,-217.172 256.173,-224.444 266.731,-223.564 263.878,-217.172"/>
</g>
<!-- Node3 -->
<g id="node3" class="node"><title>Node3</title>
<g id="a_node3"><a xlink:href="model_8h.html" target="_top" xlink:title="File with declaration of model (from MVC). ">
<polygon fill="none" stroke="black" points="292.5,-112.5 292.5,-131.5 389.5,-131.5 389.5,-112.5 292.5,-112.5"/>
<text text-anchor="middle" x="341" y="-119.5" font-family="Helvetica,sans-Serif" font-size="10.00">src/model/model.h</text>
</a>
</g>
</g>
<!-- Node2&#45;&gt;Node3 -->
<g id="edge2" class="edge"><title>Node2&#45;&gt;Node3</title>
<path fill="none" stroke="midnightblue" d="M262.828,-163.59C282.057,-153.605 307.745,-140.267 324.332,-131.655"/>
<polygon fill="midnightblue" stroke="midnightblue" points="260.971,-160.61 253.709,-168.324 264.197,-166.822 260.971,-160.61"/>
</g>
<!-- Node8 -->
<g id="node8" class="node"><title>Node8</title>
<g id="a_node8"><a xlink:href="view_8h.html" target="_top" xlink:title="File with declaration of view (V from MVC). ">
<polygon fill="none" stroke="black" points="116.5,-56.5 116.5,-75.5 201.5,-75.5 201.5,-56.5 116.5,-56.5"/>
<text text-anchor="middle" x="159" y="-63.5" font-family="Helvetica,sans-Serif" font-size="10.00">src/view/view.h</text>
</a>
</g>
</g>
<!-- Node2&#45;&gt;Node8 -->
<g id="edge8" class="edge"><title>Node2&#45;&gt;Node8</title>
<path fill="none" stroke="midnightblue" d="M232.222,-158.636C228.074,-144.937 221.127,-126.216 211,-112 200.333,-97.0252 183.682,-83.7825 172.107,-75.607"/>
<polygon fill="midnightblue" stroke="midnightblue" points="228.88,-159.682 234.956,-168.362 235.619,-157.788 228.88,-159.682"/>
</g>
<!-- Node4 -->
<g id="node4" class="node"><title>Node4</title>
<g id="a_node4"><a xlink:href="controller_8h.html" target="_top" xlink:title="File with controller (from MVC) declaration. ">
<polygon fill="none" stroke="black" points="220,-56.5 220,-75.5 344,-75.5 344,-56.5 220,-56.5"/>
<text text-anchor="middle" x="282" y="-63.5" font-family="Helvetica,sans-Serif" font-size="10.00">src/controller/controller.h</text>
</a>
</g>
</g>
<!-- Node3&#45;&gt;Node4 -->
<g id="edge3" class="edge"><title>Node3&#45;&gt;Node4</title>
<path fill="none" stroke="midnightblue" d="M324.105,-105.537C313.585,-95.9087 300.431,-83.8694 291.652,-75.8339"/>
<polygon fill="midnightblue" stroke="midnightblue" points="321.781,-108.154 331.521,-112.324 326.507,-102.99 321.781,-108.154"/>
</g>
<!-- Node6 -->
<g id="node6" class="node"><title>Node6</title>
<g id="a_node6"><a xlink:href="tester_8cpp.html" target="_top" xlink:title="File with tester class for the whole programm. ">
<polygon fill="none" stroke="black" points="289.5,-0.5 289.5,-19.5 366.5,-19.5 366.5,-0.5 289.5,-0.5"/>
<text text-anchor="middle" x="328" y="-7.5" font-family="Helvetica,sans-Serif" font-size="10.00">src/tester.cpp</text>
</a>
</g>
</g>
<!-- Node3&#45;&gt;Node6 -->
<g id="edge7" class="edge"><title>Node3&#45;&gt;Node6</title>
<path fill="none" stroke="midnightblue" d="M348.068,-102.807C352.199,-89.6878 355.904,-71.6142 352,-56 348.607,-42.4281 340.26,-28.4676 334.367,-19.768"/>
<polygon fill="midnightblue" stroke="midnightblue" points="344.675,-101.905 344.654,-112.5 351.277,-104.23 344.675,-101.905"/>
</g>
<!-- Node7 -->
<g id="node7" class="node"><title>Node7</title>
<g id="a_node7"><a xlink:href="model_8cpp.html" target="_top" xlink:title="File with implementation of model (from MVC). ">
<polygon fill="none" stroke="black" points="400.5,-56.5 400.5,-75.5 507.5,-75.5 507.5,-56.5 400.5,-56.5"/>
<text text-anchor="middle" x="454" y="-63.5" font-family="Helvetica,sans-Serif" font-size="10.00">src/model/model.cpp</text>
</a>
</g>
</g>
<!-- Node3&#45;&gt;Node7 -->
<g id="edge6" class="edge"><title>Node3&#45;&gt;Node7</title>
<path fill="none" stroke="midnightblue" d="M368.003,-108.096C389.114,-98.0073 417.862,-84.2697 436.179,-75.5164"/>
<polygon fill="midnightblue" stroke="midnightblue" points="366.419,-104.974 358.905,-112.444 369.437,-111.29 366.419,-104.974"/>
</g>
<!-- Node5 -->
<g id="node5" class="node"><title>Node5</title>
<g id="a_node5"><a xlink:href="controller_8cpp.html" target="_top" xlink:title="File with controller (from MVC) implementation. ">
<polygon fill="none" stroke="black" points="137,-0.5 137,-19.5 271,-19.5 271,-0.5 137,-0.5"/>
<text text-anchor="middle" x="204" y="-7.5" font-family="Helvetica,sans-Serif" font-size="10.00">src/controller/controller.cpp</text>
</a>
</g>
</g>
<!-- Node4&#45;&gt;Node5 -->
<g id="edge4" class="edge"><title>Node4&#45;&gt;Node5</title>
<path fill="none" stroke="midnightblue" d="M261.232,-50.6221C246.983,-40.7574 228.544,-27.9919 216.501,-19.6545"/>
<polygon fill="midnightblue" stroke="midnightblue" points="259.254,-53.5095 269.468,-56.324 263.238,-47.7541 259.254,-53.5095"/>
</g>
<!-- Node4&#45;&gt;Node6 -->
<g id="edge5" class="edge"><title>Node4&#45;&gt;Node6</title>
<path fill="none" stroke="midnightblue" d="M296.114,-48.4314C304.176,-38.9673 313.959,-27.4827 320.545,-19.7511"/>
<polygon fill="midnightblue" stroke="midnightblue" points="293.416,-46.2009 289.596,-56.083 298.745,-50.7402 293.416,-46.2009"/>
</g>
<!-- Node8&#45;&gt;Node5 -->
<g id="edge9" class="edge"><title>Node8&#45;&gt;Node5</title>
<path fill="none" stroke="midnightblue" d="M173.047,-48.144C180.887,-38.7357 190.329,-27.4046 196.707,-19.7511"/>
<polygon fill="midnightblue" stroke="midnightblue" points="170.144,-46.1601 166.431,-56.083 175.521,-50.6414 170.144,-46.1601"/>
</g>
<!-- Node8&#45;&gt;Node6 -->
<g id="edge10" class="edge"><title>Node8&#45;&gt;Node6</title>
<path fill="none" stroke="midnightblue" d="M195.603,-53.3044C227.447,-43.1294 272.842,-28.6246 301.347,-19.5164"/>
<polygon fill="midnightblue" stroke="midnightblue" points="194.239,-50.0659 185.779,-56.4435 196.369,-56.7337 194.239,-50.0659"/>
</g>
<!-- Node9 -->
<g id="node9" class="node"><title>Node9</title>
<g id="a_node9"><a xlink:href="view_8cpp.html" target="_top" xlink:title="File with implementation of view (V from MVC). ">
<polygon fill="none" stroke="black" points="23.5,-0.5 23.5,-19.5 118.5,-19.5 118.5,-0.5 23.5,-0.5"/>
<text text-anchor="middle" x="71" y="-7.5" font-family="Helvetica,sans-Serif" font-size="10.00">src/view/view.cpp</text>
</a>
</g>
</g>
<!-- Node8&#45;&gt;Node9 -->
<g id="edge11" class="edge"><title>Node8&#45;&gt;Node9</title>
<path fill="none" stroke="midnightblue" d="M136.023,-50.9005C119.887,-40.9986 98.8187,-28.0705 85.1036,-19.6545"/>
<polygon fill="midnightblue" stroke="midnightblue" points="134.507,-54.0769 144.861,-56.324 138.169,-48.1106 134.507,-54.0769"/>
</g>
<!-- Node10&#45;&gt;Node4 -->
<g id="edge13" class="edge"><title>Node10&#45;&gt;Node4</title>
<path fill="none" stroke="midnightblue" d="M187.773,-108.368C210.807,-98.2553 242.484,-84.3486 262.601,-75.5164"/>
<polygon fill="midnightblue" stroke="midnightblue" points="186.239,-105.219 178.49,-112.444 189.053,-111.628 186.239,-105.219"/>
</g>
<!-- Node10&#45;&gt;Node8 -->
<g id="edge14" class="edge"><title>Node10&#45;&gt;Node8</title>
<path fill="none" stroke="midnightblue" d="M159,-101.805C159,-92.9102 159,-82.7798 159,-75.7511"/>
<polygon fill="midnightblue" stroke="midnightblue" points="155.5,-102.083 159,-112.083 162.5,-102.083 155.5,-102.083"/>
</g>
<!-- Node11 -->
<g id="node11" class="node"><title>Node11</title>
<g id="a_node11"><a xlink:href="iview_8cpp.html" target="_top" xlink:title="File with implementation of interface of abstract view (V from MVC). ">
<polygon fill="none" stroke="black" points="0,-56.5 0,-75.5 98,-75.5 98,-56.5 0,-56.5"/>
<text text-anchor="middle" x="49" y="-63.5" font-family="Helvetica,sans-Serif" font-size="10.00">src/view/iview.cpp</text>
</a>
</g>
</g>
<!-- Node10&#45;&gt;Node11 -->
<g id="edge15" class="edge"><title>Node10&#45;&gt;Node11</title>
<path fill="none" stroke="midnightblue" d="M132.238,-107.862C111.841,-97.8492 84.3341,-84.3458 66.6295,-75.6545"/>
<polygon fill="midnightblue" stroke="midnightblue" points="130.808,-111.059 141.327,-112.324 133.892,-104.775 130.808,-111.059"/>
</g>
</g>
</svg>
