<?xml version="1.0" encoding="UTF-8" standalone="no"?>
<!DOCTYPE svg PUBLIC "-//W3C//DTD SVG 1.1//EN"
 "http://www.w3.org/Graphics/SVG/1.1/DTD/svg11.dtd">
<!-- Generated by graphviz version 2.38.0 (20140413.2041)
 -->
<!-- Title: src/utils/onclick.h Pages: 1 -->
<svg width="122pt" height="84pt"
 viewBox="0.00 0.00 121.50 84.00" xmlns="http://www.w3.org/2000/svg" xmlns:xlink="http://www.w3.org/1999/xlink">
<g id="graph0" class="graph" transform="scale(1 1) rotate(0) translate(4 80)">
<title>src/utils/onclick.h</title>
<!-- Node1 -->
<g id="node1" class="node"><title>Node1</title>
<polygon fill="#bfbfbf" stroke="black" points="-7.10543e-15,-56.5 -7.10543e-15,-75.5 98,-75.5 98,-56.5 -7.10543e-15,-56.5"/>
<text text-anchor="middle" x="49" y="-63.5" font-family="Helvetica,sans-Serif" font-size="10.00">src/utils/onclick.h</text>
</g>
<!-- Node2 -->
<g id="node2" class="node"><title>Node2</title>
<polygon fill="none" stroke="#bfbfbf" points="2,-0.5 2,-19.5 32,-19.5 32,-0.5 2,-0.5"/>
<text text-anchor="middle" x="17" y="-7.5" font-family="Helvetica,sans-Serif" font-size="10.00">list</text>
</g>
<!-- Node1&#45;&gt;Node2 -->
<g id="edge1" class="edge"><title>Node1&#45;&gt;Node2</title>
<path fill="none" stroke="midnightblue" d="M43.7159,-56.083C39.289,-48.6127 32.8367,-37.7244 27.3821,-28.5199"/>
<polygon fill="midnightblue" stroke="midnightblue" points="30.2949,-26.5697 22.1858,-19.7511 24.2729,-30.1383 30.2949,-26.5697"/>
</g>
<!-- Node3 -->
<g id="node3" class="node"><title>Node3</title>
<polygon fill="none" stroke="#bfbfbf" points="50.5,-0.5 50.5,-19.5 113.5,-19.5 113.5,-0.5 50.5,-0.5"/>
<text text-anchor="middle" x="82" y="-7.5" font-family="Helvetica,sans-Serif" font-size="10.00">functional</text>
</g>
<!-- Node1&#45;&gt;Node3 -->
<g id="edge2" class="edge"><title>Node1&#45;&gt;Node3</title>
<path fill="none" stroke="midnightblue" d="M54.4493,-56.083C59.0145,-48.6127 65.6684,-37.7244 71.2934,-28.5199"/>
<polygon fill="midnightblue" stroke="midnightblue" points="74.4241,-30.109 76.6521,-19.7511 68.4511,-26.4588 74.4241,-30.109"/>
</g>
</g>
</svg>
