<?xml version="1.0" encoding="UTF-8" standalone="no"?>
<!DOCTYPE svg PUBLIC "-//W3C//DTD SVG 1.1//EN"
 "http://www.w3.org/Graphics/SVG/1.1/DTD/svg11.dtd">
<!-- Generated by graphviz version 2.36.0 (20140111.2315)
 -->
<!-- Title: src/utils/onclick.h Pages: 1 -->
<svg width="531pt" height="196pt"
 viewBox="0.00 0.00 531.00 196.00" xmlns="http://www.w3.org/2000/svg" xmlns:xlink="http://www.w3.org/1999/xlink">
<g id="graph0" class="graph" transform="scale(1 1) rotate(0) translate(4 192)">
<title>src/utils/onclick.h</title>
<!-- Node1 -->
<g id="node1" class="node"><title>Node1</title>
<polygon fill="#bfbfbf" stroke="black" points="279.5,-168.5 279.5,-187.5 372.5,-187.5 372.5,-168.5 279.5,-168.5"/>
<text text-anchor="middle" x="326" y="-175.5" font-family="Helvetica,sans-Serif" font-size="10.00">src/utils/onclick.h</text>
</g>
<!-- Node2 -->
<g id="node2" class="node"><title>Node2</title>
<g id="a_node2"><a xlink:href="icontroller_8h.html" target="_top" xlink:title="File with interface of abstract controller (from MVC). ">
<polygon fill="none" stroke="black" points="117,-112.5 117,-131.5 243,-131.5 243,-112.5 117,-112.5"/>
<text text-anchor="middle" x="180" y="-119.5" font-family="Helvetica,sans-Serif" font-size="10.00">src/controller/icontroller.h</text>
</a>
</g>
</g>
<!-- Node1&#45;&gt;Node2 -->
<g id="edge1" class="edge"><title>Node1&#45;&gt;Node2</title>
<path fill="none" stroke="midnightblue" d="M293.301,-164.906C265.852,-154.754 227.332,-140.506 203.026,-131.516"/>
<polygon fill="midnightblue" stroke="midnightblue" points="292.273,-168.257 302.866,-168.444 294.701,-161.692 292.273,-168.257"/>
</g>
<!-- Node8 -->
<g id="node8" class="node"><title>Node8</title>
<g id="a_node8"><a xlink:href="view__elements_8h.html" target="_top" xlink:title="File with declaration of button and canvas classes. ">
<polygon fill="none" stroke="black" points="261,-112.5 261,-131.5 391,-131.5 391,-112.5 261,-112.5"/>
<text text-anchor="middle" x="326" y="-119.5" font-family="Helvetica,sans-Serif" font-size="10.00">src/view/view_elements.h</text>
</a>
</g>
</g>
<!-- Node1&#45;&gt;Node8 -->
<g id="edge9" class="edge"><title>Node1&#45;&gt;Node8</title>
<path fill="none" stroke="midnightblue" d="M326,-157.805C326,-148.91 326,-138.78 326,-131.751"/>
<polygon fill="midnightblue" stroke="midnightblue" points="322.5,-158.083 326,-168.083 329.5,-158.083 322.5,-158.083"/>
</g>
<!-- Node10 -->
<g id="node10" class="node"><title>Node10</title>
<g id="a_node10"><a xlink:href="onclick_8cpp.html" target="_top" xlink:title="File with implementation of observer pattern classes. ">
<polygon fill="none" stroke="black" points="409,-112.5 409,-131.5 513,-131.5 513,-112.5 409,-112.5"/>
<text text-anchor="middle" x="461" y="-119.5" font-family="Helvetica,sans-Serif" font-size="10.00">src/utils/onclick.cpp</text>
</a>
</g>
</g>
<!-- Node1&#45;&gt;Node10 -->
<g id="edge13" class="edge"><title>Node1&#45;&gt;Node10</title>
<path fill="none" stroke="midnightblue" d="M356.906,-164.638C382.24,-154.504 417.431,-140.427 439.709,-131.516"/>
<polygon fill="midnightblue" stroke="midnightblue" points="355.376,-161.48 347.391,-168.444 357.976,-167.979 355.376,-161.48"/>
</g>
<!-- Node3 -->
<g id="node3" class="node"><title>Node3</title>
<g id="a_node3"><a xlink:href="controller_8h.html" target="_top" xlink:title="File with controller (from MVC) declaration. ">
<polygon fill="none" stroke="black" points="241,-56.5 241,-75.5 365,-75.5 365,-56.5 241,-56.5"/>
<text text-anchor="middle" x="303" y="-63.5" font-family="Helvetica,sans-Serif" font-size="10.00">src/controller/controller.h</text>
</a>
</g>
</g>
<!-- Node2&#45;&gt;Node3 -->
<g id="edge2" class="edge"><title>Node2&#45;&gt;Node3</title>
<path fill="none" stroke="midnightblue" d="M208.773,-108.368C231.807,-98.2553 263.484,-84.3486 283.601,-75.5164"/>
<polygon fill="midnightblue" stroke="midnightblue" points="207.239,-105.219 199.49,-112.444 210.053,-111.628 207.239,-105.219"/>
</g>
<!-- Node6 -->
<g id="node6" class="node"><title>Node6</title>
<g id="a_node6"><a xlink:href="view_8h.html" target="_top" xlink:title="File with declaration of view (V from MVC). ">
<polygon fill="none" stroke="black" points="137.5,-56.5 137.5,-75.5 222.5,-75.5 222.5,-56.5 137.5,-56.5"/>
<text text-anchor="middle" x="180" y="-63.5" font-family="Helvetica,sans-Serif" font-size="10.00">src/view/view.h</text>
</a>
</g>
</g>
<!-- Node2&#45;&gt;Node6 -->
<g id="edge5" class="edge"><title>Node2&#45;&gt;Node6</title>
<path fill="none" stroke="midnightblue" d="M180,-101.805C180,-92.9102 180,-82.7798 180,-75.7511"/>
<polygon fill="midnightblue" stroke="midnightblue" points="176.5,-102.083 180,-112.083 183.5,-102.083 176.5,-102.083"/>
</g>
<!-- Node4 -->
<g id="node4" class="node"><title>Node4</title>
<g id="a_node4"><a xlink:href="controller_8cpp.html" target="_top" xlink:title="File with controller (from MVC) implementation. ">
<polygon fill="none" stroke="black" points="113,-0.5 113,-19.5 247,-19.5 247,-0.5 113,-0.5"/>
<text text-anchor="middle" x="180" y="-7.5" font-family="Helvetica,sans-Serif" font-size="10.00">src/controller/controller.cpp</text>
</a>
</g>
</g>
<!-- Node3&#45;&gt;Node4 -->
<g id="edge3" class="edge"><title>Node3&#45;&gt;Node4</title>
<path fill="none" stroke="midnightblue" d="M274.227,-52.3678C251.193,-42.2553 219.516,-28.3486 199.399,-19.5164"/>
<polygon fill="midnightblue" stroke="midnightblue" points="272.947,-55.6283 283.51,-56.4435 275.761,-49.2188 272.947,-55.6283"/>
</g>
<!-- Node5 -->
<g id="node5" class="node"><title>Node5</title>
<g id="a_node5"><a xlink:href="tester_8cpp.html" target="_top" xlink:title="File with tester class for the whole programm. ">
<polygon fill="none" stroke="black" points="265.5,-0.5 265.5,-19.5 342.5,-19.5 342.5,-0.5 265.5,-0.5"/>
<text text-anchor="middle" x="304" y="-7.5" font-family="Helvetica,sans-Serif" font-size="10.00">src/tester.cpp</text>
</a>
</g>
</g>
<!-- Node3&#45;&gt;Node5 -->
<g id="edge4" class="edge"><title>Node3&#45;&gt;Node5</title>
<path fill="none" stroke="midnightblue" d="M303.355,-45.8045C303.52,-36.9102 303.708,-26.7798 303.838,-19.7511"/>
<polygon fill="midnightblue" stroke="midnightblue" points="299.851,-46.0199 303.165,-56.083 306.85,-46.1495 299.851,-46.0199"/>
</g>
<!-- Node6&#45;&gt;Node4 -->
<g id="edge6" class="edge"><title>Node6&#45;&gt;Node4</title>
<path fill="none" stroke="midnightblue" d="M180,-45.8045C180,-36.9102 180,-26.7798 180,-19.7511"/>
<polygon fill="midnightblue" stroke="midnightblue" points="176.5,-46.083 180,-56.083 183.5,-46.083 176.5,-46.083"/>
</g>
<!-- Node6&#45;&gt;Node5 -->
<g id="edge7" class="edge"><title>Node6&#45;&gt;Node5</title>
<path fill="none" stroke="midnightblue" d="M209.007,-52.3678C232.229,-42.2553 264.163,-28.3486 284.444,-19.5164"/>
<polygon fill="midnightblue" stroke="midnightblue" points="207.419,-49.2419 199.648,-56.4435 210.214,-55.6597 207.419,-49.2419"/>
</g>
<!-- Node7 -->
<g id="node7" class="node"><title>Node7</title>
<g id="a_node7"><a xlink:href="view_8cpp.html" target="_top" xlink:title="File with implementation of view (V from MVC). ">
<polygon fill="none" stroke="black" points="-0.5,-0.5 -0.5,-19.5 94.5,-19.5 94.5,-0.5 -0.5,-0.5"/>
<text text-anchor="middle" x="47" y="-7.5" font-family="Helvetica,sans-Serif" font-size="10.00">src/view/view.cpp</text>
</a>
</g>
</g>
<!-- Node6&#45;&gt;Node7 -->
<g id="edge8" class="edge"><title>Node6&#45;&gt;Node7</title>
<path fill="none" stroke="midnightblue" d="M149.552,-52.6377C124.593,-42.504 89.9231,-28.4274 67.9756,-19.5164"/>
<polygon fill="midnightblue" stroke="midnightblue" points="148.344,-55.9245 158.926,-56.4435 150.977,-49.4387 148.344,-55.9245"/>
</g>
<!-- Node8&#45;&gt;Node3 -->
<g id="edge10" class="edge"><title>Node8&#45;&gt;Node3</title>
<path fill="none" stroke="midnightblue" d="M318.201,-102.69C314.325,-93.589 309.821,-83.0141 306.727,-75.7511"/>
<polygon fill="midnightblue" stroke="midnightblue" points="315.063,-104.254 322.202,-112.083 321.503,-101.511 315.063,-104.254"/>
</g>
<!-- Node8&#45;&gt;Node6 -->
<g id="edge11" class="edge"><title>Node8&#45;&gt;Node6</title>
<path fill="none" stroke="midnightblue" d="M293.301,-108.906C265.852,-98.7536 227.332,-84.5063 203.026,-75.5164"/>
<polygon fill="midnightblue" stroke="midnightblue" points="292.273,-112.257 302.866,-112.444 294.701,-105.692 292.273,-112.257"/>
</g>
<!-- Node9 -->
<g id="node9" class="node"><title>Node9</title>
<g id="a_node9"><a xlink:href="view__elements_8cpp.html" target="_top" xlink:title="File with implementation of button and canvas classes. ">
<polygon fill="none" stroke="black" points="383,-56.5 383,-75.5 523,-75.5 523,-56.5 383,-56.5"/>
<text text-anchor="middle" x="453" y="-63.5" font-family="Helvetica,sans-Serif" font-size="10.00">src/view/view_elements.cpp</text>
</a>
</g>
</g>
<!-- Node8&#45;&gt;Node9 -->
<g id="edge12" class="edge"><title>Node8&#45;&gt;Node9</title>
<path fill="none" stroke="midnightblue" d="M355.391,-108.503C379.2,-98.3795 412.106,-84.388 432.971,-75.5164"/>
<polygon fill="midnightblue" stroke="midnightblue" points="353.957,-105.31 346.124,-112.444 356.696,-111.751 353.957,-105.31"/>
</g>
</g>
</svg>
