<?xml version="1.0" encoding="UTF-8" standalone="no"?>
<!DOCTYPE svg PUBLIC "-//W3C//DTD SVG 1.1//EN"
 "http://www.w3.org/Graphics/SVG/1.1/DTD/svg11.dtd">
<!-- Generated by graphviz version 2.36.0 (20140111.2315)
 -->
<!-- Title: src/utils/onclick.h Pages: 1 -->
<svg width="114pt" height="84pt"
 viewBox="0.00 0.00 114.00 84.00" xmlns="http://www.w3.org/2000/svg" xmlns:xlink="http://www.w3.org/1999/xlink">
<g id="graph0" class="graph" transform="scale(1 1) rotate(0) translate(4 80)">
<title>src/utils/onclick.h</title>
<!-- Node1 -->
<g id="node1" class="node"><title>Node1</title>
<polygon fill="#bfbfbf" stroke="black" points="-0.5,-56.5 -0.5,-75.5 92.5,-75.5 92.5,-56.5 -0.5,-56.5"/>
<text text-anchor="middle" x="46" y="-63.5" font-family="Helvetica,sans-Serif" font-size="10.00">src/utils/onclick.h</text>
</g>
<!-- Node2 -->
<g id="node2" class="node"><title>Node2</title>
<polygon fill="none" stroke="#bfbfbf" points="0.5,-0.5 0.5,-19.5 29.5,-19.5 29.5,-0.5 0.5,-0.5"/>
<text text-anchor="middle" x="15" y="-7.5" font-family="Helvetica,sans-Serif" font-size="10.00">list</text>
</g>
<!-- Node1&#45;&gt;Node2 -->
<g id="edge1" class="edge"><title>Node1&#45;&gt;Node2</title>
<path fill="none" stroke="midnightblue" d="M40.881,-56.083C36.5925,-48.6127 30.3418,-37.7244 25.0577,-28.5199"/>
<polygon fill="midnightblue" stroke="midnightblue" points="28.0379,-26.6811 20.0238,-19.7511 21.9671,-30.1662 28.0379,-26.6811"/>
</g>
<!-- Node3 -->
<g id="node3" class="node"><title>Node3</title>
<polygon fill="none" stroke="#bfbfbf" points="47.5,-0.5 47.5,-19.5 106.5,-19.5 106.5,-0.5 47.5,-0.5"/>
<text text-anchor="middle" x="77" y="-7.5" font-family="Helvetica,sans-Serif" font-size="10.00">functional</text>
</g>
<!-- Node1&#45;&gt;Node3 -->
<g id="edge2" class="edge"><title>Node1&#45;&gt;Node3</title>
<path fill="none" stroke="midnightblue" d="M51.119,-56.083C55.4075,-48.6127 61.6582,-37.7244 66.9423,-28.5199"/>
<polygon fill="midnightblue" stroke="midnightblue" points="70.0329,-30.1662 71.9762,-19.7511 63.9621,-26.6811 70.0329,-30.1662"/>
</g>
</g>
</svg>
