<?xml version="1.0" encoding="UTF-8" standalone="no"?>
<!DOCTYPE svg PUBLIC "-//W3C//DTD SVG 1.1//EN"
 "http://www.w3.org/Graphics/SVG/1.1/DTD/svg11.dtd">
<!-- Generated by graphviz version 2.36.0 (20140111.2315)
 -->
<!-- Title: src/utils/onclick.cpp Pages: 1 -->
<svg width="112pt" height="140pt"
 viewBox="0.00 0.00 112.00 140.00" xmlns="http://www.w3.org/2000/svg" xmlns:xlink="http://www.w3.org/1999/xlink">
<g id="graph0" class="graph" transform="scale(1 1) rotate(0) translate(4 136)">
<title>src/utils/onclick.cpp</title>
<!-- Node1 -->
<g id="node1" class="node"><title>Node1</title>
<polygon fill="#bfbfbf" stroke="black" points="0,-112.5 0,-131.5 104,-131.5 104,-112.5 0,-112.5"/>
<text text-anchor="middle" x="52" y="-119.5" font-family="Helvetica,sans-Serif" font-size="10.00">src/utils/onclick.cpp</text>
</g>
<!-- Node2 -->
<g id="node2" class="node"><title>Node2</title>
<g id="a_node2"><a xlink:href="onclick_8h.html" target="_top" xlink:title="File with declaration of observer pattern classes. Two pairs of publishers and subscribers: OnClickLi...">
<polygon fill="none" stroke="black" points="24,-56.5 24,-75.5 80,-75.5 80,-56.5 24,-56.5"/>
<text text-anchor="middle" x="52" y="-63.5" font-family="Helvetica,sans-Serif" font-size="10.00">onclick.h</text>
</a>
</g>
</g>
<!-- Node1&#45;&gt;Node2 -->
<g id="edge1" class="edge"><title>Node1&#45;&gt;Node2</title>
<path fill="none" stroke="midnightblue" d="M52,-112.083C52,-105.006 52,-94.8611 52,-85.9865"/>
<polygon fill="midnightblue" stroke="midnightblue" points="55.5001,-85.751 52,-75.7511 48.5001,-85.7511 55.5001,-85.751"/>
</g>
<!-- Node3 -->
<g id="node3" class="node"><title>Node3</title>
<polygon fill="none" stroke="#bfbfbf" points="37.5,-0.5 37.5,-19.5 66.5,-19.5 66.5,-0.5 37.5,-0.5"/>
<text text-anchor="middle" x="52" y="-7.5" font-family="Helvetica,sans-Serif" font-size="10.00">list</text>
</g>
<!-- Node2&#45;&gt;Node3 -->
<g id="edge2" class="edge"><title>Node2&#45;&gt;Node3</title>
<path fill="none" stroke="midnightblue" d="M52,-56.083C52,-49.0059 52,-38.8611 52,-29.9865"/>
<polygon fill="midnightblue" stroke="midnightblue" points="55.5001,-29.751 52,-19.7511 48.5001,-29.7511 55.5001,-29.751"/>
</g>
</g>
</svg>
