<?xml version="1.0" encoding="UTF-8" standalone="no"?>
<!DOCTYPE svg PUBLIC "-//W3C//DTD SVG 1.1//EN"
 "http://www.w3.org/Graphics/SVG/1.1/DTD/svg11.dtd">
<!-- Generated by graphviz version 2.36.0 (20140111.2315)
 -->
<!-- Title: src/utils/onclick.h Pages: 1 -->
<svg width="592pt" height="308pt"
 viewBox="0.00 0.00 592.00 308.00" xmlns="http://www.w3.org/2000/svg" xmlns:xlink="http://www.w3.org/1999/xlink">
<g id="graph0" class="graph" transform="scale(1 1) rotate(0) translate(4 304)">
<title>src/utils/onclick.h</title>
<!-- Node1 -->
<g id="node1" class="node"><title>Node1</title>
<polygon fill="#bfbfbf" stroke="black" points="321.5,-280.5 321.5,-299.5 414.5,-299.5 414.5,-280.5 321.5,-280.5"/>
<text text-anchor="middle" x="368" y="-287.5" font-family="Helvetica,sans-Serif" font-size="10.00">src/utils/onclick.h</text>
</g>
<!-- Node2 -->
<g id="node2" class="node"><title>Node2</title>
<g id="a_node2"><a xlink:href="icontroller_8h.html" target="_top" xlink:title="File with interface of abstract controller (from MVC). ">
<polygon fill="none" stroke="black" points="305,-112.5 305,-131.5 431,-131.5 431,-112.5 305,-112.5"/>
<text text-anchor="middle" x="368" y="-119.5" font-family="Helvetica,sans-Serif" font-size="10.00">src/controller/icontroller.h</text>
</a>
</g>
</g>
<!-- Node1&#45;&gt;Node2 -->
<g id="edge1" class="edge"><title>Node1&#45;&gt;Node2</title>
<path fill="none" stroke="midnightblue" d="M368,-269.93C368,-233.92 368,-157.231 368,-131.568"/>
<polygon fill="midnightblue" stroke="midnightblue" points="364.5,-270.075 368,-280.075 371.5,-270.075 364.5,-270.075"/>
</g>
<!-- Node8 -->
<g id="node8" class="node"><title>Node8</title>
<g id="a_node8"><a xlink:href="observe_8h.html" target="_top" xlink:title="File with declaration of observer pattern &#45; Observer and Observable. ">
<polygon fill="none" stroke="black" points="199.5,-224.5 199.5,-243.5 296.5,-243.5 296.5,-224.5 199.5,-224.5"/>
<text text-anchor="middle" x="248" y="-231.5" font-family="Helvetica,sans-Serif" font-size="10.00">src/utils/observe.h</text>
</a>
</g>
</g>
<!-- Node1&#45;&gt;Node8 -->
<g id="edge9" class="edge"><title>Node1&#45;&gt;Node8</title>
<path fill="none" stroke="midnightblue" d="M339.627,-276.232C317.18,-266.131 286.465,-252.309 266.925,-243.516"/>
<polygon fill="midnightblue" stroke="midnightblue" points="338.43,-279.532 348.986,-280.444 341.303,-273.148 338.43,-279.532"/>
</g>
<!-- Node13 -->
<g id="node13" class="node"><title>Node13</title>
<g id="a_node13"><a xlink:href="view__elements_8h.html" target="_top" xlink:title="File with declaration of button and canvas classes. ">
<polygon fill="none" stroke="black" points="449,-112.5 449,-131.5 579,-131.5 579,-112.5 449,-112.5"/>
<text text-anchor="middle" x="514" y="-119.5" font-family="Helvetica,sans-Serif" font-size="10.00">src/view/view_elements.h</text>
</a>
</g>
</g>
<!-- Node1&#45;&gt;Node13 -->
<g id="edge19" class="edge"><title>Node1&#45;&gt;Node13</title>
<path fill="none" stroke="midnightblue" d="M382.767,-272.21C413.503,-237.264 483.404,-157.787 506.464,-131.568"/>
<polygon fill="midnightblue" stroke="midnightblue" points="379.826,-270.255 375.85,-280.075 385.082,-274.878 379.826,-270.255"/>
</g>
<!-- Node3 -->
<g id="node3" class="node"><title>Node3</title>
<g id="a_node3"><a xlink:href="controller_8h.html" target="_top" xlink:title="File with controller (from MVC) declaration. ">
<polygon fill="none" stroke="black" points="163,-56.5 163,-75.5 287,-75.5 287,-56.5 163,-56.5"/>
<text text-anchor="middle" x="225" y="-63.5" font-family="Helvetica,sans-Serif" font-size="10.00">src/controller/controller.h</text>
</a>
</g>
</g>
<!-- Node2&#45;&gt;Node3 -->
<g id="edge2" class="edge"><title>Node2&#45;&gt;Node3</title>
<path fill="none" stroke="midnightblue" d="M335.973,-108.906C309.088,-98.7536 271.359,-84.5063 247.553,-75.5164"/>
<polygon fill="midnightblue" stroke="midnightblue" points="334.75,-112.185 345.341,-112.444 337.222,-105.636 334.75,-112.185"/>
</g>
<!-- Node6 -->
<g id="node6" class="node"><title>Node6</title>
<g id="a_node6"><a xlink:href="view_8h.html" target="_top" xlink:title="File with declaration of view (V from MVC). ">
<polygon fill="none" stroke="black" points="305.5,-56.5 305.5,-75.5 390.5,-75.5 390.5,-56.5 305.5,-56.5"/>
<text text-anchor="middle" x="348" y="-63.5" font-family="Helvetica,sans-Serif" font-size="10.00">src/view/view.h</text>
</a>
</g>
</g>
<!-- Node2&#45;&gt;Node6 -->
<g id="edge5" class="edge"><title>Node2&#45;&gt;Node6</title>
<path fill="none" stroke="midnightblue" d="M361.218,-102.69C357.848,-93.589 353.931,-83.0141 351.241,-75.7511"/>
<polygon fill="midnightblue" stroke="midnightblue" points="357.942,-103.921 364.697,-112.083 364.506,-101.49 357.942,-103.921"/>
</g>
<!-- Node4 -->
<g id="node4" class="node"><title>Node4</title>
<g id="a_node4"><a xlink:href="controller_8cpp.html" target="_top" xlink:title="File with controller (from MVC) implementation. ">
<polygon fill="none" stroke="black" points="236,-0.5 236,-19.5 370,-19.5 370,-0.5 236,-0.5"/>
<text text-anchor="middle" x="303" y="-7.5" font-family="Helvetica,sans-Serif" font-size="10.00">src/controller/controller.cpp</text>
</a>
</g>
</g>
<!-- Node3&#45;&gt;Node4 -->
<g id="edge3" class="edge"><title>Node3&#45;&gt;Node4</title>
<path fill="none" stroke="midnightblue" d="M245.768,-50.6221C260.017,-40.7574 278.456,-27.9919 290.499,-19.6545"/>
<polygon fill="midnightblue" stroke="midnightblue" points="243.762,-47.7541 237.532,-56.324 247.746,-53.5095 243.762,-47.7541"/>
</g>
<!-- Node5 -->
<g id="node5" class="node"><title>Node5</title>
<g id="a_node5"><a xlink:href="tester_8cpp.html" target="_top" xlink:title="File with tester class for the whole programm. ">
<polygon fill="none" stroke="black" points="140.5,-0.5 140.5,-19.5 217.5,-19.5 217.5,-0.5 140.5,-0.5"/>
<text text-anchor="middle" x="179" y="-7.5" font-family="Helvetica,sans-Serif" font-size="10.00">src/tester.cpp</text>
</a>
</g>
</g>
<!-- Node3&#45;&gt;Node5 -->
<g id="edge4" class="edge"><title>Node3&#45;&gt;Node5</title>
<path fill="none" stroke="midnightblue" d="M210.886,-48.4314C202.824,-38.9673 193.041,-27.4827 186.455,-19.7511"/>
<polygon fill="midnightblue" stroke="midnightblue" points="208.255,-50.7402 217.404,-56.083 213.584,-46.2009 208.255,-50.7402"/>
</g>
<!-- Node6&#45;&gt;Node4 -->
<g id="edge6" class="edge"><title>Node6&#45;&gt;Node4</title>
<path fill="none" stroke="midnightblue" d="M333.953,-48.144C326.113,-38.7357 316.671,-27.4046 310.293,-19.7511"/>
<polygon fill="midnightblue" stroke="midnightblue" points="331.479,-50.6414 340.569,-56.083 336.856,-46.1601 331.479,-50.6414"/>
</g>
<!-- Node6&#45;&gt;Node5 -->
<g id="edge7" class="edge"><title>Node6&#45;&gt;Node5</title>
<path fill="none" stroke="midnightblue" d="M311.397,-53.3044C279.553,-43.1294 234.158,-28.6246 205.653,-19.5164"/>
<polygon fill="midnightblue" stroke="midnightblue" points="310.631,-56.7337 321.221,-56.4435 312.761,-50.0659 310.631,-56.7337"/>
</g>
<!-- Node7 -->
<g id="node7" class="node"><title>Node7</title>
<g id="a_node7"><a xlink:href="view_8cpp.html" target="_top" xlink:title="File with implementation of view (V from MVC). ">
<polygon fill="none" stroke="black" points="388.5,-0.5 388.5,-19.5 483.5,-19.5 483.5,-0.5 388.5,-0.5"/>
<text text-anchor="middle" x="436" y="-7.5" font-family="Helvetica,sans-Serif" font-size="10.00">src/view/view.cpp</text>
</a>
</g>
</g>
<!-- Node6&#45;&gt;Node7 -->
<g id="edge8" class="edge"><title>Node6&#45;&gt;Node7</title>
<path fill="none" stroke="midnightblue" d="M370.977,-50.9005C387.113,-40.9986 408.181,-28.0705 421.896,-19.6545"/>
<polygon fill="midnightblue" stroke="midnightblue" points="368.831,-48.1106 362.139,-56.324 372.493,-54.0769 368.831,-48.1106"/>
</g>
<!-- Node9 -->
<g id="node9" class="node"><title>Node9</title>
<g id="a_node9"><a xlink:href="imodel_8h.html" target="_top" xlink:title="File with interface of abstract model (from MVC). ">
<polygon fill="none" stroke="black" points="120.5,-168.5 120.5,-187.5 219.5,-187.5 219.5,-168.5 120.5,-168.5"/>
<text text-anchor="middle" x="170" y="-175.5" font-family="Helvetica,sans-Serif" font-size="10.00">src/model/imodel.h</text>
</a>
</g>
</g>
<!-- Node8&#45;&gt;Node9 -->
<g id="edge10" class="edge"><title>Node8&#45;&gt;Node9</title>
<path fill="none" stroke="midnightblue" d="M227.232,-218.622C212.983,-208.757 194.544,-195.992 182.501,-187.655"/>
<polygon fill="midnightblue" stroke="midnightblue" points="225.254,-221.51 235.468,-224.324 229.238,-215.754 225.254,-221.51"/>
</g>
<!-- Node12 -->
<g id="node12" class="node"><title>Node12</title>
<g id="a_node12"><a xlink:href="iview_8h.html" target="_top" xlink:title="File with interface of abstract view (V from MVC). ">
<polygon fill="none" stroke="black" points="161.5,-112.5 161.5,-131.5 248.5,-131.5 248.5,-112.5 161.5,-112.5"/>
<text text-anchor="middle" x="205" y="-119.5" font-family="Helvetica,sans-Serif" font-size="10.00">src/view/iview.h</text>
</a>
</g>
</g>
<!-- Node8&#45;&gt;Node12 -->
<g id="edge16" class="edge"><title>Node8&#45;&gt;Node12</title>
<path fill="none" stroke="midnightblue" d="M243.279,-214.667C239.662,-201.481 234.243,-183.385 228,-168 222.721,-154.992 215.057,-140.666 210.05,-131.751"/>
<polygon fill="midnightblue" stroke="midnightblue" points="239.92,-215.657 245.871,-224.422 246.685,-213.858 239.92,-215.657"/>
</g>
<!-- Node9&#45;&gt;Node6 -->
<g id="edge15" class="edge"><title>Node9&#45;&gt;Node6</title>
<path fill="none" stroke="midnightblue" d="M197.467,-164.048C214.869,-155.538 237.659,-143.826 257,-132 287.146,-113.567 320.423,-88.4903 337.142,-75.5331"/>
<polygon fill="midnightblue" stroke="midnightblue" points="195.889,-160.924 188.41,-168.427 198.936,-167.226 195.889,-160.924"/>
</g>
<!-- Node10 -->
<g id="node10" class="node"><title>Node10</title>
<g id="a_node10"><a xlink:href="model_8h.html" target="_top" xlink:title="File with declaration of model (from MVC). ">
<polygon fill="none" stroke="black" points="46.5,-112.5 46.5,-131.5 143.5,-131.5 143.5,-112.5 46.5,-112.5"/>
<text text-anchor="middle" x="95" y="-119.5" font-family="Helvetica,sans-Serif" font-size="10.00">src/model/model.h</text>
</a>
</g>
</g>
<!-- Node9&#45;&gt;Node10 -->
<g id="edge11" class="edge"><title>Node9&#45;&gt;Node10</title>
<path fill="none" stroke="midnightblue" d="M149.695,-162.38C136.139,-152.62 118.758,-140.106 107.269,-131.834"/>
<polygon fill="midnightblue" stroke="midnightblue" points="147.79,-165.321 157.95,-168.324 151.88,-159.641 147.79,-165.321"/>
</g>
<!-- Node10&#45;&gt;Node3 -->
<g id="edge12" class="edge"><title>Node10&#45;&gt;Node3</title>
<path fill="none" stroke="midnightblue" d="M125.085,-108.503C149.457,-98.3795 183.14,-84.388 204.497,-75.5164"/>
<polygon fill="midnightblue" stroke="midnightblue" points="123.491,-105.375 115.599,-112.444 126.177,-111.84 123.491,-105.375"/>
</g>
<!-- Node10&#45;&gt;Node5 -->
<g id="edge14" class="edge"><title>Node10&#45;&gt;Node5</title>
<path fill="none" stroke="midnightblue" d="M107.774,-104.272C125.932,-80.4942 158.543,-37.7889 172.439,-19.5914"/>
<polygon fill="midnightblue" stroke="midnightblue" points="104.879,-102.297 101.591,-112.368 110.442,-106.545 104.879,-102.297"/>
</g>
<!-- Node11 -->
<g id="node11" class="node"><title>Node11</title>
<g id="a_node11"><a xlink:href="model_8cpp.html" target="_top" xlink:title="File with implementation of model (from MVC). ">
<polygon fill="none" stroke="black" points="-0.5,-56.5 -0.5,-75.5 106.5,-75.5 106.5,-56.5 -0.5,-56.5"/>
<text text-anchor="middle" x="53" y="-63.5" font-family="Helvetica,sans-Serif" font-size="10.00">src/model/model.cpp</text>
</a>
</g>
</g>
<!-- Node10&#45;&gt;Node11 -->
<g id="edge13" class="edge"><title>Node10&#45;&gt;Node11</title>
<path fill="none" stroke="midnightblue" d="M81.8898,-104.144C74.5722,-94.7357 65.7591,-83.4046 59.8064,-75.7511"/>
<polygon fill="midnightblue" stroke="midnightblue" points="79.1624,-106.338 88.0646,-112.083 84.6878,-102.041 79.1624,-106.338"/>
</g>
<!-- Node12&#45;&gt;Node3 -->
<g id="edge17" class="edge"><title>Node12&#45;&gt;Node3</title>
<path fill="none" stroke="midnightblue" d="M211.782,-102.69C215.152,-93.589 219.069,-83.0141 221.759,-75.7511"/>
<polygon fill="midnightblue" stroke="midnightblue" points="208.494,-101.49 208.303,-112.083 215.058,-103.921 208.494,-101.49"/>
</g>
<!-- Node12&#45;&gt;Node6 -->
<g id="edge18" class="edge"><title>Node12&#45;&gt;Node6</title>
<path fill="none" stroke="midnightblue" d="M237.027,-108.906C263.912,-98.7536 301.641,-84.5063 325.447,-75.5164"/>
<polygon fill="midnightblue" stroke="midnightblue" points="235.778,-105.636 227.659,-112.444 238.25,-112.185 235.778,-105.636"/>
</g>
<!-- Node13&#45;&gt;Node3 -->
<g id="edge20" class="edge"><title>Node13&#45;&gt;Node3</title>
<path fill="none" stroke="midnightblue" d="M458.345,-110.601C403.727,-100.395 321.434,-85.0189 270.579,-75.5164"/>
<polygon fill="midnightblue" stroke="midnightblue" points="457.734,-114.047 468.207,-112.444 459.02,-107.166 457.734,-114.047"/>
</g>
<!-- Node13&#45;&gt;Node6 -->
<g id="edge21" class="edge"><title>Node13&#45;&gt;Node6</title>
<path fill="none" stroke="midnightblue" d="M478.047,-109.304C446.768,-99.1294 402.179,-84.6246 374.18,-75.5164"/>
<polygon fill="midnightblue" stroke="midnightblue" points="477.105,-112.678 487.697,-112.444 479.27,-106.022 477.105,-112.678"/>
</g>
<!-- Node14 -->
<g id="node14" class="node"><title>Node14</title>
<g id="a_node14"><a xlink:href="view__elements_8cpp.html" target="_top" xlink:title="File with implementation of button and canvas classes. ">
<polygon fill="none" stroke="black" points="444,-56.5 444,-75.5 584,-75.5 584,-56.5 444,-56.5"/>
<text text-anchor="middle" x="514" y="-63.5" font-family="Helvetica,sans-Serif" font-size="10.00">src/view/view_elements.cpp</text>
</a>
</g>
</g>
<!-- Node13&#45;&gt;Node14 -->
<g id="edge22" class="edge"><title>Node13&#45;&gt;Node14</title>
<path fill="none" stroke="midnightblue" d="M514,-101.805C514,-92.9102 514,-82.7798 514,-75.7511"/>
<polygon fill="midnightblue" stroke="midnightblue" points="510.5,-102.083 514,-112.083 517.5,-102.083 510.5,-102.083"/>
</g>
</g>
</svg>
