<?xml version="1.0" encoding="UTF-8" standalone="no"?>
<!DOCTYPE svg PUBLIC "-//W3C//DTD SVG 1.1//EN"
 "http://www.w3.org/Graphics/SVG/1.1/DTD/svg11.dtd">
<!-- Generated by graphviz version 2.36.0 (20140111.2315)
 -->
<!-- Title: src/utils/tags.h Pages: 1 -->
<svg width="722pt" height="308pt"
 viewBox="0.00 0.00 722.00 308.00" xmlns="http://www.w3.org/2000/svg" xmlns:xlink="http://www.w3.org/1999/xlink">
<g id="graph0" class="graph" transform="scale(1 1) rotate(0) translate(4 304)">
<title>src/utils/tags.h</title>
<!-- Node1 -->
<g id="node1" class="node"><title>Node1</title>
<polygon fill="#bfbfbf" stroke="black" points="397.5,-280.5 397.5,-299.5 478.5,-299.5 478.5,-280.5 397.5,-280.5"/>
<text text-anchor="middle" x="438" y="-287.5" font-family="Helvetica,sans-Serif" font-size="10.00">src/utils/tags.h</text>
</g>
<!-- Node2 -->
<g id="node2" class="node"><title>Node2</title>
<g id="a_node2"><a xlink:href="geometry__elements_8h.html" target="_top" xlink:title="File with declaration of geometry element classes. ">
<polygon fill="none" stroke="black" points="363,-224.5 363,-243.5 513,-243.5 513,-224.5 363,-224.5"/>
<text text-anchor="middle" x="438" y="-231.5" font-family="Helvetica,sans-Serif" font-size="10.00">src/view/geometry_elements.h</text>
</a>
</g>
</g>
<!-- Node1&#45;&gt;Node2 -->
<g id="edge1" class="edge"><title>Node1&#45;&gt;Node2</title>
<path fill="none" stroke="midnightblue" d="M438,-269.805C438,-260.91 438,-250.78 438,-243.751"/>
<polygon fill="midnightblue" stroke="midnightblue" points="434.5,-270.083 438,-280.083 441.5,-270.083 434.5,-270.083"/>
</g>
<!-- Node3 -->
<g id="node3" class="node"><title>Node3</title>
<g id="a_node3"><a xlink:href="icontroller_8h.html" target="_top" xlink:title="File with interface of abstract controller (from MVC). ">
<polygon fill="none" stroke="black" points="162,-112.5 162,-131.5 288,-131.5 288,-112.5 162,-112.5"/>
<text text-anchor="middle" x="225" y="-119.5" font-family="Helvetica,sans-Serif" font-size="10.00">src/controller/icontroller.h</text>
</a>
</g>
</g>
<!-- Node2&#45;&gt;Node3 -->
<g id="edge2" class="edge"><title>Node2&#45;&gt;Node3</title>
<path fill="none" stroke="midnightblue" d="M352.916,-228.627C318.616,-222.999 280.696,-211.391 253,-188 235.54,-173.254 228.67,-145.623 226.219,-131.614"/>
<polygon fill="midnightblue" stroke="midnightblue" points="352.548,-232.111 362.955,-230.125 353.581,-225.188 352.548,-232.111"/>
</g>
<!-- Node9 -->
<g id="node9" class="node"><title>Node9</title>
<g id="a_node9"><a xlink:href="imodel_8h.html" target="_top" xlink:title="File with interface of abstract model (from MVC). ">
<polygon fill="none" stroke="black" points="262.5,-168.5 262.5,-187.5 361.5,-187.5 361.5,-168.5 262.5,-168.5"/>
<text text-anchor="middle" x="312" y="-175.5" font-family="Helvetica,sans-Serif" font-size="10.00">src/model/imodel.h</text>
</a>
</g>
</g>
<!-- Node2&#45;&gt;Node9 -->
<g id="edge10" class="edge"><title>Node2&#45;&gt;Node9</title>
<path fill="none" stroke="midnightblue" d="M408.84,-220.503C385.219,-210.38 352.572,-196.388 331.872,-187.516"/>
<polygon fill="midnightblue" stroke="midnightblue" points="407.465,-223.721 418.035,-224.444 410.222,-217.287 407.465,-223.721"/>
</g>
<!-- Node12 -->
<g id="node12" class="node"><title>Node12</title>
<g id="a_node12"><a xlink:href="view__elements_8h.html" target="_top" xlink:title="File with declaration of button and canvas classes. ">
<polygon fill="none" stroke="black" points="528,-112.5 528,-131.5 658,-131.5 658,-112.5 528,-112.5"/>
<text text-anchor="middle" x="593" y="-119.5" font-family="Helvetica,sans-Serif" font-size="10.00">src/view/view_elements.h</text>
</a>
</g>
</g>
<!-- Node2&#45;&gt;Node12 -->
<g id="edge16" class="edge"><title>Node2&#45;&gt;Node12</title>
<path fill="none" stroke="midnightblue" d="M459.038,-218.909C472.061,-210.124 489.086,-198.526 504,-188 532.138,-168.14 564.707,-144.073 581.565,-131.534"/>
<polygon fill="midnightblue" stroke="midnightblue" points="457.08,-216.008 450.736,-224.494 460.987,-221.816 457.08,-216.008"/>
</g>
<!-- Node14 -->
<g id="node14" class="node"><title>Node14</title>
<g id="a_node14"><a xlink:href="geomfactory_8h.html" target="_top" xlink:title="File with interface of abstract geometry factory and declaration of standard geometry factory...">
<polygon fill="none" stroke="black" points="380,-168.5 380,-187.5 496,-187.5 496,-168.5 380,-168.5"/>
<text text-anchor="middle" x="438" y="-175.5" font-family="Helvetica,sans-Serif" font-size="10.00">src/utils/geomfactory.h</text>
</a>
</g>
</g>
<!-- Node2&#45;&gt;Node14 -->
<g id="edge20" class="edge"><title>Node2&#45;&gt;Node14</title>
<path fill="none" stroke="midnightblue" d="M438,-213.805C438,-204.91 438,-194.78 438,-187.751"/>
<polygon fill="midnightblue" stroke="midnightblue" points="434.5,-214.083 438,-224.083 441.5,-214.083 434.5,-214.083"/>
</g>
<!-- Node16 -->
<g id="node16" class="node"><title>Node16</title>
<g id="a_node16"><a xlink:href="geometry__elements_8cpp.html" target="_top" xlink:title="File with implementation of geometry element classes. ">
<polygon fill="none" stroke="black" points="552.5,-168.5 552.5,-187.5 713.5,-187.5 713.5,-168.5 552.5,-168.5"/>
<text text-anchor="middle" x="633" y="-175.5" font-family="Helvetica,sans-Serif" font-size="10.00">src/view/geometry_elements.cpp</text>
</a>
</g>
</g>
<!-- Node2&#45;&gt;Node16 -->
<g id="edge23" class="edge"><title>Node2&#45;&gt;Node16</title>
<path fill="none" stroke="midnightblue" d="M478.81,-221.699C515.613,-211.507 568.929,-196.743 602.246,-187.516"/>
<polygon fill="midnightblue" stroke="midnightblue" points="477.602,-218.402 468.898,-224.444 479.47,-225.148 477.602,-218.402"/>
</g>
<!-- Node4 -->
<g id="node4" class="node"><title>Node4</title>
<g id="a_node4"><a xlink:href="controller_8h.html" target="_top" xlink:title="File with controller (from MVC) declaration. ">
<polygon fill="none" stroke="black" points="163,-56.5 163,-75.5 287,-75.5 287,-56.5 163,-56.5"/>
<text text-anchor="middle" x="225" y="-63.5" font-family="Helvetica,sans-Serif" font-size="10.00">src/controller/controller.h</text>
</a>
</g>
</g>
<!-- Node3&#45;&gt;Node4 -->
<g id="edge3" class="edge"><title>Node3&#45;&gt;Node4</title>
<path fill="none" stroke="midnightblue" d="M225,-101.805C225,-92.9102 225,-82.7798 225,-75.7511"/>
<polygon fill="midnightblue" stroke="midnightblue" points="221.5,-102.083 225,-112.083 228.5,-102.083 221.5,-102.083"/>
</g>
<!-- Node7 -->
<g id="node7" class="node"><title>Node7</title>
<g id="a_node7"><a xlink:href="view_8h.html" target="_top" xlink:title="File with declaration of view (V from MVC). ">
<polygon fill="none" stroke="black" points="305.5,-56.5 305.5,-75.5 390.5,-75.5 390.5,-56.5 305.5,-56.5"/>
<text text-anchor="middle" x="348" y="-63.5" font-family="Helvetica,sans-Serif" font-size="10.00">src/view/view.h</text>
</a>
</g>
</g>
<!-- Node3&#45;&gt;Node7 -->
<g id="edge6" class="edge"><title>Node3&#45;&gt;Node7</title>
<path fill="none" stroke="midnightblue" d="M253.773,-108.368C276.807,-98.2553 308.484,-84.3486 328.601,-75.5164"/>
<polygon fill="midnightblue" stroke="midnightblue" points="252.239,-105.219 244.49,-112.444 255.053,-111.628 252.239,-105.219"/>
</g>
<!-- Node5 -->
<g id="node5" class="node"><title>Node5</title>
<g id="a_node5"><a xlink:href="controller_8cpp.html" target="_top" xlink:title="File with controller (from MVC) implementation. ">
<polygon fill="none" stroke="black" points="236,-0.5 236,-19.5 370,-19.5 370,-0.5 236,-0.5"/>
<text text-anchor="middle" x="303" y="-7.5" font-family="Helvetica,sans-Serif" font-size="10.00">src/controller/controller.cpp</text>
</a>
</g>
</g>
<!-- Node4&#45;&gt;Node5 -->
<g id="edge4" class="edge"><title>Node4&#45;&gt;Node5</title>
<path fill="none" stroke="midnightblue" d="M245.768,-50.6221C260.017,-40.7574 278.456,-27.9919 290.499,-19.6545"/>
<polygon fill="midnightblue" stroke="midnightblue" points="243.762,-47.7541 237.532,-56.324 247.746,-53.5095 243.762,-47.7541"/>
</g>
<!-- Node6 -->
<g id="node6" class="node"><title>Node6</title>
<g id="a_node6"><a xlink:href="tester_8cpp.html" target="_top" xlink:title="File with tester class for the whole programm. ">
<polygon fill="none" stroke="black" points="140.5,-0.5 140.5,-19.5 217.5,-19.5 217.5,-0.5 140.5,-0.5"/>
<text text-anchor="middle" x="179" y="-7.5" font-family="Helvetica,sans-Serif" font-size="10.00">src/tester.cpp</text>
</a>
</g>
</g>
<!-- Node4&#45;&gt;Node6 -->
<g id="edge5" class="edge"><title>Node4&#45;&gt;Node6</title>
<path fill="none" stroke="midnightblue" d="M210.886,-48.4314C202.824,-38.9673 193.041,-27.4827 186.455,-19.7511"/>
<polygon fill="midnightblue" stroke="midnightblue" points="208.255,-50.7402 217.404,-56.083 213.584,-46.2009 208.255,-50.7402"/>
</g>
<!-- Node7&#45;&gt;Node5 -->
<g id="edge7" class="edge"><title>Node7&#45;&gt;Node5</title>
<path fill="none" stroke="midnightblue" d="M333.953,-48.144C326.113,-38.7357 316.671,-27.4046 310.293,-19.7511"/>
<polygon fill="midnightblue" stroke="midnightblue" points="331.479,-50.6414 340.569,-56.083 336.856,-46.1601 331.479,-50.6414"/>
</g>
<!-- Node7&#45;&gt;Node6 -->
<g id="edge8" class="edge"><title>Node7&#45;&gt;Node6</title>
<path fill="none" stroke="midnightblue" d="M311.397,-53.3044C279.553,-43.1294 234.158,-28.6246 205.653,-19.5164"/>
<polygon fill="midnightblue" stroke="midnightblue" points="310.631,-56.7337 321.221,-56.4435 312.761,-50.0659 310.631,-56.7337"/>
</g>
<!-- Node8 -->
<g id="node8" class="node"><title>Node8</title>
<g id="a_node8"><a xlink:href="view_8cpp.html" target="_top" xlink:title="File with implementation of view (V from MVC). ">
<polygon fill="none" stroke="black" points="388.5,-0.5 388.5,-19.5 483.5,-19.5 483.5,-0.5 388.5,-0.5"/>
<text text-anchor="middle" x="436" y="-7.5" font-family="Helvetica,sans-Serif" font-size="10.00">src/view/view.cpp</text>
</a>
</g>
</g>
<!-- Node7&#45;&gt;Node8 -->
<g id="edge9" class="edge"><title>Node7&#45;&gt;Node8</title>
<path fill="none" stroke="midnightblue" d="M370.977,-50.9005C387.113,-40.9986 408.181,-28.0705 421.896,-19.6545"/>
<polygon fill="midnightblue" stroke="midnightblue" points="368.831,-48.1106 362.139,-56.324 372.493,-54.0769 368.831,-48.1106"/>
</g>
<!-- Node9&#45;&gt;Node7 -->
<g id="edge15" class="edge"><title>Node9&#45;&gt;Node7</title>
<path fill="none" stroke="midnightblue" d="M317.998,-158.674C325.868,-134.625 339.364,-93.3881 345.188,-75.5914"/>
<polygon fill="midnightblue" stroke="midnightblue" points="314.609,-157.776 314.825,-168.368 321.262,-159.953 314.609,-157.776"/>
</g>
<!-- Node10 -->
<g id="node10" class="node"><title>Node10</title>
<g id="a_node10"><a xlink:href="model_8h.html" target="_top" xlink:title="File with declaration of model (from MVC). ">
<polygon fill="none" stroke="black" points="46.5,-112.5 46.5,-131.5 143.5,-131.5 143.5,-112.5 46.5,-112.5"/>
<text text-anchor="middle" x="95" y="-119.5" font-family="Helvetica,sans-Serif" font-size="10.00">src/model/model.h</text>
</a>
</g>
</g>
<!-- Node9&#45;&gt;Node10 -->
<g id="edge11" class="edge"><title>Node9&#45;&gt;Node10</title>
<path fill="none" stroke="midnightblue" d="M267.892,-166.024C226.9,-155.823 166.696,-140.841 129.223,-131.516"/>
<polygon fill="midnightblue" stroke="midnightblue" points="267.066,-169.425 277.616,-168.444 268.757,-162.632 267.066,-169.425"/>
</g>
<!-- Node10&#45;&gt;Node4 -->
<g id="edge12" class="edge"><title>Node10&#45;&gt;Node4</title>
<path fill="none" stroke="midnightblue" d="M125.085,-108.503C149.457,-98.3795 183.14,-84.388 204.497,-75.5164"/>
<polygon fill="midnightblue" stroke="midnightblue" points="123.491,-105.375 115.599,-112.444 126.177,-111.84 123.491,-105.375"/>
</g>
<!-- Node10&#45;&gt;Node6 -->
<g id="edge14" class="edge"><title>Node10&#45;&gt;Node6</title>
<path fill="none" stroke="midnightblue" d="M107.774,-104.272C125.932,-80.4942 158.543,-37.7889 172.439,-19.5914"/>
<polygon fill="midnightblue" stroke="midnightblue" points="104.879,-102.297 101.591,-112.368 110.442,-106.545 104.879,-102.297"/>
</g>
<!-- Node11 -->
<g id="node11" class="node"><title>Node11</title>
<g id="a_node11"><a xlink:href="model_8cpp.html" target="_top" xlink:title="File with implementation of model (from MVC). ">
<polygon fill="none" stroke="black" points="-0.5,-56.5 -0.5,-75.5 106.5,-75.5 106.5,-56.5 -0.5,-56.5"/>
<text text-anchor="middle" x="53" y="-63.5" font-family="Helvetica,sans-Serif" font-size="10.00">src/model/model.cpp</text>
</a>
</g>
</g>
<!-- Node10&#45;&gt;Node11 -->
<g id="edge13" class="edge"><title>Node10&#45;&gt;Node11</title>
<path fill="none" stroke="midnightblue" d="M81.8898,-104.144C74.5722,-94.7357 65.7591,-83.4046 59.8064,-75.7511"/>
<polygon fill="midnightblue" stroke="midnightblue" points="79.1624,-106.338 88.0646,-112.083 84.6878,-102.041 79.1624,-106.338"/>
</g>
<!-- Node12&#45;&gt;Node4 -->
<g id="edge17" class="edge"><title>Node12&#45;&gt;Node4</title>
<path fill="none" stroke="midnightblue" d="M524.712,-110.979C455.198,-100.779 348.601,-85.1372 283.038,-75.5164"/>
<polygon fill="midnightblue" stroke="midnightblue" points="524.287,-114.455 534.689,-112.444 525.303,-107.529 524.287,-114.455"/>
</g>
<!-- Node12&#45;&gt;Node7 -->
<g id="edge18" class="edge"><title>Node12&#45;&gt;Node7</title>
<path fill="none" stroke="midnightblue" d="M544.37,-110.281C498.071,-100.077 429.305,-84.9203 386.639,-75.5164"/>
<polygon fill="midnightblue" stroke="midnightblue" points="543.66,-113.709 554.179,-112.444 545.167,-106.873 543.66,-113.709"/>
</g>
<!-- Node13 -->
<g id="node13" class="node"><title>Node13</title>
<g id="a_node13"><a xlink:href="view__elements_8cpp.html" target="_top" xlink:title="File with implementation of button and canvas classes. ">
<polygon fill="none" stroke="black" points="523,-56.5 523,-75.5 663,-75.5 663,-56.5 523,-56.5"/>
<text text-anchor="middle" x="593" y="-63.5" font-family="Helvetica,sans-Serif" font-size="10.00">src/view/view_elements.cpp</text>
</a>
</g>
</g>
<!-- Node12&#45;&gt;Node13 -->
<g id="edge19" class="edge"><title>Node12&#45;&gt;Node13</title>
<path fill="none" stroke="midnightblue" d="M593,-101.805C593,-92.9102 593,-82.7798 593,-75.7511"/>
<polygon fill="midnightblue" stroke="midnightblue" points="589.5,-102.083 593,-112.083 596.5,-102.083 589.5,-102.083"/>
</g>
<!-- Node14&#45;&gt;Node4 -->
<g id="edge21" class="edge"><title>Node14&#45;&gt;Node4</title>
<path fill="none" stroke="midnightblue" d="M412.314,-163.735C368.066,-140.884 278.658,-94.7108 241.636,-75.5914"/>
<polygon fill="midnightblue" stroke="midnightblue" points="410.795,-166.89 421.286,-168.368 414.007,-160.67 410.795,-166.89"/>
</g>
<!-- Node15 -->
<g id="node15" class="node"><title>Node15</title>
<g id="a_node15"><a xlink:href="geomfactory_8cpp.html" target="_top" xlink:title="File with implementation of geometry factory class. ">
<polygon fill="none" stroke="black" points="382.5,-112.5 382.5,-131.5 509.5,-131.5 509.5,-112.5 382.5,-112.5"/>
<text text-anchor="middle" x="446" y="-119.5" font-family="Helvetica,sans-Serif" font-size="10.00">src/utils/geomfactory.cpp</text>
</a>
</g>
</g>
<!-- Node14&#45;&gt;Node15 -->
<g id="edge22" class="edge"><title>Node14&#45;&gt;Node15</title>
<path fill="none" stroke="midnightblue" d="M440.8,-158.101C442.128,-149.136 443.651,-138.858 444.704,-131.751"/>
<polygon fill="midnightblue" stroke="midnightblue" points="437.324,-157.678 439.321,-168.083 444.249,-158.704 437.324,-157.678"/>
</g>
</g>
</svg>
