<?xml version="1.0" encoding="UTF-8" standalone="no"?>
<!DOCTYPE svg PUBLIC "-//W3C//DTD SVG 1.1//EN"
 "http://www.w3.org/Graphics/SVG/1.1/DTD/svg11.dtd">
<!-- Generated by graphviz version 2.38.0 (20140413.2041)
 -->
<!-- Title: src/utils/tags.h Pages: 1 -->
<svg width="770pt" height="308pt"
 viewBox="0.00 0.00 769.50 308.00" xmlns="http://www.w3.org/2000/svg" xmlns:xlink="http://www.w3.org/1999/xlink">
<g id="graph0" class="graph" transform="scale(1 1) rotate(0) translate(4 304)">
<title>src/utils/tags.h</title>
<!-- Node1 -->
<g id="node1" class="node"><title>Node1</title>
<polygon fill="#bfbfbf" stroke="black" points="425.5,-280.5 425.5,-299.5 511.5,-299.5 511.5,-280.5 425.5,-280.5"/>
<text text-anchor="middle" x="468.5" y="-287.5" font-family="Helvetica,sans-Serif" font-size="10.00">src/utils/tags.h</text>
</g>
<!-- Node2 -->
<g id="node2" class="node"><title>Node2</title>
<g id="a_node2"><a xlink:href="geometry__elements_8h.html" target="_top" xlink:title="File with declaration of geometry element classes. ">
<polygon fill="none" stroke="black" points="387,-224.5 387,-243.5 550,-243.5 550,-224.5 387,-224.5"/>
<text text-anchor="middle" x="468.5" y="-231.5" font-family="Helvetica,sans-Serif" font-size="10.00">src/view/geometry_elements.h</text>
</a>
</g>
</g>
<!-- Node1&#45;&gt;Node2 -->
<g id="edge1" class="edge"><title>Node1&#45;&gt;Node2</title>
<path fill="none" stroke="midnightblue" d="M468.5,-269.805C468.5,-260.91 468.5,-250.78 468.5,-243.751"/>
<polygon fill="midnightblue" stroke="midnightblue" points="465,-270.083 468.5,-280.083 472,-270.083 465,-270.083"/>
</g>
<!-- Node3 -->
<g id="node3" class="node"><title>Node3</title>
<g id="a_node3"><a xlink:href="icontroller_8h.html" target="_top" xlink:title="File with interface of abstract controller (from MVC). ">
<polygon fill="none" stroke="black" points="173,-112.5 173,-131.5 310,-131.5 310,-112.5 173,-112.5"/>
<text text-anchor="middle" x="241.5" y="-119.5" font-family="Helvetica,sans-Serif" font-size="10.00">src/controller/icontroller.h</text>
</a>
</g>
</g>
<!-- Node2&#45;&gt;Node3 -->
<g id="edge2" class="edge"><title>Node2&#45;&gt;Node3</title>
<path fill="none" stroke="midnightblue" d="M392.756,-222.919C345.129,-215.252 289.261,-203.399 270.5,-188 252.735,-173.418 245.476,-145.712 242.834,-131.651"/>
<polygon fill="midnightblue" stroke="midnightblue" points="392.356,-226.399 402.777,-224.491 393.44,-219.483 392.356,-226.399"/>
</g>
<!-- Node9 -->
<g id="node9" class="node"><title>Node9</title>
<g id="a_node9"><a xlink:href="imodel_8h.html" target="_top" xlink:title="File with interface of abstract model (from MVC). ">
<polygon fill="none" stroke="black" points="279.5,-168.5 279.5,-187.5 387.5,-187.5 387.5,-168.5 279.5,-168.5"/>
<text text-anchor="middle" x="333.5" y="-175.5" font-family="Helvetica,sans-Serif" font-size="10.00">src/model/imodel.h</text>
</a>
</g>
</g>
<!-- Node2&#45;&gt;Node9 -->
<g id="edge10" class="edge"><title>Node2&#45;&gt;Node9</title>
<path fill="none" stroke="midnightblue" d="M437.594,-220.638C412.26,-210.504 377.069,-196.427 354.791,-187.516"/>
<polygon fill="midnightblue" stroke="midnightblue" points="436.524,-223.979 447.109,-224.444 439.124,-217.48 436.524,-223.979"/>
</g>
<!-- Node12 -->
<g id="node12" class="node"><title>Node12</title>
<g id="a_node12"><a xlink:href="view__elements_8h.html" target="_top" xlink:title="File with declaration of button and canvas classes. ">
<polygon fill="none" stroke="black" points="559,-112.5 559,-131.5 696,-131.5 696,-112.5 559,-112.5"/>
<text text-anchor="middle" x="627.5" y="-119.5" font-family="Helvetica,sans-Serif" font-size="10.00">src/view/view_elements.h</text>
</a>
</g>
</g>
<!-- Node2&#45;&gt;Node12 -->
<g id="edge16" class="edge"><title>Node2&#45;&gt;Node12</title>
<path fill="none" stroke="midnightblue" d="M491.128,-219.23C505.207,-210.522 523.599,-198.892 539.5,-188 567.706,-168.68 599.753,-144.394 616.295,-131.677"/>
<polygon fill="midnightblue" stroke="midnightblue" points="489.253,-216.274 482.567,-224.494 492.919,-222.237 489.253,-216.274"/>
</g>
<!-- Node14 -->
<g id="node14" class="node"><title>Node14</title>
<g id="a_node14"><a xlink:href="geomfactory_8h.html" target="_top" xlink:title="File with interface of abstract geometry factory and declaration of standard geometry factory...">
<polygon fill="none" stroke="black" points="406,-168.5 406,-187.5 531,-187.5 531,-168.5 406,-168.5"/>
<text text-anchor="middle" x="468.5" y="-175.5" font-family="Helvetica,sans-Serif" font-size="10.00">src/utils/geomfactory.h</text>
</a>
</g>
</g>
<!-- Node2&#45;&gt;Node14 -->
<g id="edge20" class="edge"><title>Node2&#45;&gt;Node14</title>
<path fill="none" stroke="midnightblue" d="M468.5,-213.805C468.5,-204.91 468.5,-194.78 468.5,-187.751"/>
<polygon fill="midnightblue" stroke="midnightblue" points="465,-214.083 468.5,-224.083 472,-214.083 465,-214.083"/>
</g>
<!-- Node16 -->
<g id="node16" class="node"><title>Node16</title>
<g id="a_node16"><a xlink:href="geometry__elements_8cpp.html" target="_top" xlink:title="File with implementation of geometry element classes. ">
<polygon fill="none" stroke="black" points="587.5,-168.5 587.5,-187.5 761.5,-187.5 761.5,-168.5 587.5,-168.5"/>
<text text-anchor="middle" x="674.5" y="-175.5" font-family="Helvetica,sans-Serif" font-size="10.00">src/view/geometry_elements.cpp</text>
</a>
</g>
</g>
<!-- Node2&#45;&gt;Node16 -->
<g id="edge23" class="edge"><title>Node2&#45;&gt;Node16</title>
<path fill="none" stroke="midnightblue" d="M511.115,-221.829C550.01,-211.633 606.664,-196.782 642.011,-187.516"/>
<polygon fill="midnightblue" stroke="midnightblue" points="509.927,-218.522 501.141,-224.444 511.702,-225.293 509.927,-218.522"/>
</g>
<!-- Node4 -->
<g id="node4" class="node"><title>Node4</title>
<g id="a_node4"><a xlink:href="controller_8h.html" target="_top" xlink:title="File with controller (from MVC) declaration. ">
<polygon fill="none" stroke="black" points="174,-56.5 174,-75.5 309,-75.5 309,-56.5 174,-56.5"/>
<text text-anchor="middle" x="241.5" y="-63.5" font-family="Helvetica,sans-Serif" font-size="10.00">src/controller/controller.h</text>
</a>
</g>
</g>
<!-- Node3&#45;&gt;Node4 -->
<g id="edge3" class="edge"><title>Node3&#45;&gt;Node4</title>
<path fill="none" stroke="midnightblue" d="M241.5,-101.805C241.5,-92.9102 241.5,-82.7798 241.5,-75.7511"/>
<polygon fill="midnightblue" stroke="midnightblue" points="238,-102.083 241.5,-112.083 245,-102.083 238,-102.083"/>
</g>
<!-- Node7 -->
<g id="node7" class="node"><title>Node7</title>
<g id="a_node7"><a xlink:href="view_8h.html" target="_top" xlink:title="File with declaration of view (V from MVC). ">
<polygon fill="none" stroke="black" points="327.5,-56.5 327.5,-75.5 413.5,-75.5 413.5,-56.5 327.5,-56.5"/>
<text text-anchor="middle" x="370.5" y="-63.5" font-family="Helvetica,sans-Serif" font-size="10.00">src/view/view.h</text>
</a>
</g>
</g>
<!-- Node3&#45;&gt;Node7 -->
<g id="edge6" class="edge"><title>Node3&#45;&gt;Node7</title>
<path fill="none" stroke="midnightblue" d="M271.354,-108.503C295.538,-98.3795 328.962,-84.388 350.155,-75.5164"/>
<polygon fill="midnightblue" stroke="midnightblue" points="269.813,-105.354 261.94,-112.444 272.516,-111.811 269.813,-105.354"/>
</g>
<!-- Node5 -->
<g id="node5" class="node"><title>Node5</title>
<g id="a_node5"><a xlink:href="controller_8cpp.html" target="_top" xlink:title="File with controller (from MVC) implementation. ">
<polygon fill="none" stroke="black" points="250.5,-0.5 250.5,-19.5 396.5,-19.5 396.5,-0.5 250.5,-0.5"/>
<text text-anchor="middle" x="323.5" y="-7.5" font-family="Helvetica,sans-Serif" font-size="10.00">src/controller/controller.cpp</text>
</a>
</g>
</g>
<!-- Node4&#45;&gt;Node5 -->
<g id="edge4" class="edge"><title>Node4&#45;&gt;Node5</title>
<path fill="none" stroke="midnightblue" d="M263.333,-50.6221C278.313,-40.7574 297.697,-27.9919 310.358,-19.6545"/>
<polygon fill="midnightblue" stroke="midnightblue" points="261.101,-47.9009 254.675,-56.324 264.951,-53.7471 261.101,-47.9009"/>
</g>
<!-- Node6 -->
<g id="node6" class="node"><title>Node6</title>
<g id="a_node6"><a xlink:href="tester_8cpp.html" target="_top" xlink:title="File with tester class for the whole programm. ">
<polygon fill="none" stroke="black" points="150.5,-0.5 150.5,-19.5 232.5,-19.5 232.5,-0.5 150.5,-0.5"/>
<text text-anchor="middle" x="191.5" y="-7.5" font-family="Helvetica,sans-Serif" font-size="10.00">src/tester.cpp</text>
</a>
</g>
</g>
<!-- Node4&#45;&gt;Node6 -->
<g id="edge5" class="edge"><title>Node4&#45;&gt;Node6</title>
<path fill="none" stroke="midnightblue" d="M226.424,-48.7175C217.611,-39.1997 206.834,-27.5608 199.603,-19.7511"/>
<polygon fill="midnightblue" stroke="midnightblue" points="223.881,-51.1233 233.244,-56.083 229.018,-46.3674 223.881,-51.1233"/>
</g>
<!-- Node7&#45;&gt;Node5 -->
<g id="edge7" class="edge"><title>Node7&#45;&gt;Node5</title>
<path fill="none" stroke="midnightblue" d="M356.079,-48.4314C347.842,-38.9673 337.846,-27.4827 331.117,-19.7511"/>
<polygon fill="midnightblue" stroke="midnightblue" points="353.534,-50.8378 362.739,-56.083 358.814,-46.2421 353.534,-50.8378"/>
</g>
<!-- Node7&#45;&gt;Node6 -->
<g id="edge8" class="edge"><title>Node7&#45;&gt;Node6</title>
<path fill="none" stroke="midnightblue" d="M332.169,-53.4363C298.42,-43.2551 250.053,-28.664 219.73,-19.5164"/>
<polygon fill="midnightblue" stroke="midnightblue" points="331.552,-56.9061 342.137,-56.4435 333.574,-50.2044 331.552,-56.9061"/>
</g>
<!-- Node8 -->
<g id="node8" class="node"><title>Node8</title>
<g id="a_node8"><a xlink:href="view_8cpp.html" target="_top" xlink:title="File with implementation of view (V from MVC). ">
<polygon fill="none" stroke="black" points="415,-0.5 415,-19.5 512,-19.5 512,-0.5 415,-0.5"/>
<text text-anchor="middle" x="463.5" y="-7.5" font-family="Helvetica,sans-Serif" font-size="10.00">src/view/view.cpp</text>
</a>
</g>
</g>
<!-- Node7&#45;&gt;Node8 -->
<g id="edge9" class="edge"><title>Node7&#45;&gt;Node8</title>
<path fill="none" stroke="midnightblue" d="M394.306,-51.1774C411.419,-41.2407 433.965,-28.1492 448.595,-19.6545"/>
<polygon fill="midnightblue" stroke="midnightblue" points="392.332,-48.2758 385.442,-56.324 395.847,-54.3293 392.332,-48.2758"/>
</g>
<!-- Node9&#45;&gt;Node7 -->
<g id="edge15" class="edge"><title>Node9&#45;&gt;Node7</title>
<path fill="none" stroke="midnightblue" d="M339.664,-158.674C347.753,-134.625 361.624,-93.3881 367.61,-75.5914"/>
<polygon fill="midnightblue" stroke="midnightblue" points="336.274,-157.774 336.403,-168.368 342.909,-160.006 336.274,-157.774"/>
</g>
<!-- Node10 -->
<g id="node10" class="node"><title>Node10</title>
<g id="a_node10"><a xlink:href="model_8h.html" target="_top" xlink:title="File with declaration of model (from MVC). ">
<polygon fill="none" stroke="black" points="48.5,-112.5 48.5,-131.5 154.5,-131.5 154.5,-112.5 48.5,-112.5"/>
<text text-anchor="middle" x="101.5" y="-119.5" font-family="Helvetica,sans-Serif" font-size="10.00">src/model/model.h</text>
</a>
</g>
</g>
<!-- Node9&#45;&gt;Node10 -->
<g id="edge11" class="edge"><title>Node9&#45;&gt;Node10</title>
<path fill="none" stroke="midnightblue" d="M286.897,-166.153C243.063,-155.95 178.322,-140.881 138.089,-131.516"/>
<polygon fill="midnightblue" stroke="midnightblue" points="286.206,-169.585 296.739,-168.444 287.793,-162.768 286.206,-169.585"/>
</g>
<!-- Node10&#45;&gt;Node4 -->
<g id="edge12" class="edge"><title>Node10&#45;&gt;Node4</title>
<path fill="none" stroke="midnightblue" d="M133.202,-108.772C159.5,-98.6287 196.216,-84.4669 219.42,-75.5164"/>
<polygon fill="midnightblue" stroke="midnightblue" points="131.754,-105.579 123.683,-112.444 134.273,-112.11 131.754,-105.579"/>
</g>
<!-- Node10&#45;&gt;Node6 -->
<g id="edge14" class="edge"><title>Node10&#45;&gt;Node6</title>
<path fill="none" stroke="midnightblue" d="M114.93,-104.586C134.333,-80.8709 169.516,-37.8691 184.471,-19.5914"/>
<polygon fill="midnightblue" stroke="midnightblue" points="112.186,-102.413 108.562,-112.368 117.603,-106.845 112.186,-102.413"/>
</g>
<!-- Node11 -->
<g id="node11" class="node"><title>Node11</title>
<g id="a_node11"><a xlink:href="model_8cpp.html" target="_top" xlink:title="File with implementation of model (from MVC). ">
<polygon fill="none" stroke="black" points="0,-56.5 0,-75.5 117,-75.5 117,-56.5 0,-56.5"/>
<text text-anchor="middle" x="58.5" y="-63.5" font-family="Helvetica,sans-Serif" font-size="10.00">src/model/model.cpp</text>
</a>
</g>
</g>
<!-- Node10&#45;&gt;Node11 -->
<g id="edge13" class="edge"><title>Node10&#45;&gt;Node11</title>
<path fill="none" stroke="midnightblue" d="M88.0776,-104.144C80.5858,-94.7357 71.5629,-83.4046 65.4685,-75.7511"/>
<polygon fill="midnightblue" stroke="midnightblue" points="85.4321,-106.44 94.3994,-112.083 90.9081,-102.08 85.4321,-106.44"/>
</g>
<!-- Node12&#45;&gt;Node4 -->
<g id="edge17" class="edge"><title>Node12&#45;&gt;Node4</title>
<path fill="none" stroke="midnightblue" d="M556.319,-111.042C483.416,-100.843 371.288,-85.1569 302.377,-75.5164"/>
<polygon fill="midnightblue" stroke="midnightblue" points="555.949,-114.524 566.337,-112.444 556.919,-107.592 555.949,-114.524"/>
</g>
<!-- Node12&#45;&gt;Node7 -->
<g id="edge18" class="edge"><title>Node12&#45;&gt;Node7</title>
<path fill="none" stroke="midnightblue" d="M576.793,-110.346C528.224,-100.141 455.881,-84.94 411.032,-75.5164"/>
<polygon fill="midnightblue" stroke="midnightblue" points="576.272,-113.812 586.778,-112.444 577.711,-106.962 576.272,-113.812"/>
</g>
<!-- Node13 -->
<g id="node13" class="node"><title>Node13</title>
<g id="a_node13"><a xlink:href="view__elements_8cpp.html" target="_top" xlink:title="File with implementation of button and canvas classes. ">
<polygon fill="none" stroke="black" points="553.5,-56.5 553.5,-75.5 701.5,-75.5 701.5,-56.5 553.5,-56.5"/>
<text text-anchor="middle" x="627.5" y="-63.5" font-family="Helvetica,sans-Serif" font-size="10.00">src/view/view_elements.cpp</text>
</a>
</g>
</g>
<!-- Node12&#45;&gt;Node13 -->
<g id="edge19" class="edge"><title>Node12&#45;&gt;Node13</title>
<path fill="none" stroke="midnightblue" d="M627.5,-101.805C627.5,-92.9102 627.5,-82.7798 627.5,-75.7511"/>
<polygon fill="midnightblue" stroke="midnightblue" points="624,-102.083 627.5,-112.083 631,-102.083 624,-102.083"/>
</g>
<!-- Node14&#45;&gt;Node4 -->
<g id="edge21" class="edge"><title>Node14&#45;&gt;Node4</title>
<path fill="none" stroke="midnightblue" d="M441.422,-163.878C394.37,-141.078 298.768,-94.7509 259.23,-75.5914"/>
<polygon fill="midnightblue" stroke="midnightblue" points="440.162,-167.157 450.688,-168.368 443.215,-160.858 440.162,-167.157"/>
</g>
<!-- Node15 -->
<g id="node15" class="node"><title>Node15</title>
<g id="a_node15"><a xlink:href="geomfactory_8cpp.html" target="_top" xlink:title="File with implementation of geometry factory class. ">
<polygon fill="none" stroke="black" points="404.5,-112.5 404.5,-131.5 540.5,-131.5 540.5,-112.5 404.5,-112.5"/>
<text text-anchor="middle" x="472.5" y="-119.5" font-family="Helvetica,sans-Serif" font-size="10.00">src/utils/geomfactory.cpp</text>
</a>
</g>
</g>
<!-- Node14&#45;&gt;Node15 -->
<g id="edge22" class="edge"><title>Node14&#45;&gt;Node15</title>
<path fill="none" stroke="midnightblue" d="M469.9,-158.101C470.564,-149.136 471.325,-138.858 471.852,-131.751"/>
<polygon fill="midnightblue" stroke="midnightblue" points="466.409,-157.852 469.161,-168.083 473.39,-158.369 466.409,-157.852"/>
</g>
</g>
</svg>
