<?xml version="1.0" encoding="UTF-8" standalone="no"?>
<!DOCTYPE svg PUBLIC "-//W3C//DTD SVG 1.1//EN"
 "http://www.w3.org/Graphics/SVG/1.1/DTD/svg11.dtd">
<!-- Generated by graphviz version 2.38.0 (20140413.2041)
 -->
<!-- Title: src/tester.cpp Pages: 1 -->
<svg width="543pt" height="364pt"
 viewBox="0.00 0.00 542.50 364.00" xmlns="http://www.w3.org/2000/svg" xmlns:xlink="http://www.w3.org/1999/xlink">
<g id="graph0" class="graph" transform="scale(1 1) rotate(0) translate(4 360)">
<title>src/tester.cpp</title>
<!-- Node1 -->
<g id="node1" class="node"><title>Node1</title>
<polygon fill="#bfbfbf" stroke="black" points="219.5,-336.5 219.5,-355.5 301.5,-355.5 301.5,-336.5 219.5,-336.5"/>
<text text-anchor="middle" x="260.5" y="-343.5" font-family="Helvetica,sans-Serif" font-size="10.00">src/tester.cpp</text>
</g>
<!-- Node2 -->
<g id="node2" class="node"><title>Node2</title>
<g id="a_node2"><a xlink:href="tester_8h.html" target="_top" xlink:title="File with tester class for the whole programm. ">
<polygon fill="none" stroke="black" points="92,-280.5 92,-299.5 145,-299.5 145,-280.5 92,-280.5"/>
<text text-anchor="middle" x="118.5" y="-287.5" font-family="Helvetica,sans-Serif" font-size="10.00">tester.h</text>
</a>
</g>
</g>
<!-- Node1&#45;&gt;Node2 -->
<g id="edge1" class="edge"><title>Node1&#45;&gt;Node2</title>
<path fill="none" stroke="midnightblue" d="M238,-336.444C214.423,-327.478 177.178,-313.314 150.536,-303.183"/>
<polygon fill="midnightblue" stroke="midnightblue" points="151.486,-299.8 140.895,-299.516 148.998,-306.342 151.486,-299.8"/>
</g>
<!-- Node3 -->
<g id="node3" class="node"><title>Node3</title>
<g id="a_node3"><a xlink:href="model_8h.html" target="_top" xlink:title="File with declaration of model (from MVC). ">
<polygon fill="none" stroke="black" points="327,-224.5 327,-243.5 416,-243.5 416,-224.5 327,-224.5"/>
<text text-anchor="middle" x="371.5" y="-231.5" font-family="Helvetica,sans-Serif" font-size="10.00">model/model.h</text>
</a>
</g>
</g>
<!-- Node1&#45;&gt;Node3 -->
<g id="edge2" class="edge"><title>Node1&#45;&gt;Node3</title>
<path fill="none" stroke="midnightblue" d="M277.228,-336.446C291.888,-328.399 313.186,-315.317 328.5,-300 342.511,-285.987 354.564,-266.734 362.314,-252.823"/>
<polygon fill="midnightblue" stroke="midnightblue" points="365.517,-254.255 367.163,-243.788 359.35,-250.944 365.517,-254.255"/>
</g>
<!-- Node14 -->
<g id="node14" class="node"><title>Node14</title>
<g id="a_node14"><a xlink:href="view_8h.html" target="_top" xlink:title="File with declaration of view (V from MVC). ">
<polygon fill="none" stroke="black" points="126.5,-224.5 126.5,-243.5 194.5,-243.5 194.5,-224.5 126.5,-224.5"/>
<text text-anchor="middle" x="160.5" y="-231.5" font-family="Helvetica,sans-Serif" font-size="10.00">view/view.h</text>
</a>
</g>
</g>
<!-- Node1&#45;&gt;Node14 -->
<g id="edge15" class="edge"><title>Node1&#45;&gt;Node14</title>
<path fill="none" stroke="midnightblue" d="M242.396,-336.442C227.465,-328.649 206.531,-315.939 192.5,-300 180.446,-286.307 171.78,-267.267 166.531,-253.333"/>
<polygon fill="midnightblue" stroke="midnightblue" points="169.812,-252.112 163.184,-243.846 163.21,-254.441 169.812,-252.112"/>
</g>
<!-- Node18 -->
<g id="node18" class="node"><title>Node18</title>
<g id="a_node18"><a xlink:href="controller_8h.html" target="_top" xlink:title="File with controller (from MVC) declaration. ">
<polygon fill="none" stroke="black" points="201.5,-280.5 201.5,-299.5 319.5,-299.5 319.5,-280.5 201.5,-280.5"/>
<text text-anchor="middle" x="260.5" y="-287.5" font-family="Helvetica,sans-Serif" font-size="10.00">controller/controller.h</text>
</a>
</g>
</g>
<!-- Node1&#45;&gt;Node18 -->
<g id="edge27" class="edge"><title>Node1&#45;&gt;Node18</title>
<path fill="none" stroke="midnightblue" d="M260.5,-336.083C260.5,-329.006 260.5,-318.861 260.5,-309.986"/>
<polygon fill="midnightblue" stroke="midnightblue" points="264,-309.751 260.5,-299.751 257,-309.751 264,-309.751"/>
</g>
<!-- Node20 -->
<g id="node20" class="node"><title>Node20</title>
<polygon fill="none" stroke="#bfbfbf" points="376,-280.5 376,-299.5 435,-299.5 435,-280.5 376,-280.5"/>
<text text-anchor="middle" x="405.5" y="-287.5" font-family="Helvetica,sans-Serif" font-size="10.00">iostream</text>
</g>
<!-- Node1&#45;&gt;Node20 -->
<g id="edge36" class="edge"><title>Node1&#45;&gt;Node20</title>
<path fill="none" stroke="midnightblue" d="M283.476,-336.444C307.657,-327.438 345.918,-313.189 373.146,-303.049"/>
<polygon fill="midnightblue" stroke="midnightblue" points="374.482,-306.286 382.632,-299.516 372.039,-299.727 374.482,-306.286"/>
</g>
<!-- Node4 -->
<g id="node4" class="node"><title>Node4</title>
<g id="a_node4"><a xlink:href="imodel_8h.html" target="_top" xlink:title="File with interface of abstract model (from MVC). ">
<polygon fill="none" stroke="black" points="342.5,-168.5 342.5,-187.5 400.5,-187.5 400.5,-168.5 342.5,-168.5"/>
<text text-anchor="middle" x="371.5" y="-175.5" font-family="Helvetica,sans-Serif" font-size="10.00">imodel.h</text>
</a>
</g>
</g>
<!-- Node3&#45;&gt;Node4 -->
<g id="edge3" class="edge"><title>Node3&#45;&gt;Node4</title>
<path fill="none" stroke="midnightblue" d="M371.5,-224.083C371.5,-217.006 371.5,-206.861 371.5,-197.986"/>
<polygon fill="midnightblue" stroke="midnightblue" points="375,-197.751 371.5,-187.751 368,-197.751 375,-197.751"/>
</g>
<!-- Node5 -->
<g id="node5" class="node"><title>Node5</title>
<g id="a_node5"><a xlink:href="geometry__elements_8h.html" target="_top" xlink:title="File with declaration of geometry element classes. ">
<polygon fill="none" stroke="black" points="275,-112.5 275,-131.5 430,-131.5 430,-112.5 275,-112.5"/>
<text text-anchor="middle" x="352.5" y="-119.5" font-family="Helvetica,sans-Serif" font-size="10.00">../view/geometry_elements.h</text>
</a>
</g>
</g>
<!-- Node4&#45;&gt;Node5 -->
<g id="edge4" class="edge"><title>Node4&#45;&gt;Node5</title>
<path fill="none" stroke="midnightblue" d="M368.363,-168.083C365.817,-160.849 362.144,-150.409 358.973,-141.397"/>
<polygon fill="midnightblue" stroke="midnightblue" points="362.2,-140.023 355.579,-131.751 355.597,-142.346 362.2,-140.023"/>
</g>
<!-- Node9 -->
<g id="node9" class="node"><title>Node9</title>
<g id="a_node9"><a xlink:href="observe_8h.html" target="_top" xlink:title="File with declaration of observer pattern &#45; Observer and Observable. ">
<polygon fill="none" stroke="black" points="47,-112.5 47,-131.5 142,-131.5 142,-112.5 47,-112.5"/>
<text text-anchor="middle" x="94.5" y="-119.5" font-family="Helvetica,sans-Serif" font-size="10.00">../utils/observe.h</text>
</a>
</g>
</g>
<!-- Node4&#45;&gt;Node9 -->
<g id="edge8" class="edge"><title>Node4&#45;&gt;Node9</title>
<path fill="none" stroke="midnightblue" d="M342.485,-169.982C339.455,-169.293 336.418,-168.62 333.5,-168 271.807,-154.894 200.738,-141.761 152.238,-133.096"/>
<polygon fill="midnightblue" stroke="midnightblue" points="152.702,-129.623 142.243,-131.316 151.475,-136.515 152.702,-129.623"/>
</g>
<!-- Node13 -->
<g id="node13" class="node"><title>Node13</title>
<polygon fill="none" stroke="#bfbfbf" points="448,-112.5 448,-131.5 505,-131.5 505,-112.5 448,-112.5"/>
<text text-anchor="middle" x="476.5" y="-119.5" font-family="Helvetica,sans-Serif" font-size="10.00">memory</text>
</g>
<!-- Node4&#45;&gt;Node13 -->
<g id="edge14" class="edge"><title>Node4&#45;&gt;Node13</title>
<path fill="none" stroke="midnightblue" d="M388.37,-168.324C405.209,-159.664 431.307,-146.242 450.738,-136.249"/>
<polygon fill="midnightblue" stroke="midnightblue" points="452.38,-139.341 459.672,-131.655 449.178,-133.116 452.38,-139.341"/>
</g>
<!-- Node6 -->
<g id="node6" class="node"><title>Node6</title>
<g id="a_node6"><a xlink:href="logger_8h.html" target="_top" xlink:title="File with simple logger class declaration. ">
<polygon fill="none" stroke="black" points="389.5,-56.5 389.5,-75.5 475.5,-75.5 475.5,-56.5 389.5,-56.5"/>
<text text-anchor="middle" x="432.5" y="-63.5" font-family="Helvetica,sans-Serif" font-size="10.00">../utils/logger.h</text>
</a>
</g>
</g>
<!-- Node5&#45;&gt;Node6 -->
<g id="edge5" class="edge"><title>Node5&#45;&gt;Node6</title>
<path fill="none" stroke="midnightblue" d="M365.353,-112.324C377.716,-103.979 396.63,-91.2122 411.237,-81.3524"/>
<polygon fill="midnightblue" stroke="midnightblue" points="413.348,-84.1503 419.679,-75.6545 409.432,-78.3483 413.348,-84.1503"/>
</g>
<!-- Node8 -->
<g id="node8" class="node"><title>Node8</title>
<g id="a_node8"><a xlink:href="tags_8h.html" target="_top" xlink:title="File with declaration of some tool and color tags. Used as color and tool mode flag in model (M from ...">
<polygon fill="none" stroke="black" points="293.5,-56.5 293.5,-75.5 371.5,-75.5 371.5,-56.5 293.5,-56.5"/>
<text text-anchor="middle" x="332.5" y="-63.5" font-family="Helvetica,sans-Serif" font-size="10.00">../utils/tags.h</text>
</a>
</g>
</g>
<!-- Node5&#45;&gt;Node8 -->
<g id="edge7" class="edge"><title>Node5&#45;&gt;Node8</title>
<path fill="none" stroke="midnightblue" d="M349.197,-112.083C346.518,-104.849 342.651,-94.4087 339.314,-85.3968"/>
<polygon fill="midnightblue" stroke="midnightblue" points="342.496,-83.9129 335.741,-75.7511 335.932,-86.3442 342.496,-83.9129"/>
</g>
<!-- Node7 -->
<g id="node7" class="node"><title>Node7</title>
<polygon fill="none" stroke="#bfbfbf" points="224.5,-0.5 224.5,-19.5 268.5,-19.5 268.5,-0.5 224.5,-0.5"/>
<text text-anchor="middle" x="246.5" y="-7.5" font-family="Helvetica,sans-Serif" font-size="10.00">string</text>
</g>
<!-- Node6&#45;&gt;Node7 -->
<g id="edge6" class="edge"><title>Node6&#45;&gt;Node7</title>
<path fill="none" stroke="midnightblue" d="M403.028,-56.4435C368.998,-46.5639 313.231,-30.3734 278.26,-20.2208"/>
<polygon fill="midnightblue" stroke="midnightblue" points="279.133,-16.8296 268.553,-17.4026 277.181,-23.552 279.133,-16.8296"/>
</g>
<!-- Node10 -->
<g id="node10" class="node"><title>Node10</title>
<polygon fill="none" stroke="#bfbfbf" points="105.5,-0.5 105.5,-19.5 135.5,-19.5 135.5,-0.5 105.5,-0.5"/>
<text text-anchor="middle" x="120.5" y="-7.5" font-family="Helvetica,sans-Serif" font-size="10.00">list</text>
</g>
<!-- Node9&#45;&gt;Node10 -->
<g id="edge9" class="edge"><title>Node9&#45;&gt;Node10</title>
<path fill="none" stroke="midnightblue" d="M99.0767,-112.303C103.527,-103.43 110.098,-89.1352 113.5,-76 117.461,-60.7033 119.184,-42.8207 119.932,-29.6886"/>
<polygon fill="midnightblue" stroke="midnightblue" points="123.435,-29.6973 120.37,-19.5556 116.441,-29.3952 123.435,-29.6973"/>
</g>
<!-- Node11 -->
<g id="node11" class="node"><title>Node11</title>
<polygon fill="none" stroke="#bfbfbf" points="0,-0.5 0,-19.5 63,-19.5 63,-0.5 0,-0.5"/>
<text text-anchor="middle" x="31.5" y="-7.5" font-family="Helvetica,sans-Serif" font-size="10.00">functional</text>
</g>
<!-- Node9&#45;&gt;Node11 -->
<g id="edge10" class="edge"><title>Node9&#45;&gt;Node11</title>
<path fill="none" stroke="midnightblue" d="M77.3781,-112.487C64.0616,-104.878 46.4014,-92.3999 37.5,-76 29.8132,-61.8379 28.8143,-43.3557 29.4454,-29.7212"/>
<polygon fill="midnightblue" stroke="midnightblue" points="32.9456,-29.8553 30.2478,-19.6097 25.9676,-29.3014 32.9456,-29.8553"/>
</g>
<!-- Node12 -->
<g id="node12" class="node"><title>Node12</title>
<g id="a_node12"><a xlink:href="onclick_8h.html" target="_top" xlink:title="File with declaration of observer pattern classes. Two pairs of publishers and subscribers: OnClickLi...">
<polygon fill="none" stroke="black" points="46.5,-56.5 46.5,-75.5 104.5,-75.5 104.5,-56.5 46.5,-56.5"/>
<text text-anchor="middle" x="75.5" y="-63.5" font-family="Helvetica,sans-Serif" font-size="10.00">onclick.h</text>
</a>
</g>
</g>
<!-- Node9&#45;&gt;Node12 -->
<g id="edge11" class="edge"><title>Node9&#45;&gt;Node12</title>
<path fill="none" stroke="midnightblue" d="M91.3625,-112.083C88.8171,-104.849 85.1438,-94.4087 81.9729,-85.3968"/>
<polygon fill="midnightblue" stroke="midnightblue" points="85.1998,-84.0225 78.5791,-75.7511 78.5966,-86.3459 85.1998,-84.0225"/>
</g>
<!-- Node12&#45;&gt;Node10 -->
<g id="edge12" class="edge"><title>Node12&#45;&gt;Node10</title>
<path fill="none" stroke="midnightblue" d="M82.9308,-56.083C89.3527,-48.3768 98.8056,-37.0333 106.622,-27.6531"/>
<polygon fill="midnightblue" stroke="midnightblue" points="109.494,-29.674 113.207,-19.7511 104.117,-25.1927 109.494,-29.674"/>
</g>
<!-- Node12&#45;&gt;Node11 -->
<g id="edge13" class="edge"><title>Node12&#45;&gt;Node11</title>
<path fill="none" stroke="midnightblue" d="M68.2343,-56.083C61.9552,-48.3768 52.7124,-37.0333 45.0692,-27.6531"/>
<polygon fill="midnightblue" stroke="midnightblue" points="47.6606,-25.2926 38.6305,-19.7511 42.2339,-29.7143 47.6606,-25.2926"/>
</g>
<!-- Node14&#45;&gt;Node4 -->
<g id="edge22" class="edge"><title>Node14&#45;&gt;Node4</title>
<path fill="none" stroke="midnightblue" d="M193.934,-224.444C231.562,-214.814 292.619,-199.188 332.419,-189.002"/>
<polygon fill="midnightblue" stroke="midnightblue" points="333.48,-192.343 342.3,-186.473 331.744,-185.562 333.48,-192.343"/>
</g>
<!-- Node15 -->
<g id="node15" class="node"><title>Node15</title>
<g id="a_node15"><a xlink:href="iview_8h.html" target="_top" xlink:title="File with interface of abstract view (V from MVC). ">
<polygon fill="none" stroke="black" points="16,-168.5 16,-187.5 63,-187.5 63,-168.5 16,-168.5"/>
<text text-anchor="middle" x="39.5" y="-175.5" font-family="Helvetica,sans-Serif" font-size="10.00">iview.h</text>
</a>
</g>
</g>
<!-- Node14&#45;&gt;Node15 -->
<g id="edge16" class="edge"><title>Node14&#45;&gt;Node15</title>
<path fill="none" stroke="midnightblue" d="M141.327,-224.444C121.591,-215.636 90.6148,-201.812 68.0066,-191.722"/>
<polygon fill="midnightblue" stroke="midnightblue" points="69.1414,-188.396 58.5831,-187.516 66.2886,-194.788 69.1414,-188.396"/>
</g>
<!-- Node16 -->
<g id="node16" class="node"><title>Node16</title>
<g id="a_node16"><a xlink:href="view__elements_8h.html" target="_top" xlink:title="File with declaration of button and canvas classes. ">
<polygon fill="none" stroke="black" points="228.5,-168.5 228.5,-187.5 324.5,-187.5 324.5,-168.5 228.5,-168.5"/>
<text text-anchor="middle" x="276.5" y="-175.5" font-family="Helvetica,sans-Serif" font-size="10.00">view_elements.h</text>
</a>
</g>
</g>
<!-- Node14&#45;&gt;Node16 -->
<g id="edge18" class="edge"><title>Node14&#45;&gt;Node16</title>
<path fill="none" stroke="midnightblue" d="M178.881,-224.444C197.716,-215.675 227.231,-201.935 248.879,-191.858"/>
<polygon fill="midnightblue" stroke="midnightblue" points="250.617,-194.91 258.205,-187.516 247.662,-188.564 250.617,-194.91"/>
</g>
<!-- Node17 -->
<g id="node17" class="node"><title>Node17</title>
<g id="a_node17"><a xlink:href="icontroller_8h.html" target="_top" xlink:title="File with interface of abstract controller (from MVC). ">
<polygon fill="none" stroke="black" points="81,-168.5 81,-187.5 210,-187.5 210,-168.5 81,-168.5"/>
<text text-anchor="middle" x="145.5" y="-175.5" font-family="Helvetica,sans-Serif" font-size="10.00">../controller/icontroller.h</text>
</a>
</g>
</g>
<!-- Node14&#45;&gt;Node17 -->
<g id="edge23" class="edge"><title>Node14&#45;&gt;Node17</title>
<path fill="none" stroke="midnightblue" d="M158.023,-224.083C156.014,-216.849 153.114,-206.409 150.61,-197.397"/>
<polygon fill="midnightblue" stroke="midnightblue" points="153.98,-196.449 147.931,-187.751 147.235,-198.323 153.98,-196.449"/>
</g>
<!-- Node15&#45;&gt;Node9 -->
<g id="edge17" class="edge"><title>Node15&#45;&gt;Node9</title>
<path fill="none" stroke="midnightblue" d="M48.5821,-168.083C56.6713,-160.141 68.6954,-148.335 78.4102,-138.797"/>
<polygon fill="midnightblue" stroke="midnightblue" points="80.9033,-141.254 85.5869,-131.751 75.9991,-136.26 80.9033,-141.254"/>
</g>
<!-- Node16&#45;&gt;Node5 -->
<g id="edge20" class="edge"><title>Node16&#45;&gt;Node5</title>
<path fill="none" stroke="midnightblue" d="M288.711,-168.324C300.276,-160.107 317.875,-147.602 331.661,-137.807"/>
<polygon fill="midnightblue" stroke="midnightblue" points="333.943,-140.479 340.067,-131.834 329.888,-134.773 333.943,-140.479"/>
</g>
<!-- Node16&#45;&gt;Node7 -->
<g id="edge21" class="edge"><title>Node16&#45;&gt;Node7</title>
<path fill="none" stroke="midnightblue" d="M274.442,-168.402C272.314,-159.368 268.964,-144.729 266.5,-132 259.509,-95.8919 252.847,-53.4225 249.252,-29.6155"/>
<polygon fill="midnightblue" stroke="midnightblue" points="252.686,-28.9101 247.746,-19.5373 245.763,-29.9448 252.686,-28.9101"/>
</g>
<!-- Node16&#45;&gt;Node12 -->
<g id="edge19" class="edge"><title>Node16&#45;&gt;Node12</title>
<path fill="none" stroke="midnightblue" d="M260.728,-168.368C225.869,-149.292 142.053,-103.422 100.178,-80.5054"/>
<polygon fill="midnightblue" stroke="midnightblue" points="101.651,-77.3219 91.1989,-75.5914 98.2909,-83.4625 101.651,-77.3219"/>
</g>
<!-- Node17&#45;&gt;Node5 -->
<g id="edge24" class="edge"><title>Node17&#45;&gt;Node5</title>
<path fill="none" stroke="midnightblue" d="M178.3,-168.444C213.88,-159.162 270.814,-144.309 309.847,-134.127"/>
<polygon fill="midnightblue" stroke="midnightblue" points="311.061,-137.427 319.854,-131.516 309.294,-130.654 311.061,-137.427"/>
</g>
<!-- Node17&#45;&gt;Node7 -->
<g id="edge26" class="edge"><title>Node17&#45;&gt;Node7</title>
<path fill="none" stroke="midnightblue" d="M150.93,-168.075C167.035,-141.606 214.734,-63.2089 236.029,-28.2097"/>
<polygon fill="midnightblue" stroke="midnightblue" points="239.079,-29.9304 241.287,-19.5681 233.099,-26.2918 239.079,-29.9304"/>
</g>
<!-- Node17&#45;&gt;Node12 -->
<g id="edge25" class="edge"><title>Node17&#45;&gt;Node12</title>
<path fill="none" stroke="midnightblue" d="M93.9695,-168.44C72.7668,-162.104 50.2321,-151.098 37.5,-132 26.4878,-115.482 41.9163,-95.6853 56.2888,-82.3142"/>
<polygon fill="midnightblue" stroke="midnightblue" points="58.7468,-84.8149 63.9903,-75.6085 54.1501,-79.5356 58.7468,-84.8149"/>
</g>
<!-- Node18&#45;&gt;Node3 -->
<g id="edge29" class="edge"><title>Node18&#45;&gt;Node3</title>
<path fill="none" stroke="midnightblue" d="M278.334,-280.324C296.216,-271.625 323.975,-258.12 344.546,-248.113"/>
<polygon fill="midnightblue" stroke="midnightblue" points="346.249,-251.177 353.71,-243.655 343.187,-244.882 346.249,-251.177"/>
</g>
<!-- Node18&#45;&gt;Node15 -->
<g id="edge31" class="edge"><title>Node18&#45;&gt;Node15</title>
<path fill="none" stroke="midnightblue" d="M219.039,-280.487C189.533,-273.368 149.594,-261.525 117.5,-244 93.4812,-230.885 69.9081,-209.771 55.0736,-195.184"/>
<polygon fill="midnightblue" stroke="midnightblue" points="57.3139,-192.473 47.7839,-187.844 52.3471,-197.406 57.3139,-192.473"/>
</g>
<!-- Node18&#45;&gt;Node16 -->
<g id="edge30" class="edge"><title>Node18&#45;&gt;Node16</title>
<path fill="none" stroke="midnightblue" d="M261.755,-280.368C264.338,-262.617 270.294,-221.666 273.795,-197.597"/>
<polygon fill="midnightblue" stroke="midnightblue" points="277.274,-197.991 275.25,-187.591 270.347,-196.983 277.274,-197.991"/>
</g>
<!-- Node18&#45;&gt;Node17 -->
<g id="edge28" class="edge"><title>Node18&#45;&gt;Node17</title>
<path fill="none" stroke="midnightblue" d="M253.612,-280.112C243.358,-267.132 223.169,-242.521 203.5,-224 191.818,-212.999 177.597,-201.934 166.161,-193.529"/>
<polygon fill="midnightblue" stroke="midnightblue" points="168.202,-190.686 158.046,-187.666 164.102,-196.36 168.202,-190.686"/>
</g>
<!-- Node19 -->
<g id="node19" class="node"><title>Node19</title>
<g id="a_node19"><a xlink:href="geomfactory_8h.html" target="_top" xlink:title="File with interface of abstract geometry factory and declaration of standard geometry factory...">
<polygon fill="none" stroke="black" points="418.5,-168.5 418.5,-187.5 534.5,-187.5 534.5,-168.5 418.5,-168.5"/>
<text text-anchor="middle" x="476.5" y="-175.5" font-family="Helvetica,sans-Serif" font-size="10.00">../utils/geomfactory.h</text>
</a>
</g>
</g>
<!-- Node18&#45;&gt;Node19 -->
<g id="edge32" class="edge"><title>Node18&#45;&gt;Node19</title>
<path fill="none" stroke="midnightblue" d="M265.792,-280.429C274.847,-266.483 294.664,-238.939 318.5,-224 345.523,-207.064 379.083,-196.337 408.313,-189.627"/>
<polygon fill="midnightblue" stroke="midnightblue" points="409.429,-192.966 418.454,-187.417 407.938,-186.127 409.429,-192.966"/>
</g>
<!-- Node19&#45;&gt;Node5 -->
<g id="edge33" class="edge"><title>Node19&#45;&gt;Node5</title>
<path fill="none" stroke="midnightblue" d="M456.852,-168.444C436.535,-159.596 404.597,-145.687 381.402,-135.586"/>
<polygon fill="midnightblue" stroke="midnightblue" points="382.622,-132.3 372.056,-131.516 379.827,-138.718 382.622,-132.3"/>
</g>
<!-- Node19&#45;&gt;Node6 -->
<g id="edge34" class="edge"><title>Node19&#45;&gt;Node6</title>
<path fill="none" stroke="midnightblue" d="M487.98,-168.361C503.091,-155.892 526.418,-132.135 514.5,-112 505.527,-96.8399 489.433,-86.4475 473.865,-79.5044"/>
<polygon fill="midnightblue" stroke="midnightblue" points="474.89,-76.1428 464.309,-75.6153 472.252,-82.6265 474.89,-76.1428"/>
</g>
<!-- Node19&#45;&gt;Node13 -->
<g id="edge35" class="edge"><title>Node19&#45;&gt;Node13</title>
<path fill="none" stroke="midnightblue" d="M476.5,-168.083C476.5,-161.006 476.5,-150.861 476.5,-141.986"/>
<polygon fill="midnightblue" stroke="midnightblue" points="480,-141.751 476.5,-131.751 473,-141.751 480,-141.751"/>
</g>
</g>
</svg>
