<?xml version="1.0" encoding="UTF-8" standalone="no"?>
<!DOCTYPE svg PUBLIC "-//W3C//DTD SVG 1.1//EN"
 "http://www.w3.org/Graphics/SVG/1.1/DTD/svg11.dtd">
<!-- Generated by graphviz version 2.36.0 (20140111.2315)
 -->
<!-- Title: src/tester.h Pages: 1 -->
<svg width="175pt" height="84pt"
 viewBox="0.00 0.00 175.00 84.00" xmlns="http://www.w3.org/2000/svg" xmlns:xlink="http://www.w3.org/1999/xlink">
<g id="graph0" class="graph" transform="scale(1 1) rotate(0) translate(4 80)">
<title>src/tester.h</title>
<!-- Node1 -->
<g id="node1" class="node"><title>Node1</title>
<polygon fill="#bfbfbf" stroke="black" points="49,-56.5 49,-75.5 115,-75.5 115,-56.5 49,-56.5"/>
<text text-anchor="middle" x="82" y="-63.5" font-family="Helvetica,sans-Serif" font-size="10.00">src/tester.h</text>
</g>
<!-- Node2 -->
<g id="node2" class="node"><title>Node2</title>
<g id="a_node2"><a xlink:href="main_8cpp.html" target="_top" xlink:title="Main file with some smoke tests. ">
<polygon fill="none" stroke="black" points="-0.5,-0.5 -0.5,-19.5 72.5,-19.5 72.5,-0.5 -0.5,-0.5"/>
<text text-anchor="middle" x="36" y="-7.5" font-family="Helvetica,sans-Serif" font-size="10.00">src/main.cpp</text>
</a>
</g>
</g>
<!-- Node1&#45;&gt;Node2 -->
<g id="edge1" class="edge"><title>Node1&#45;&gt;Node2</title>
<path fill="none" stroke="midnightblue" d="M67.886,-48.4314C59.824,-38.9673 50.0408,-27.4827 43.4546,-19.7511"/>
<polygon fill="midnightblue" stroke="midnightblue" points="65.255,-50.7402 74.404,-56.083 70.5837,-46.2009 65.255,-50.7402"/>
</g>
<!-- Node3 -->
<g id="node3" class="node"><title>Node3</title>
<g id="a_node3"><a xlink:href="tester_8cpp.html" target="_top" xlink:title="File with tester class for the whole programm. ">
<polygon fill="none" stroke="black" points="90.5,-0.5 90.5,-19.5 167.5,-19.5 167.5,-0.5 90.5,-0.5"/>
<text text-anchor="middle" x="129" y="-7.5" font-family="Helvetica,sans-Serif" font-size="10.00">src/tester.cpp</text>
</a>
</g>
</g>
<!-- Node1&#45;&gt;Node3 -->
<g id="edge2" class="edge"><title>Node1&#45;&gt;Node3</title>
<path fill="none" stroke="midnightblue" d="M96.4208,-48.4314C104.658,-38.9673 114.654,-27.4827 121.383,-19.7511"/>
<polygon fill="midnightblue" stroke="midnightblue" points="93.6863,-46.2421 89.7611,-56.083 98.9664,-50.8378 93.6863,-46.2421"/>
</g>
</g>
</svg>
