<?xml version="1.0" encoding="UTF-8" standalone="no"?>
<!DOCTYPE svg PUBLIC "-//W3C//DTD SVG 1.1//EN"
 "http://www.w3.org/Graphics/SVG/1.1/DTD/svg11.dtd">
<!-- Generated by graphviz version 2.36.0 (20140111.2315)
 -->
<!-- Title: src/tester.cpp Pages: 1 -->
<svg width="523pt" height="308pt"
 viewBox="0.00 0.00 523.00 308.00" xmlns="http://www.w3.org/2000/svg" xmlns:xlink="http://www.w3.org/1999/xlink">
<g id="graph0" class="graph" transform="scale(1 1) rotate(0) translate(4 304)">
<title>src/tester.cpp</title>
<!-- Node1 -->
<g id="node1" class="node"><title>Node1</title>
<polygon fill="#bfbfbf" stroke="black" points="276.5,-280.5 276.5,-299.5 353.5,-299.5 353.5,-280.5 276.5,-280.5"/>
<text text-anchor="middle" x="315" y="-287.5" font-family="Helvetica,sans-Serif" font-size="10.00">src/tester.cpp</text>
</g>
<!-- Node2 -->
<g id="node2" class="node"><title>Node2</title>
<g id="a_node2"><a xlink:href="tester_8h.html" target="_top" xlink:title="File with tester class for the whole programm. ">
<polygon fill="none" stroke="black" points="114,-224.5 114,-243.5 164,-243.5 164,-224.5 114,-224.5"/>
<text text-anchor="middle" x="139" y="-231.5" font-family="Helvetica,sans-Serif" font-size="10.00">tester.h</text>
</a>
</g>
</g>
<!-- Node1&#45;&gt;Node2 -->
<g id="edge1" class="edge"><title>Node1&#45;&gt;Node2</title>
<path fill="none" stroke="midnightblue" d="M287.112,-280.444C256.456,-271.038 207.155,-255.911 173.943,-245.721"/>
<polygon fill="midnightblue" stroke="midnightblue" points="174.778,-242.316 164.191,-242.729 172.724,-249.008 174.778,-242.316"/>
</g>
<!-- Node3 -->
<g id="node3" class="node"><title>Node3</title>
<g id="a_node3"><a xlink:href="model_8h.html" target="_top" xlink:title="File with declaration of model (from MVC). ">
<polygon fill="none" stroke="black" points="302,-168.5 302,-187.5 382,-187.5 382,-168.5 302,-168.5"/>
<text text-anchor="middle" x="342" y="-175.5" font-family="Helvetica,sans-Serif" font-size="10.00">model/model.h</text>
</a>
</g>
</g>
<!-- Node1&#45;&gt;Node3 -->
<g id="edge2" class="edge"><title>Node1&#45;&gt;Node3</title>
<path fill="none" stroke="midnightblue" d="M320.124,-280.379C325.094,-271.564 332.396,-257.315 336,-244 340.122,-228.771 341.535,-210.882 341.967,-197.731"/>
<polygon fill="midnightblue" stroke="midnightblue" points="345.469,-197.636 342.137,-187.579 338.47,-197.519 345.469,-197.636"/>
</g>
<!-- Node11 -->
<g id="node11" class="node"><title>Node11</title>
<g id="a_node11"><a xlink:href="view_8h.html" target="_top" xlink:title="File with declaration of view (V from MVC). ">
<polygon fill="none" stroke="black" points="178,-168.5 178,-187.5 246,-187.5 246,-168.5 178,-168.5"/>
<text text-anchor="middle" x="212" y="-175.5" font-family="Helvetica,sans-Serif" font-size="10.00">view/view.h</text>
</a>
</g>
</g>
<!-- Node1&#45;&gt;Node11 -->
<g id="edge10" class="edge"><title>Node1&#45;&gt;Node11</title>
<path fill="none" stroke="midnightblue" d="M276.358,-282.858C253.457,-277.015 226.211,-265.717 212,-244 203.126,-230.439 204.208,-211.638 206.869,-197.743"/>
<polygon fill="midnightblue" stroke="midnightblue" points="210.314,-198.38 209.181,-187.846 203.498,-196.787 210.314,-198.38"/>
</g>
<!-- Node17 -->
<g id="node17" class="node"><title>Node17</title>
<g id="a_node17"><a xlink:href="controller_8h.html" target="_top" xlink:title="File with controller (from MVC) declaration. ">
<polygon fill="none" stroke="black" points="220.5,-224.5 220.5,-243.5 327.5,-243.5 327.5,-224.5 220.5,-224.5"/>
<text text-anchor="middle" x="274" y="-231.5" font-family="Helvetica,sans-Serif" font-size="10.00">controller/controller.h</text>
</a>
</g>
</g>
<!-- Node1&#45;&gt;Node17 -->
<g id="edge23" class="edge"><title>Node1&#45;&gt;Node17</title>
<path fill="none" stroke="midnightblue" d="M308.23,-280.083C302.438,-272.455 293.942,-261.264 286.862,-251.941"/>
<polygon fill="midnightblue" stroke="midnightblue" points="289.479,-249.599 280.644,-243.751 283.904,-253.832 289.479,-249.599"/>
</g>
<!-- Node19 -->
<g id="node19" class="node"><title>Node19</title>
<polygon fill="none" stroke="#bfbfbf" points="384,-224.5 384,-243.5 438,-243.5 438,-224.5 384,-224.5"/>
<text text-anchor="middle" x="411" y="-231.5" font-family="Helvetica,sans-Serif" font-size="10.00">iostream</text>
</g>
<!-- Node1&#45;&gt;Node19 -->
<g id="edge32" class="edge"><title>Node1&#45;&gt;Node19</title>
<path fill="none" stroke="midnightblue" d="M330.424,-280.324C345.54,-271.822 368.815,-258.729 386.471,-248.797"/>
<polygon fill="midnightblue" stroke="midnightblue" points="388.614,-251.608 395.614,-243.655 385.183,-245.507 388.614,-251.608"/>
</g>
<!-- Node20 -->
<g id="node20" class="node"><title>Node20</title>
<polygon fill="none" stroke="#bfbfbf" points="456.5,-224.5 456.5,-243.5 505.5,-243.5 505.5,-224.5 456.5,-224.5"/>
<text text-anchor="middle" x="481" y="-231.5" font-family="Helvetica,sans-Serif" font-size="10.00">cassert</text>
</g>
<!-- Node1&#45;&gt;Node20 -->
<g id="edge33" class="edge"><title>Node1&#45;&gt;Node20</title>
<path fill="none" stroke="midnightblue" d="M341.303,-280.444C369.846,-271.159 415.523,-256.3 446.825,-246.117"/>
<polygon fill="midnightblue" stroke="midnightblue" points="448.017,-249.41 456.443,-242.988 445.851,-242.754 448.017,-249.41"/>
</g>
<!-- Node4 -->
<g id="node4" class="node"><title>Node4</title>
<g id="a_node4"><a xlink:href="imodel_8h.html" target="_top" xlink:title="File with interface of abstract model (from MVC). ">
<polygon fill="none" stroke="black" points="315.5,-112.5 315.5,-131.5 368.5,-131.5 368.5,-112.5 315.5,-112.5"/>
<text text-anchor="middle" x="342" y="-119.5" font-family="Helvetica,sans-Serif" font-size="10.00">imodel.h</text>
</a>
</g>
</g>
<!-- Node3&#45;&gt;Node4 -->
<g id="edge3" class="edge"><title>Node3&#45;&gt;Node4</title>
<path fill="none" stroke="midnightblue" d="M342,-168.083C342,-161.006 342,-150.861 342,-141.986"/>
<polygon fill="midnightblue" stroke="midnightblue" points="345.5,-141.751 342,-131.751 338.5,-141.751 345.5,-141.751"/>
</g>
<!-- Node5 -->
<g id="node5" class="node"><title>Node5</title>
<g id="a_node5"><a xlink:href="geometry__elements_8h.html" target="_top" xlink:title="File with declaration of geometry element classes. ">
<polygon fill="none" stroke="black" points="270.5,-56.5 270.5,-75.5 413.5,-75.5 413.5,-56.5 270.5,-56.5"/>
<text text-anchor="middle" x="342" y="-63.5" font-family="Helvetica,sans-Serif" font-size="10.00">../view/geometry_elements.h</text>
</a>
</g>
</g>
<!-- Node4&#45;&gt;Node5 -->
<g id="edge4" class="edge"><title>Node4&#45;&gt;Node5</title>
<path fill="none" stroke="midnightblue" d="M342,-112.083C342,-105.006 342,-94.8611 342,-85.9865"/>
<polygon fill="midnightblue" stroke="midnightblue" points="345.5,-85.751 342,-75.7511 338.5,-85.7511 345.5,-85.751"/>
</g>
<!-- Node8 -->
<g id="node8" class="node"><title>Node8</title>
<g id="a_node8"><a xlink:href="observe_8h.html" target="_top" xlink:title="File with declaration of observer pattern &#45; Observer and Observable. ">
<polygon fill="none" stroke="black" points="163.5,-56.5 163.5,-75.5 252.5,-75.5 252.5,-56.5 163.5,-56.5"/>
<text text-anchor="middle" x="208" y="-63.5" font-family="Helvetica,sans-Serif" font-size="10.00">../utils/observe.h</text>
</a>
</g>
</g>
<!-- Node4&#45;&gt;Node8 -->
<g id="edge7" class="edge"><title>Node4&#45;&gt;Node8</title>
<path fill="none" stroke="midnightblue" d="M320.767,-112.444C298.616,-103.517 263.681,-89.4387 238.564,-79.3168"/>
<polygon fill="midnightblue" stroke="midnightblue" points="239.717,-76.0079 229.133,-75.5164 237.1,-82.5006 239.717,-76.0079"/>
</g>
<!-- Node10 -->
<g id="node10" class="node"><title>Node10</title>
<polygon fill="none" stroke="#bfbfbf" points="432,-56.5 432,-75.5 484,-75.5 484,-56.5 432,-56.5"/>
<text text-anchor="middle" x="458" y="-63.5" font-family="Helvetica,sans-Serif" font-size="10.00">memory</text>
</g>
<!-- Node4&#45;&gt;Node10 -->
<g id="edge9" class="edge"><title>Node4&#45;&gt;Node10</title>
<path fill="none" stroke="midnightblue" d="M360.381,-112.444C379.216,-103.675 408.731,-89.9355 430.379,-79.8579"/>
<polygon fill="midnightblue" stroke="midnightblue" points="432.117,-82.9098 439.705,-75.5164 429.162,-76.5637 432.117,-82.9098"/>
</g>
<!-- Node6 -->
<g id="node6" class="node"><title>Node6</title>
<g id="a_node6"><a xlink:href="logger_8h.html" target="_top" xlink:title="File with simple logger class declaration. ">
<polygon fill="none" stroke="black" points="434.5,-0.5 434.5,-19.5 515.5,-19.5 515.5,-0.5 434.5,-0.5"/>
<text text-anchor="middle" x="475" y="-7.5" font-family="Helvetica,sans-Serif" font-size="10.00">../utils/logger.h</text>
</a>
</g>
</g>
<!-- Node5&#45;&gt;Node6 -->
<g id="edge5" class="edge"><title>Node5&#45;&gt;Node6</title>
<path fill="none" stroke="midnightblue" d="M363.074,-56.4435C385.06,-47.5171 419.734,-33.4387 444.664,-23.3168"/>
<polygon fill="midnightblue" stroke="midnightblue" points="446.076,-26.5213 454.024,-19.5164 443.442,-20.0355 446.076,-26.5213"/>
</g>
<!-- Node7 -->
<g id="node7" class="node"><title>Node7</title>
<g id="a_node7"><a xlink:href="tags_8h.html" target="_top" xlink:title="File with declaration of some tool and color tags. Used as color and tool mode flag in model (M from ...">
<polygon fill="none" stroke="black" points="305,-0.5 305,-19.5 379,-19.5 379,-0.5 305,-0.5"/>
<text text-anchor="middle" x="342" y="-7.5" font-family="Helvetica,sans-Serif" font-size="10.00">../utils/tags.h</text>
</a>
</g>
</g>
<!-- Node5&#45;&gt;Node7 -->
<g id="edge6" class="edge"><title>Node5&#45;&gt;Node7</title>
<path fill="none" stroke="midnightblue" d="M342,-56.083C342,-49.0059 342,-38.8611 342,-29.9865"/>
<polygon fill="midnightblue" stroke="midnightblue" points="345.5,-29.751 342,-19.7511 338.5,-29.7511 345.5,-29.751"/>
</g>
<!-- Node9 -->
<g id="node9" class="node"><title>Node9</title>
<polygon fill="none" stroke="#bfbfbf" points="111.5,-0.5 111.5,-19.5 140.5,-19.5 140.5,-0.5 111.5,-0.5"/>
<text text-anchor="middle" x="126" y="-7.5" font-family="Helvetica,sans-Serif" font-size="10.00">list</text>
</g>
<!-- Node8&#45;&gt;Node9 -->
<g id="edge8" class="edge"><title>Node8&#45;&gt;Node9</title>
<path fill="none" stroke="midnightblue" d="M194.825,-56.324C182.153,-47.979 162.767,-35.2122 147.794,-25.3524"/>
<polygon fill="midnightblue" stroke="midnightblue" points="149.419,-22.2313 139.142,-19.6545 145.569,-28.0776 149.419,-22.2313"/>
</g>
<!-- Node11&#45;&gt;Node4 -->
<g id="edge18" class="edge"><title>Node11&#45;&gt;Node4</title>
<path fill="none" stroke="midnightblue" d="M232.599,-168.444C253.993,-159.557 287.681,-145.563 312.024,-135.451"/>
<polygon fill="midnightblue" stroke="midnightblue" points="313.605,-138.585 321.497,-131.516 310.92,-132.12 313.605,-138.585"/>
</g>
<!-- Node12 -->
<g id="node12" class="node"><title>Node12</title>
<g id="a_node12"><a xlink:href="iview_8h.html" target="_top" xlink:title="File with interface of abstract view (V from MVC). ">
<polygon fill="none" stroke="black" points="250.5,-112.5 250.5,-131.5 297.5,-131.5 297.5,-112.5 250.5,-112.5"/>
<text text-anchor="middle" x="274" y="-119.5" font-family="Helvetica,sans-Serif" font-size="10.00">iview.h</text>
</a>
</g>
</g>
<!-- Node11&#45;&gt;Node12 -->
<g id="edge11" class="edge"><title>Node11&#45;&gt;Node12</title>
<path fill="none" stroke="midnightblue" d="M221.961,-168.324C231.127,-160.341 244.937,-148.313 256.028,-138.653"/>
<polygon fill="midnightblue" stroke="midnightblue" points="258.615,-141.041 263.857,-131.834 254.018,-135.762 258.615,-141.041"/>
</g>
<!-- Node13 -->
<g id="node13" class="node"><title>Node13</title>
<g id="a_node13"><a xlink:href="view__elements_8h.html" target="_top" xlink:title="File with declaration of button and canvas classes. ">
<polygon fill="none" stroke="black" points="142,-112.5 142,-131.5 232,-131.5 232,-112.5 142,-112.5"/>
<text text-anchor="middle" x="187" y="-119.5" font-family="Helvetica,sans-Serif" font-size="10.00">view_elements.h</text>
</a>
</g>
</g>
<!-- Node11&#45;&gt;Node13 -->
<g id="edge13" class="edge"><title>Node11&#45;&gt;Node13</title>
<path fill="none" stroke="midnightblue" d="M207.872,-168.083C204.486,-160.77 199.584,-150.181 195.381,-141.103"/>
<polygon fill="midnightblue" stroke="midnightblue" points="198.429,-139.355 191.051,-131.751 192.077,-142.296 198.429,-139.355"/>
</g>
<!-- Node16 -->
<g id="node16" class="node"><title>Node16</title>
<g id="a_node16"><a xlink:href="icontroller_8h.html" target="_top" xlink:title="File with interface of abstract controller (from MVC). ">
<polygon fill="none" stroke="black" points="4.5,-112.5 4.5,-131.5 123.5,-131.5 123.5,-112.5 4.5,-112.5"/>
<text text-anchor="middle" x="64" y="-119.5" font-family="Helvetica,sans-Serif" font-size="10.00">../controller/icontroller.h</text>
</a>
</g>
</g>
<!-- Node11&#45;&gt;Node16 -->
<g id="edge19" class="edge"><title>Node11&#45;&gt;Node16</title>
<path fill="none" stroke="midnightblue" d="M188.549,-168.444C163.867,-159.438 124.815,-145.189 97.0233,-135.049"/>
<polygon fill="midnightblue" stroke="midnightblue" points="97.9352,-131.656 87.3413,-131.516 95.5359,-138.232 97.9352,-131.656"/>
</g>
<!-- Node12&#45;&gt;Node8 -->
<g id="edge12" class="edge"><title>Node12&#45;&gt;Node8</title>
<path fill="none" stroke="midnightblue" d="M263.396,-112.324C253.544,-104.263 238.649,-92.0765 226.785,-82.3695"/>
<polygon fill="midnightblue" stroke="midnightblue" points="228.753,-79.4575 218.797,-75.8339 224.32,-84.8752 228.753,-79.4575"/>
</g>
<!-- Node13&#45;&gt;Node5 -->
<g id="edge16" class="edge"><title>Node13&#45;&gt;Node5</title>
<path fill="none" stroke="midnightblue" d="M211.56,-112.444C237.523,-103.399 278.668,-89.064 307.797,-78.9158"/>
<polygon fill="midnightblue" stroke="midnightblue" points="309.263,-82.1116 317.555,-75.5164 306.96,-75.5013 309.263,-82.1116"/>
</g>
<!-- Node14 -->
<g id="node14" class="node"><title>Node14</title>
<g id="a_node14"><a xlink:href="onclick_8h.html" target="_top" xlink:title="File with declaration of observer pattern classes. Two pairs of publishers and subscribers: OnClickLi...">
<polygon fill="none" stroke="black" points="0,-56.5 0,-75.5 86,-75.5 86,-56.5 0,-56.5"/>
<text text-anchor="middle" x="43" y="-63.5" font-family="Helvetica,sans-Serif" font-size="10.00">../utils/onclick.h</text>
</a>
</g>
</g>
<!-- Node13&#45;&gt;Node14 -->
<g id="edge14" class="edge"><title>Node13&#45;&gt;Node14</title>
<path fill="none" stroke="midnightblue" d="M164.183,-112.444C140.168,-103.438 102.171,-89.1891 75.1308,-79.049"/>
<polygon fill="midnightblue" stroke="midnightblue" points="76.3027,-75.7506 65.7105,-75.5164 73.8448,-82.3049 76.3027,-75.7506"/>
</g>
<!-- Node15 -->
<g id="node15" class="node"><title>Node15</title>
<polygon fill="none" stroke="#bfbfbf" points="104.5,-56.5 104.5,-75.5 145.5,-75.5 145.5,-56.5 104.5,-56.5"/>
<text text-anchor="middle" x="125" y="-63.5" font-family="Helvetica,sans-Serif" font-size="10.00">string</text>
</g>
<!-- Node13&#45;&gt;Node15 -->
<g id="edge17" class="edge"><title>Node13&#45;&gt;Node15</title>
<path fill="none" stroke="midnightblue" d="M177.039,-112.324C167.873,-104.341 154.063,-92.3128 142.972,-82.6529"/>
<polygon fill="midnightblue" stroke="midnightblue" points="144.982,-79.7624 135.143,-75.8339 140.385,-85.041 144.982,-79.7624"/>
</g>
<!-- Node14&#45;&gt;Node9 -->
<g id="edge15" class="edge"><title>Node14&#45;&gt;Node9</title>
<path fill="none" stroke="midnightblue" d="M56.3354,-56.324C69.162,-47.979 88.785,-35.2122 103.94,-25.3524"/>
<polygon fill="midnightblue" stroke="midnightblue" points="106.224,-28.0417 112.698,-19.6545 102.407,-22.1742 106.224,-28.0417"/>
</g>
<!-- Node16&#45;&gt;Node5 -->
<g id="edge20" class="edge"><title>Node16&#45;&gt;Node5</title>
<path fill="none" stroke="midnightblue" d="M108.05,-112.444C156.851,-102.964 235.563,-87.6747 288.03,-77.4835"/>
<polygon fill="midnightblue" stroke="midnightblue" points="289.007,-80.8591 298.156,-75.5164 287.672,-73.9875 289.007,-80.8591"/>
</g>
<!-- Node16&#45;&gt;Node14 -->
<g id="edge21" class="edge"><title>Node16&#45;&gt;Node14</title>
<path fill="none" stroke="midnightblue" d="M60.5323,-112.083C57.6883,-104.77 53.5705,-94.1814 50.0402,-85.1034"/>
<polygon fill="midnightblue" stroke="midnightblue" points="53.2897,-83.8025 46.4032,-75.7511 46.7657,-86.3397 53.2897,-83.8025"/>
</g>
<!-- Node16&#45;&gt;Node15 -->
<g id="edge22" class="edge"><title>Node16&#45;&gt;Node15</title>
<path fill="none" stroke="midnightblue" d="M73.8007,-112.324C82.8181,-104.341 96.406,-92.3128 107.318,-82.6529"/>
<polygon fill="midnightblue" stroke="midnightblue" points="109.853,-85.083 115.021,-75.8339 105.213,-79.8416 109.853,-85.083"/>
</g>
<!-- Node17&#45;&gt;Node3 -->
<g id="edge25" class="edge"><title>Node17&#45;&gt;Node3</title>
<path fill="none" stroke="midnightblue" d="M284.925,-224.324C295.175,-216.185 310.721,-203.839 323.001,-194.087"/>
<polygon fill="midnightblue" stroke="midnightblue" points="325.221,-196.794 330.876,-187.834 320.868,-191.312 325.221,-196.794"/>
</g>
<!-- Node17&#45;&gt;Node12 -->
<g id="edge27" class="edge"><title>Node17&#45;&gt;Node12</title>
<path fill="none" stroke="midnightblue" d="M274,-224.368C274,-206.617 274,-165.666 274,-141.597"/>
<polygon fill="midnightblue" stroke="midnightblue" points="277.5,-141.591 274,-131.591 270.5,-141.591 277.5,-141.591"/>
</g>
<!-- Node17&#45;&gt;Node13 -->
<g id="edge26" class="edge"><title>Node17&#45;&gt;Node13</title>
<path fill="none" stroke="midnightblue" d="M225.229,-224.495C204.215,-218.151 181.61,-207.124 169,-188 159.468,-173.544 166.954,-154.101 174.978,-140.255"/>
<polygon fill="midnightblue" stroke="midnightblue" points="178.009,-142.012 180.417,-131.694 172.1,-138.258 178.009,-142.012"/>
</g>
<!-- Node17&#45;&gt;Node16 -->
<g id="edge24" class="edge"><title>Node17&#45;&gt;Node16</title>
<path fill="none" stroke="midnightblue" d="M248.182,-224.477C224.821,-216.358 189.774,-203.152 161,-188 132.663,-173.079 102.36,-151.82 83.3091,-137.728"/>
<polygon fill="midnightblue" stroke="midnightblue" points="85.2598,-134.816 75.1568,-131.626 81.065,-140.42 85.2598,-134.816"/>
</g>
<!-- Node18 -->
<g id="node18" class="node"><title>Node18</title>
<g id="a_node18"><a xlink:href="geomfactory_8h.html" target="_top" xlink:title="File with interface of abstract geometry factory and declaration of standard geometry factory...">
<polygon fill="none" stroke="black" points="394.5,-112.5 394.5,-131.5 503.5,-131.5 503.5,-112.5 394.5,-112.5"/>
<text text-anchor="middle" x="449" y="-119.5" font-family="Helvetica,sans-Serif" font-size="10.00">../utils/geomfactory.h</text>
</a>
</g>
</g>
<!-- Node17&#45;&gt;Node18 -->
<g id="edge28" class="edge"><title>Node17&#45;&gt;Node18</title>
<path fill="none" stroke="midnightblue" d="M308.336,-224.477C332.826,-217.325 365.756,-205.446 391,-188 409.78,-175.022 426.577,-154.752 437.201,-140.3"/>
<polygon fill="midnightblue" stroke="midnightblue" points="440.316,-141.959 443.25,-131.778 434.607,-137.907 440.316,-141.959"/>
</g>
<!-- Node18&#45;&gt;Node5 -->
<g id="edge29" class="edge"><title>Node18&#45;&gt;Node5</title>
<path fill="none" stroke="midnightblue" d="M431.809,-112.324C414.649,-103.664 388.054,-90.2424 368.253,-80.249"/>
<polygon fill="midnightblue" stroke="midnightblue" points="369.653,-77.0354 359.149,-75.6545 366.499,-83.2847 369.653,-77.0354"/>
</g>
<!-- Node18&#45;&gt;Node6 -->
<g id="edge30" class="edge"><title>Node18&#45;&gt;Node6</title>
<path fill="none" stroke="midnightblue" d="M461.781,-112.369C472.394,-104.36 486.731,-91.3795 493,-76 499.34,-60.4469 492.925,-41.9167 486.057,-28.6282"/>
<polygon fill="midnightblue" stroke="midnightblue" points="488.916,-26.5763 480.921,-19.6243 482.836,-30.0447 488.916,-26.5763"/>
</g>
<!-- Node18&#45;&gt;Node10 -->
<g id="edge31" class="edge"><title>Node18&#45;&gt;Node10</title>
<path fill="none" stroke="midnightblue" d="M450.486,-112.083C451.679,-104.927 453.394,-94.6353 454.885,-85.6911"/>
<polygon fill="midnightblue" stroke="midnightblue" points="458.35,-86.1904 456.541,-75.7511 451.445,-85.0396 458.35,-86.1904"/>
</g>
</g>
</svg>
