<?xml version="1.0" encoding="UTF-8" standalone="no"?>
<!DOCTYPE svg PUBLIC "-//W3C//DTD SVG 1.1//EN"
 "http://www.w3.org/Graphics/SVG/1.1/DTD/svg11.dtd">
<!-- Generated by graphviz version 2.36.0 (20140111.2315)
 -->
<!-- Title: src/tester.cpp Pages: 1 -->
<!--zoomable 364 -->
<svg id="main" version="1.1" xmlns="http://www.w3.org/2000/svg" xmlns:xlink="http://www.w3.org/1999/xlink" xml:space="preserve" onload="init(evt)">
<style type="text/css"><![CDATA[
.edge:hover path { stroke: red; }
.edge:hover polygon { stroke: red; fill: red; }
]]></style>
<script type="text/javascript"><![CDATA[
var edges = document.getElementsByTagName('g');
if (edges && edges.length) {
  for (var i=0;i<edges.length;i++) {
    if (edges[i].id.substr(0,4)=='edge') {
      edges[i].setAttribute('class','edge');
    }
  }
}
]]></script>
        <defs>
                <circle id="rim" cx="0" cy="0" r="7"/>
                <circle id="rim2" cx="0" cy="0" r="3.5"/>
                <g id="zoomPlus">
                        <use xlink:href="#rim" fill="#404040">
                                <set attributeName="fill" to="#808080" begin="zoomplus.mouseover" end="zoomplus.mouseout"/>
                        </use>
                        <path d="M-4,0h8M0,-4v8" fill="none" stroke="white" stroke-width="1.5" pointer-events="none"/>
                </g>
                <g id="zoomMin">
                        <use xlink:href="#rim" fill="#404040">
                                <set attributeName="fill" to="#808080" begin="zoomminus.mouseover" end="zoomminus.mouseout"/>
                        </use>
                        <path d="M-4,0h8" fill="none" stroke="white" stroke-width="1.5" pointer-events="none"/>
                </g>
                <g id="dirArrow">
                        <path fill="none" stroke="white" stroke-width="1.5" d="M0,-3.0v7 M-2.5,-0.5L0,-3.0L2.5,-0.5"/>
                </g>
               <g id="resetDef">
                       <use xlink:href="#rim2" fill="#404040">
                               <set attributeName="fill" to="#808080" begin="reset.mouseover" end="reset.mouseout"/>
                       </use>
               </g>
        </defs>

<script type="text/javascript">
var viewWidth = 520;
var viewHeight = 364;
var sectionId = 'dynsection-0';
</script>
<script xlink:href="svgpan.js"/>
<svg id="graph" class="graph">
<g id="viewport">
<title>src/tester.cpp</title>
<!-- Node1 -->
<g id="node1" class="node"><title>Node1</title>
<polygon fill="#bfbfbf" stroke="black" points="214.5,-336.5 214.5,-355.5 291.5,-355.5 291.5,-336.5 214.5,-336.5"/>
<text text-anchor="middle" x="253" y="-343.5" font-family="Helvetica,sans-Serif" font-size="10.00">src/tester.cpp</text>
</g>
<!-- Node2 -->
<g id="node2" class="node"><title>Node2</title>
<g id="a_node2"><a xlink:href="tester_8h.html" target="_top" xlink:title="File with tester class for the whole programm. ">
<polygon fill="none" stroke="black" points="93,-280.5 93,-299.5 143,-299.5 143,-280.5 93,-280.5"/>
<text text-anchor="middle" x="118" y="-287.5" font-family="Helvetica,sans-Serif" font-size="10.00">tester.h</text>
</a>
</g>
</g>
<!-- Node1&#45;&gt;Node2 -->
<g id="edge1" class="edge"><title>Node1&#45;&gt;Node2</title>
<path fill="none" stroke="midnightblue" d="M231.609,-336.444C209.293,-327.517 174.097,-313.439 148.792,-303.317"/>
<polygon fill="midnightblue" stroke="midnightblue" points="149.876,-299.981 139.291,-299.516 147.276,-306.48 149.876,-299.981"/>
</g>
<!-- Node3 -->
<g id="node3" class="node"><title>Node3</title>
<g id="a_node3"><a xlink:href="model_8h.html" target="_top" xlink:title="File with declaration of model (from MVC). ">
<polygon fill="none" stroke="black" points="319,-224.5 319,-243.5 399,-243.5 399,-224.5 319,-224.5"/>
<text text-anchor="middle" x="359" y="-231.5" font-family="Helvetica,sans-Serif" font-size="10.00">model/model.h</text>
</a>
</g>
</g>
<!-- Node1&#45;&gt;Node3 -->
<g id="edge2" class="edge"><title>Node1&#45;&gt;Node3</title>
<path fill="none" stroke="midnightblue" d="M267.642,-336.431C280.959,-328.186 300.663,-314.814 315,-300 328.879,-285.659 341.278,-266.453 349.349,-252.642"/>
<polygon fill="midnightblue" stroke="midnightblue" points="352.538,-254.113 354.419,-243.686 346.447,-250.664 352.538,-254.113"/>
</g>
<!-- Node14 -->
<g id="node14" class="node"><title>Node14</title>
<g id="a_node14"><a xlink:href="view_8h.html" target="_top" xlink:title="File with declaration of view (V from MVC). ">
<polygon fill="none" stroke="black" points="119,-224.5 119,-243.5 187,-243.5 187,-224.5 119,-224.5"/>
<text text-anchor="middle" x="153" y="-231.5" font-family="Helvetica,sans-Serif" font-size="10.00">view/view.h</text>
</a>
</g>
</g>
<!-- Node1&#45;&gt;Node14 -->
<g id="edge15" class="edge"><title>Node1&#45;&gt;Node14</title>
<path fill="none" stroke="midnightblue" d="M237.864,-336.491C224.394,-328.382 204.75,-315.181 191,-300 178.273,-285.949 167.77,-266.957 161.056,-253.131"/>
<polygon fill="midnightblue" stroke="midnightblue" points="164.076,-251.326 156.686,-243.734 157.729,-254.277 164.076,-251.326"/>
</g>
<!-- Node18 -->
<g id="node18" class="node"><title>Node18</title>
<g id="a_node18"><a xlink:href="controller_8h.html" target="_top" xlink:title="File with controller (from MVC) declaration. ">
<polygon fill="none" stroke="black" points="199.5,-280.5 199.5,-299.5 306.5,-299.5 306.5,-280.5 199.5,-280.5"/>
<text text-anchor="middle" x="253" y="-287.5" font-family="Helvetica,sans-Serif" font-size="10.00">controller/controller.h</text>
</a>
</g>
</g>
<!-- Node1&#45;&gt;Node18 -->
<g id="edge27" class="edge"><title>Node1&#45;&gt;Node18</title>
<path fill="none" stroke="midnightblue" d="M253,-336.083C253,-329.006 253,-318.861 253,-309.986"/>
<polygon fill="midnightblue" stroke="midnightblue" points="256.5,-309.751 253,-299.751 249.5,-309.751 256.5,-309.751"/>
</g>
<!-- Node20 -->
<g id="node20" class="node"><title>Node20</title>
<polygon fill="none" stroke="#bfbfbf" points="363,-280.5 363,-299.5 417,-299.5 417,-280.5 363,-280.5"/>
<text text-anchor="middle" x="390" y="-287.5" font-family="Helvetica,sans-Serif" font-size="10.00">iostream</text>
</g>
<!-- Node1&#45;&gt;Node20 -->
<g id="edge36" class="edge"><title>Node1&#45;&gt;Node20</title>
<path fill="none" stroke="midnightblue" d="M274.708,-336.444C297.355,-327.517 333.072,-313.439 358.752,-303.317"/>
<polygon fill="midnightblue" stroke="midnightblue" points="360.374,-306.44 368.394,-299.516 357.807,-299.927 360.374,-306.44"/>
</g>
<!-- Node4 -->
<g id="node4" class="node"><title>Node4</title>
<g id="a_node4"><a xlink:href="imodel_8h.html" target="_top" xlink:title="File with interface of abstract model (from MVC). ">
<polygon fill="none" stroke="black" points="332.5,-168.5 332.5,-187.5 385.5,-187.5 385.5,-168.5 332.5,-168.5"/>
<text text-anchor="middle" x="359" y="-175.5" font-family="Helvetica,sans-Serif" font-size="10.00">imodel.h</text>
</a>
</g>
</g>
<!-- Node3&#45;&gt;Node4 -->
<g id="edge3" class="edge"><title>Node3&#45;&gt;Node4</title>
<path fill="none" stroke="midnightblue" d="M359,-224.083C359,-217.006 359,-206.861 359,-197.986"/>
<polygon fill="midnightblue" stroke="midnightblue" points="362.5,-197.751 359,-187.751 355.5,-197.751 362.5,-197.751"/>
</g>
<!-- Node5 -->
<g id="node5" class="node"><title>Node5</title>
<g id="a_node5"><a xlink:href="geometry__elements_8h.html" target="_top" xlink:title="File with declaration of geometry element classes. ">
<polygon fill="none" stroke="black" points="270.5,-112.5 270.5,-131.5 413.5,-131.5 413.5,-112.5 270.5,-112.5"/>
<text text-anchor="middle" x="342" y="-119.5" font-family="Helvetica,sans-Serif" font-size="10.00">../view/geometry_elements.h</text>
</a>
</g>
</g>
<!-- Node4&#45;&gt;Node5 -->
<g id="edge4" class="edge"><title>Node4&#45;&gt;Node5</title>
<path fill="none" stroke="midnightblue" d="M356.193,-168.083C353.915,-160.849 350.629,-150.409 347.792,-141.397"/>
<polygon fill="midnightblue" stroke="midnightblue" points="351.096,-140.239 344.755,-131.751 344.419,-142.341 351.096,-140.239"/>
</g>
<!-- Node9 -->
<g id="node9" class="node"><title>Node9</title>
<g id="a_node9"><a xlink:href="observe_8h.html" target="_top" xlink:title="File with declaration of observer pattern &#45; Observer and Observable. ">
<polygon fill="none" stroke="black" points="48.5,-112.5 48.5,-131.5 137.5,-131.5 137.5,-112.5 48.5,-112.5"/>
<text text-anchor="middle" x="93" y="-119.5" font-family="Helvetica,sans-Serif" font-size="10.00">../utils/observe.h</text>
</a>
</g>
</g>
<!-- Node4&#45;&gt;Node9 -->
<g id="edge8" class="edge"><title>Node4&#45;&gt;Node9</title>
<path fill="none" stroke="midnightblue" d="M332.3,-170.162C329.171,-169.409 326.018,-168.672 323,-168 263.245,-154.694 194.281,-141.485 147.574,-132.854"/>
<polygon fill="midnightblue" stroke="midnightblue" points="148.133,-129.398 137.664,-131.03 146.866,-136.283 148.133,-129.398"/>
</g>
<!-- Node13 -->
<g id="node13" class="node"><title>Node13</title>
<polygon fill="none" stroke="#bfbfbf" points="432,-112.5 432,-131.5 484,-131.5 484,-112.5 432,-112.5"/>
<text text-anchor="middle" x="458" y="-119.5" font-family="Helvetica,sans-Serif" font-size="10.00">memory</text>
</g>
<!-- Node4&#45;&gt;Node13 -->
<g id="edge14" class="edge"><title>Node4&#45;&gt;Node13</title>
<path fill="none" stroke="midnightblue" d="M374.906,-168.324C390.638,-159.743 414.942,-146.486 433.209,-136.522"/>
<polygon fill="midnightblue" stroke="midnightblue" points="435.03,-139.516 442.133,-131.655 431.678,-133.37 435.03,-139.516"/>
</g>
<!-- Node6 -->
<g id="node6" class="node"><title>Node6</title>
<g id="a_node6"><a xlink:href="logger_8h.html" target="_top" xlink:title="File with simple logger class declaration. ">
<polygon fill="none" stroke="black" points="379.5,-56.5 379.5,-75.5 460.5,-75.5 460.5,-56.5 379.5,-56.5"/>
<text text-anchor="middle" x="420" y="-63.5" font-family="Helvetica,sans-Serif" font-size="10.00">../utils/logger.h</text>
</a>
</g>
</g>
<!-- Node5&#45;&gt;Node6 -->
<g id="edge5" class="edge"><title>Node5&#45;&gt;Node6</title>
<path fill="none" stroke="midnightblue" d="M354.532,-112.324C366.586,-103.979 385.027,-91.2122 399.269,-81.3524"/>
<polygon fill="midnightblue" stroke="midnightblue" points="401.269,-84.2243 407.499,-75.6545 397.285,-78.469 401.269,-84.2243"/>
</g>
<!-- Node8 -->
<g id="node8" class="node"><title>Node8</title>
<g id="a_node8"><a xlink:href="tags_8h.html" target="_top" xlink:title="File with declaration of some tool and color tags. Used as color and tool mode flag in model (M from ...">
<polygon fill="none" stroke="black" points="287,-56.5 287,-75.5 361,-75.5 361,-56.5 287,-56.5"/>
<text text-anchor="middle" x="324" y="-63.5" font-family="Helvetica,sans-Serif" font-size="10.00">../utils/tags.h</text>
</a>
</g>
</g>
<!-- Node5&#45;&gt;Node8 -->
<g id="edge7" class="edge"><title>Node5&#45;&gt;Node8</title>
<path fill="none" stroke="midnightblue" d="M339.028,-112.083C336.616,-104.849 333.136,-94.4087 330.132,-85.3968"/>
<polygon fill="midnightblue" stroke="midnightblue" points="333.4,-84.1311 326.917,-75.7511 326.759,-86.3447 333.4,-84.1311"/>
</g>
<!-- Node7 -->
<g id="node7" class="node"><title>Node7</title>
<polygon fill="none" stroke="#bfbfbf" points="221.5,-0.5 221.5,-19.5 262.5,-19.5 262.5,-0.5 221.5,-0.5"/>
<text text-anchor="middle" x="242" y="-7.5" font-family="Helvetica,sans-Serif" font-size="10.00">string</text>
</g>
<!-- Node6&#45;&gt;Node7 -->
<g id="edge6" class="edge"><title>Node6&#45;&gt;Node7</title>
<path fill="none" stroke="midnightblue" d="M391.795,-56.4435C359.191,-46.5524 305.736,-30.3357 272.278,-20.1854"/>
<polygon fill="midnightblue" stroke="midnightblue" points="273.167,-16.7976 262.581,-17.2437 271.134,-23.4961 273.167,-16.7976"/>
</g>
<!-- Node10 -->
<g id="node10" class="node"><title>Node10</title>
<polygon fill="none" stroke="#bfbfbf" points="101.5,-0.5 101.5,-19.5 130.5,-19.5 130.5,-0.5 101.5,-0.5"/>
<text text-anchor="middle" x="116" y="-7.5" font-family="Helvetica,sans-Serif" font-size="10.00">list</text>
</g>
<!-- Node9&#45;&gt;Node10 -->
<g id="edge9" class="edge"><title>Node9&#45;&gt;Node10</title>
<path fill="none" stroke="midnightblue" d="M96.5216,-112.184C99.9638,-103.217 105.098,-88.8525 108,-76 111.487,-60.5598 113.547,-42.6898 114.701,-29.599"/>
<polygon fill="midnightblue" stroke="midnightblue" points="118.2,-29.7503 115.495,-19.5065 111.222,-29.2012 118.2,-29.7503"/>
</g>
<!-- Node11 -->
<g id="node11" class="node"><title>Node11</title>
<polygon fill="none" stroke="#bfbfbf" points="-0.5,-0.5 -0.5,-19.5 58.5,-19.5 58.5,-0.5 -0.5,-0.5"/>
<text text-anchor="middle" x="29" y="-7.5" font-family="Helvetica,sans-Serif" font-size="10.00">functional</text>
</g>
<!-- Node9&#45;&gt;Node11 -->
<g id="edge10" class="edge"><title>Node9&#45;&gt;Node11</title>
<path fill="none" stroke="midnightblue" d="M75.308,-112.408C61.7938,-104.827 44.0065,-92.4279 35,-76 27.2535,-61.8705 26.2612,-43.3847 26.91,-29.7405"/>
<polygon fill="midnightblue" stroke="midnightblue" points="30.4108,-29.8698 27.7287,-19.6201 23.4336,-29.3053 30.4108,-29.8698"/>
</g>
<!-- Node12 -->
<g id="node12" class="node"><title>Node12</title>
<g id="a_node12"><a xlink:href="onclick_8h.html" target="_top" xlink:title="File with declaration of observer pattern classes. Two pairs of publishers and subscribers: OnClickLi...">
<polygon fill="none" stroke="black" points="44,-56.5 44,-75.5 100,-75.5 100,-56.5 44,-56.5"/>
<text text-anchor="middle" x="72" y="-63.5" font-family="Helvetica,sans-Serif" font-size="10.00">onclick.h</text>
</a>
</g>
</g>
<!-- Node9&#45;&gt;Node12 -->
<g id="edge11" class="edge"><title>Node9&#45;&gt;Node12</title>
<path fill="none" stroke="midnightblue" d="M89.5323,-112.083C86.6883,-104.77 82.5705,-94.1814 79.0402,-85.1034"/>
<polygon fill="midnightblue" stroke="midnightblue" points="82.2897,-83.8025 75.4032,-75.7511 75.7657,-86.3397 82.2897,-83.8025"/>
</g>
<!-- Node12&#45;&gt;Node10 -->
<g id="edge12" class="edge"><title>Node12&#45;&gt;Node10</title>
<path fill="none" stroke="midnightblue" d="M79.2657,-56.083C85.5448,-48.3768 94.7876,-37.0333 102.431,-27.6531"/>
<polygon fill="midnightblue" stroke="midnightblue" points="105.266,-29.7143 108.869,-19.7511 99.8394,-25.2926 105.266,-29.7143"/>
</g>
<!-- Node12&#45;&gt;Node11 -->
<g id="edge13" class="edge"><title>Node12&#45;&gt;Node11</title>
<path fill="none" stroke="midnightblue" d="M64.8994,-56.083C58.763,-48.3768 49.7303,-37.0333 42.2608,-27.6531"/>
<polygon fill="midnightblue" stroke="midnightblue" points="44.9357,-25.3936 35.9685,-19.7511 39.4598,-29.7542 44.9357,-25.3936"/>
</g>
<!-- Node14&#45;&gt;Node4 -->
<g id="edge22" class="edge"><title>Node14&#45;&gt;Node4</title>
<path fill="none" stroke="midnightblue" d="M185.641,-224.444C222.925,-214.67 283.768,-198.721 322.566,-188.551"/>
<polygon fill="midnightblue" stroke="midnightblue" points="323.621,-191.892 332.407,-185.971 321.846,-185.121 323.621,-191.892"/>
</g>
<!-- Node15 -->
<g id="node15" class="node"><title>Node15</title>
<g id="a_node15"><a xlink:href="iview_8h.html" target="_top" xlink:title="File with interface of abstract view (V from MVC). ">
<polygon fill="none" stroke="black" points="21.5,-168.5 21.5,-187.5 68.5,-187.5 68.5,-168.5 21.5,-168.5"/>
<text text-anchor="middle" x="45" y="-175.5" font-family="Helvetica,sans-Serif" font-size="10.00">iview.h</text>
</a>
</g>
</g>
<!-- Node14&#45;&gt;Node15 -->
<g id="edge16" class="edge"><title>Node14&#45;&gt;Node15</title>
<path fill="none" stroke="midnightblue" d="M135.648,-224.324C118.328,-215.664 91.4847,-202.242 71.4981,-192.249"/>
<polygon fill="midnightblue" stroke="midnightblue" points="72.8186,-188.996 62.309,-187.655 69.688,-195.257 72.8186,-188.996"/>
</g>
<!-- Node16 -->
<g id="node16" class="node"><title>Node16</title>
<g id="a_node16"><a xlink:href="view__elements_8h.html" target="_top" xlink:title="File with declaration of button and canvas classes. ">
<polygon fill="none" stroke="black" points="224,-168.5 224,-187.5 314,-187.5 314,-168.5 224,-168.5"/>
<text text-anchor="middle" x="269" y="-175.5" font-family="Helvetica,sans-Serif" font-size="10.00">view_elements.h</text>
</a>
</g>
</g>
<!-- Node14&#45;&gt;Node16 -->
<g id="edge18" class="edge"><title>Node14&#45;&gt;Node16</title>
<path fill="none" stroke="midnightblue" d="M171.381,-224.444C190.216,-215.675 219.731,-201.935 241.379,-191.858"/>
<polygon fill="midnightblue" stroke="midnightblue" points="243.117,-194.91 250.705,-187.516 240.162,-188.564 243.117,-194.91"/>
</g>
<!-- Node17 -->
<g id="node17" class="node"><title>Node17</title>
<g id="a_node17"><a xlink:href="icontroller_8h.html" target="_top" xlink:title="File with interface of abstract controller (from MVC). ">
<polygon fill="none" stroke="black" points="86.5,-168.5 86.5,-187.5 205.5,-187.5 205.5,-168.5 86.5,-168.5"/>
<text text-anchor="middle" x="146" y="-175.5" font-family="Helvetica,sans-Serif" font-size="10.00">../controller/icontroller.h</text>
</a>
</g>
</g>
<!-- Node14&#45;&gt;Node17 -->
<g id="edge23" class="edge"><title>Node14&#45;&gt;Node17</title>
<path fill="none" stroke="midnightblue" d="M151.844,-224.083C150.916,-216.927 149.582,-206.635 148.423,-197.691"/>
<polygon fill="midnightblue" stroke="midnightblue" points="151.891,-197.218 147.134,-187.751 144.949,-198.118 151.891,-197.218"/>
</g>
<!-- Node15&#45;&gt;Node9 -->
<g id="edge17" class="edge"><title>Node15&#45;&gt;Node9</title>
<path fill="none" stroke="midnightblue" d="M52.9262,-168.083C59.8461,-160.298 70.0654,-148.801 78.452,-139.367"/>
<polygon fill="midnightblue" stroke="midnightblue" points="81.1935,-141.55 85.2213,-131.751 75.9617,-136.9 81.1935,-141.55"/>
</g>
<!-- Node16&#45;&gt;Node5 -->
<g id="edge20" class="edge"><title>Node16&#45;&gt;Node5</title>
<path fill="none" stroke="midnightblue" d="M280.729,-168.324C291.837,-160.107 308.742,-147.602 321.983,-137.807"/>
<polygon fill="midnightblue" stroke="midnightblue" points="324.1,-140.595 330.058,-131.834 319.937,-134.967 324.1,-140.595"/>
</g>
<!-- Node16&#45;&gt;Node7 -->
<g id="edge21" class="edge"><title>Node16&#45;&gt;Node7</title>
<path fill="none" stroke="midnightblue" d="M267.548,-168.075C263.298,-141.945 250.817,-65.2106 245.022,-29.577"/>
<polygon fill="midnightblue" stroke="midnightblue" points="248.454,-28.8765 243.394,-19.5681 241.544,-30.0003 248.454,-28.8765"/>
</g>
<!-- Node16&#45;&gt;Node12 -->
<g id="edge19" class="edge"><title>Node16&#45;&gt;Node12</title>
<path fill="none" stroke="midnightblue" d="M253.542,-168.368C219.377,-149.292 137.229,-103.422 96.187,-80.5054"/>
<polygon fill="midnightblue" stroke="midnightblue" points="97.8239,-77.4108 87.3865,-75.5914 94.4112,-83.5226 97.8239,-77.4108"/>
</g>
<!-- Node17&#45;&gt;Node5 -->
<g id="edge24" class="edge"><title>Node17&#45;&gt;Node5</title>
<path fill="none" stroke="midnightblue" d="M177.057,-168.444C210.603,-159.201 264.197,-144.436 301.141,-134.257"/>
<polygon fill="midnightblue" stroke="midnightblue" points="302.377,-137.547 311.089,-131.516 300.518,-130.798 302.377,-137.547"/>
</g>
<!-- Node17&#45;&gt;Node7 -->
<g id="edge26" class="edge"><title>Node17&#45;&gt;Node7</title>
<path fill="none" stroke="midnightblue" d="M151.161,-168.075C166.403,-141.719 211.42,-63.878 231.787,-28.6608"/>
<polygon fill="midnightblue" stroke="midnightblue" points="235.068,-29.977 237.045,-19.5681 229.009,-26.4726 235.068,-29.977"/>
</g>
<!-- Node17&#45;&gt;Node12 -->
<g id="edge25" class="edge"><title>Node17&#45;&gt;Node12</title>
<path fill="none" stroke="midnightblue" d="M95.4911,-168.487C74.3206,-162.153 51.7118,-151.136 39,-132 28.4631,-116.138 41.7133,-96.4665 54.4282,-82.9439"/>
<polygon fill="midnightblue" stroke="midnightblue" points="57.03,-85.293 61.6688,-75.7677 52.1024,-80.3212 57.03,-85.293"/>
</g>
<!-- Node18&#45;&gt;Node3 -->
<g id="edge29" class="edge"><title>Node18&#45;&gt;Node3</title>
<path fill="none" stroke="midnightblue" d="M270.031,-280.324C287.03,-271.664 313.376,-258.242 332.993,-248.249"/>
<polygon fill="midnightblue" stroke="midnightblue" points="334.69,-251.312 342.012,-243.655 331.512,-245.075 334.69,-251.312"/>
</g>
<!-- Node18&#45;&gt;Node15 -->
<g id="edge31" class="edge"><title>Node18&#45;&gt;Node15</title>
<path fill="none" stroke="midnightblue" d="M207.168,-280.479C177.885,-273.652 139.932,-262.152 110,-244 89.2071,-231.391 70.1385,-210.763 58.108,-196.131"/>
<polygon fill="midnightblue" stroke="midnightblue" points="60.5395,-193.565 51.5743,-187.919 55.062,-197.924 60.5395,-193.565"/>
</g>
<!-- Node18&#45;&gt;Node16 -->
<g id="edge30" class="edge"><title>Node18&#45;&gt;Node16</title>
<path fill="none" stroke="midnightblue" d="M254.255,-280.368C256.838,-262.617 262.794,-221.666 266.295,-197.597"/>
<polygon fill="midnightblue" stroke="midnightblue" points="269.774,-197.991 267.75,-187.591 262.847,-196.983 269.774,-197.991"/>
</g>
<!-- Node18&#45;&gt;Node17 -->
<g id="edge28" class="edge"><title>Node18&#45;&gt;Node17</title>
<path fill="none" stroke="midnightblue" d="M245.93,-280.299C235.449,-267.551 214.98,-243.226 196,-224 185.847,-213.715 173.826,-202.858 164.116,-194.386"/>
<polygon fill="midnightblue" stroke="midnightblue" points="166.14,-191.51 156.282,-187.628 161.568,-196.81 166.14,-191.51"/>
</g>
<!-- Node19 -->
<g id="node19" class="node"><title>Node19</title>
<g id="a_node19"><a xlink:href="geomfactory_8h.html" target="_top" xlink:title="File with interface of abstract geometry factory and declaration of standard geometry factory...">
<polygon fill="none" stroke="black" points="403.5,-168.5 403.5,-187.5 512.5,-187.5 512.5,-168.5 403.5,-168.5"/>
<text text-anchor="middle" x="458" y="-175.5" font-family="Helvetica,sans-Serif" font-size="10.00">../utils/geomfactory.h</text>
</a>
</g>
</g>
<!-- Node18&#45;&gt;Node19 -->
<g id="edge32" class="edge"><title>Node18&#45;&gt;Node19</title>
<path fill="none" stroke="midnightblue" d="M258.193,-280.473C267.082,-266.59 286.542,-239.136 310,-224 335.725,-207.401 367.888,-196.662 395.653,-189.855"/>
<polygon fill="midnightblue" stroke="midnightblue" points="396.719,-193.201 405.663,-187.522 395.13,-186.383 396.719,-193.201"/>
</g>
<!-- Node19&#45;&gt;Node5 -->
<g id="edge33" class="edge"><title>Node19&#45;&gt;Node5</title>
<path fill="none" stroke="midnightblue" d="M439.619,-168.444C420.784,-159.675 391.269,-145.935 369.621,-135.858"/>
<polygon fill="midnightblue" stroke="midnightblue" points="370.838,-132.564 360.295,-131.516 367.883,-138.91 370.838,-132.564"/>
</g>
<!-- Node19&#45;&gt;Node6 -->
<g id="edge34" class="edge"><title>Node19&#45;&gt;Node6</title>
<path fill="none" stroke="midnightblue" d="M468.865,-168.122C482.856,-155.563 504.121,-131.92 493,-112 484.844,-97.3909 469.78,-86.9362 455.446,-79.8038"/>
<polygon fill="midnightblue" stroke="midnightblue" points="456.762,-76.557 446.211,-75.5863 453.854,-82.9244 456.762,-76.557"/>
</g>
<!-- Node19&#45;&gt;Node13 -->
<g id="edge35" class="edge"><title>Node19&#45;&gt;Node13</title>
<path fill="none" stroke="midnightblue" d="M458,-168.083C458,-161.006 458,-150.861 458,-141.986"/>
<polygon fill="midnightblue" stroke="midnightblue" points="461.5,-141.751 458,-131.751 454.5,-141.751 461.5,-141.751"/>
</g>
</g>
</svg>
        <g id="navigator" transform="translate(0 0)" fill="#404254">
                <rect fill="#f2f5e9" fill-opacity="0.5" stroke="#606060" stroke-width=".5" x="0" y="0" width="60" height="60"/>
                <use id="zoomplus" xlink:href="#zoomPlus" x="17" y="9" onmousedown="handleZoom(evt,'in')"/>
                <use id="zoomminus" xlink:href="#zoomMin" x="42" y="9" onmousedown="handleZoom(evt,'out')"/>
                <use id="reset" xlink:href="#resetDef" x="30" y="36" onmousedown="handleReset()"/>
                <g id="arrowUp" xlink:href="#dirArrow" transform="translate(30 24)" onmousedown="handlePan(0,-1)">
                  <use xlink:href="#rim" fill="#404040">
                        <set attributeName="fill" to="#808080" begin="arrowUp.mouseover" end="arrowUp.mouseout"/>
                  </use>
                  <path fill="none" stroke="white" stroke-width="1.5" d="M0,-3.0v7 M-2.5,-0.5L0,-3.0L2.5,-0.5"/>
                </g>
                <g id="arrowRight" xlink:href="#dirArrow" transform="rotate(90) translate(36 -43)" onmousedown="handlePan(1,0)">
                  <use xlink:href="#rim" fill="#404040">
                        <set attributeName="fill" to="#808080" begin="arrowRight.mouseover" end="arrowRight.mouseout"/>
                  </use>
                  <path fill="none" stroke="white" stroke-width="1.5" d="M0,-3.0v7 M-2.5,-0.5L0,-3.0L2.5,-0.5"/>
                </g>
                <g id="arrowDown" xlink:href="#dirArrow" transform="rotate(180) translate(-30 -48)" onmousedown="handlePan(0,1)">
                  <use xlink:href="#rim" fill="#404040">
                        <set attributeName="fill" to="#808080" begin="arrowDown.mouseover" end="arrowDown.mouseout"/>
                  </use>
                  <path fill="none" stroke="white" stroke-width="1.5" d="M0,-3.0v7 M-2.5,-0.5L0,-3.0L2.5,-0.5"/>
                </g>
                <g id="arrowLeft" xlink:href="#dirArrow" transform="rotate(270) translate(-36 17)" onmousedown="handlePan(-1,0)">
                  <use xlink:href="#rim" fill="#404040">
                        <set attributeName="fill" to="#808080" begin="arrowLeft.mouseover" end="arrowLeft.mouseout"/>
                  </use>
                  <path fill="none" stroke="white" stroke-width="1.5" d="M0,-3.0v7 M-2.5,-0.5L0,-3.0L2.5,-0.5"/>
                </g>
        </g>
        <svg viewBox="0 0 15 15" width="100%" height="30px" preserveAspectRatio="xMaxYMin meet">
         <g id="arrow_out" transform="scale(0.3 0.3)">
          <a xlink:href="tester_8cpp__incl_org.svg" target="_base">
           <rect id="button" ry="5" rx="5" y="6" x="6" height="38" width="38"
                fill="#f2f5e9" fill-opacity="0.5" stroke="#606060" stroke-width="1.0"/>
           <path id="arrow"
             d="M 11.500037,31.436501 C 11.940474,20.09759 22.043105,11.32322 32.158766,21.979434 L 37.068811,17.246167 C 37.068811,17.246167 37.088388,32 37.088388,32 L 22.160133,31.978069 C 22.160133,31.978069 26.997745,27.140456 26.997745,27.140456 C 18.528582,18.264221 13.291696,25.230495 11.500037,31.436501 z"
             style="fill:#404040;"/>
          </a>
         </g>
        </svg>
</svg>
