<?xml version="1.0" encoding="UTF-8" standalone="no"?>
<!DOCTYPE svg PUBLIC "-//W3C//DTD SVG 1.1//EN"
 "http://www.w3.org/Graphics/SVG/1.1/DTD/svg11.dtd">
<!-- Generated by graphviz version 2.36.0 (20140111.2315)
 -->
<!-- Title: src/view/view.cpp Pages: 1 -->
<svg width="459pt" height="252pt"
 viewBox="0.00 0.00 459.00 252.00" xmlns="http://www.w3.org/2000/svg" xmlns:xlink="http://www.w3.org/1999/xlink">
<g id="graph0" class="graph" transform="scale(1 1) rotate(0) translate(4 248)">
<title>src/view/view.cpp</title>
<!-- Node1 -->
<g id="node1" class="node"><title>Node1</title>
<polygon fill="#bfbfbf" stroke="black" points="138.5,-224.5 138.5,-243.5 233.5,-243.5 233.5,-224.5 138.5,-224.5"/>
<text text-anchor="middle" x="186" y="-231.5" font-family="Helvetica,sans-Serif" font-size="10.00">src/view/view.cpp</text>
</g>
<!-- Node2 -->
<g id="node2" class="node"><title>Node2</title>
<g id="a_node2"><a xlink:href="view_8h.html" target="_top" xlink:title="File with declaration of view (V from MVC). ">
<polygon fill="none" stroke="black" points="163.5,-168.5 163.5,-187.5 208.5,-187.5 208.5,-168.5 163.5,-168.5"/>
<text text-anchor="middle" x="186" y="-175.5" font-family="Helvetica,sans-Serif" font-size="10.00">view.h</text>
</a>
</g>
</g>
<!-- Node1&#45;&gt;Node2 -->
<g id="edge1" class="edge"><title>Node1&#45;&gt;Node2</title>
<path fill="none" stroke="midnightblue" d="M186,-224.083C186,-217.006 186,-206.861 186,-197.986"/>
<polygon fill="midnightblue" stroke="midnightblue" points="189.5,-197.751 186,-187.751 182.5,-197.751 189.5,-197.751"/>
</g>
<!-- Node3 -->
<g id="node3" class="node"><title>Node3</title>
<g id="a_node3"><a xlink:href="iview_8h.html" target="_top" xlink:title="File with interface of abstract view (V from MVC). ">
<polygon fill="none" stroke="black" points="20.5,-112.5 20.5,-131.5 67.5,-131.5 67.5,-112.5 20.5,-112.5"/>
<text text-anchor="middle" x="44" y="-119.5" font-family="Helvetica,sans-Serif" font-size="10.00">iview.h</text>
</a>
</g>
</g>
<!-- Node2&#45;&gt;Node3 -->
<g id="edge2" class="edge"><title>Node2&#45;&gt;Node3</title>
<path fill="none" stroke="midnightblue" d="M163.5,-168.444C139.923,-159.478 102.678,-145.314 76.036,-135.183"/>
<polygon fill="midnightblue" stroke="midnightblue" points="76.9861,-131.8 66.3951,-131.516 74.4979,-138.342 76.9861,-131.8"/>
</g>
<!-- Node6 -->
<g id="node6" class="node"><title>Node6</title>
<g id="a_node6"><a xlink:href="view__elements_8h.html" target="_top" xlink:title="File with declaration of button and canvas classes. ">
<polygon fill="none" stroke="black" points="196,-112.5 196,-131.5 286,-131.5 286,-112.5 196,-112.5"/>
<text text-anchor="middle" x="241" y="-119.5" font-family="Helvetica,sans-Serif" font-size="10.00">view_elements.h</text>
</a>
</g>
</g>
<!-- Node2&#45;&gt;Node6 -->
<g id="edge5" class="edge"><title>Node2&#45;&gt;Node6</title>
<path fill="none" stroke="midnightblue" d="M195.082,-168.083C203.171,-160.141 215.195,-148.335 224.91,-138.797"/>
<polygon fill="midnightblue" stroke="midnightblue" points="227.403,-141.254 232.087,-131.751 222.499,-136.26 227.403,-141.254"/>
</g>
<!-- Node12 -->
<g id="node12" class="node"><title>Node12</title>
<g id="a_node12"><a xlink:href="imodel_8h.html" target="_top" xlink:title="File with interface of abstract model (from MVC). ">
<polygon fill="none" stroke="black" points="86,-112.5 86,-131.5 178,-131.5 178,-112.5 86,-112.5"/>
<text text-anchor="middle" x="132" y="-119.5" font-family="Helvetica,sans-Serif" font-size="10.00">../model/imodel.h</text>
</a>
</g>
</g>
<!-- Node2&#45;&gt;Node12 -->
<g id="edge12" class="edge"><title>Node2&#45;&gt;Node12</title>
<path fill="none" stroke="midnightblue" d="M177.083,-168.083C169.22,-160.22 157.569,-148.569 148.081,-139.081"/>
<polygon fill="midnightblue" stroke="midnightblue" points="150.297,-136.347 140.751,-131.751 145.347,-141.297 150.297,-136.347"/>
</g>
<!-- Node14 -->
<g id="node14" class="node"><title>Node14</title>
<g id="a_node14"><a xlink:href="icontroller_8h.html" target="_top" xlink:title="File with interface of abstract controller (from MVC). ">
<polygon fill="none" stroke="black" points="304.5,-112.5 304.5,-131.5 423.5,-131.5 423.5,-112.5 304.5,-112.5"/>
<text text-anchor="middle" x="364" y="-119.5" font-family="Helvetica,sans-Serif" font-size="10.00">../controller/icontroller.h</text>
</a>
</g>
</g>
<!-- Node2&#45;&gt;Node14 -->
<g id="edge16" class="edge"><title>Node2&#45;&gt;Node14</title>
<path fill="none" stroke="midnightblue" d="M208.544,-170.161C238.13,-161.185 290.481,-145.303 326.184,-134.472"/>
<polygon fill="midnightblue" stroke="midnightblue" points="327.227,-137.814 335.78,-131.561 325.195,-131.115 327.227,-137.814"/>
</g>
<!-- Node4 -->
<g id="node4" class="node"><title>Node4</title>
<g id="a_node4"><a xlink:href="observe_8h.html" target="_top" xlink:title="File with declaration of observer pattern &#45; Observer and Observable. ">
<polygon fill="none" stroke="black" points="-0.5,-56.5 -0.5,-75.5 88.5,-75.5 88.5,-56.5 -0.5,-56.5"/>
<text text-anchor="middle" x="44" y="-63.5" font-family="Helvetica,sans-Serif" font-size="10.00">../utils/observe.h</text>
</a>
</g>
</g>
<!-- Node3&#45;&gt;Node4 -->
<g id="edge3" class="edge"><title>Node3&#45;&gt;Node4</title>
<path fill="none" stroke="midnightblue" d="M44,-112.083C44,-105.006 44,-94.8611 44,-85.9865"/>
<polygon fill="midnightblue" stroke="midnightblue" points="47.5001,-85.751 44,-75.7511 40.5001,-85.7511 47.5001,-85.751"/>
</g>
<!-- Node5 -->
<g id="node5" class="node"><title>Node5</title>
<polygon fill="none" stroke="#bfbfbf" points="364.5,-0.5 364.5,-19.5 393.5,-19.5 393.5,-0.5 364.5,-0.5"/>
<text text-anchor="middle" x="379" y="-7.5" font-family="Helvetica,sans-Serif" font-size="10.00">list</text>
</g>
<!-- Node4&#45;&gt;Node5 -->
<g id="edge4" class="edge"><title>Node4&#45;&gt;Node5</title>
<path fill="none" stroke="midnightblue" d="M88.7842,-57.5057C91.9026,-56.9932 94.9979,-56.4872 98,-56 199.264,-39.5671 224.761,-36.5877 326,-20 335.167,-18.498 345.218,-16.8035 354.079,-15.2932"/>
<polygon fill="midnightblue" stroke="midnightblue" points="354.892,-18.7049 364.158,-13.5677 353.711,-11.8053 354.892,-18.7049"/>
</g>
<!-- Node7 -->
<g id="node7" class="node"><title>Node7</title>
<g id="a_node7"><a xlink:href="onclick_8h.html" target="_top" xlink:title="File with declaration of observer pattern classes. Two pairs of publishers and subscribers: OnClickLi...">
<polygon fill="none" stroke="black" points="365,-56.5 365,-75.5 451,-75.5 451,-56.5 365,-56.5"/>
<text text-anchor="middle" x="408" y="-63.5" font-family="Helvetica,sans-Serif" font-size="10.00">../utils/onclick.h</text>
</a>
</g>
</g>
<!-- Node6&#45;&gt;Node7 -->
<g id="edge6" class="edge"><title>Node6&#45;&gt;Node7</title>
<path fill="none" stroke="midnightblue" d="M267.462,-112.444C295.678,-103.32 340.54,-88.8133 371.968,-78.6509"/>
<polygon fill="midnightblue" stroke="midnightblue" points="373.224,-81.9234 381.662,-75.5164 371.07,-75.263 373.224,-81.9234"/>
</g>
<!-- Node8 -->
<g id="node8" class="node"><title>Node8</title>
<g id="a_node8"><a xlink:href="geometry__elements_8h.html" target="_top" xlink:title="File with declaration of geometry element classes. ">
<polygon fill="none" stroke="black" points="177,-56.5 177,-75.5 287,-75.5 287,-56.5 177,-56.5"/>
<text text-anchor="middle" x="232" y="-63.5" font-family="Helvetica,sans-Serif" font-size="10.00">geometry_elements.h</text>
</a>
</g>
</g>
<!-- Node6&#45;&gt;Node8 -->
<g id="edge8" class="edge"><title>Node6&#45;&gt;Node8</title>
<path fill="none" stroke="midnightblue" d="M239.514,-112.083C238.321,-104.927 236.606,-94.6353 235.115,-85.6911"/>
<polygon fill="midnightblue" stroke="midnightblue" points="238.555,-85.0396 233.459,-75.7511 231.65,-86.1904 238.555,-85.0396"/>
</g>
<!-- Node11 -->
<g id="node11" class="node"><title>Node11</title>
<polygon fill="none" stroke="#bfbfbf" points="305.5,-56.5 305.5,-75.5 346.5,-75.5 346.5,-56.5 305.5,-56.5"/>
<text text-anchor="middle" x="326" y="-63.5" font-family="Helvetica,sans-Serif" font-size="10.00">string</text>
</g>
<!-- Node6&#45;&gt;Node11 -->
<g id="edge11" class="edge"><title>Node6&#45;&gt;Node11</title>
<path fill="none" stroke="midnightblue" d="M254.657,-112.324C267.916,-103.9 288.268,-90.9709 303.846,-81.0741"/>
<polygon fill="midnightblue" stroke="midnightblue" points="305.813,-83.9711 312.377,-75.6545 302.06,-78.0626 305.813,-83.9711"/>
</g>
<!-- Node7&#45;&gt;Node5 -->
<g id="edge7" class="edge"><title>Node7&#45;&gt;Node5</title>
<path fill="none" stroke="midnightblue" d="M403.211,-56.083C399.242,-48.6913 393.475,-37.9533 388.565,-28.8111"/>
<polygon fill="midnightblue" stroke="midnightblue" points="391.514,-26.9051 383.7,-19.7511 385.347,-30.217 391.514,-26.9051"/>
</g>
<!-- Node9 -->
<g id="node9" class="node"><title>Node9</title>
<g id="a_node9"><a xlink:href="logger_8h.html" target="_top" xlink:title="File with simple logger class declaration. ">
<polygon fill="none" stroke="black" points="143.5,-0.5 143.5,-19.5 224.5,-19.5 224.5,-0.5 143.5,-0.5"/>
<text text-anchor="middle" x="184" y="-7.5" font-family="Helvetica,sans-Serif" font-size="10.00">../utils/logger.h</text>
</a>
</g>
</g>
<!-- Node8&#45;&gt;Node9 -->
<g id="edge9" class="edge"><title>Node8&#45;&gt;Node9</title>
<path fill="none" stroke="midnightblue" d="M224.074,-56.083C217.154,-48.2982 206.935,-36.8015 198.548,-27.3665"/>
<polygon fill="midnightblue" stroke="midnightblue" points="201.038,-24.8999 191.779,-19.7511 195.806,-29.5505 201.038,-24.8999"/>
</g>
<!-- Node10 -->
<g id="node10" class="node"><title>Node10</title>
<g id="a_node10"><a xlink:href="tags_8h.html" target="_top" xlink:title="File with declaration of some tool and color tags. Used as color and tool mode flag in model (M from ...">
<polygon fill="none" stroke="black" points="243,-0.5 243,-19.5 317,-19.5 317,-0.5 243,-0.5"/>
<text text-anchor="middle" x="280" y="-7.5" font-family="Helvetica,sans-Serif" font-size="10.00">../utils/tags.h</text>
</a>
</g>
</g>
<!-- Node8&#45;&gt;Node10 -->
<g id="edge10" class="edge"><title>Node8&#45;&gt;Node10</title>
<path fill="none" stroke="midnightblue" d="M239.926,-56.083C246.846,-48.2982 257.065,-36.8015 265.452,-27.3665"/>
<polygon fill="midnightblue" stroke="midnightblue" points="268.194,-29.5505 272.221,-19.7511 262.962,-24.8999 268.194,-29.5505"/>
</g>
<!-- Node12&#45;&gt;Node4 -->
<g id="edge14" class="edge"><title>Node12&#45;&gt;Node4</title>
<path fill="none" stroke="midnightblue" d="M117.861,-112.324C104.134,-103.9 83.0637,-90.9709 66.9357,-81.0741"/>
<polygon fill="midnightblue" stroke="midnightblue" points="68.4574,-77.9016 58.1036,-75.6545 64.7963,-83.8678 68.4574,-77.9016"/>
</g>
<!-- Node12&#45;&gt;Node8 -->
<g id="edge13" class="edge"><title>Node12&#45;&gt;Node8</title>
<path fill="none" stroke="midnightblue" d="M148.067,-112.324C163.958,-103.743 188.507,-90.486 206.958,-80.5224"/>
<polygon fill="midnightblue" stroke="midnightblue" points="208.837,-83.4857 215.973,-75.6545 205.511,-77.3264 208.837,-83.4857"/>
</g>
<!-- Node13 -->
<g id="node13" class="node"><title>Node13</title>
<polygon fill="none" stroke="#bfbfbf" points="107,-56.5 107,-75.5 159,-75.5 159,-56.5 107,-56.5"/>
<text text-anchor="middle" x="133" y="-63.5" font-family="Helvetica,sans-Serif" font-size="10.00">memory</text>
</g>
<!-- Node12&#45;&gt;Node13 -->
<g id="edge15" class="edge"><title>Node12&#45;&gt;Node13</title>
<path fill="none" stroke="midnightblue" d="M132.165,-112.083C132.296,-105.006 132.484,-94.8611 132.648,-85.9865"/>
<polygon fill="midnightblue" stroke="midnightblue" points="136.152,-85.8142 132.838,-75.7511 129.153,-85.6845 136.152,-85.8142"/>
</g>
<!-- Node14&#45;&gt;Node7 -->
<g id="edge18" class="edge"><title>Node14&#45;&gt;Node7</title>
<path fill="none" stroke="midnightblue" d="M371.266,-112.083C377.545,-104.377 386.788,-93.0333 394.431,-83.6531"/>
<polygon fill="midnightblue" stroke="midnightblue" points="397.266,-85.7143 400.869,-75.7511 391.839,-81.2926 397.266,-85.7143"/>
</g>
<!-- Node14&#45;&gt;Node8 -->
<g id="edge17" class="edge"><title>Node14&#45;&gt;Node8</title>
<path fill="none" stroke="midnightblue" d="M343.084,-112.444C321.264,-103.517 286.85,-89.4387 262.108,-79.3168"/>
<polygon fill="midnightblue" stroke="midnightblue" points="263.399,-76.0634 252.818,-75.5164 260.748,-82.5422 263.399,-76.0634"/>
</g>
<!-- Node14&#45;&gt;Node11 -->
<g id="edge19" class="edge"><title>Node14&#45;&gt;Node11</title>
<path fill="none" stroke="midnightblue" d="M357.725,-112.083C352.358,-104.455 344.482,-93.2645 337.921,-83.9408"/>
<polygon fill="midnightblue" stroke="midnightblue" points="340.775,-81.9149 332.158,-75.7511 335.051,-85.9434 340.775,-81.9149"/>
</g>
</g>
</svg>
