<?xml version="1.0" encoding="UTF-8" standalone="no"?>
<!DOCTYPE svg PUBLIC "-//W3C//DTD SVG 1.1//EN"
 "http://www.w3.org/Graphics/SVG/1.1/DTD/svg11.dtd">
<!-- Generated by graphviz version 2.38.0 (20140413.2041)
 -->
<!-- Title: src/view/view.h Pages: 1 -->
<svg width="460pt" height="252pt"
 viewBox="0.00 0.00 460.00 252.00" xmlns="http://www.w3.org/2000/svg" xmlns:xlink="http://www.w3.org/1999/xlink">
<g id="graph0" class="graph" transform="scale(1 1) rotate(0) translate(4 248)">
<title>src/view/view.h</title>
<!-- Node1 -->
<g id="node1" class="node"><title>Node1</title>
<polygon fill="#bfbfbf" stroke="black" points="155.5,-224.5 155.5,-243.5 241.5,-243.5 241.5,-224.5 155.5,-224.5"/>
<text text-anchor="middle" x="198.5" y="-231.5" font-family="Helvetica,sans-Serif" font-size="10.00">src/view/view.h</text>
</g>
<!-- Node2 -->
<g id="node2" class="node"><title>Node2</title>
<g id="a_node2"><a xlink:href="iview_8h.html" target="_top" xlink:title="File with interface of abstract view (V from MVC). ">
<polygon fill="none" stroke="black" points="24,-168.5 24,-187.5 71,-187.5 71,-168.5 24,-168.5"/>
<text text-anchor="middle" x="47.5" y="-175.5" font-family="Helvetica,sans-Serif" font-size="10.00">iview.h</text>
</a>
</g>
</g>
<!-- Node1&#45;&gt;Node2 -->
<g id="edge1" class="edge"><title>Node1&#45;&gt;Node2</title>
<path fill="none" stroke="midnightblue" d="M174.574,-224.444C149.281,-215.399 109.198,-201.064 80.8202,-190.916"/>
<polygon fill="midnightblue" stroke="midnightblue" points="81.9091,-187.588 71.3145,-187.516 79.5519,-194.179 81.9091,-187.588"/>
</g>
<!-- Node7 -->
<g id="node7" class="node"><title>Node7</title>
<g id="a_node7"><a xlink:href="view__elements_8h.html" target="_top" xlink:title="File with declaration of button and canvas classes. ">
<polygon fill="none" stroke="black" points="208.5,-168.5 208.5,-187.5 304.5,-187.5 304.5,-168.5 208.5,-168.5"/>
<text text-anchor="middle" x="256.5" y="-175.5" font-family="Helvetica,sans-Serif" font-size="10.00">view_elements.h</text>
</a>
</g>
</g>
<!-- Node1&#45;&gt;Node7 -->
<g id="edge8" class="edge"><title>Node1&#45;&gt;Node7</title>
<path fill="none" stroke="midnightblue" d="M207.819,-224.324C216.393,-216.341 229.312,-204.313 239.688,-194.653"/>
<polygon fill="midnightblue" stroke="midnightblue" points="242.078,-197.21 247.012,-187.834 237.308,-192.086 242.078,-197.21"/>
</g>
<!-- Node12 -->
<g id="node12" class="node"><title>Node12</title>
<g id="a_node12"><a xlink:href="imodel_8h.html" target="_top" xlink:title="File with interface of abstract model (from MVC). ">
<polygon fill="none" stroke="black" points="90.5,-168.5 90.5,-187.5 190.5,-187.5 190.5,-168.5 90.5,-168.5"/>
<text text-anchor="middle" x="140.5" y="-175.5" font-family="Helvetica,sans-Serif" font-size="10.00">../model/imodel.h</text>
</a>
</g>
</g>
<!-- Node1&#45;&gt;Node12 -->
<g id="edge15" class="edge"><title>Node1&#45;&gt;Node12</title>
<path fill="none" stroke="midnightblue" d="M189.181,-224.324C180.607,-216.341 167.688,-204.313 157.312,-194.653"/>
<polygon fill="midnightblue" stroke="midnightblue" points="159.692,-192.086 149.988,-187.834 154.922,-197.21 159.692,-192.086"/>
</g>
<!-- Node14 -->
<g id="node14" class="node"><title>Node14</title>
<g id="a_node14"><a xlink:href="icontroller_8h.html" target="_top" xlink:title="File with interface of abstract controller (from MVC). ">
<polygon fill="none" stroke="black" points="323,-168.5 323,-187.5 452,-187.5 452,-168.5 323,-168.5"/>
<text text-anchor="middle" x="387.5" y="-175.5" font-family="Helvetica,sans-Serif" font-size="10.00">../controller/icontroller.h</text>
</a>
</g>
</g>
<!-- Node1&#45;&gt;Node14 -->
<g id="edge19" class="edge"><title>Node1&#45;&gt;Node14</title>
<path fill="none" stroke="midnightblue" d="M228.448,-224.444C260.658,-215.241 312.034,-200.562 347.642,-190.388"/>
<polygon fill="midnightblue" stroke="midnightblue" points="349.039,-193.629 357.692,-187.516 347.116,-186.898 349.039,-193.629"/>
</g>
<!-- Node3 -->
<g id="node3" class="node"><title>Node3</title>
<g id="a_node3"><a xlink:href="observe_8h.html" target="_top" xlink:title="File with declaration of observer pattern &#45; Observer and Observable. ">
<polygon fill="none" stroke="black" points="0,-112.5 0,-131.5 95,-131.5 95,-112.5 0,-112.5"/>
<text text-anchor="middle" x="47.5" y="-119.5" font-family="Helvetica,sans-Serif" font-size="10.00">../utils/observe.h</text>
</a>
</g>
</g>
<!-- Node2&#45;&gt;Node3 -->
<g id="edge2" class="edge"><title>Node2&#45;&gt;Node3</title>
<path fill="none" stroke="midnightblue" d="M47.5,-168.083C47.5,-161.006 47.5,-150.861 47.5,-141.986"/>
<polygon fill="midnightblue" stroke="midnightblue" points="51.0001,-141.751 47.5,-131.751 44.0001,-141.751 51.0001,-141.751"/>
</g>
<!-- Node4 -->
<g id="node4" class="node"><title>Node4</title>
<polygon fill="none" stroke="#bfbfbf" points="112.5,-0.5 112.5,-19.5 142.5,-19.5 142.5,-0.5 112.5,-0.5"/>
<text text-anchor="middle" x="127.5" y="-7.5" font-family="Helvetica,sans-Serif" font-size="10.00">list</text>
</g>
<!-- Node3&#45;&gt;Node4 -->
<g id="edge3" class="edge"><title>Node3&#45;&gt;Node4</title>
<path fill="none" stroke="midnightblue" d="M53.7775,-112.368C66.9797,-94.2153 97.8262,-51.8015 115.144,-27.9902"/>
<polygon fill="midnightblue" stroke="midnightblue" points="118.201,-29.7374 121.252,-19.5914 112.539,-25.6202 118.201,-29.7374"/>
</g>
<!-- Node5 -->
<g id="node5" class="node"><title>Node5</title>
<polygon fill="none" stroke="#bfbfbf" points="24,-0.5 24,-19.5 87,-19.5 87,-0.5 24,-0.5"/>
<text text-anchor="middle" x="55.5" y="-7.5" font-family="Helvetica,sans-Serif" font-size="10.00">functional</text>
</g>
<!-- Node3&#45;&gt;Node5 -->
<g id="edge4" class="edge"><title>Node3&#45;&gt;Node5</title>
<path fill="none" stroke="midnightblue" d="M48.1277,-112.368C49.4188,-94.617 52.397,-53.6664 54.1475,-29.5974"/>
<polygon fill="midnightblue" stroke="midnightblue" points="57.6405,-29.819 54.8752,-19.5914 50.6589,-29.3112 57.6405,-29.819"/>
</g>
<!-- Node6 -->
<g id="node6" class="node"><title>Node6</title>
<g id="a_node6"><a xlink:href="onclick_8h.html" target="_top" xlink:title="File with declaration of observer pattern classes. Two pairs of publishers and subscribers: OnClickLi...">
<polygon fill="none" stroke="black" points="113.5,-56.5 113.5,-75.5 171.5,-75.5 171.5,-56.5 113.5,-56.5"/>
<text text-anchor="middle" x="142.5" y="-63.5" font-family="Helvetica,sans-Serif" font-size="10.00">onclick.h</text>
</a>
</g>
</g>
<!-- Node3&#45;&gt;Node6 -->
<g id="edge5" class="edge"><title>Node3&#45;&gt;Node6</title>
<path fill="none" stroke="midnightblue" d="M62.7634,-112.324C77.7214,-103.822 100.755,-90.7288 118.227,-80.7975"/>
<polygon fill="midnightblue" stroke="midnightblue" points="120.31,-83.639 127.274,-75.6545 116.851,-77.5534 120.31,-83.639"/>
</g>
<!-- Node6&#45;&gt;Node4 -->
<g id="edge6" class="edge"><title>Node6&#45;&gt;Node4</title>
<path fill="none" stroke="midnightblue" d="M140.023,-56.083C138.014,-48.8486 135.114,-38.4087 132.61,-29.3968"/>
<polygon fill="midnightblue" stroke="midnightblue" points="135.98,-28.4495 129.931,-19.7511 129.235,-30.323 135.98,-28.4495"/>
</g>
<!-- Node6&#45;&gt;Node5 -->
<g id="edge7" class="edge"><title>Node6&#45;&gt;Node5</title>
<path fill="none" stroke="midnightblue" d="M128.522,-56.324C114.95,-47.9002 94.1198,-34.9709 78.175,-25.0741"/>
<polygon fill="midnightblue" stroke="midnightblue" points="79.7856,-21.9544 69.4434,-19.6545 76.094,-27.9019 79.7856,-21.9544"/>
</g>
<!-- Node7&#45;&gt;Node6 -->
<g id="edge9" class="edge"><title>Node7&#45;&gt;Node6</title>
<path fill="none" stroke="midnightblue" d="M247.555,-168.368C228.408,-149.894 183.221,-106.293 158.816,-82.7436"/>
<polygon fill="midnightblue" stroke="midnightblue" points="161.03,-80.0165 151.404,-75.5914 156.17,-85.0538 161.03,-80.0165"/>
</g>
<!-- Node8 -->
<g id="node8" class="node"><title>Node8</title>
<g id="a_node8"><a xlink:href="geometry__elements_8h.html" target="_top" xlink:title="File with declaration of geometry element classes. ">
<polygon fill="none" stroke="black" points="226.5,-112.5 226.5,-131.5 348.5,-131.5 348.5,-112.5 226.5,-112.5"/>
<text text-anchor="middle" x="287.5" y="-119.5" font-family="Helvetica,sans-Serif" font-size="10.00">geometry_elements.h</text>
</a>
</g>
</g>
<!-- Node7&#45;&gt;Node8 -->
<g id="edge10" class="edge"><title>Node7&#45;&gt;Node8</title>
<path fill="none" stroke="midnightblue" d="M261.619,-168.083C265.908,-160.613 272.158,-149.724 277.442,-140.52"/>
<polygon fill="midnightblue" stroke="midnightblue" points="280.533,-142.166 282.476,-131.751 274.462,-138.681 280.533,-142.166"/>
</g>
<!-- Node10 -->
<g id="node10" class="node"><title>Node10</title>
<polygon fill="none" stroke="#bfbfbf" points="392.5,-0.5 392.5,-19.5 436.5,-19.5 436.5,-0.5 392.5,-0.5"/>
<text text-anchor="middle" x="414.5" y="-7.5" font-family="Helvetica,sans-Serif" font-size="10.00">string</text>
</g>
<!-- Node7&#45;&gt;Node10 -->
<g id="edge14" class="edge"><title>Node7&#45;&gt;Node10</title>
<path fill="none" stroke="midnightblue" d="M286.767,-168.433C308.212,-161.259 336.744,-149.372 357.5,-132 389.597,-105.136 404.753,-56.1151 410.912,-29.4568"/>
<polygon fill="midnightblue" stroke="midnightblue" points="414.367,-30.0402 413.024,-19.5308 407.52,-28.5835 414.367,-30.0402"/>
</g>
<!-- Node9 -->
<g id="node9" class="node"><title>Node9</title>
<g id="a_node9"><a xlink:href="logger_8h.html" target="_top" xlink:title="File with simple logger class declaration. ">
<polygon fill="none" stroke="black" points="204.5,-56.5 204.5,-75.5 290.5,-75.5 290.5,-56.5 204.5,-56.5"/>
<text text-anchor="middle" x="247.5" y="-63.5" font-family="Helvetica,sans-Serif" font-size="10.00">../utils/logger.h</text>
</a>
</g>
</g>
<!-- Node8&#45;&gt;Node9 -->
<g id="edge11" class="edge"><title>Node8&#45;&gt;Node9</title>
<path fill="none" stroke="midnightblue" d="M280.895,-112.083C275.245,-104.455 266.955,-93.2645 260.049,-83.9408"/>
<polygon fill="midnightblue" stroke="midnightblue" points="262.747,-81.7034 253.982,-75.7511 257.122,-85.87 262.747,-81.7034"/>
</g>
<!-- Node11 -->
<g id="node11" class="node"><title>Node11</title>
<g id="a_node11"><a xlink:href="tags_8h.html" target="_top" xlink:title="File with declaration of some tool and color tags. Used as color and tool mode flag in model (M from ...">
<polygon fill="none" stroke="black" points="308.5,-56.5 308.5,-75.5 386.5,-75.5 386.5,-56.5 308.5,-56.5"/>
<text text-anchor="middle" x="347.5" y="-63.5" font-family="Helvetica,sans-Serif" font-size="10.00">../utils/tags.h</text>
</a>
</g>
</g>
<!-- Node8&#45;&gt;Node11 -->
<g id="edge13" class="edge"><title>Node8&#45;&gt;Node11</title>
<path fill="none" stroke="midnightblue" d="M297.14,-112.324C306.01,-104.341 319.375,-92.3128 330.108,-82.6529"/>
<polygon fill="midnightblue" stroke="midnightblue" points="332.593,-85.1251 337.685,-75.8339 327.91,-79.922 332.593,-85.1251"/>
</g>
<!-- Node9&#45;&gt;Node10 -->
<g id="edge12" class="edge"><title>Node9&#45;&gt;Node10</title>
<path fill="none" stroke="midnightblue" d="M273.962,-56.4435C303.506,-46.8902 351.3,-31.436 382.813,-21.2461"/>
<polygon fill="midnightblue" stroke="midnightblue" points="383.991,-24.5438 392.429,-18.1368 381.837,-17.8833 383.991,-24.5438"/>
</g>
<!-- Node12&#45;&gt;Node3 -->
<g id="edge17" class="edge"><title>Node12&#45;&gt;Node3</title>
<path fill="none" stroke="midnightblue" d="M125.558,-168.324C110.915,-159.822 88.3663,-146.729 71.2623,-136.797"/>
<polygon fill="midnightblue" stroke="midnightblue" points="72.8104,-133.649 62.405,-131.655 69.2954,-139.703 72.8104,-133.649"/>
</g>
<!-- Node12&#45;&gt;Node8 -->
<g id="edge16" class="edge"><title>Node12&#45;&gt;Node8</title>
<path fill="none" stroke="midnightblue" d="M163.793,-168.444C188.307,-159.438 227.096,-145.189 254.7,-135.049"/>
<polygon fill="midnightblue" stroke="midnightblue" points="256.137,-138.25 264.316,-131.516 253.723,-131.679 256.137,-138.25"/>
</g>
<!-- Node13 -->
<g id="node13" class="node"><title>Node13</title>
<polygon fill="none" stroke="#bfbfbf" points="113,-112.5 113,-131.5 170,-131.5 170,-112.5 113,-112.5"/>
<text text-anchor="middle" x="141.5" y="-119.5" font-family="Helvetica,sans-Serif" font-size="10.00">memory</text>
</g>
<!-- Node12&#45;&gt;Node13 -->
<g id="edge18" class="edge"><title>Node12&#45;&gt;Node13</title>
<path fill="none" stroke="midnightblue" d="M140.665,-168.083C140.796,-161.006 140.984,-150.861 141.148,-141.986"/>
<polygon fill="midnightblue" stroke="midnightblue" points="144.652,-141.814 141.338,-131.751 137.653,-141.685 144.652,-141.814"/>
</g>
<!-- Node14&#45;&gt;Node6 -->
<g id="edge21" class="edge"><title>Node14&#45;&gt;Node6</title>
<path fill="none" stroke="midnightblue" d="M386.054,-168.308C383.228,-154.187 375.586,-126.398 357.5,-112 350.608,-106.513 241.619,-85.4964 181.534,-74.2317"/>
<polygon fill="midnightblue" stroke="midnightblue" points="182.1,-70.7768 171.627,-72.3794 180.813,-77.6576 182.1,-70.7768"/>
</g>
<!-- Node14&#45;&gt;Node8 -->
<g id="edge20" class="edge"><title>Node14&#45;&gt;Node8</title>
<path fill="none" stroke="midnightblue" d="M371.433,-168.324C355.542,-159.743 330.993,-146.486 312.542,-136.522"/>
<polygon fill="midnightblue" stroke="midnightblue" points="313.989,-133.326 303.527,-131.655 310.663,-139.486 313.989,-133.326"/>
</g>
<!-- Node14&#45;&gt;Node10 -->
<g id="edge22" class="edge"><title>Node14&#45;&gt;Node10</title>
<path fill="none" stroke="midnightblue" d="M399.041,-168.49C408.979,-160.379 422.622,-147.178 428.5,-132 441.877,-97.4559 430.392,-53.532 421.806,-29.239"/>
<polygon fill="midnightblue" stroke="midnightblue" points="424.963,-27.6895 418.165,-19.563 418.411,-30.1549 424.963,-27.6895"/>
</g>
</g>
</svg>
