<?xml version="1.0" encoding="UTF-8" standalone="no"?>
<!DOCTYPE svg PUBLIC "-//W3C//DTD SVG 1.1//EN"
 "http://www.w3.org/Graphics/SVG/1.1/DTD/svg11.dtd">
<!-- Generated by graphviz version 2.36.0 (20140111.2315)
 -->
<!-- Title: src/view/view.cpp Pages: 1 -->
<svg width="431pt" height="308pt"
 viewBox="0.00 0.00 431.00 308.00" xmlns="http://www.w3.org/2000/svg" xmlns:xlink="http://www.w3.org/1999/xlink">
<g id="graph0" class="graph" transform="scale(1 1) rotate(0) translate(4 304)">
<title>src/view/view.cpp</title>
<!-- Node1 -->
<g id="node1" class="node"><title>Node1</title>
<polygon fill="#bfbfbf" stroke="black" points="108.5,-280.5 108.5,-299.5 203.5,-299.5 203.5,-280.5 108.5,-280.5"/>
<text text-anchor="middle" x="156" y="-287.5" font-family="Helvetica,sans-Serif" font-size="10.00">src/view/view.cpp</text>
</g>
<!-- Node2 -->
<g id="node2" class="node"><title>Node2</title>
<polygon fill="none" stroke="#bfbfbf" points="106,-224.5 106,-243.5 146,-243.5 146,-224.5 106,-224.5"/>
<text text-anchor="middle" x="126" y="-231.5" font-family="Helvetica,sans-Serif" font-size="10.00">utility</text>
</g>
<!-- Node1&#45;&gt;Node2 -->
<g id="edge1" class="edge"><title>Node1&#45;&gt;Node2</title>
<path fill="none" stroke="midnightblue" d="M151.046,-280.083C146.896,-272.613 140.847,-261.724 135.733,-252.52"/>
<polygon fill="midnightblue" stroke="midnightblue" points="138.778,-250.793 130.862,-243.751 132.659,-254.192 138.778,-250.793"/>
</g>
<!-- Node3 -->
<g id="node3" class="node"><title>Node3</title>
<g id="a_node3"><a xlink:href="view_8h.html" target="_top" xlink:title="File with declaration of view (V from MVC). ">
<polygon fill="none" stroke="black" points="164.5,-224.5 164.5,-243.5 209.5,-243.5 209.5,-224.5 164.5,-224.5"/>
<text text-anchor="middle" x="187" y="-231.5" font-family="Helvetica,sans-Serif" font-size="10.00">view.h</text>
</a>
</g>
</g>
<!-- Node1&#45;&gt;Node3 -->
<g id="edge2" class="edge"><title>Node1&#45;&gt;Node3</title>
<path fill="none" stroke="midnightblue" d="M161.119,-280.083C165.408,-272.613 171.658,-261.724 176.942,-252.52"/>
<polygon fill="midnightblue" stroke="midnightblue" points="180.033,-254.166 181.976,-243.751 173.962,-250.681 180.033,-254.166"/>
</g>
<!-- Node4 -->
<g id="node4" class="node"><title>Node4</title>
<g id="a_node4"><a xlink:href="iview_8h.html" target="_top" xlink:title="File with interface of abstract view (V from MVC). ">
<polygon fill="none" stroke="black" points="20.5,-168.5 20.5,-187.5 67.5,-187.5 67.5,-168.5 20.5,-168.5"/>
<text text-anchor="middle" x="44" y="-175.5" font-family="Helvetica,sans-Serif" font-size="10.00">iview.h</text>
</a>
</g>
</g>
<!-- Node3&#45;&gt;Node4 -->
<g id="edge3" class="edge"><title>Node3&#45;&gt;Node4</title>
<path fill="none" stroke="midnightblue" d="M164.341,-224.444C140.598,-215.478 103.091,-201.314 76.2616,-191.183"/>
<polygon fill="midnightblue" stroke="midnightblue" points="77.1445,-187.775 66.5528,-187.516 74.6715,-194.324 77.1445,-187.775"/>
</g>
<!-- Node9 -->
<g id="node9" class="node"><title>Node9</title>
<g id="a_node9"><a xlink:href="view__elements_8h.html" target="_top" xlink:title="File with declaration of button and canvas classes. ">
<polygon fill="none" stroke="black" points="196,-168.5 196,-187.5 286,-187.5 286,-168.5 196,-168.5"/>
<text text-anchor="middle" x="241" y="-175.5" font-family="Helvetica,sans-Serif" font-size="10.00">view_elements.h</text>
</a>
</g>
</g>
<!-- Node3&#45;&gt;Node9 -->
<g id="edge10" class="edge"><title>Node3&#45;&gt;Node9</title>
<path fill="none" stroke="midnightblue" d="M195.917,-224.083C203.78,-216.22 215.431,-204.569 224.919,-195.081"/>
<polygon fill="midnightblue" stroke="midnightblue" points="227.653,-197.297 232.249,-187.751 222.703,-192.347 227.653,-197.297"/>
</g>
<!-- Node14 -->
<g id="node14" class="node"><title>Node14</title>
<g id="a_node14"><a xlink:href="imodel_8h.html" target="_top" xlink:title="File with interface of abstract model (from MVC). ">
<polygon fill="none" stroke="black" points="86,-168.5 86,-187.5 178,-187.5 178,-168.5 86,-168.5"/>
<text text-anchor="middle" x="132" y="-175.5" font-family="Helvetica,sans-Serif" font-size="10.00">../model/imodel.h</text>
</a>
</g>
</g>
<!-- Node3&#45;&gt;Node14 -->
<g id="edge17" class="edge"><title>Node3&#45;&gt;Node14</title>
<path fill="none" stroke="midnightblue" d="M177.918,-224.083C169.829,-216.141 157.805,-204.335 148.09,-194.797"/>
<polygon fill="midnightblue" stroke="midnightblue" points="150.501,-192.26 140.913,-187.751 145.597,-197.254 150.501,-192.26"/>
</g>
<!-- Node16 -->
<g id="node16" class="node"><title>Node16</title>
<g id="a_node16"><a xlink:href="icontroller_8h.html" target="_top" xlink:title="File with interface of abstract controller (from MVC). ">
<polygon fill="none" stroke="black" points="304.5,-168.5 304.5,-187.5 423.5,-187.5 423.5,-168.5 304.5,-168.5"/>
<text text-anchor="middle" x="364" y="-175.5" font-family="Helvetica,sans-Serif" font-size="10.00">../controller/icontroller.h</text>
</a>
</g>
</g>
<!-- Node3&#45;&gt;Node16 -->
<g id="edge21" class="edge"><title>Node3&#45;&gt;Node16</title>
<path fill="none" stroke="midnightblue" d="M209.777,-226.051C239.18,-217.081 290.757,-201.345 326.108,-190.56"/>
<polygon fill="midnightblue" stroke="midnightblue" points="327.522,-193.788 336.065,-187.522 325.479,-187.093 327.522,-193.788"/>
</g>
<!-- Node5 -->
<g id="node5" class="node"><title>Node5</title>
<g id="a_node5"><a xlink:href="observe_8h.html" target="_top" xlink:title="File with declaration of observer pattern &#45; Observer and Observable. ">
<polygon fill="none" stroke="black" points="-0.5,-112.5 -0.5,-131.5 88.5,-131.5 88.5,-112.5 -0.5,-112.5"/>
<text text-anchor="middle" x="44" y="-119.5" font-family="Helvetica,sans-Serif" font-size="10.00">../utils/observe.h</text>
</a>
</g>
</g>
<!-- Node4&#45;&gt;Node5 -->
<g id="edge4" class="edge"><title>Node4&#45;&gt;Node5</title>
<path fill="none" stroke="midnightblue" d="M44,-168.083C44,-161.006 44,-150.861 44,-141.986"/>
<polygon fill="midnightblue" stroke="midnightblue" points="47.5001,-141.751 44,-131.751 40.5001,-141.751 47.5001,-141.751"/>
</g>
<!-- Node6 -->
<g id="node6" class="node"><title>Node6</title>
<polygon fill="none" stroke="#bfbfbf" points="107.5,-0.5 107.5,-19.5 136.5,-19.5 136.5,-0.5 107.5,-0.5"/>
<text text-anchor="middle" x="122" y="-7.5" font-family="Helvetica,sans-Serif" font-size="10.00">list</text>
</g>
<!-- Node5&#45;&gt;Node6 -->
<g id="edge5" class="edge"><title>Node5&#45;&gt;Node6</title>
<path fill="none" stroke="midnightblue" d="M50.1205,-112.368C62.9928,-94.2153 93.068,-51.8015 109.952,-27.9902"/>
<polygon fill="midnightblue" stroke="midnightblue" points="112.979,-29.7733 115.908,-19.5914 107.269,-25.7243 112.979,-29.7733"/>
</g>
<!-- Node7 -->
<g id="node7" class="node"><title>Node7</title>
<polygon fill="none" stroke="#bfbfbf" points="22.5,-0.5 22.5,-19.5 81.5,-19.5 81.5,-0.5 22.5,-0.5"/>
<text text-anchor="middle" x="52" y="-7.5" font-family="Helvetica,sans-Serif" font-size="10.00">functional</text>
</g>
<!-- Node5&#45;&gt;Node7 -->
<g id="edge6" class="edge"><title>Node5&#45;&gt;Node7</title>
<path fill="none" stroke="midnightblue" d="M44.6277,-112.368C45.9188,-94.617 48.897,-53.6664 50.6475,-29.5974"/>
<polygon fill="midnightblue" stroke="midnightblue" points="54.1405,-29.819 51.3752,-19.5914 47.1589,-29.3112 54.1405,-29.819"/>
</g>
<!-- Node8 -->
<g id="node8" class="node"><title>Node8</title>
<g id="a_node8"><a xlink:href="onclick_8h.html" target="_top" xlink:title="File with declaration of observer pattern classes. Two pairs of publishers and subscribers: OnClickLi...">
<polygon fill="none" stroke="black" points="110,-56.5 110,-75.5 166,-75.5 166,-56.5 110,-56.5"/>
<text text-anchor="middle" x="138" y="-63.5" font-family="Helvetica,sans-Serif" font-size="10.00">onclick.h</text>
</a>
</g>
</g>
<!-- Node5&#45;&gt;Node8 -->
<g id="edge7" class="edge"><title>Node5&#45;&gt;Node8</title>
<path fill="none" stroke="midnightblue" d="M59.1027,-112.324C73.9033,-103.822 96.6942,-90.7288 113.982,-80.7975"/>
<polygon fill="midnightblue" stroke="midnightblue" points="116.007,-83.6707 122.935,-75.6545 112.52,-77.6009 116.007,-83.6707"/>
</g>
<!-- Node8&#45;&gt;Node6 -->
<g id="edge8" class="edge"><title>Node8&#45;&gt;Node6</title>
<path fill="none" stroke="midnightblue" d="M135.358,-56.083C133.214,-48.8486 130.121,-38.4087 127.451,-29.3968"/>
<polygon fill="midnightblue" stroke="midnightblue" points="130.79,-28.3447 124.593,-19.7511 124.078,-30.3334 130.79,-28.3447"/>
</g>
<!-- Node8&#45;&gt;Node7 -->
<g id="edge9" class="edge"><title>Node8&#45;&gt;Node7</title>
<path fill="none" stroke="midnightblue" d="M124.183,-56.324C110.767,-47.9002 90.1759,-34.9709 74.4144,-25.0741"/>
<polygon fill="midnightblue" stroke="midnightblue" points="76.1132,-22.0081 65.7831,-19.6545 72.3908,-27.9364 76.1132,-22.0081"/>
</g>
<!-- Node9&#45;&gt;Node8 -->
<g id="edge11" class="edge"><title>Node9&#45;&gt;Node8</title>
<path fill="none" stroke="midnightblue" d="M232.918,-168.368C215.694,-149.974 175.147,-106.671 153.03,-83.0519"/>
<polygon fill="midnightblue" stroke="midnightblue" points="155.435,-80.4987 146.045,-75.5914 150.325,-85.2832 155.435,-80.4987"/>
</g>
<!-- Node10 -->
<g id="node10" class="node"><title>Node10</title>
<g id="a_node10"><a xlink:href="geometry__elements_8h.html" target="_top" xlink:title="File with declaration of geometry element classes. ">
<polygon fill="none" stroke="black" points="215,-112.5 215,-131.5 325,-131.5 325,-112.5 215,-112.5"/>
<text text-anchor="middle" x="270" y="-119.5" font-family="Helvetica,sans-Serif" font-size="10.00">geometry_elements.h</text>
</a>
</g>
</g>
<!-- Node9&#45;&gt;Node10 -->
<g id="edge12" class="edge"><title>Node9&#45;&gt;Node10</title>
<path fill="none" stroke="midnightblue" d="M245.789,-168.083C249.758,-160.691 255.525,-149.953 260.435,-140.811"/>
<polygon fill="midnightblue" stroke="midnightblue" points="263.653,-142.217 265.3,-131.751 257.486,-138.905 263.653,-142.217"/>
</g>
<!-- Node12 -->
<g id="node12" class="node"><title>Node12</title>
<polygon fill="none" stroke="#bfbfbf" points="370.5,-0.5 370.5,-19.5 411.5,-19.5 411.5,-0.5 370.5,-0.5"/>
<text text-anchor="middle" x="391" y="-7.5" font-family="Helvetica,sans-Serif" font-size="10.00">string</text>
</g>
<!-- Node9&#45;&gt;Node12 -->
<g id="edge16" class="edge"><title>Node9&#45;&gt;Node12</title>
<path fill="none" stroke="midnightblue" d="M267.605,-168.394C287.474,-161.015 314.457,-148.888 334,-132 365.516,-104.766 380.851,-56.2912 387.208,-29.7122"/>
<polygon fill="midnightblue" stroke="midnightblue" points="390.661,-30.3076 389.403,-19.7876 383.826,-28.7955 390.661,-30.3076"/>
</g>
<!-- Node11 -->
<g id="node11" class="node"><title>Node11</title>
<g id="a_node11"><a xlink:href="logger_8h.html" target="_top" xlink:title="File with simple logger class declaration. ">
<polygon fill="none" stroke="black" points="189.5,-56.5 189.5,-75.5 270.5,-75.5 270.5,-56.5 189.5,-56.5"/>
<text text-anchor="middle" x="230" y="-63.5" font-family="Helvetica,sans-Serif" font-size="10.00">../utils/logger.h</text>
</a>
</g>
</g>
<!-- Node10&#45;&gt;Node11 -->
<g id="edge13" class="edge"><title>Node10&#45;&gt;Node11</title>
<path fill="none" stroke="midnightblue" d="M263.395,-112.083C257.745,-104.455 249.455,-93.2645 242.549,-83.9408"/>
<polygon fill="midnightblue" stroke="midnightblue" points="245.247,-81.7034 236.482,-75.7511 239.622,-85.87 245.247,-81.7034"/>
</g>
<!-- Node13 -->
<g id="node13" class="node"><title>Node13</title>
<g id="a_node13"><a xlink:href="tags_8h.html" target="_top" xlink:title="File with declaration of some tool and color tags. Used as color and tool mode flag in model (M from ...">
<polygon fill="none" stroke="black" points="289,-56.5 289,-75.5 363,-75.5 363,-56.5 289,-56.5"/>
<text text-anchor="middle" x="326" y="-63.5" font-family="Helvetica,sans-Serif" font-size="10.00">../utils/tags.h</text>
</a>
</g>
</g>
<!-- Node10&#45;&gt;Node13 -->
<g id="edge15" class="edge"><title>Node10&#45;&gt;Node13</title>
<path fill="none" stroke="midnightblue" d="M278.997,-112.324C287.194,-104.42 299.506,-92.5482 309.472,-82.9377"/>
<polygon fill="midnightblue" stroke="midnightblue" points="312.07,-85.2947 316.839,-75.8339 307.211,-80.2558 312.07,-85.2947"/>
</g>
<!-- Node11&#45;&gt;Node12 -->
<g id="edge14" class="edge"><title>Node11&#45;&gt;Node12</title>
<path fill="none" stroke="midnightblue" d="M255.511,-56.4435C284.03,-46.8782 330.187,-31.3969 360.567,-21.2075"/>
<polygon fill="midnightblue" stroke="midnightblue" points="361.848,-24.4693 370.216,-17.971 359.622,-17.8327 361.848,-24.4693"/>
</g>
<!-- Node14&#45;&gt;Node5 -->
<g id="edge19" class="edge"><title>Node14&#45;&gt;Node5</title>
<path fill="none" stroke="midnightblue" d="M117.861,-168.324C104.134,-159.9 83.0637,-146.971 66.9357,-137.074"/>
<polygon fill="midnightblue" stroke="midnightblue" points="68.4574,-133.902 58.1036,-131.655 64.7963,-139.868 68.4574,-133.902"/>
</g>
<!-- Node14&#45;&gt;Node10 -->
<g id="edge18" class="edge"><title>Node14&#45;&gt;Node10</title>
<path fill="none" stroke="midnightblue" d="M153.867,-168.444C176.779,-159.478 212.975,-145.314 238.866,-135.183"/>
<polygon fill="midnightblue" stroke="midnightblue" points="240.199,-138.42 248.236,-131.516 237.648,-131.901 240.199,-138.42"/>
</g>
<!-- Node15 -->
<g id="node15" class="node"><title>Node15</title>
<polygon fill="none" stroke="#bfbfbf" points="107,-112.5 107,-131.5 159,-131.5 159,-112.5 107,-112.5"/>
<text text-anchor="middle" x="133" y="-119.5" font-family="Helvetica,sans-Serif" font-size="10.00">memory</text>
</g>
<!-- Node14&#45;&gt;Node15 -->
<g id="edge20" class="edge"><title>Node14&#45;&gt;Node15</title>
<path fill="none" stroke="midnightblue" d="M132.165,-168.083C132.296,-161.006 132.484,-150.861 132.648,-141.986"/>
<polygon fill="midnightblue" stroke="midnightblue" points="136.152,-141.814 132.838,-131.751 129.153,-141.685 136.152,-141.814"/>
</g>
<!-- Node16&#45;&gt;Node8 -->
<g id="edge23" class="edge"><title>Node16&#45;&gt;Node8</title>
<path fill="none" stroke="midnightblue" d="M362.523,-168.347C359.651,-154.282 351.946,-126.573 334,-112 330.906,-109.488 232.472,-87.6572 176.305,-75.3506"/>
<polygon fill="midnightblue" stroke="midnightblue" points="176.859,-71.8891 166.342,-73.1703 175.363,-78.7273 176.859,-71.8891"/>
</g>
<!-- Node16&#45;&gt;Node10 -->
<g id="edge22" class="edge"><title>Node16&#45;&gt;Node10</title>
<path fill="none" stroke="midnightblue" d="M348.897,-168.324C334.097,-159.822 311.306,-146.729 294.018,-136.797"/>
<polygon fill="midnightblue" stroke="midnightblue" points="295.48,-133.601 285.065,-131.655 291.993,-139.671 295.48,-133.601"/>
</g>
<!-- Node16&#45;&gt;Node12 -->
<g id="edge24" class="edge"><title>Node16&#45;&gt;Node12</title>
<path fill="none" stroke="midnightblue" d="M375.541,-168.49C385.479,-160.379 399.122,-147.178 405,-132 418.377,-97.4559 406.892,-53.532 398.306,-29.239"/>
<polygon fill="midnightblue" stroke="midnightblue" points="401.463,-27.6895 394.665,-19.563 394.911,-30.1549 401.463,-27.6895"/>
</g>
</g>
</svg>
