<?xml version="1.0" encoding="UTF-8" standalone="no"?>
<!DOCTYPE svg PUBLIC "-//W3C//DTD SVG 1.1//EN"
 "http://www.w3.org/Graphics/SVG/1.1/DTD/svg11.dtd">
<!-- Generated by graphviz version 2.38.0 (20140413.2041)
 -->
<!-- Title: src/view/view_elements.h Pages: 1 -->
<svg width="332pt" height="196pt"
 viewBox="0.00 0.00 331.51 196.00" xmlns="http://www.w3.org/2000/svg" xmlns:xlink="http://www.w3.org/1999/xlink">
<g id="graph0" class="graph" transform="scale(1 1) rotate(0) translate(4 192)">
<title>src/view/view_elements.h</title>
<!-- Node1 -->
<g id="node1" class="node"><title>Node1</title>
<polygon fill="#bfbfbf" stroke="black" points="158.5,-168.5 158.5,-187.5 295.5,-187.5 295.5,-168.5 158.5,-168.5"/>
<text text-anchor="middle" x="227" y="-175.5" font-family="Helvetica,sans-Serif" font-size="10.00">src/view/view_elements.h</text>
</g>
<!-- Node2 -->
<g id="node2" class="node"><title>Node2</title>
<g id="a_node2"><a xlink:href="onclick_8h.html" target="_top" xlink:title="File with declaration of observer pattern classes. Two pairs of publishers and subscribers: OnClickLi...">
<polygon fill="none" stroke="black" points="35.5,-112.5 35.5,-131.5 124.5,-131.5 124.5,-112.5 35.5,-112.5"/>
<text text-anchor="middle" x="80" y="-119.5" font-family="Helvetica,sans-Serif" font-size="10.00">../utils/onclick.h</text>
</a>
</g>
</g>
<!-- Node1&#45;&gt;Node2 -->
<g id="edge1" class="edge"><title>Node1&#45;&gt;Node2</title>
<path fill="none" stroke="midnightblue" d="M203.707,-168.444C179.193,-159.438 140.404,-145.189 112.8,-135.049"/>
<polygon fill="midnightblue" stroke="midnightblue" points="113.777,-131.679 103.184,-131.516 111.363,-138.25 113.777,-131.679"/>
</g>
<!-- Node5 -->
<g id="node5" class="node"><title>Node5</title>
<g id="a_node5"><a xlink:href="geometry__elements_8h.html" target="_top" xlink:title="File with declaration of geometry element classes. ">
<polygon fill="none" stroke="black" points="166,-112.5 166,-131.5 288,-131.5 288,-112.5 166,-112.5"/>
<text text-anchor="middle" x="227" y="-119.5" font-family="Helvetica,sans-Serif" font-size="10.00">geometry_elements.h</text>
</a>
</g>
</g>
<!-- Node1&#45;&gt;Node5 -->
<g id="edge4" class="edge"><title>Node1&#45;&gt;Node5</title>
<path fill="none" stroke="midnightblue" d="M227,-168.083C227,-161.006 227,-150.861 227,-141.986"/>
<polygon fill="midnightblue" stroke="midnightblue" points="230.5,-141.751 227,-131.751 223.5,-141.751 230.5,-141.751"/>
</g>
<!-- Node7 -->
<g id="node7" class="node"><title>Node7</title>
<polygon fill="none" stroke="#bfbfbf" points="234,-0.5 234,-19.5 278,-19.5 278,-0.5 234,-0.5"/>
<text text-anchor="middle" x="256" y="-7.5" font-family="Helvetica,sans-Serif" font-size="10.00">string</text>
</g>
<!-- Node1&#45;&gt;Node7 -->
<g id="edge8" class="edge"><title>Node1&#45;&gt;Node7</title>
<path fill="none" stroke="midnightblue" d="M246.49,-168.446C261.952,-160.814 283.19,-148.324 297,-132 314.489,-111.327 315.555,-102.525 321,-76 322.787,-67.2926 325.125,-63.8736 321,-56 313.721,-42.1082 299.991,-31.6523 287.017,-24.3328"/>
<polygon fill="midnightblue" stroke="midnightblue" points="288.296,-21.0532 277.808,-19.553 285.072,-27.2662 288.296,-21.0532"/>
</g>
<!-- Node3 -->
<g id="node3" class="node"><title>Node3</title>
<polygon fill="none" stroke="#bfbfbf" points="0,-56.5 0,-75.5 30,-75.5 30,-56.5 0,-56.5"/>
<text text-anchor="middle" x="15" y="-63.5" font-family="Helvetica,sans-Serif" font-size="10.00">list</text>
</g>
<!-- Node2&#45;&gt;Node3 -->
<g id="edge2" class="edge"><title>Node2&#45;&gt;Node3</title>
<path fill="none" stroke="midnightblue" d="M69.5566,-112.324C59.8538,-104.263 45.1847,-92.0765 33.5003,-82.3695"/>
<polygon fill="midnightblue" stroke="midnightblue" points="35.5619,-79.532 25.6334,-75.8339 31.0887,-84.9163 35.5619,-79.532"/>
</g>
<!-- Node4 -->
<g id="node4" class="node"><title>Node4</title>
<polygon fill="none" stroke="#bfbfbf" points="48.5,-56.5 48.5,-75.5 111.5,-75.5 111.5,-56.5 48.5,-56.5"/>
<text text-anchor="middle" x="80" y="-63.5" font-family="Helvetica,sans-Serif" font-size="10.00">functional</text>
</g>
<!-- Node2&#45;&gt;Node4 -->
<g id="edge3" class="edge"><title>Node2&#45;&gt;Node4</title>
<path fill="none" stroke="midnightblue" d="M80,-112.083C80,-105.006 80,-94.8611 80,-85.9865"/>
<polygon fill="midnightblue" stroke="midnightblue" points="83.5001,-85.751 80,-75.7511 76.5001,-85.7511 83.5001,-85.751"/>
</g>
<!-- Node6 -->
<g id="node6" class="node"><title>Node6</title>
<g id="a_node6"><a xlink:href="logger_8h.html" target="_top" xlink:title="File with simple logger class declaration. ">
<polygon fill="none" stroke="black" points="130,-56.5 130,-75.5 216,-75.5 216,-56.5 130,-56.5"/>
<text text-anchor="middle" x="173" y="-63.5" font-family="Helvetica,sans-Serif" font-size="10.00">../utils/logger.h</text>
</a>
</g>
</g>
<!-- Node5&#45;&gt;Node6 -->
<g id="edge5" class="edge"><title>Node5&#45;&gt;Node6</title>
<path fill="none" stroke="midnightblue" d="M218.083,-112.083C210.22,-104.22 198.569,-92.5688 189.081,-83.0813"/>
<polygon fill="midnightblue" stroke="midnightblue" points="191.297,-80.3473 181.751,-75.7511 186.347,-85.2971 191.297,-80.3473"/>
</g>
<!-- Node8 -->
<g id="node8" class="node"><title>Node8</title>
<g id="a_node8"><a xlink:href="tags_8h.html" target="_top" xlink:title="File with declaration of some tool and color tags. Used as color and tool mode flag in model (M from ...">
<polygon fill="none" stroke="black" points="234,-56.5 234,-75.5 312,-75.5 312,-56.5 234,-56.5"/>
<text text-anchor="middle" x="273" y="-63.5" font-family="Helvetica,sans-Serif" font-size="10.00">../utils/tags.h</text>
</a>
</g>
</g>
<!-- Node5&#45;&gt;Node8 -->
<g id="edge7" class="edge"><title>Node5&#45;&gt;Node8</title>
<path fill="none" stroke="midnightblue" d="M234.596,-112.083C241.227,-104.298 251.021,-92.8015 259.058,-83.3665"/>
<polygon fill="midnightblue" stroke="midnightblue" points="261.725,-85.6332 265.545,-75.7511 256.396,-81.0939 261.725,-85.6332"/>
</g>
<!-- Node6&#45;&gt;Node7 -->
<g id="edge6" class="edge"><title>Node6&#45;&gt;Node7</title>
<path fill="none" stroke="midnightblue" d="M186.335,-56.324C199.162,-47.979 218.785,-35.2122 233.94,-25.3524"/>
<polygon fill="midnightblue" stroke="midnightblue" points="236.224,-28.0417 242.698,-19.6545 232.407,-22.1742 236.224,-28.0417"/>
</g>
</g>
</svg>
