<?xml version="1.0" encoding="UTF-8" standalone="no"?>
<!DOCTYPE svg PUBLIC "-//W3C//DTD SVG 1.1//EN"
 "http://www.w3.org/Graphics/SVG/1.1/DTD/svg11.dtd">
<!-- Generated by graphviz version 2.36.0 (20140111.2315)
 -->
<!-- Title: src/view/view_elements.h Pages: 1 -->
<svg width="316pt" height="196pt"
 viewBox="0.00 0.00 316.48 196.00" xmlns="http://www.w3.org/2000/svg" xmlns:xlink="http://www.w3.org/1999/xlink">
<g id="graph0" class="graph" transform="scale(1 1) rotate(0) translate(4 192)">
<title>src/view/view_elements.h</title>
<!-- Node1 -->
<g id="node1" class="node"><title>Node1</title>
<polygon fill="#bfbfbf" stroke="black" points="152,-168.5 152,-187.5 282,-187.5 282,-168.5 152,-168.5"/>
<text text-anchor="middle" x="217" y="-175.5" font-family="Helvetica,sans-Serif" font-size="10.00">src/view/view_elements.h</text>
</g>
<!-- Node2 -->
<g id="node2" class="node"><title>Node2</title>
<g id="a_node2"><a xlink:href="onclick_8h.html" target="_top" xlink:title="File with declaration of observer pattern classes. Two pairs of publishers and subscribers: OnClickLi...">
<polygon fill="none" stroke="black" points="33,-112.5 33,-131.5 119,-131.5 119,-112.5 33,-112.5"/>
<text text-anchor="middle" x="76" y="-119.5" font-family="Helvetica,sans-Serif" font-size="10.00">../utils/onclick.h</text>
</a>
</g>
</g>
<!-- Node1&#45;&gt;Node2 -->
<g id="edge1" class="edge"><title>Node1&#45;&gt;Node2</title>
<path fill="none" stroke="midnightblue" d="M194.658,-168.444C171.247,-159.478 134.264,-145.314 107.81,-135.183"/>
<polygon fill="midnightblue" stroke="midnightblue" points="108.828,-131.824 98.2373,-131.516 106.324,-138.361 108.828,-131.824"/>
</g>
<!-- Node5 -->
<g id="node5" class="node"><title>Node5</title>
<g id="a_node5"><a xlink:href="geometry__elements_8h.html" target="_top" xlink:title="File with declaration of geometry element classes. ">
<polygon fill="none" stroke="black" points="162,-112.5 162,-131.5 272,-131.5 272,-112.5 162,-112.5"/>
<text text-anchor="middle" x="217" y="-119.5" font-family="Helvetica,sans-Serif" font-size="10.00">geometry_elements.h</text>
</a>
</g>
</g>
<!-- Node1&#45;&gt;Node5 -->
<g id="edge4" class="edge"><title>Node1&#45;&gt;Node5</title>
<path fill="none" stroke="midnightblue" d="M217,-168.083C217,-161.006 217,-150.861 217,-141.986"/>
<polygon fill="midnightblue" stroke="midnightblue" points="220.5,-141.751 217,-131.751 213.5,-141.751 220.5,-141.751"/>
</g>
<!-- Node7 -->
<g id="node7" class="node"><title>Node7</title>
<polygon fill="none" stroke="#bfbfbf" points="223.5,-0.5 223.5,-19.5 264.5,-19.5 264.5,-0.5 223.5,-0.5"/>
<text text-anchor="middle" x="244" y="-7.5" font-family="Helvetica,sans-Serif" font-size="10.00">string</text>
</g>
<!-- Node1&#45;&gt;Node7 -->
<g id="edge8" class="edge"><title>Node1&#45;&gt;Node7</title>
<path fill="none" stroke="midnightblue" d="M233.888,-168.489C248.038,-160.644 267.962,-147.832 281,-132 298.327,-110.96 300.32,-102.658 306,-76 307.852,-67.3063 310.037,-63.9191 306,-56 299,-42.2698 285.634,-31.7496 273.1,-24.3465"/>
<polygon fill="midnightblue" stroke="midnightblue" points="274.678,-21.2204 264.223,-19.5055 271.326,-27.366 274.678,-21.2204"/>
</g>
<!-- Node3 -->
<g id="node3" class="node"><title>Node3</title>
<polygon fill="none" stroke="#bfbfbf" points="-0.5,-56.5 -0.5,-75.5 28.5,-75.5 28.5,-56.5 -0.5,-56.5"/>
<text text-anchor="middle" x="14" y="-63.5" font-family="Helvetica,sans-Serif" font-size="10.00">list</text>
</g>
<!-- Node2&#45;&gt;Node3 -->
<g id="edge2" class="edge"><title>Node2&#45;&gt;Node3</title>
<path fill="none" stroke="midnightblue" d="M66.0386,-112.324C56.8734,-104.341 43.0628,-92.3128 31.9718,-82.6529"/>
<polygon fill="midnightblue" stroke="midnightblue" points="33.9822,-79.7624 24.1426,-75.8339 29.3847,-85.041 33.9822,-79.7624"/>
</g>
<!-- Node4 -->
<g id="node4" class="node"><title>Node4</title>
<polygon fill="none" stroke="#bfbfbf" points="46.5,-56.5 46.5,-75.5 105.5,-75.5 105.5,-56.5 46.5,-56.5"/>
<text text-anchor="middle" x="76" y="-63.5" font-family="Helvetica,sans-Serif" font-size="10.00">functional</text>
</g>
<!-- Node2&#45;&gt;Node4 -->
<g id="edge3" class="edge"><title>Node2&#45;&gt;Node4</title>
<path fill="none" stroke="midnightblue" d="M76,-112.083C76,-105.006 76,-94.8611 76,-85.9865"/>
<polygon fill="midnightblue" stroke="midnightblue" points="79.5001,-85.751 76,-75.7511 72.5001,-85.7511 79.5001,-85.751"/>
</g>
<!-- Node6 -->
<g id="node6" class="node"><title>Node6</title>
<g id="a_node6"><a xlink:href="logger_8h.html" target="_top" xlink:title="File with simple logger class declaration. ">
<polygon fill="none" stroke="black" points="123.5,-56.5 123.5,-75.5 204.5,-75.5 204.5,-56.5 123.5,-56.5"/>
<text text-anchor="middle" x="164" y="-63.5" font-family="Helvetica,sans-Serif" font-size="10.00">../utils/logger.h</text>
</a>
</g>
</g>
<!-- Node5&#45;&gt;Node6 -->
<g id="edge5" class="edge"><title>Node5&#45;&gt;Node6</title>
<path fill="none" stroke="midnightblue" d="M208.248,-112.083C200.53,-104.22 189.095,-92.5688 179.783,-83.0813"/>
<polygon fill="midnightblue" stroke="midnightblue" points="182.092,-80.4363 172.589,-75.7511 177.096,-85.3396 182.092,-80.4363"/>
</g>
<!-- Node8 -->
<g id="node8" class="node"><title>Node8</title>
<g id="a_node8"><a xlink:href="tags_8h.html" target="_top" xlink:title="File with declaration of some tool and color tags. Used as color and tool mode flag in model (M from ...">
<polygon fill="none" stroke="black" points="223,-56.5 223,-75.5 297,-75.5 297,-56.5 223,-56.5"/>
<text text-anchor="middle" x="260" y="-63.5" font-family="Helvetica,sans-Serif" font-size="10.00">../utils/tags.h</text>
</a>
</g>
</g>
<!-- Node5&#45;&gt;Node8 -->
<g id="edge7" class="edge"><title>Node5&#45;&gt;Node8</title>
<path fill="none" stroke="midnightblue" d="M224.101,-112.083C230.237,-104.377 239.27,-93.0333 246.739,-83.6531"/>
<polygon fill="midnightblue" stroke="midnightblue" points="249.54,-85.7542 253.032,-75.7511 244.064,-81.3936 249.54,-85.7542"/>
</g>
<!-- Node6&#45;&gt;Node7 -->
<g id="edge6" class="edge"><title>Node6&#45;&gt;Node7</title>
<path fill="none" stroke="midnightblue" d="M176.853,-56.324C189.216,-47.979 208.13,-35.2122 222.737,-25.3524"/>
<polygon fill="midnightblue" stroke="midnightblue" points="224.848,-28.1503 231.179,-19.6545 220.932,-22.3483 224.848,-28.1503"/>
</g>
</g>
</svg>
